<svg version="1.1" viewBox="0.0 0.0 600.0 371.0" fill="none" stroke="none" stroke-linecap="square" stroke-miterlimit="10" width="600" height="371" xmlns:xlink="http://www.w3.org/1999/xlink" xmlns="http://www.w3.org/2000/svg"><path fill="#ffffff" d="M0 0L600.0 0L600.0 371.0L0 371.0L0 0Z" fill-rule="nonzero"/><path fill="#ffffff" d="M0 0L600.0 0L600.0 371.0L0 371.0L0 0Z" fill-rule="nonzero"/><path stroke="#333333" stroke-width="1.0" stroke-linecap="butt" d="M18.5 46.5L18.5 274.5" fill-rule="nonzero"/><path stroke="#cccccc" stroke-width="1.0" stroke-linecap="butt" d="M131.5 46.5L131.5 274.5" fill-rule="nonzero"/><path stroke="#cccccc" stroke-width="1.0" stroke-linecap="butt" d="M243.5 46.5L243.5 274.5" fill-rule="nonzero"/><path stroke="#cccccc" stroke-width="1.0" stroke-linecap="butt" d="M356.5 46.5L356.5 274.5" fill-rule="nonzero"/><path stroke="#cccccc" stroke-width="1.0" stroke-linecap="butt" d="M468.5 46.5L468.5 274.5" fill-rule="nonzero"/><path stroke="#cccccc" stroke-width="1.0" stroke-linecap="butt" d="M581.5 46.5L581.5 274.5" fill-rule="nonzero"/><clipPath id="id_0"><path d="M18.55 46.916668L581.45 46.916668L581.45 274.08334L18.55 274.08334L18.55 46.916668Z" clip-rule="nonzero"/></clipPath><path stroke="#000000" stroke-width="0.0" stroke-linecap="butt" stroke-opacity="0.0" clip-path="url(#id_0)" d="M19.0 216.0L19.0 107.0L58.0 107.0L58.0 216.0Z" fill-rule="nonzero"/><path fill="#a61c00" clip-path="url(#id_0)" d="M19.0 216.0L19.0 107.0L58.0 107.0L58.0 216.0Z" fill-rule="nonzero"/><path stroke="#000000" stroke-width="0.0" stroke-linecap="butt" stroke-opacity="0.0" clip-path="url(#id_0)" d="M58.0 216.0L58.0 107.0L199.0 107.0L199.0 216.0Z" fill-rule="nonzero"/><path fill="#f1c232" clip-path="url(#id_0)" d="M58.0 216.0L58.0 107.0L199.0 107.0L199.0 216.0Z" fill-rule="nonzero"/><path stroke="#000000" stroke-width="0.0" stroke-linecap="butt" stroke-opacity="0.0" clip-path="url(#id_0)" d="M199.0 216.0L199.0 107.0L579.0 107.0C580.10455 107.0 581.0 107.89543 581.0 109.0L581.0 214.0C581.0 215.10457 580.10455 216.0 579.0 216.0Z" fill-rule="nonzero"/><path fill="#6aa84f" clip-path="url(#id_0)" d="M199.0 216.0L199.0 107.0L579.0 107.0C580.10455 107.0 581.0 107.89543 581.0 109.0L581.0 214.0C581.0 215.10457 580.10455 216.0 579.0 216.0Z" fill-rule="nonzero"/><path stroke="#a61c00" stroke-width="3.0" stroke-linejoin="round" stroke-linecap="round" d="M27.517124 156.54688L27.517124 155.1875L34.923374 155.1875L34.923374 156.28125Q33.829624 157.45312 32.7515 159.39062Q31.689 161.3125 31.09525 163.34375Q30.673374 164.78125 30.564 166.5L29.110874 166.5Q29.142124 165.14062 29.642124 163.23438Q30.15775 161.3125 31.09525 159.54688Q32.048374 157.76562 33.1265 156.54688L27.517124 156.54688ZM36.689 157.79688Q36.689 156.5625 37.298374 155.70312Q37.923374 154.84375 39.09525 154.84375Q40.173374 154.84375 40.8765 155.625Q41.579624 156.39062 41.579624 157.875Q41.579624 159.32812 40.860874 160.125Q40.15775 160.90625 39.110874 160.90625Q38.064 160.90625 37.3765 160.14062Q36.689 159.35938 36.689 157.79688ZM39.1265 155.8125Q38.610874 155.8125 38.2515 156.26562Q37.90775 156.71875 37.90775 157.9375Q37.90775 159.03125 38.2515 159.48438Q38.610874 159.9375 39.1265 159.9375Q39.65775 159.9375 40.0015 159.48438Q40.360874 159.03125 40.360874 157.82812Q40.360874 156.71875 40.0015 156.26562Q39.65775 155.8125 39.1265 155.8125ZM39.142124 166.92188L45.40775 154.84375L46.548374 154.84375L40.298374 166.92188L39.142124 166.92188ZM44.09525 163.8125Q44.09525 162.57812 44.704624 161.71875Q45.329624 160.85938 46.5015 160.85938Q47.579624 160.85938 48.28275 161.64062Q49.0015 162.40625 49.0015 163.89062Q49.0015 165.34375 48.28275 166.14062Q47.564 166.92188 46.517124 166.92188Q45.47025 166.92188 44.78275 166.14062Q44.09525 165.35938 44.09525 163.8125ZM46.548374 161.82812Q46.017124 161.82812 45.65775 162.28125Q45.314 162.73438 45.314 163.95312Q45.314 165.04688 45.65775 165.5Q46.017124 165.95312 46.53275 165.95312Q47.079624 165.95312 47.423374 165.5Q47.767124 165.04688 47.767124 163.84375Q47.767124 162.73438 47.40775 162.28125Q47.064 161.82812 46.548374 161.82812Z" fill-rule="nonzero"/><path fill="#f3f3f3" d="M27.517124 156.54688L27.517124 155.1875L34.923374 155.1875L34.923374 156.28125Q33.829624 157.45312 32.7515 159.39062Q31.689 161.3125 31.09525 163.34375Q30.673374 164.78125 30.564 166.5L29.110874 166.5Q29.142124 165.14062 29.642124 163.23438Q30.15775 161.3125 31.09525 159.54688Q32.048374 157.76562 33.1265 156.54688L27.517124 156.54688ZM36.689 157.79688Q36.689 156.5625 37.298374 155.70312Q37.923374 154.84375 39.09525 154.84375Q40.173374 154.84375 40.8765 155.625Q41.579624 156.39062 41.579624 157.875Q41.579624 159.32812 40.860874 160.125Q40.15775 160.90625 39.110874 160.90625Q38.064 160.90625 37.3765 160.14062Q36.689 159.35938 36.689 157.79688ZM39.1265 155.8125Q38.610874 155.8125 38.2515 156.26562Q37.90775 156.71875 37.90775 157.9375Q37.90775 159.03125 38.2515 159.48438Q38.610874 159.9375 39.1265 159.9375Q39.65775 159.9375 40.0015 159.48438Q40.360874 159.03125 40.360874 157.82812Q40.360874 156.71875 40.0015 156.26562Q39.65775 155.8125 39.1265 155.8125ZM39.142124 166.92188L45.40775 154.84375L46.548374 154.84375L40.298374 166.92188L39.142124 166.92188ZM44.09525 163.8125Q44.09525 162.57812 44.704624 161.71875Q45.329624 160.85938 46.5015 160.85938Q47.579624 160.85938 48.28275 161.64062Q49.0015 162.40625 49.0015 163.89062Q49.0015 165.34375 48.28275 166.14062Q47.564 166.92188 46.517124 166.92188Q45.47025 166.92188 44.78275 166.14062Q44.09525 165.35938 44.09525 163.8125ZM46.548374 161.82812Q46.017124 161.82812 45.65775 162.28125Q45.314 162.73438 45.314 163.95312Q45.314 165.04688 45.65775 165.5Q46.017124 165.95312 46.53275 165.95312Q47.079624 165.95312 47.423374 165.5Q47.767124 165.04688 47.767124 163.84375Q47.767124 162.73438 47.40775 162.28125Q47.064 161.82812 46.548374 161.82812Z" fill-rule="nonzero"/><path fill="#f3f3f3" d="M120.378 165.14062L120.378 166.5L112.79987 166.5Q112.78425 165.98438 112.97175 165.51562Q113.253 164.75 113.89362 164.0Q114.53425 163.25 115.73737 162.26562Q117.59675 160.73438 118.253 159.84375Q118.90925 158.9375 118.90925 158.14062Q118.90925 157.3125 118.3155 156.73438Q117.72175 156.15625 116.753 156.15625Q115.73737 156.15625 115.128 156.76562Q114.51862 157.375 114.51862 158.45312L113.0655 158.3125Q113.22175 156.6875 114.1905 155.84375Q115.15925 155.0 116.78425 155.0Q118.4405 155.0 119.39362 155.92188Q120.36237 156.82812 120.36237 158.17188Q120.36237 158.85938 120.08112 159.53125Q119.79987 160.1875 119.14362 160.92188Q118.48737 161.65625 116.97175 162.9375Q115.70612 164.0 115.34675 164.39062Q114.98737 164.76562 114.753 165.14062L120.378 165.14062ZM121.98737 163.5L123.45612 163.375Q123.628 164.45312 124.22175 165.0Q124.8155 165.53125 125.65925 165.53125Q126.67487 165.53125 127.378 164.76562Q128.08112 164.0 128.08112 162.73438Q128.08112 161.53125 127.40925 160.84375Q126.73737 160.14062 125.64362 160.14062Q124.95612 160.14062 124.40925 160.45312Q123.86237 160.76562 123.54987 161.25L122.23737 161.07812L123.34675 155.20312L129.03424 155.20312L129.03424 156.54688L124.47175 156.54688L123.84675 159.625Q124.878 158.90625 126.01862 158.90625Q127.51862 158.90625 128.54987 159.95312Q129.58112 160.98438 129.58112 162.60938Q129.58112 164.17188 128.67487 165.29688Q127.5655 166.70312 125.65925 166.70312Q124.09675 166.70312 123.11237 165.82812Q122.128 164.9375 121.98737 163.5ZM131.25299 157.79688Q131.25299 156.5625 131.86237 155.70312Q132.48737 154.84375 133.65924 154.84375Q134.73737 154.84375 135.44049 155.625Q136.14362 156.39062 136.14362 157.875Q136.14362 159.32812 135.42487 160.125Q134.72174 160.90625 133.67487 160.90625Q132.62799 160.90625 131.94049 160.14062Q131.25299 159.35938 131.25299 157.79688ZM133.69049 155.8125Q133.17487 155.8125 132.81549 156.26562Q132.47174 156.71875 132.47174 157.9375Q132.47174 159.03125 132.81549 159.48438Q133.17487 159.9375 133.69049 159.9375Q134.22174 159.9375 134.56549 159.48438Q134.92487 159.03125 134.92487 157.82812Q134.92487 156.71875 134.56549 156.26562Q134.22174 155.8125 133.69049 155.8125ZM133.70612 166.92188L139.97174 154.84375L141.11237 154.84375L134.86237 166.92188L133.70612 166.92188ZM138.65924 163.8125Q138.65924 162.57812 139.26862 161.71875Q139.89362 160.85938 141.06549 160.85938Q142.14362 160.85938 142.84674 161.64062Q143.56549 162.40625 143.56549 163.89062Q143.56549 165.34375 142.84674 166.14062Q142.12799 166.92188 141.08112 166.92188Q140.03424 166.92188 139.34674 166.14062Q138.65924 165.35938 138.65924 163.8125ZM141.11237 161.82812Q140.58112 161.82812 140.22174 162.28125Q139.87799 162.73438 139.87799 163.95312Q139.87799 165.04688 140.22174 165.5Q140.58112 165.95312 141.09674 165.95312Q141.64362 165.95312 141.98737 165.5Q142.33112 165.04688 142.33112 163.84375Q142.33112 162.73438 141.97174 162.28125Q141.62799 161.82812 141.11237 161.82812Z" fill-rule="nonzero"/><path stroke="#6aa84f" stroke-width="3.0" stroke-linejoin="round" stroke-linecap="round" d="M382.03275 157.84375L380.6265 157.95312Q380.439 157.125 380.09525 156.75Q379.53275 156.15625 378.689 156.15625Q378.01712 156.15625 377.51712 156.53125Q376.84525 157.01562 376.45462 157.95312Q376.07962 158.875 376.064 160.59375Q376.57962 159.8125 377.314 159.4375Q378.04837 159.0625 378.84525 159.0625Q380.2515 159.0625 381.23587 160.10938Q382.23587 161.14062 382.23587 162.78125Q382.23587 163.85938 381.76712 164.78125Q381.29837 165.70312 380.48587 166.20312Q379.67337 166.70312 378.64212 166.70312Q376.89212 166.70312 375.78275 165.40625Q374.67337 164.10938 374.67337 161.14062Q374.67337 157.8125 375.89212 156.3125Q376.97025 155.0 378.78275 155.0Q380.1265 155.0 380.98587 155.76562Q381.86087 156.51562 382.03275 157.84375ZM376.28275 162.78125Q376.28275 163.51562 376.59525 164.1875Q376.90775 164.84375 377.45462 165.1875Q378.01712 165.53125 378.6265 165.53125Q379.51712 165.53125 380.15775 164.8125Q380.79837 164.09375 380.79837 162.85938Q380.79837 161.67188 380.15775 161.0Q379.53275 160.3125 378.564 160.3125Q377.61087 160.3125 376.939 161.0Q376.28275 161.67188 376.28275 162.78125ZM385.89212 160.28125Q385.01712 159.96875 384.59525 159.375Q384.17337 158.78125 384.17337 157.95312Q384.17337 156.70312 385.064 155.85938Q385.97025 155.0 387.47025 155.0Q388.97025 155.0 389.8765 155.875Q390.79837 156.73438 390.79837 157.98438Q390.79837 158.78125 390.3765 159.375Q389.95462 159.96875 389.11087 160.28125Q390.15775 160.625 390.70462 161.39062Q391.26712 162.15625 391.26712 163.21875Q391.26712 164.6875 390.22025 165.70312Q389.189 166.70312 387.48587 166.70312Q385.79837 166.70312 384.7515 165.70312Q383.72025 164.6875 383.72025 163.1875Q383.72025 162.0625 384.28275 161.3125Q384.84525 160.5625 385.89212 160.28125ZM385.61087 157.90625Q385.61087 158.71875 386.1265 159.23438Q386.65775 159.75 387.5015 159.75Q388.314 159.75 388.82962 159.23438Q389.34525 158.71875 389.34525 157.98438Q389.34525 157.20312 388.814 156.6875Q388.28275 156.15625 387.48587 156.15625Q386.67337 156.15625 386.14212 156.67188Q385.61087 157.1875 385.61087 157.90625ZM385.15775 163.1875Q385.15775 163.79688 385.439 164.35938Q385.73587 164.92188 386.29837 165.23438Q386.86087 165.53125 387.5015 165.53125Q388.51712 165.53125 389.17337 164.89062Q389.82962 164.23438 389.82962 163.23438Q389.82962 162.21875 389.14212 161.5625Q388.47025 160.89062 387.45462 160.89062Q386.47025 160.89062 385.814 161.54688Q385.15775 162.20312 385.15775 163.1875ZM393.0015 157.79688Q393.0015 156.5625 393.61087 155.70312Q394.23587 154.84375 395.40775 154.84375Q396.48587 154.84375 397.189 155.625Q397.89212 156.39062 397.89212 157.875Q397.89212 159.32812 397.17337 160.125Q396.47025 160.90625 395.42337 160.90625Q394.3765 160.90625 393.689 160.14062Q393.0015 159.35938 393.0015 157.79688ZM395.439 155.8125Q394.92337 155.8125 394.564 156.26562Q394.22025 156.71875 394.22025 157.9375Q394.22025 159.03125 394.564 159.48438Q394.92337 159.9375 395.439 159.9375Q395.97025 159.9375 396.314 159.48438Q396.67337 159.03125 396.67337 157.82812Q396.67337 156.71875 396.314 156.26562Q395.97025 155.8125 395.439 155.8125ZM395.45462 166.92188L401.72025 154.84375L402.86087 154.84375L396.61087 166.92188L395.45462 166.92188ZM400.40775 163.8125Q400.40775 162.57812 401.01712 161.71875Q401.64212 160.85938 402.814 160.85938Q403.89212 160.85938 404.59525 161.64062Q405.314 162.40625 405.314 163.89062Q405.314 165.34375 404.59525 166.14062Q403.8765 166.92188 402.82962 166.92188Q401.78275 166.92188 401.09525 166.14062Q400.40775 165.35938 400.40775 163.8125ZM402.86087 161.82812Q402.32962 161.82812 401.97025 162.28125Q401.6265 162.73438 401.6265 163.95312Q401.6265 165.04688 401.97025 165.5Q402.32962 165.95312 402.84525 165.95312Q403.39212 165.95312 403.73587 165.5Q404.07962 165.04688 404.07962 163.84375Q404.07962 162.73438 403.72025 162.28125Q403.3765 161.82812 402.86087 161.82812Z" fill-rule="nonzero"/><path fill="#f3f3f3" d="M382.03275 157.84375L380.6265 157.95312Q380.439 157.125 380.09525 156.75Q379.53275 156.15625 378.689 156.15625Q378.01712 156.15625 377.51712 156.53125Q376.84525 157.01562 376.45462 157.95312Q376.07962 158.875 376.064 160.59375Q376.57962 159.8125 377.314 159.4375Q378.04837 159.0625 378.84525 159.0625Q380.2515 159.0625 381.23587 160.10938Q382.23587 161.14062 382.23587 162.78125Q382.23587 163.85938 381.76712 164.78125Q381.29837 165.70312 380.48587 166.20312Q379.67337 166.70312 378.64212 166.70312Q376.89212 166.70312 375.78275 165.40625Q374.67337 164.10938 374.67337 161.14062Q374.67337 157.8125 375.89212 156.3125Q376.97025 155.0 378.78275 155.0Q380.1265 155.0 380.98587 155.76562Q381.86087 156.51562 382.03275 157.84375ZM376.28275 162.78125Q376.28275 163.51562 376.59525 164.1875Q376.90775 164.84375 377.45462 165.1875Q378.01712 165.53125 378.6265 165.53125Q379.51712 165.53125 380.15775 164.8125Q380.79837 164.09375 380.79837 162.85938Q380.79837 161.67188 380.15775 161.0Q379.53275 160.3125 378.564 160.3125Q377.61087 160.3125 376.939 161.0Q376.28275 161.67188 376.28275 162.78125ZM385.89212 160.28125Q385.01712 159.96875 384.59525 159.375Q384.17337 158.78125 384.17337 157.95312Q384.17337 156.70312 385.064 155.85938Q385.97025 155.0 387.47025 155.0Q388.97025 155.0 389.8765 155.875Q390.79837 156.73438 390.79837 157.98438Q390.79837 158.78125 390.3765 159.375Q389.95462 159.96875 389.11087 160.28125Q390.15775 160.625 390.70462 161.39062Q391.26712 162.15625 391.26712 163.21875Q391.26712 164.6875 390.22025 165.70312Q389.189 166.70312 387.48587 166.70312Q385.79837 166.70312 384.7515 165.70312Q383.72025 164.6875 383.72025 163.1875Q383.72025 162.0625 384.28275 161.3125Q384.84525 160.5625 385.89212 160.28125ZM385.61087 157.90625Q385.61087 158.71875 386.1265 159.23438Q386.65775 159.75 387.5015 159.75Q388.314 159.75 388.82962 159.23438Q389.34525 158.71875 389.34525 157.98438Q389.34525 157.20312 388.814 156.6875Q388.28275 156.15625 387.48587 156.15625Q386.67337 156.15625 386.14212 156.67188Q385.61087 157.1875 385.61087 157.90625ZM385.15775 163.1875Q385.15775 163.79688 385.439 164.35938Q385.73587 164.92188 386.29837 165.23438Q386.86087 165.53125 387.5015 165.53125Q388.51712 165.53125 389.17337 164.89062Q389.82962 164.23438 389.82962 163.23438Q389.82962 162.21875 389.14212 161.5625Q388.47025 160.89062 387.45462 160.89062Q386.47025 160.89062 385.814 161.54688Q385.15775 162.20312 385.15775 163.1875ZM393.0015 157.79688Q393.0015 156.5625 393.61087 155.70312Q394.23587 154.84375 395.40775 154.84375Q396.48587 154.84375 397.189 155.625Q397.89212 156.39062 397.89212 157.875Q397.89212 159.32812 397.17337 160.125Q396.47025 160.90625 395.42337 160.90625Q394.3765 160.90625 393.689 160.14062Q393.0015 159.35938 393.0015 157.79688ZM395.439 155.8125Q394.92337 155.8125 394.564 156.26562Q394.22025 156.71875 394.22025 157.9375Q394.22025 159.03125 394.564 159.48438Q394.92337 159.9375 395.439 159.9375Q395.97025 159.9375 396.314 159.48438Q396.67337 159.03125 396.67337 157.82812Q396.67337 156.71875 396.314 156.26562Q395.97025 155.8125 395.439 155.8125ZM395.45462 166.92188L401.72025 154.84375L402.86087 154.84375L396.61087 166.92188L395.45462 166.92188ZM400.40775 163.8125Q400.40775 162.57812 401.01712 161.71875Q401.64212 160.85938 402.814 160.85938Q403.89212 160.85938 404.59525 161.64062Q405.314 162.40625 405.314 163.89062Q405.314 165.34375 404.59525 166.14062Q403.8765 166.92188 402.82962 166.92188Q401.78275 166.92188 401.09525 166.14062Q400.40775 165.35938 400.40775 163.8125ZM402.86087 161.82812Q402.32962 161.82812 401.97025 162.28125Q401.6265 162.73438 401.6265 163.95312Q401.6265 165.04688 401.97025 165.5Q402.32962 165.95312 402.84525 165.95312Q403.39212 165.95312 403.73587 165.5Q404.07962 165.04688 404.07962 163.84375Q404.07962 162.73438 403.72025 162.28125Q403.3765 161.82812 402.86087 161.82812Z" fill-rule="nonzero"/><path fill="#666666" d="M258.70312 316.5521Q258.70312 315.63022 259.15625 314.9896Q259.625 314.34897 260.5 314.34897Q261.3125 314.34897 261.84375 314.9271Q262.375 315.50522 262.375 316.6146Q262.375 317.70834 261.82812 318.3021Q261.29688 318.88022 260.51562 318.88022Q259.73438 318.88022 259.21875 318.3021Q258.70312 317.72397 258.70312 316.5521ZM260.53125 315.06772Q260.14062 315.06772 259.875 315.41147Q259.625 315.75522 259.625 316.66147Q259.625 317.4896 259.875 317.83334Q260.14062 318.16147 260.53125 318.16147Q260.9375 318.16147 261.1875 317.81772Q261.45312 317.47397 261.45312 316.58334Q261.45312 315.7396 261.1875 315.41147Q260.92188 315.06772 260.53125 315.06772ZM260.53125 323.39584L265.23438 314.34897L266.09375 314.34897L261.40625 323.39584L260.53125 323.39584ZM264.25 321.06772Q264.25 320.14584 264.70312 319.50522Q265.17188 318.8646 266.0625 318.8646Q266.875 318.8646 267.40625 319.44272Q267.9375 320.00522 267.9375 321.13022Q267.9375 322.22397 267.39062 322.81772Q266.85938 323.39584 266.0625 323.39584Q265.29688 323.39584 264.76562 322.81772Q264.25 322.2396 264.25 321.06772ZM266.09375 319.58334Q265.6875 319.58334 265.42188 319.9271Q265.17188 320.27084 265.17188 321.1771Q265.17188 321.9896 265.4375 322.33334Q265.70312 322.6771 266.09375 322.6771Q266.48438 322.6771 266.75 322.33334Q267.01562 321.9896 267.01562 321.08334Q267.01562 320.25522 266.75 319.9271Q266.48438 319.58334 266.09375 319.58334ZM272.40625 319.97397Q272.40625 318.2396 273.35938 317.41147Q274.15625 316.72397 275.3125 316.72397Q276.59375 316.72397 277.40625 317.56772Q278.23438 318.39584 278.23438 319.88022Q278.23438 321.08334 277.875 321.77084Q277.51562 322.45834 276.8125 322.84897Q276.125 323.22397 275.3125 323.22397Q274.01562 323.22397 273.20312 322.39584Q272.40625 321.5521 272.40625 319.97397ZM273.48438 319.97397Q273.48438 321.16147 274.0 321.75522Q274.53125 322.34897 275.3125 322.34897Q276.10938 322.34897 276.625 321.75522Q277.14062 321.16147 277.14062 319.94272Q277.14062 318.78647 276.60938 318.19272Q276.09375 317.59897 275.3125 317.59897Q274.53125 317.59897 274.0 318.19272Q273.48438 318.77084 273.48438 319.97397ZM280.04688 323.08334L280.04688 317.6771L279.10938 317.6771L279.10938 316.8646L280.04688 316.8646L280.04688 316.19272Q280.04688 315.56772 280.15625 315.27084Q280.3125 314.84897 280.6875 314.59897Q281.07812 314.34897 281.76562 314.34897Q282.21875 314.34897 282.75 314.45834L282.59375 315.3646Q282.26562 315.31772 281.96875 315.31772Q281.48438 315.31772 281.28125 315.52084Q281.09375 315.72397 281.09375 316.28647L281.09375 316.8646L282.3125 316.8646L282.3125 317.6771L281.09375 317.6771L281.09375 323.08334L280.04688 323.08334ZM285.78125 323.08334L285.78125 316.8646L286.73438 316.8646L286.73438 317.8021Q287.09375 317.14584 287.39062 316.94272Q287.70312 316.72397 288.07812 316.72397Q288.60938 316.72397 289.15625 317.0521L288.79688 318.03647Q288.40625 317.8021 288.03125 317.8021Q287.67188 317.8021 287.39062 318.02084Q287.125 318.22397 287.01562 318.59897Q286.82812 319.16147 286.82812 319.81772L286.82812 323.08334L285.78125 323.08334ZM294.04688 321.08334L295.14062 321.20834Q294.89062 322.16147 294.1875 322.69272Q293.48438 323.22397 292.40625 323.22397Q291.04688 323.22397 290.23438 322.38022Q289.4375 321.53647 289.4375 320.02084Q289.4375 318.45834 290.25 317.59897Q291.0625 316.72397 292.34375 316.72397Q293.59375 316.72397 294.375 317.56772Q295.17188 318.41147 295.17188 319.95834Q295.17188 320.0521 295.17188 320.2396L290.53125 320.2396Q290.59375 321.27084 291.10938 321.81772Q291.625 322.34897 292.40625 322.34897Q292.98438 322.34897 293.39062 322.0521Q293.8125 321.7396 294.04688 321.08334ZM290.59375 319.38022L294.0625 319.38022Q294.0 318.58334 293.67188 318.19272Q293.15625 317.58334 292.35938 317.58334Q291.625 317.58334 291.125 318.06772Q290.64062 318.5521 290.59375 319.38022ZM296.375 321.22397L297.40625 321.06772Q297.5 321.69272 297.89062 322.02084Q298.29688 322.34897 299.03125 322.34897Q299.75 322.34897 300.09375 322.06772Q300.45312 321.77084 300.45312 321.3646Q300.45312 321.00522 300.14062 320.8021Q299.92188 320.66147 299.0625 320.44272Q297.90625 320.14584 297.45312 319.94272Q297.01562 319.72397 296.78125 319.34897Q296.54688 318.97397 296.54688 318.50522Q296.54688 318.09897 296.73438 317.7396Q296.92188 317.38022 297.25 317.14584Q297.5 316.97397 297.92188 316.84897Q298.34375 316.72397 298.84375 316.72397Q299.5625 316.72397 300.10938 316.94272Q300.67188 317.14584 300.9375 317.50522Q301.20312 317.8646 301.29688 318.45834L300.26562 318.59897Q300.20312 318.13022 299.85938 317.8646Q299.53125 317.58334 298.90625 317.58334Q298.1875 317.58334 297.875 317.83334Q297.5625 318.06772 297.5625 318.39584Q297.5625 318.59897 297.6875 318.75522Q297.82812 318.9271 298.09375 319.03647Q298.25 319.09897 299.03125 319.3021Q300.15625 319.6146 300.59375 319.8021Q301.03125 319.9896 301.28125 320.34897Q301.53125 320.70834 301.53125 321.25522Q301.53125 321.78647 301.21875 322.25522Q300.92188 322.70834 300.34375 322.97397Q299.76562 323.22397 299.03125 323.22397Q297.8125 323.22397 297.17188 322.72397Q296.54688 322.20834 296.375 321.22397ZM302.79688 325.47397L302.79688 316.8646L303.75 316.8646L303.75 317.66147Q304.09375 317.19272 304.51562 316.95834Q304.95312 316.72397 305.5625 316.72397Q306.35938 316.72397 306.96875 317.13022Q307.57812 317.53647 307.875 318.28647Q308.1875 319.03647 308.1875 319.9271Q308.1875 320.88022 307.84375 321.64584Q307.51562 322.41147 306.85938 322.81772Q306.20312 323.22397 305.48438 323.22397Q304.95312 323.22397 304.53125 323.00522Q304.10938 322.77084 303.84375 322.44272L303.84375 325.47397L302.79688 325.47397ZM303.75 320.00522Q303.75 321.20834 304.23438 321.78647Q304.71875 322.34897 305.40625 322.34897Q306.10938 322.34897 306.60938 321.75522Q307.10938 321.16147 307.10938 319.91147Q307.10938 318.72397 306.625 318.14584Q306.14062 317.5521 305.45312 317.5521Q304.78125 317.5521 304.26562 318.1771Q303.75 318.8021 303.75 320.00522ZM309.40625 319.97397Q309.40625 318.2396 310.35938 317.41147Q311.15625 316.72397 312.3125 316.72397Q313.59375 316.72397 314.40625 317.56772Q315.23438 318.39584 315.23438 319.88022Q315.23438 321.08334 314.875 321.77084Q314.51562 322.45834 313.8125 322.84897Q313.125 323.22397 312.3125 323.22397Q311.01562 323.22397 310.20312 322.39584Q309.40625 321.5521 309.40625 319.97397ZM310.48438 319.97397Q310.48438 321.16147 311.0 321.75522Q311.53125 322.34897 312.3125 322.34897Q313.10938 322.34897 313.625 321.75522Q314.14062 321.16147 314.14062 319.94272Q314.14062 318.78647 313.60938 318.19272Q313.09375 317.59897 312.3125 317.59897Q311.53125 317.59897 311.0 318.19272Q310.48438 318.77084 310.48438 319.97397ZM316.79688 323.08334L316.79688 316.8646L317.73438 316.8646L317.73438 317.7396Q318.42188 316.72397 319.71875 316.72397Q320.28125 316.72397 320.75 316.9271Q321.23438 317.13022 321.46875 317.45834Q321.70312 317.78647 321.79688 318.22397Q321.84375 318.52084 321.84375 319.25522L321.84375 323.08334L320.79688 323.08334L320.79688 319.3021Q320.79688 318.64584 320.67188 318.33334Q320.54688 318.02084 320.23438 317.83334Q319.92188 317.63022 319.5 317.63022Q318.82812 317.63022 318.32812 318.06772Q317.84375 318.4896 317.84375 319.6771L317.84375 323.08334L316.79688 323.08334ZM323.375 321.22397L324.40625 321.06772Q324.5 321.69272 324.89062 322.02084Q325.29688 322.34897 326.03125 322.34897Q326.75 322.34897 327.09375 322.06772Q327.45312 321.77084 327.45312 321.3646Q327.45312 321.00522 327.14062 320.8021Q326.92188 320.66147 326.0625 320.44272Q324.90625 320.14584 324.45312 319.94272Q324.01562 319.72397 323.78125 319.34897Q323.54688 318.97397 323.54688 318.50522Q323.54688 318.09897 323.73438 317.7396Q323.92188 317.38022 324.25 317.14584Q324.5 316.97397 324.92188 316.84897Q325.34375 316.72397 325.84375 316.72397Q326.5625 316.72397 327.10938 316.94272Q327.67188 317.14584 327.9375 317.50522Q328.20312 317.8646 328.29688 318.45834L327.26562 318.59897Q327.20312 318.13022 326.85938 317.8646Q326.53125 317.58334 325.90625 317.58334Q325.1875 317.58334 324.875 317.83334Q324.5625 318.06772 324.5625 318.39584Q324.5625 318.59897 324.6875 318.75522Q324.82812 318.9271 325.09375 319.03647Q325.25 319.09897 326.03125 319.3021Q327.15625 319.6146 327.59375 319.8021Q328.03125 319.9896 328.28125 320.34897Q328.53125 320.70834 328.53125 321.25522Q328.53125 321.78647 328.21875 322.25522Q327.92188 322.70834 327.34375 322.97397Q326.76562 323.22397 326.03125 323.22397Q324.8125 323.22397 324.17188 322.72397Q323.54688 322.20834 323.375 321.22397ZM334.04688 321.08334L335.14062 321.20834Q334.89062 322.16147 334.1875 322.69272Q333.48438 323.22397 332.40625 323.22397Q331.04688 323.22397 330.23438 322.38022Q329.4375 321.53647 329.4375 320.02084Q329.4375 318.45834 330.25 317.59897Q331.0625 316.72397 332.34375 316.72397Q333.59375 316.72397 334.375 317.56772Q335.17188 318.41147 335.17188 319.95834Q335.17188 320.0521 335.17188 320.2396L330.53125 320.2396Q330.59375 321.27084 331.10938 321.81772Q331.625 322.34897 332.40625 322.34897Q332.98438 322.34897 333.39062 322.0521Q333.8125 321.7396 334.04688 321.08334ZM330.59375 319.38022L334.0625 319.38022Q334.0 318.58334 333.67188 318.19272Q333.15625 317.58334 332.35938 317.58334Q331.625 317.58334 331.125 318.06772Q330.64062 318.5521 330.59375 319.38022ZM336.375 321.22397L337.40625 321.06772Q337.5 321.69272 337.89062 322.02084Q338.29688 322.34897 339.03125 322.34897Q339.75 322.34897 340.09375 322.06772Q340.45312 321.77084 340.45312 321.3646Q340.45312 321.00522 340.14062 320.8021Q339.92188 320.66147 339.0625 320.44272Q337.90625 320.14584 337.45312 319.94272Q337.01562 319.72397 336.78125 319.34897Q336.54688 318.97397 336.54688 318.50522Q336.54688 318.09897 336.73438 317.7396Q336.92188 317.38022 337.25 317.14584Q337.5 316.97397 337.92188 316.84897Q338.34375 316.72397 338.84375 316.72397Q339.5625 316.72397 340.10938 316.94272Q340.67188 317.14584 340.9375 317.50522Q341.20312 317.8646 341.29688 318.45834L340.26562 318.59897Q340.20312 318.13022 339.85938 317.8646Q339.53125 317.58334 338.90625 317.58334Q338.1875 317.58334 337.875 317.83334Q337.5625 318.06772 337.5625 318.39584Q337.5625 318.59897 337.6875 318.75522Q337.82812 318.9271 338.09375 319.03647Q338.25 319.09897 339.03125 319.3021Q340.15625 319.6146 340.59375 319.8021Q341.03125 319.9896 341.28125 320.34897Q341.53125 320.70834 341.53125 321.25522Q341.53125 321.78647 341.21875 322.25522Q340.92188 322.70834 340.34375 322.97397Q339.76562 323.22397 339.03125 323.22397Q337.8125 323.22397 337.17188 322.72397Q336.54688 322.20834 336.375 321.22397Z" fill-rule="nonzero"/><path fill="#666666" d="M10.05 286.84897Q10.05 285.31772 10.3625 284.39584Q10.675 283.45834 11.284375 282.95834Q11.909375 282.45834 12.846875 282.45834Q13.534375 282.45834 14.05 282.7396Q14.58125 283.02084 14.925 283.5521Q15.26875 284.06772 15.45625 284.81772Q15.64375 285.56772 15.64375 286.84897Q15.64375 288.3646 15.33125 289.28647Q15.034375 290.20834 14.409375 290.72397Q13.8 291.22397 12.846875 291.22397Q11.6125 291.22397 10.89375 290.33334Q10.05 289.27084 10.05 286.84897ZM11.128125 286.84897Q11.128125 288.95834 11.628125 289.66147Q12.128125 290.3646 12.846875 290.3646Q13.58125 290.3646 14.065625 289.66147Q14.565625 288.95834 14.565625 286.84897Q14.565625 284.72397 14.065625 284.03647Q13.58125 283.33334 12.83125 283.33334Q12.1125 283.33334 11.675 283.94272Q11.128125 284.72397 11.128125 286.84897ZM17.253124 284.5521Q17.253124 283.63022 17.70625 282.9896Q18.175 282.34897 19.05 282.34897Q19.8625 282.34897 20.39375 282.9271Q20.925 283.50522 20.925 284.6146Q20.925 285.70834 20.378124 286.3021Q19.846874 286.88022 19.065624 286.88022Q18.284374 286.88022 17.76875 286.3021Q17.253124 285.72397 17.253124 284.5521ZM19.08125 283.06772Q18.690624 283.06772 18.425 283.41147Q18.175 283.75522 18.175 284.66147Q18.175 285.4896 18.425 285.83334Q18.690624 286.16147 19.08125 286.16147Q19.4875 286.16147 19.7375 285.81772Q20.003124 285.47397 20.003124 284.58334Q20.003124 283.7396 19.7375 283.41147Q19.471874 283.06772 19.08125 283.06772ZM19.08125 291.39584L23.784374 282.34897L24.64375 282.34897L19.95625 291.39584L19.08125 291.39584ZM22.8 289.06772Q22.8 288.14584 23.253124 287.50522Q23.721874 286.8646 24.6125 286.8646Q25.425 286.8646 25.95625 287.44272Q26.4875 288.00522 26.4875 289.13022Q26.4875 290.22397 25.940624 290.81772Q25.409374 291.39584 24.6125 291.39584Q23.846874 291.39584 23.315624 290.81772Q22.8 290.2396 22.8 289.06772ZM24.64375 287.58334Q24.2375 287.58334 23.971874 287.9271Q23.721874 288.27084 23.721874 289.1771Q23.721874 289.9896 23.9875 290.33334Q24.253124 290.6771 24.64375 290.6771Q25.034374 290.6771 25.3 290.33334Q25.565624 289.9896 25.565624 289.08334Q25.565624 288.25522 25.3 287.9271Q25.034374 287.58334 24.64375 287.58334Z" fill-rule="nonzero"/><path fill="#666666" d="M124.67687 290.06772L124.67687 291.08334L118.98937 291.08334Q118.98937 290.70834 119.11437 290.34897Q119.33312 289.77084 119.80187 289.20834Q120.28625 288.64584 121.1925 287.91147Q122.59875 286.75522 123.08312 286.08334Q123.58312 285.41147 123.58312 284.81772Q123.58312 284.19272 123.13 283.77084Q122.67687 283.33334 121.95812 283.33334Q121.1925 283.33334 120.73937 283.78647Q120.28625 284.2396 120.27062 285.0521L119.1925 284.94272Q119.30187 283.72397 120.02062 283.09897Q120.755 282.45834 121.98937 282.45834Q123.22375 282.45834 123.9425 283.14584Q124.66125 283.83334 124.66125 284.84897Q124.66125 285.3646 124.4425 285.8646Q124.23937 286.34897 123.73937 286.91147Q123.255 287.45834 122.13 288.41147Q121.17687 289.20834 120.89562 289.50522Q120.63 289.78647 120.45812 290.06772L124.67687 290.06772ZM126.13 286.84897Q126.13 285.31772 126.4425 284.39584Q126.755 283.45834 127.36437 282.95834Q127.98937 282.45834 128.92688 282.45834Q129.61438 282.45834 130.13 282.7396Q130.66125 283.02084 131.005 283.5521Q131.34875 284.06772 131.53625 284.81772Q131.72375 285.56772 131.72375 286.84897Q131.72375 288.3646 131.41125 289.28647Q131.11438 290.20834 130.48938 290.72397Q129.88 291.22397 128.92688 291.22397Q127.6925 291.22397 126.97375 290.33334Q126.13 289.27084 126.13 286.84897ZM127.20812 286.84897Q127.20812 288.95834 127.70812 289.66147Q128.20813 290.3646 128.92688 290.3646Q129.66125 290.3646 130.14563 289.66147Q130.64563 288.95834 130.64563 286.84897Q130.64563 284.72397 130.14563 284.03647Q129.66125 283.33334 128.91125 283.33334Q128.1925 283.33334 127.755 283.94272Q127.20812 284.72397 127.20812 286.84897ZM133.33313 284.5521Q133.33313 283.63022 133.78625 282.9896Q134.255 282.34897 135.13 282.34897Q135.9425 282.34897 136.47375 282.9271Q137.005 283.50522 137.005 284.6146Q137.005 285.70834 136.45813 286.3021Q135.92688 286.88022 135.14563 286.88022Q134.36438 286.88022 133.84875 286.3021Q133.33313 285.72397 133.33313 284.5521ZM135.16125 283.06772Q134.77063 283.06772 134.505 283.41147Q134.255 283.75522 134.255 284.66147Q134.255 285.4896 134.505 285.83334Q134.77063 286.16147 135.16125 286.16147Q135.5675 286.16147 135.8175 285.81772Q136.08313 285.47397 136.08313 284.58334Q136.08313 283.7396 135.8175 283.41147Q135.55188 283.06772 135.16125 283.06772ZM135.16125 291.39584L139.86438 282.34897L140.72375 282.34897L136.03625 291.39584L135.16125 291.39584ZM138.88 289.06772Q138.88 288.14584 139.33313 287.50522Q139.80188 286.8646 140.6925 286.8646Q141.505 286.8646 142.03625 287.44272Q142.5675 288.00522 142.5675 289.13022Q142.5675 290.22397 142.02063 290.81772Q141.48938 291.39584 140.6925 291.39584Q139.92688 291.39584 139.39563 290.81772Q138.88 290.2396 138.88 289.06772ZM140.72375 287.58334Q140.3175 287.58334 140.05188 287.9271Q139.80188 288.27084 139.80188 289.1771Q139.80188 289.9896 140.0675 290.33334Q140.33313 290.6771 140.72375 290.6771Q141.11438 290.6771 141.38 290.33334Q141.64563 289.9896 141.64563 289.08334Q141.64563 288.25522 141.38 287.9271Q141.11438 287.58334 140.72375 287.58334Z" fill-rule="nonzero"/><path fill="#666666" d="M235.085 291.08334L235.085 289.02084L231.36626 289.02084L231.36626 288.0521L235.28813 282.4896L236.1475 282.4896L236.1475 288.0521L237.30376 288.0521L237.30376 289.02084L236.1475 289.02084L236.1475 291.08334L235.085 291.08334ZM235.085 288.0521L235.085 284.19272L232.3975 288.0521L235.085 288.0521ZM238.71 286.84897Q238.71 285.31772 239.0225 284.39584Q239.335 283.45834 239.94438 282.95834Q240.56938 282.45834 241.50688 282.45834Q242.19438 282.45834 242.71 282.7396Q243.24126 283.02084 243.585 283.5521Q243.92876 284.06772 244.11626 284.81772Q244.30376 285.56772 244.30376 286.84897Q244.30376 288.3646 243.99126 289.28647Q243.69438 290.20834 243.06938 290.72397Q242.46 291.22397 241.50688 291.22397Q240.2725 291.22397 239.55376 290.33334Q238.71 289.27084 238.71 286.84897ZM239.78813 286.84897Q239.78813 288.95834 240.28813 289.66147Q240.78813 290.3646 241.50688 290.3646Q242.24126 290.3646 242.72563 289.66147Q243.22563 288.95834 243.22563 286.84897Q243.22563 284.72397 242.72563 284.03647Q242.24126 283.33334 241.49126 283.33334Q240.7725 283.33334 240.335 283.94272Q239.78813 284.72397 239.78813 286.84897ZM245.91313 284.5521Q245.91313 283.63022 246.36626 282.9896Q246.835 282.34897 247.71 282.34897Q248.5225 282.34897 249.05376 282.9271Q249.585 283.50522 249.585 284.6146Q249.585 285.70834 249.03813 286.3021Q248.50688 286.88022 247.72563 286.88022Q246.94438 286.88022 246.42876 286.3021Q245.91313 285.72397 245.91313 284.5521ZM247.74126 283.06772Q247.35063 283.06772 247.085 283.41147Q246.835 283.75522 246.835 284.66147Q246.835 285.4896 247.085 285.83334Q247.35063 286.16147 247.74126 286.16147Q248.1475 286.16147 248.3975 285.81772Q248.66313 285.47397 248.66313 284.58334Q248.66313 283.7396 248.3975 283.41147Q248.13188 283.06772 247.74126 283.06772ZM247.74126 291.39584L252.44438 282.34897L253.30376 282.34897L248.61626 291.39584L247.74126 291.39584ZM251.46 289.06772Q251.46 288.14584 251.91313 287.50522Q252.38188 286.8646 253.2725 286.8646Q254.085 286.8646 254.61626 287.44272Q255.1475 288.00522 255.1475 289.13022Q255.1475 290.22397 254.60063 290.81772Q254.06938 291.39584 253.2725 291.39584Q252.50688 291.39584 251.97563 290.81772Q251.46 290.2396 251.46 289.06772ZM253.30376 287.58334Q252.8975 287.58334 252.63188 287.9271Q252.38188 288.27084 252.38188 289.1771Q252.38188 289.9896 252.6475 290.33334Q252.91313 290.6771 253.30376 290.6771Q253.69438 290.6771 253.96 290.33334Q254.22563 289.9896 254.22563 289.08334Q254.22563 288.25522 253.96 287.9271Q253.69438 287.58334 253.30376 287.58334Z" fill-rule="nonzero"/><path fill="#666666" d="M349.75876 284.59897L348.71188 284.6771Q348.57126 284.0521 348.32126 283.77084Q347.88376 283.31772 347.25876 283.31772Q346.75876 283.31772 346.36813 283.59897Q345.88376 283.97397 345.58688 284.6771Q345.30563 285.3646 345.29 286.64584Q345.665 286.06772 346.21188 285.78647Q346.77438 285.50522 347.38376 285.50522Q348.43063 285.50522 349.165 286.28647Q349.915 287.06772 349.915 288.28647Q349.915 289.09897 349.55563 289.8021Q349.21188 290.4896 348.6025 290.8646Q347.99313 291.22397 347.2275 291.22397Q345.89938 291.22397 345.07126 290.25522Q344.24313 289.28647 344.24313 287.06772Q344.24313 284.56772 345.165 283.44272Q345.96188 282.45834 347.32126 282.45834Q348.33688 282.45834 348.9775 283.03647Q349.63376 283.59897 349.75876 284.59897ZM345.46188 288.3021Q345.46188 288.84897 345.68063 289.34897Q345.915 289.83334 346.32126 290.09897Q346.74313 290.3646 347.21188 290.3646Q347.86813 290.3646 348.3525 289.83334Q348.83688 289.28647 348.83688 288.3646Q348.83688 287.47397 348.3525 286.95834Q347.88376 286.44272 347.165 286.44272Q346.44626 286.44272 345.94626 286.95834Q345.46188 287.47397 345.46188 288.3021ZM351.29 286.84897Q351.29 285.31772 351.6025 284.39584Q351.915 283.45834 352.52438 282.95834Q353.14938 282.45834 354.08688 282.45834Q354.77438 282.45834 355.29 282.7396Q355.82126 283.02084 356.165 283.5521Q356.50876 284.06772 356.69626 284.81772Q356.88376 285.56772 356.88376 286.84897Q356.88376 288.3646 356.57126 289.28647Q356.27438 290.20834 355.64938 290.72397Q355.04 291.22397 354.08688 291.22397Q352.8525 291.22397 352.13376 290.33334Q351.29 289.27084 351.29 286.84897ZM352.36813 286.84897Q352.36813 288.95834 352.86813 289.66147Q353.36813 290.3646 354.08688 290.3646Q354.82126 290.3646 355.30563 289.66147Q355.80563 288.95834 355.80563 286.84897Q355.80563 284.72397 355.30563 284.03647Q354.82126 283.33334 354.07126 283.33334Q353.3525 283.33334 352.915 283.94272Q352.36813 284.72397 352.36813 286.84897ZM358.49313 284.5521Q358.49313 283.63022 358.94626 282.9896Q359.415 282.34897 360.29 282.34897Q361.1025 282.34897 361.63376 282.9271Q362.165 283.50522 362.165 284.6146Q362.165 285.70834 361.61813 286.3021Q361.08688 286.88022 360.30563 286.88022Q359.52438 286.88022 359.00876 286.3021Q358.49313 285.72397 358.49313 284.5521ZM360.32126 283.06772Q359.93063 283.06772 359.665 283.41147Q359.415 283.75522 359.415 284.66147Q359.415 285.4896 359.665 285.83334Q359.93063 286.16147 360.32126 286.16147Q360.7275 286.16147 360.9775 285.81772Q361.24313 285.47397 361.24313 284.58334Q361.24313 283.7396 360.9775 283.41147Q360.71188 283.06772 360.32126 283.06772ZM360.32126 291.39584L365.02438 282.34897L365.88376 282.34897L361.19626 291.39584L360.32126 291.39584ZM364.04 289.06772Q364.04 288.14584 364.49313 287.50522Q364.96188 286.8646 365.8525 286.8646Q366.665 286.8646 367.19626 287.44272Q367.7275 288.00522 367.7275 289.13022Q367.7275 290.22397 367.18063 290.81772Q366.64938 291.39584 365.8525 291.39584Q365.08688 291.39584 364.55563 290.81772Q364.04 290.2396 364.04 289.06772ZM365.88376 287.58334Q365.4775 287.58334 365.21188 287.9271Q364.96188 288.27084 364.96188 289.1771Q364.96188 289.9896 365.2275 290.33334Q365.49313 290.6771 365.88376 290.6771Q366.27438 290.6771 366.54 290.33334Q366.80563 289.9896 366.80563 289.08334Q366.80563 288.25522 366.54 287.9271Q366.27438 287.58334 365.88376 287.58334Z" fill-rule="nonzero"/><path fill="#666666" d="M458.495 286.4271Q457.83875 286.1771 457.51062 285.7396Q457.19812 285.28647 457.19812 284.6771Q457.19812 283.7396 457.87 283.09897Q458.5575 282.45834 459.66687 282.45834Q460.79187 282.45834 461.47937 283.1146Q462.16687 283.77084 462.16687 284.70834Q462.16687 285.3021 461.85437 285.7396Q461.54187 286.1771 460.90125 286.4271Q461.69812 286.6771 462.10437 287.25522Q462.51062 287.83334 462.51062 288.63022Q462.51062 289.72397 461.72937 290.47397Q460.96375 291.22397 459.6825 291.22397Q458.41687 291.22397 457.63562 290.47397Q456.85437 289.72397 456.85437 288.59897Q456.85437 287.75522 457.27625 287.19272Q457.71375 286.63022 458.495 286.4271ZM458.27625 284.63022Q458.27625 285.2396 458.66687 285.63022Q459.07312 286.02084 459.69812 286.02084Q460.3075 286.02084 460.69812 285.64584Q461.08875 285.25522 461.08875 284.69272Q461.08875 284.1146 460.6825 283.72397Q460.27625 283.31772 459.6825 283.31772Q459.07312 283.31772 458.66687 283.70834Q458.27625 284.09897 458.27625 284.63022ZM457.94812 288.59897Q457.94812 289.0521 458.15125 289.47397Q458.37 289.89584 458.79187 290.13022Q459.21375 290.3646 459.69812 290.3646Q460.44812 290.3646 460.9325 289.88022Q461.4325 289.39584 461.4325 288.64584Q461.4325 287.88022 460.9325 287.38022Q460.4325 286.88022 459.66687 286.88022Q458.91687 286.88022 458.4325 287.38022Q457.94812 287.8646 457.94812 288.59897ZM463.87 286.84897Q463.87 285.31772 464.1825 284.39584Q464.495 283.45834 465.10437 282.95834Q465.72937 282.45834 466.66687 282.45834Q467.35437 282.45834 467.87 282.7396Q468.40125 283.02084 468.745 283.5521Q469.08875 284.06772 469.27625 284.81772Q469.46375 285.56772 469.46375 286.84897Q469.46375 288.3646 469.15125 289.28647Q468.85437 290.20834 468.22937 290.72397Q467.62 291.22397 466.66687 291.22397Q465.4325 291.22397 464.71375 290.33334Q463.87 289.27084 463.87 286.84897ZM464.94812 286.84897Q464.94812 288.95834 465.44812 289.66147Q465.94812 290.3646 466.66687 290.3646Q467.40125 290.3646 467.88562 289.66147Q468.38562 288.95834 468.38562 286.84897Q468.38562 284.72397 467.88562 284.03647Q467.40125 283.33334 466.65125 283.33334Q465.9325 283.33334 465.495 283.94272Q464.94812 284.72397 464.94812 286.84897ZM471.07312 284.5521Q471.07312 283.63022 471.52625 282.9896Q471.995 282.34897 472.87 282.34897Q473.6825 282.34897 474.21375 282.9271Q474.745 283.50522 474.745 284.6146Q474.745 285.70834 474.19812 286.3021Q473.66687 286.88022 472.88562 286.88022Q472.10437 286.88022 471.58875 286.3021Q471.07312 285.72397 471.07312 284.5521ZM472.90125 283.06772Q472.51062 283.06772 472.245 283.41147Q471.995 283.75522 471.995 284.66147Q471.995 285.4896 472.245 285.83334Q472.51062 286.16147 472.90125 286.16147Q473.3075 286.16147 473.5575 285.81772Q473.82312 285.47397 473.82312 284.58334Q473.82312 283.7396 473.5575 283.41147Q473.29187 283.06772 472.90125 283.06772ZM472.90125 291.39584L477.60437 282.34897L478.46375 282.34897L473.77625 291.39584L472.90125 291.39584ZM476.62 289.06772Q476.62 288.14584 477.07312 287.50522Q477.54187 286.8646 478.4325 286.8646Q479.245 286.8646 479.77625 287.44272Q480.3075 288.00522 480.3075 289.13022Q480.3075 290.22397 479.76062 290.81772Q479.22937 291.39584 478.4325 291.39584Q477.66687 291.39584 477.13562 290.81772Q476.62 290.2396 476.62 289.06772ZM478.46375 287.58334Q478.0575 287.58334 477.79187 287.9271Q477.54187 288.27084 477.54187 289.1771Q477.54187 289.9896 477.8075 290.33334Q478.07312 290.6771 478.46375 290.6771Q478.85437 290.6771 479.12 290.33334Q479.38562 289.9896 479.38562 289.08334Q479.38562 288.25522 479.12 287.9271Q478.85437 287.58334 478.46375 287.58334Z" fill-rule="nonzero"/><path fill="#666666" d="M569.91876 291.08334L568.8719 291.08334L568.8719 284.3646Q568.48126 284.72397 567.85626 285.09897Q567.2469 285.45834 566.7625 285.63022L566.7625 284.6146Q567.6375 284.19272 568.29376 283.6146Q568.96564 283.02084 569.2469 282.45834L569.91876 282.45834L569.91876 291.08334ZM572.95 286.84897Q572.95 285.31772 573.2625 284.39584Q573.575 283.45834 574.1844 282.95834Q574.8094 282.45834 575.7469 282.45834Q576.4344 282.45834 576.95 282.7396Q577.48126 283.02084 577.825 283.5521Q578.16876 284.06772 578.35626 284.81772Q578.54376 285.56772 578.54376 286.84897Q578.54376 288.3646 578.23126 289.28647Q577.9344 290.20834 577.3094 290.72397Q576.7 291.22397 575.7469 291.22397Q574.5125 291.22397 573.79376 290.33334Q572.95 289.27084 572.95 286.84897ZM574.02814 286.84897Q574.02814 288.95834 574.52814 289.66147Q575.02814 290.3646 575.7469 290.3646Q576.48126 290.3646 576.96564 289.66147Q577.46564 288.95834 577.46564 286.84897Q577.46564 284.72397 576.96564 284.03647Q576.48126 283.33334 575.73126 283.33334Q575.0125 283.33334 574.575 283.94272Q574.02814 284.72397 574.02814 286.84897ZM579.95 286.84897Q579.95 285.31772 580.2625 284.39584Q580.575 283.45834 581.1844 282.95834Q581.8094 282.45834 582.7469 282.45834Q583.4344 282.45834 583.95 282.7396Q584.48126 283.02084 584.825 283.5521Q585.16876 284.06772 585.35626 284.81772Q585.54376 285.56772 585.54376 286.84897Q585.54376 288.3646 585.23126 289.28647Q584.9344 290.20834 584.3094 290.72397Q583.7 291.22397 582.7469 291.22397Q581.5125 291.22397 580.79376 290.33334Q579.95 289.27084 579.95 286.84897ZM581.02814 286.84897Q581.02814 288.95834 581.52814 289.66147Q582.02814 290.3646 582.7469 290.3646Q583.48126 290.3646 583.96564 289.66147Q584.46564 288.95834 584.46564 286.84897Q584.46564 284.72397 583.96564 284.03647Q583.48126 283.33334 582.73126 283.33334Q582.0125 283.33334 581.575 283.94272Q581.02814 284.72397 581.02814 286.84897ZM587.15314 284.5521Q587.15314 283.63022 587.60626 282.9896Q588.075 282.34897 588.95 282.34897Q589.7625 282.34897 590.29376 282.9271Q590.825 283.50522 590.825 284.6146Q590.825 285.70834 590.27814 286.3021Q589.7469 286.88022 588.96564 286.88022Q588.1844 286.88022 587.66876 286.3021Q587.15314 285.72397 587.15314 284.5521ZM588.98126 283.06772Q588.59064 283.06772 588.325 283.41147Q588.075 283.75522 588.075 284.66147Q588.075 285.4896 588.325 285.83334Q588.59064 286.16147 588.98126 286.16147Q589.3875 286.16147 589.6375 285.81772Q589.90314 285.47397 589.90314 284.58334Q589.90314 283.7396 589.6375 283.41147Q589.3719 283.06772 588.98126 283.06772ZM588.98126 291.39584L593.6844 282.34897L594.54376 282.34897L589.85626 291.39584L588.98126 291.39584ZM592.7 289.06772Q592.7 288.14584 593.15314 287.50522Q593.6219 286.8646 594.5125 286.8646Q595.325 286.8646 595.85626 287.44272Q596.3875 288.00522 596.3875 289.13022Q596.3875 290.22397 595.84064 290.81772Q595.3094 291.39584 594.5125 291.39584Q593.7469 291.39584 593.21564 290.81772Q592.7 290.2396 592.7 289.06772ZM594.54376 287.58334Q594.1375 287.58334 593.8719 287.9271Q593.6219 288.27084 593.6219 289.1771Q593.6219 289.9896 593.8875 290.33334Q594.15314 290.6771 594.54376 290.6771Q594.9344 290.6771 595.2 290.33334Q595.46564 289.9896 595.46564 289.08334Q595.46564 288.25522 595.2 287.9271Q594.9344 287.58334 594.54376 287.58334Z" fill-rule="nonzero"/><path fill="#a61c00" d="M182.5 340.45C182.5 339.8977 182.94771 339.45 183.5 339.45L193.5 339.45C194.05229 339.45 194.5 339.8977 194.5 340.45L194.5 350.45C194.5 351.0023 194.05229 351.45 193.5 351.45L183.5 351.45C182.94771 351.45 182.5 351.0023 182.5 350.45Z" fill-rule="nonzero"/><path fill="#666666" d="M203.42188 349.45L203.42188 340.85626L206.39062 340.85626Q207.39062 340.85626 207.92188 340.98126Q208.65625 341.15314 209.17188 341.59064Q209.85938 342.16876 210.1875 343.075Q210.53125 343.96564 210.53125 345.10626Q210.53125 346.09064 210.29688 346.84064Q210.07812 347.59064 209.71875 348.09064Q209.35938 348.59064 208.92188 348.8719Q208.5 349.15314 207.90625 349.3094Q207.3125 349.45 206.53125 349.45L203.42188 349.45ZM204.5625 348.4344L206.39062 348.4344Q207.25 348.4344 207.73438 348.27814Q208.21875 348.1219 208.5 347.825Q208.90625 347.4344 209.125 346.7469Q209.35938 346.0594 209.35938 345.09064Q209.35938 343.7469 208.90625 343.02814Q208.46875 342.29376 207.84375 342.04376Q207.375 341.8719 206.375 341.8719L204.5625 341.8719L204.5625 348.4344ZM216.54688 347.45L217.64062 347.575Q217.39062 348.52814 216.6875 349.0594Q215.98438 349.59064 214.90625 349.59064Q213.54688 349.59064 212.73438 348.7469Q211.9375 347.90314 211.9375 346.3875Q211.9375 344.825 212.75 343.96564Q213.5625 343.09064 214.84375 343.09064Q216.09375 343.09064 216.875 343.9344Q217.67188 344.77814 217.67188 346.325Q217.67188 346.41876 217.67188 346.60626L213.03125 346.60626Q213.09375 347.6375 213.60938 348.1844Q214.125 348.71564 214.90625 348.71564Q215.48438 348.71564 215.89062 348.41876Q216.3125 348.10626 216.54688 347.45ZM213.09375 345.7469L216.5625 345.7469Q216.5 344.95 216.17188 344.5594Q215.65625 343.95 214.85938 343.95Q214.125 343.95 213.625 344.4344Q213.14062 344.91876 213.09375 345.7469ZM221.59375 348.5125L221.75 349.4344Q221.29688 349.52814 220.95312 349.52814Q220.375 349.52814 220.0625 349.35626Q219.75 349.16876 219.60938 348.8719Q219.48438 348.575 219.48438 347.6219L219.48438 344.04376L218.71875 344.04376L218.71875 343.23126L219.48438 343.23126L219.48438 341.6844L220.53125 341.0594L220.53125 343.23126L221.59375 343.23126L221.59375 344.04376L220.53125 344.04376L220.53125 347.6844Q220.53125 348.1375 220.57812 348.2625Q220.64062 348.3875 220.76562 348.46564Q220.89062 348.54376 221.125 348.54376Q221.3125 348.54376 221.59375 348.5125ZM222.28125 349.45L222.28125 343.23126L223.23438 343.23126L223.23438 344.16876Q223.59375 343.5125 223.89062 343.3094Q224.20312 343.09064 224.57812 343.09064Q225.10938 343.09064 225.65625 343.41876L225.29688 344.40314Q224.90625 344.16876 224.53125 344.16876Q224.17188 344.16876 223.89062 344.3875Q223.625 344.59064 223.51562 344.96564Q223.32812 345.52814 223.32812 346.1844L223.32812 349.45L222.28125 349.45ZM230.35938 348.6844Q229.76562 349.1844 229.21875 349.3875Q228.6875 349.59064 228.0625 349.59064Q227.03125 349.59064 226.48438 349.09064Q225.9375 348.59064 225.9375 347.8094Q225.9375 347.35626 226.14062 346.98126Q226.34375 346.59064 226.6875 346.3719Q227.03125 346.1375 227.45312 346.02814Q227.75 345.9344 228.39062 345.85626Q229.65625 345.71564 230.26562 345.4969Q230.26562 345.27814 230.26562 345.23126Q230.26562 344.575 229.96875 344.3094Q229.5625 343.96564 228.76562 343.96564Q228.03125 343.96564 227.67188 344.23126Q227.3125 344.48126 227.14062 345.1375L226.10938 344.9969Q226.25 344.34064 226.57812 343.9344Q226.90625 343.52814 227.51562 343.3094Q228.125 343.09064 228.92188 343.09064Q229.71875 343.09064 230.21875 343.27814Q230.71875 343.46564 230.95312 343.7469Q231.1875 344.02814 231.28125 344.46564Q231.32812 344.73126 231.32812 345.4344L231.32812 346.84064Q231.32812 348.3094 231.39062 348.7Q231.46875 349.09064 231.67188 349.45L230.5625 349.45Q230.40625 349.1219 230.35938 348.6844ZM230.26562 346.325Q229.6875 346.5594 228.54688 346.73126Q227.89062 346.825 227.625 346.95Q227.35938 347.0594 227.20312 347.27814Q227.0625 347.4969 227.0625 347.77814Q227.0625 348.2 227.375 348.48126Q227.70312 348.7625 228.3125 348.7625Q228.92188 348.7625 229.39062 348.4969Q229.875 348.23126 230.09375 347.7625Q230.26562 347.40314 230.26562 346.71564L230.26562 346.325ZM237.35938 347.16876L238.39062 347.3094Q238.21875 348.3719 237.51562 348.98126Q236.8125 349.59064 235.79688 349.59064Q234.51562 349.59064 233.73438 348.7625Q232.96875 347.91876 232.96875 346.35626Q232.96875 345.35626 233.29688 344.60626Q233.64062 343.84064 234.3125 343.46564Q235.0 343.09064 235.8125 343.09064Q236.8125 343.09064 237.45312 343.60626Q238.10938 344.10626 238.29688 345.0594L237.26562 345.21564Q237.125 344.59064 236.75 344.27814Q236.375 343.95 235.84375 343.95Q235.04688 343.95 234.54688 344.52814Q234.04688 345.09064 234.04688 346.325Q234.04688 347.59064 234.53125 348.15314Q235.01562 348.71564 235.78125 348.71564Q236.40625 348.71564 236.8125 348.34064Q237.23438 347.96564 237.35938 347.16876ZM241.59375 348.5125L241.75 349.4344Q241.29688 349.52814 240.95312 349.52814Q240.375 349.52814 240.0625 349.35626Q239.75 349.16876 239.60938 348.8719Q239.48438 348.575 239.48438 347.6219L239.48438 344.04376L238.71875 344.04376L238.71875 343.23126L239.48438 343.23126L239.48438 341.6844L240.53125 341.0594L240.53125 343.23126L241.59375 343.23126L241.59375 344.04376L240.53125 344.04376L240.53125 347.6844Q240.53125 348.1375 240.57812 348.2625Q240.64062 348.3875 240.76562 348.46564Q240.89062 348.54376 241.125 348.54376Q241.3125 348.54376 241.59375 348.5125ZM241.90625 346.34064Q241.90625 344.60626 242.85938 343.77814Q243.65625 343.09064 244.8125 343.09064Q246.09375 343.09064 246.90625 343.9344Q247.73438 344.7625 247.73438 346.2469Q247.73438 347.45 247.375 348.1375Q247.01562 348.825 246.3125 349.21564Q245.625 349.59064 244.8125 349.59064Q243.51562 349.59064 242.70312 348.7625Q241.90625 347.91876 241.90625 346.34064ZM242.98438 346.34064Q242.98438 347.52814 243.5 348.1219Q244.03125 348.71564 244.8125 348.71564Q245.60938 348.71564 246.125 348.1219Q246.64062 347.52814 246.64062 346.3094Q246.64062 345.15314 246.10938 344.5594Q245.59375 343.96564 244.8125 343.96564Q244.03125 343.96564 243.5 344.5594Q242.98438 345.1375 242.98438 346.34064ZM249.28125 349.45L249.28125 343.23126L250.23438 343.23126L250.23438 344.16876Q250.59375 343.5125 250.89062 343.3094Q251.20312 343.09064 251.57812 343.09064Q252.10938 343.09064 252.65625 343.41876L252.29688 344.40314Q251.90625 344.16876 251.53125 344.16876Q251.17188 344.16876 250.89062 344.3875Q250.625 344.59064 250.51562 344.96564Q250.32812 345.52814 250.32812 346.1844L250.32812 349.45L249.28125 349.45Z" fill-rule="nonzero"/><path fill="#f1c232" d="M268.5 340.45C268.5 339.8977 268.94772 339.45 269.5 339.45L279.5 339.45C280.05228 339.45 280.5 339.8977 280.5 340.45L280.5 350.45C280.5 351.0023 280.05228 351.45 279.5 351.45L269.5 351.45C268.94772 351.45 268.5 351.0023 268.5 350.45Z" fill-rule="nonzero"/><path fill="#666666" d="M289.42188 349.45L289.42188 340.85626L292.67188 340.85626Q293.51562 340.85626 293.96875 340.9344Q294.60938 341.04376 295.03125 341.34064Q295.46875 341.6375 295.71875 342.16876Q295.98438 342.7 295.98438 343.34064Q295.98438 344.4344 295.28125 345.2Q294.59375 345.95 292.76562 345.95L290.5625 345.95L290.5625 349.45L289.42188 349.45ZM290.5625 344.95L292.78125 344.95Q293.89062 344.95 294.34375 344.54376Q294.8125 344.1219 294.8125 343.3719Q294.8125 342.84064 294.53125 342.46564Q294.26562 342.075 293.82812 341.95Q293.53125 341.8719 292.76562 341.8719L290.5625 341.8719L290.5625 344.95ZM301.35938 348.6844Q300.76562 349.1844 300.21875 349.3875Q299.6875 349.59064 299.0625 349.59064Q298.03125 349.59064 297.48438 349.09064Q296.9375 348.59064 296.9375 347.8094Q296.9375 347.35626 297.14062 346.98126Q297.34375 346.59064 297.6875 346.3719Q298.03125 346.1375 298.45312 346.02814Q298.75 345.9344 299.39062 345.85626Q300.65625 345.71564 301.26562 345.4969Q301.26562 345.27814 301.26562 345.23126Q301.26562 344.575 300.96875 344.3094Q300.5625 343.96564 299.76562 343.96564Q299.03125 343.96564 298.67188 344.23126Q298.3125 344.48126 298.14062 345.1375L297.10938 344.9969Q297.25 344.34064 297.57812 343.9344Q297.90625 343.52814 298.51562 343.3094Q299.125 343.09064 299.92188 343.09064Q300.71875 343.09064 301.21875 343.27814Q301.71875 343.46564 301.95312 343.7469Q302.1875 344.02814 302.28125 344.46564Q302.32812 344.73126 302.32812 345.4344L302.32812 346.84064Q302.32812 348.3094 302.39062 348.7Q302.46875 349.09064 302.67188 349.45L301.5625 349.45Q301.40625 349.1219 301.35938 348.6844ZM301.26562 346.325Q300.6875 346.5594 299.54688 346.73126Q298.89062 346.825 298.625 346.95Q298.35938 347.0594 298.20312 347.27814Q298.0625 347.4969 298.0625 347.77814Q298.0625 348.2 298.375 348.48126Q298.70312 348.7625 299.3125 348.7625Q299.92188 348.7625 300.39062 348.4969Q300.875 348.23126 301.09375 347.7625Q301.26562 347.40314 301.26562 346.71564L301.26562 346.325ZM303.875 347.59064L304.90625 347.4344Q305.0 348.0594 305.39062 348.3875Q305.79688 348.71564 306.53125 348.71564Q307.25 348.71564 307.59375 348.4344Q307.95312 348.1375 307.95312 347.73126Q307.95312 347.3719 307.64062 347.16876Q307.42188 347.02814 306.5625 346.8094Q305.40625 346.5125 304.95312 346.3094Q304.51562 346.09064 304.28125 345.71564Q304.04688 345.34064 304.04688 344.8719Q304.04688 344.46564 304.23438 344.10626Q304.42188 343.7469 304.75 343.5125Q305.0 343.34064 305.42188 343.21564Q305.84375 343.09064 306.34375 343.09064Q307.0625 343.09064 307.60938 343.3094Q308.17188 343.5125 308.4375 343.8719Q308.70312 344.23126 308.79688 344.825L307.76562 344.96564Q307.70312 344.4969 307.35938 344.23126Q307.03125 343.95 306.40625 343.95Q305.6875 343.95 305.375 344.2Q305.0625 344.4344 305.0625 344.7625Q305.0625 344.96564 305.1875 345.1219Q305.32812 345.29376 305.59375 345.40314Q305.75 345.46564 306.53125 345.66876Q307.65625 345.98126 308.09375 346.16876Q308.53125 346.35626 308.78125 346.71564Q309.03125 347.075 309.03125 347.6219Q309.03125 348.15314 308.71875 348.6219Q308.42188 349.075 307.84375 349.34064Q307.26562 349.59064 306.53125 349.59064Q305.3125 349.59064 304.67188 349.09064Q304.04688 348.575 303.875 347.59064ZM309.875 347.59064L310.90625 347.4344Q311.0 348.0594 311.39062 348.3875Q311.79688 348.71564 312.53125 348.71564Q313.25 348.71564 313.59375 348.4344Q313.95312 348.1375 313.95312 347.73126Q313.95312 347.3719 313.64062 347.16876Q313.42188 347.02814 312.5625 346.8094Q311.40625 346.5125 310.95312 346.3094Q310.51562 346.09064 310.28125 345.71564Q310.04688 345.34064 310.04688 344.8719Q310.04688 344.46564 310.23438 344.10626Q310.42188 343.7469 310.75 343.5125Q311.0 343.34064 311.42188 343.21564Q311.84375 343.09064 312.34375 343.09064Q313.0625 343.09064 313.60938 343.3094Q314.17188 343.5125 314.4375 343.8719Q314.70312 344.23126 314.79688 344.825L313.76562 344.96564Q313.70312 344.4969 313.35938 344.23126Q313.03125 343.95 312.40625 343.95Q311.6875 343.95 311.375 344.2Q311.0625 344.4344 311.0625 344.7625Q311.0625 344.96564 311.1875 345.1219Q311.32812 345.29376 311.59375 345.40314Q311.75 345.46564 312.53125 345.66876Q313.65625 345.98126 314.09375 346.16876Q314.53125 346.35626 314.78125 346.71564Q315.03125 347.075 315.03125 347.6219Q315.03125 348.15314 314.71875 348.6219Q314.42188 349.075 313.84375 349.34064Q313.26562 349.59064 312.53125 349.59064Q311.3125 349.59064 310.67188 349.09064Q310.04688 348.575 309.875 347.59064ZM316.29688 342.075L316.29688 340.85626L317.35938 340.85626L317.35938 342.075L316.29688 342.075ZM316.29688 349.45L316.29688 343.23126L317.35938 343.23126L317.35938 349.45L316.29688 349.45ZM321.01562 349.45L318.65625 343.23126L319.76562 343.23126L321.10938 346.95Q321.3125 347.5594 321.5 348.2Q321.64062 347.71564 321.89062 347.02814L323.28125 343.23126L324.35938 343.23126L322.0 349.45L321.01562 349.45ZM329.54688 347.45L330.64062 347.575Q330.39062 348.52814 329.6875 349.0594Q328.98438 349.59064 327.90625 349.59064Q326.54688 349.59064 325.73438 348.7469Q324.9375 347.90314 324.9375 346.3875Q324.9375 344.825 325.75 343.96564Q326.5625 343.09064 327.84375 343.09064Q329.09375 343.09064 329.875 343.9344Q330.67188 344.77814 330.67188 346.325Q330.67188 346.41876 330.67188 346.60626L326.03125 346.60626Q326.09375 347.6375 326.60938 348.1844Q327.125 348.71564 327.90625 348.71564Q328.48438 348.71564 328.89062 348.41876Q329.3125 348.10626 329.54688 347.45ZM326.09375 345.7469L329.5625 345.7469Q329.5 344.95 329.17188 344.5594Q328.65625 343.95 327.85938 343.95Q327.125 343.95 326.625 344.4344Q326.14062 344.91876 326.09375 345.7469Z" fill-rule="nonzero"/><path fill="#6aa84f" d="M347.5 340.45C347.5 339.8977 347.94772 339.45 348.5 339.45L358.5 339.45C359.05228 339.45 359.5 339.8977 359.5 340.45L359.5 350.45C359.5 351.0023 359.05228 351.45 358.5 351.45L348.5 351.45C347.94772 351.45 347.5 351.0023 347.5 350.45Z" fill-rule="nonzero"/><path fill="#666666" d="M368.42188 349.45L368.42188 340.85626L371.67188 340.85626Q372.51562 340.85626 372.96875 340.9344Q373.60938 341.04376 374.03125 341.34064Q374.46875 341.6375 374.71875 342.16876Q374.98438 342.7 374.98438 343.34064Q374.98438 344.4344 374.28125 345.2Q373.59375 345.95 371.76562 345.95L369.5625 345.95L369.5625 349.45L368.42188 349.45ZM369.5625 344.95L371.78125 344.95Q372.89062 344.95 373.34375 344.54376Q373.8125 344.1219 373.8125 343.3719Q373.8125 342.84064 373.53125 342.46564Q373.26562 342.075 372.82812 341.95Q372.53125 341.8719 371.76562 341.8719L369.5625 341.8719L369.5625 344.95ZM376.28125 349.45L376.28125 343.23126L377.23438 343.23126L377.23438 344.16876Q377.59375 343.5125 377.89062 343.3094Q378.20312 343.09064 378.57812 343.09064Q379.10938 343.09064 379.65625 343.41876L379.29688 344.40314Q378.90625 344.16876 378.53125 344.16876Q378.17188 344.16876 377.89062 344.3875Q377.625 344.59064 377.51562 344.96564Q377.32812 345.52814 377.32812 346.1844L377.32812 349.45L376.28125 349.45ZM379.90625 346.34064Q379.90625 344.60626 380.85938 343.77814Q381.65625 343.09064 382.8125 343.09064Q384.09375 343.09064 384.90625 343.9344Q385.73438 344.7625 385.73438 346.2469Q385.73438 347.45 385.375 348.1375Q385.01562 348.825 384.3125 349.21564Q383.625 349.59064 382.8125 349.59064Q381.51562 349.59064 380.70312 348.7625Q379.90625 347.91876 379.90625 346.34064ZM380.98438 346.34064Q380.98438 347.52814 381.5 348.1219Q382.03125 348.71564 382.8125 348.71564Q383.60938 348.71564 384.125 348.1219Q384.64062 347.52814 384.64062 346.3094Q384.64062 345.15314 384.10938 344.5594Q383.59375 343.96564 382.8125 343.96564Q382.03125 343.96564 381.5 344.5594Q380.98438 345.1375 380.98438 346.34064ZM387.29688 349.45L387.29688 343.23126L388.23438 343.23126L388.23438 344.10626Q388.53125 343.6375 389.01562 343.3719Q389.5 343.09064 390.125 343.09064Q390.8125 343.09064 391.25 343.3719Q391.70312 343.65314 391.875 344.16876Q392.625 343.09064 393.79688 343.09064Q394.73438 343.09064 395.21875 343.60626Q395.71875 344.10626 395.71875 345.1844L395.71875 349.45L394.67188 349.45L394.67188 345.52814Q394.67188 344.90314 394.5625 344.6219Q394.46875 344.34064 394.20312 344.16876Q393.9375 343.9969 393.5625 343.9969Q392.90625 343.9969 392.46875 344.4344Q392.04688 344.8719 392.04688 345.84064L392.04688 349.45L390.98438 349.45L390.98438 345.40314Q390.98438 344.7 390.71875 344.35626Q390.46875 343.9969 389.89062 343.9969Q389.4375 343.9969 389.0625 344.23126Q388.6875 344.46564 388.51562 344.91876Q388.34375 345.3719 388.34375 346.21564L388.34375 349.45L387.29688 349.45ZM396.90625 346.34064Q396.90625 344.60626 397.85938 343.77814Q398.65625 343.09064 399.8125 343.09064Q401.09375 343.09064 401.90625 343.9344Q402.73438 344.7625 402.73438 346.2469Q402.73438 347.45 402.375 348.1375Q402.01562 348.825 401.3125 349.21564Q400.625 349.59064 399.8125 349.59064Q398.51562 349.59064 397.70312 348.7625Q396.90625 347.91876 396.90625 346.34064ZM397.98438 346.34064Q397.98438 347.52814 398.5 348.1219Q399.03125 348.71564 399.8125 348.71564Q400.60938 348.71564 401.125 348.1219Q401.64062 347.52814 401.64062 346.3094Q401.64062 345.15314 401.10938 344.5594Q400.59375 343.96564 399.8125 343.96564Q399.03125 343.96564 398.5 344.5594Q397.98438 345.1375 397.98438 346.34064ZM406.59375 348.5125L406.75 349.4344Q406.29688 349.52814 405.95312 349.52814Q405.375 349.52814 405.0625 349.35626Q404.75 349.16876 404.60938 348.8719Q404.48438 348.575 404.48438 347.6219L404.48438 344.04376L403.71875 344.04376L403.71875 343.23126L404.48438 343.23126L404.48438 341.6844L405.53125 341.0594L405.53125 343.23126L406.59375 343.23126L406.59375 344.04376L405.53125 344.04376L405.53125 347.6844Q405.53125 348.1375 405.57812 348.2625Q405.64062 348.3875 405.76562 348.46564Q405.89062 348.54376 406.125 348.54376Q406.3125 348.54376 406.59375 348.5125ZM411.54688 347.45L412.64062 347.575Q412.39062 348.52814 411.6875 349.0594Q410.98438 349.59064 409.90625 349.59064Q408.54688 349.59064 407.73438 348.7469Q406.9375 347.90314 406.9375 346.3875Q406.9375 344.825 407.75 343.96564Q408.5625 343.09064 409.84375 343.09064Q411.09375 343.09064 411.875 343.9344Q412.67188 344.77814 412.67188 346.325Q412.67188 346.41876 412.67188 346.60626L408.03125 346.60626Q408.09375 347.6375 408.60938 348.1844Q409.125 348.71564 409.90625 348.71564Q410.48438 348.71564 410.89062 348.41876Q411.3125 348.10626 411.54688 347.45ZM408.09375 345.7469L411.5625 345.7469Q411.5 344.95 411.17188 344.5594Q410.65625 343.95 409.85938 343.95Q409.125 343.95 408.625 344.4344Q408.14062 344.91876 408.09375 345.7469ZM414.28125 349.45L414.28125 343.23126L415.23438 343.23126L415.23438 344.16876Q415.59375 343.5125 415.89062 343.3094Q416.20312 343.09064 416.57812 343.09064Q417.10938 343.09064 417.65625 343.41876L417.29688 344.40314Q416.90625 344.16876 416.53125 344.16876Q416.17188 344.16876 415.89062 344.3875Q415.625 344.59064 415.51562 344.96564Q415.32812 345.52814 415.32812 346.1844L415.32812 349.45L414.28125 349.45Z" fill-rule="nonzero"/><path fill="#666666" d="M19.6125 31.55L19.6125 21.534374L20.971874 21.534374L26.2375 29.39375L26.2375 21.534374L27.51875 21.534374L27.51875 31.55L26.159374 31.55L20.89375 23.675L20.89375 31.55L19.6125 31.55ZM29.628124 31.55L29.628124 21.534374L33.409374 21.534374Q34.409374 21.534374 34.940624 21.628124Q35.675 21.753124 36.175 22.096874Q36.675 22.440624 36.971874 23.065624Q37.284374 23.675 37.284374 24.425Q37.284374 25.70625 36.471874 26.596874Q35.659374 27.471874 33.534374 27.471874L30.95625 27.471874L30.95625 31.55L29.628124 31.55ZM30.95625 26.3L33.55 26.3Q34.83125 26.3 35.3625 25.815624Q35.909374 25.33125 35.909374 24.471874Q35.909374 23.83125 35.596874 23.39375Q35.284374 22.940624 34.753124 22.8Q34.425 22.70625 33.51875 22.70625L30.95625 22.70625L30.95625 26.3ZM38.175 28.33125L39.425 28.221874Q39.51875 28.971874 39.846874 29.45625Q40.175 29.940624 40.846874 30.2375Q41.534374 30.534374 42.39375 30.534374Q43.14375 30.534374 43.721874 30.315624Q44.315624 30.08125 44.596874 29.690624Q44.878124 29.3 44.878124 28.83125Q44.878124 28.3625 44.596874 28.01875Q44.33125 27.659374 43.70625 27.409374Q43.3 27.253124 41.909374 26.925Q40.534374 26.596874 39.9875 26.3Q39.26875 25.925 38.909374 25.378124Q38.565624 24.815624 38.565624 24.1125Q38.565624 23.3625 38.9875 22.70625Q39.425 22.034374 40.253124 21.70625Q41.08125 21.3625 42.096874 21.3625Q43.20625 21.3625 44.05 21.721874Q44.909374 22.08125 45.3625 22.784374Q45.815624 23.471874 45.8625 24.346874L44.58125 24.440624Q44.4875 23.503124 43.89375 23.01875Q43.3 22.51875 42.14375 22.51875Q40.940624 22.51875 40.39375 22.971874Q39.846874 23.409374 39.846874 24.034374Q39.846874 24.565624 40.2375 24.925Q40.6125 25.26875 42.221874 25.64375Q43.846874 26.003124 44.440624 26.26875Q45.315624 26.675 45.7375 27.3Q46.159374 27.909374 46.159374 28.721874Q46.159374 29.51875 45.690624 30.2375Q45.2375 30.940624 44.378124 31.33125Q43.51875 31.721874 42.45625 31.721874Q41.096874 31.721874 40.175 31.33125Q39.253124 30.925 38.721874 30.128124Q38.20625 29.33125 38.175 28.33125ZM51.628124 31.55L51.628124 21.534374L55.08125 21.534374Q56.253124 21.534374 56.8625 21.675Q57.721874 21.8625 58.33125 22.39375Q59.128124 23.065624 59.51875 24.1125Q59.909374 25.14375 59.909374 26.4875Q59.909374 27.628124 59.64375 28.51875Q59.378124 29.39375 58.95625 29.971874Q58.55 30.55 58.05 30.878124Q57.55 31.20625 56.846874 31.378124Q56.159374 31.55 55.253124 31.55L51.628124 31.55ZM52.95625 30.3625L55.096874 30.3625Q56.08125 30.3625 56.64375 30.190624Q57.221874 30.003124 57.55 29.659374Q58.01875 29.190624 58.284374 28.39375Q58.55 27.596874 58.55 26.45625Q58.55 24.89375 58.034374 24.05Q57.51875 23.20625 56.784374 22.909374Q56.2375 22.70625 55.065624 22.70625L52.95625 22.70625L52.95625 30.3625ZM61.4875 22.940624L61.4875 21.534374L62.70625 21.534374L62.70625 22.940624L61.4875 22.940624ZM61.4875 31.55L61.4875 24.284374L62.70625 24.284374L62.70625 31.55L61.4875 31.55ZM63.9875 29.378124L65.19063 29.190624Q65.3 29.925 65.76875 30.315624Q66.2375 30.70625 67.08125 30.70625Q67.925 30.70625 68.33125 30.3625Q68.75313 30.01875 68.75313 29.55Q68.75313 29.128124 68.37813 28.89375Q68.12813 28.721874 67.12813 28.471874Q65.76875 28.128124 65.2375 27.878124Q64.72188 27.628124 64.45625 27.190624Q64.19063 26.753124 64.19063 26.221874Q64.19063 25.7375 64.40938 25.33125Q64.62813 24.909374 65.01875 24.628124Q65.3 24.425 65.78438 24.284374Q66.28438 24.128124 66.8625 24.128124Q67.70625 24.128124 68.34688 24.378124Q69.00313 24.6125 69.31563 25.034374Q69.62813 25.45625 69.7375 26.159374L68.53438 26.33125Q68.45625 25.76875 68.05 25.45625Q67.65938 25.14375 66.94063 25.14375Q66.09688 25.14375 65.7375 25.425Q65.37813 25.690624 65.37813 26.08125Q65.37813 26.315624 65.51875 26.503124Q65.675 26.70625 66.00313 26.83125Q66.175 26.89375 67.08125 27.14375Q68.39375 27.503124 68.90938 27.721874Q69.425 27.940624 69.70625 28.3625Q70.00313 28.784374 70.00313 29.409374Q70.00313 30.034374 69.64375 30.58125Q69.3 31.1125 68.6125 31.425Q67.94063 31.721874 67.08125 31.721874Q65.675 31.721874 64.925 31.128124Q64.19063 30.534374 63.9875 29.378124ZM74.15938 30.45625L74.33125 31.534374Q73.81563 31.64375 73.40938 31.64375Q72.7375 31.64375 72.3625 31.440624Q72.00313 31.221874 71.84688 30.878124Q71.70625 30.534374 71.70625 29.425L71.70625 25.253124L70.8 25.253124L70.8 24.284374L71.70625 24.284374L71.70625 22.4875L72.925 21.753124L72.925 24.284374L74.15938 24.284374L74.15938 25.253124L72.925 25.253124L72.925 29.4875Q72.925 30.01875 72.9875 30.175Q73.05 30.315624 73.19063 30.409374Q73.34688 30.503124 73.6125 30.503124Q73.83125 30.503124 74.15938 30.45625ZM75.45625 31.55L75.45625 24.284374L76.56563 24.284374L76.56563 25.39375Q76.9875 24.6125 77.34688 24.378124Q77.70625 24.128124 78.14375 24.128124Q78.76875 24.128124 79.40938 24.51875L78.9875 25.659374Q78.53438 25.39375 78.08125 25.39375Q77.675 25.39375 77.34688 25.64375Q77.03438 25.878124 76.89375 26.315624Q76.69063 26.971874 76.69063 27.753124L76.69063 31.55L75.45625 31.55ZM80.4875 22.940624L80.4875 21.534374L81.70625 21.534374L81.70625 22.940624L80.4875 22.940624ZM80.4875 31.55L80.4875 24.284374L81.70625 24.284374L81.70625 31.55L80.4875 31.55ZM84.6125 31.55L83.47188 31.55L83.47188 21.534374L84.69063 21.534374L84.69063 25.096874Q85.47188 24.128124 86.69063 24.128124Q87.3625 24.128124 87.95625 24.39375Q88.55 24.659374 88.94063 25.159374Q89.33125 25.64375 89.55 26.33125Q89.76875 27.01875 89.76875 27.815624Q89.76875 29.675 88.83125 30.70625Q87.90938 31.721874 86.62813 31.721874Q85.34688 31.721874 84.6125 30.64375L84.6125 31.55ZM84.59688 27.8625Q84.59688 29.175 84.95625 29.753124Q85.53438 30.70625 86.51875 30.70625Q87.33125 30.70625 87.90938 30.003124Q88.50313 29.3 88.50313 27.909374Q88.50313 26.4875 87.94063 25.815624Q87.37813 25.14375 86.58125 25.14375Q85.76875 25.14375 85.175 25.846874Q84.59688 26.534374 84.59688 27.8625ZM96.2375 31.55L96.2375 30.4875Q95.37813 31.721874 93.925 31.721874Q93.28438 31.721874 92.72188 31.471874Q92.175 31.221874 91.89375 30.846874Q91.62813 30.471874 91.51875 29.940624Q91.44063 29.58125 91.44063 28.784374L91.44063 24.284374L92.675 24.284374L92.675 28.315624Q92.675 29.284374 92.75313 29.6125Q92.8625 30.096874 93.2375 30.378124Q93.6125 30.659374 94.175 30.659374Q94.72188 30.659374 95.20625 30.378124Q95.69063 30.08125 95.89375 29.596874Q96.09688 29.1125 96.09688 28.175L96.09688 24.284374L97.33125 24.284374L97.33125 31.55L96.2375 31.55ZM102.15938 30.45625L102.33125 31.534374Q101.81563 31.64375 101.40938 31.64375Q100.7375 31.64375 100.3625 31.440624Q100.00313 31.221874 99.84688 30.878124Q99.70625 30.534374 99.70625 29.425L99.70625 25.253124L98.8 25.253124L98.8 24.284374L99.70625 24.284374L99.70625 22.4875L100.925 21.753124L100.925 24.284374L102.15938 24.284374L102.15938 25.253124L100.925 25.253124L100.925 29.4875Q100.925 30.01875 100.9875 30.175Q101.05 30.315624 101.19063 30.409374Q101.34688 30.503124 101.6125 30.503124Q101.83125 30.503124 102.15938 30.45625ZM103.4875 22.940624L103.4875 21.534374L104.70625 21.534374L104.70625 22.940624L103.4875 22.940624ZM103.4875 31.55L103.4875 24.284374L104.70625 24.284374L104.70625 31.55L103.4875 31.55ZM106.01875 27.925Q106.01875 25.909374 107.14375 24.925Q108.06563 24.128124 109.425 24.128124Q110.90938 24.128124 111.8625 25.1125Q112.81563 26.08125 112.81563 27.815624Q112.81563 29.221874 112.39375 30.034374Q111.97188 30.83125 111.15938 31.284374Q110.3625 31.721874 109.425 31.721874Q107.89375 31.721874 106.95625 30.7375Q106.01875 29.753124 106.01875 27.925ZM107.28438 27.925Q107.28438 29.315624 107.89375 30.01875Q108.50313 30.70625 109.425 30.70625Q110.33125 30.70625 110.94063 30.003124Q111.55 29.3 111.55 27.878124Q111.55 26.534374 110.94063 25.846874Q110.33125 25.14375 109.425 25.14375Q108.50313 25.14375 107.89375 25.83125Q107.28438 26.51875 107.28438 27.925ZM114.47188 31.55L114.47188 24.284374L115.58125 24.284374L115.58125 25.315624Q116.37813 24.128124 117.89375 24.128124Q118.55 24.128124 119.09688 24.3625Q119.64375 24.596874 119.90938 24.9875Q120.19063 25.3625 120.3 25.89375Q120.37813 26.2375 120.37813 27.08125L120.37813 31.55L119.14375 31.55L119.14375 27.128124Q119.14375 26.378124 119.00313 26.01875Q118.8625 25.64375 118.4875 25.425Q118.12813 25.190624 117.62813 25.190624Q116.84688 25.190624 116.26875 25.690624Q115.70625 26.190624 115.70625 27.58125L115.70625 31.55L114.47188 31.55Z" fill-rule="nonzero"/></svg>