<?xml version="1.0" standalone="yes"?>

<svg version="1.1" viewBox="0.0 0.0 579.0682414698163 343.8923884514436" fill="none" stroke="none" stroke-linecap="square" stroke-miterlimit="10" xmlns="http://www.w3.org/2000/svg" xmlns:xlink="http://www.w3.org/1999/xlink"><clipPath id="p.0"><path d="m0 0l579.06824 0l0 343.8924l-579.06824 0l0 -343.8924z" clip-rule="nonzero"></path></clipPath><g clip-path="url(#p.0)"><path fill="#000000" fill-opacity="0.0" d="m0 0l579.06824 0l0 343.8924l-579.06824 0z" fill-rule="evenodd"></path><path fill="#000000" fill-opacity="0.0" d="m8.383203 6.1076117l101.32284 0l0 48.503937l-101.32284 0z" fill-rule="evenodd"></path><path stroke="#000000" stroke-width="1.0" stroke-linejoin="round" stroke-linecap="butt" d="m8.383203 6.1076117l101.32284 0l0 48.503937l-101.32284 0z" fill-rule="evenodd"></path><path fill="#000000" d="m28.664707 37.27958l-1.546875 0l0 -13.593752l1.65625 0l0 4.84375q1.0625 -1.328125 2.703125 -1.328125q0.90625 0 1.71875 0.375q0.8125 0.359375 1.328125 1.03125q0.53125 0.65625 0.828125 1.59375q0.296875 0.9375 0.296875 2.000002q0 2.53125 -1.25 3.921875q-1.25 1.375 -3.0 1.375q-1.75 0 -2.734375 -1.453125l0 1.234375zm-0.015625 -5.0q0 1.765625 0.46875 2.5625q0.796875 1.28125 2.140625 1.28125q1.09375 0 1.890625 -0.9375q0.796875 -0.953125 0.796875 -2.84375q0 -1.9218769 -0.765625 -2.843752q-0.765625 -0.921875 -1.84375 -0.921875q-1.09375 0 -1.890625 0.953125q-0.796875 0.953125 -0.796875 2.750002zm8.828842 5.0l0 -9.859377l1.5 0l0 1.5q0.578125 -1.046875 1.0625 -1.375q0.484375 -0.34375 1.078125 -0.34375q0.84375 0 1.71875 0.546875l-0.578125 1.546875q-0.609375 -0.359375 -1.234375 -0.359375q-0.546875 0 -0.984375 0.328125q-0.421875 0.328125 -0.609375 0.90625q-0.28125 0.890625 -0.28125 1.9531269l0 5.15625l-1.671875 0zm5.603302 -4.921875q0 -2.734377 1.53125 -4.062502q1.265625 -1.09375 3.09375 -1.09375q2.03125 0 3.3125 1.34375q1.296875 1.328125 1.296875 3.671877q0 1.90625 -0.578125 3.0q-0.5625 1.078125 -1.65625 1.6875q-1.078125 0.59375 -2.375 0.59375q-2.0625 0 -3.34375 -1.328125q-1.28125 -1.328125 -1.28125 -3.8125zm1.71875 0q0 1.890625 0.828125 2.828125q0.828125 0.9375 2.078125 0.9375q1.25 0 2.0625 -0.9375q0.828125 -0.953125 0.828125 -2.890625q0 -1.8281269 -0.828125 -2.765627q-0.828125 -0.9375 -2.0625 -0.9375q-1.25 0 -2.078125 0.9375q-0.828125 0.9375 -0.828125 2.828127zm11.110092 4.921875l-3.015625 -9.859377l1.71875 0l1.5625 5.687502l0.59375 2.125q0.03125 -0.15625 0.5 -2.03125l1.578125 -5.781252l1.71875 0l1.46875 5.718752l0.484375 1.890625l0.578125 -1.90625l1.6875038 -5.703127l1.625 0l-3.0781288 9.859377l-1.734375 0l-1.578125 -5.906252l-0.375 -1.671875l-2.0 7.578127l-1.734375 0zm10.97295 -2.9375l1.65625 -0.265625q0.140625 1.0 0.765625 1.53125q0.640625 0.515625 1.78125 0.515625q1.15625 0 1.703125 -0.46875q0.5625 -0.46875 0.5625 -1.09375q0 -0.5625 -0.484375 -0.890625q-0.34375 -0.21875 -1.703125 -0.5625q-1.84375 -0.46875 -2.5625 -0.796875q-0.703125 -0.3437519 -1.078125 -0.9375019q-0.359375 -0.609375 -0.359375 -1.328125q0 -0.65625 0.296875 -1.21875q0.3125 -0.5625 0.828125 -0.9375q0.390625 -0.28125 1.0625 -0.484375q0.671875 -0.203125 1.4375 -0.203125q1.171875 0 2.046875 0.34375q0.875 0.328125 1.28125 0.90625q0.421875 0.5625 0.578125 1.515625l-1.625 0.21875q-0.109375 -0.75 -0.65625 -1.171875q-0.53125 -0.4375 -1.5 -0.4375q-1.15625 0 -1.640625 0.390625q-0.484375 0.375 -0.484375 0.875q0 0.328125 0.203125 0.59375q0.203125 0.265625 0.640625 0.4375q0.25 0.09375 1.46875 0.4375q1.765625 0.46875 2.46875 0.7656269q0.703125 0.296875 1.09375 0.875q0.40625 0.578125 0.40625 1.4375q0 0.828125 -0.484375 1.578125q-0.484375 0.734375 -1.40625 1.140625q-0.921875 0.390625 -2.078125 0.390625q-1.921875 0 -2.9375 -0.796875q-1.0 -0.796875 -1.28125 -2.359375zm16.75 -0.234375l1.71875 0.21875q-0.40625 1.5 -1.515625 2.34375q-1.09375 0.828125 -2.8125 0.828125q-2.15625 0 -3.421875 -1.328125q-1.265625 -1.328125 -1.265625 -3.734375q0 -2.484377 1.265625 -3.859377q1.28125 -1.375 3.328125 -1.375q1.984375 0 3.234375 1.34375q1.25 1.34375 1.25 3.796877q0 0.140625 -0.015625 0.4375l-7.34375 0q0.09375 1.625 0.921875 2.484375q0.828125 0.859375 2.0625 0.859375q0.90625 0 1.546875 -0.46875q0.65625 -0.484375 1.046875 -1.546875zm-5.484375 -2.703127l5.5 0q-0.109375 -1.234375 -0.625 -1.859375q-0.796875 -0.96875 -2.078125 -0.96875q-1.140625 0 -1.9375 0.78125q-0.78125 0.765625 -0.859375 2.046875zm9.094467 5.875002l0 -9.859377l1.5 0l0 1.5q0.578125 -1.046875 1.0625 -1.375q0.484375 -0.34375 1.078125 -0.34375q0.84375 0 1.71875 0.546875l-0.578125 1.546875q-0.609375 -0.359375 -1.234375 -0.359375q-0.546875 0 -0.984375 0.328125q-0.421875 0.328125 -0.609375 0.90625q-0.28125 0.890625 -0.28125 1.9531269l0 5.15625l-1.671875 0z" fill-rule="nonzero"></path><path fill="#000000" fill-opacity="0.0" d="m163.4252 6.1076117l101.322815 0l0 48.503937l-101.322815 0z" fill-rule="evenodd"></path><path stroke="#000000" stroke-width="1.0" stroke-linejoin="round" stroke-linecap="butt" d="m163.4252 6.1076117l101.322815 0l0 48.503937l-101.322815 0z" fill-rule="evenodd"></path><path fill="#000000" d="m188.74821 34.34208l1.65625 -0.265625q0.140625 1.0 0.765625 1.53125q0.640625 0.515625 1.78125 0.515625q1.15625 0 1.703125 -0.46875q0.5625 -0.46875 0.5625 -1.09375q0 -0.5625 -0.484375 -0.890625q-0.34375 -0.21875 -1.703125 -0.5625q-1.84375 -0.46875 -2.5625 -0.796875q-0.703125 -0.3437519 -1.078125 -0.9375019q-0.359375 -0.609375 -0.359375 -1.328125q0 -0.65625 0.296875 -1.21875q0.3125 -0.5625 0.828125 -0.9375q0.390625 -0.28125 1.0625 -0.484375q0.671875 -0.203125 1.4375 -0.203125q1.171875 0 2.046875 0.34375q0.875 0.328125 1.28125 0.90625q0.421875 0.5625 0.578125 1.515625l-1.625 0.21875q-0.109375 -0.75 -0.65625 -1.171875q-0.53125 -0.4375 -1.5 -0.4375q-1.15625 0 -1.640625 0.390625q-0.484375 0.375 -0.484375 0.875q0 0.328125 0.203125 0.59375q0.203125 0.265625 0.640625 0.4375q0.25 0.09375 1.46875 0.4375q1.765625 0.46875 2.46875 0.7656269q0.703125 0.296875 1.09375 0.875q0.40625 0.578125 0.40625 1.4375q0 0.828125 -0.484375 1.578125q-0.484375 0.734375 -1.40625 1.140625q-0.921875 0.390625 -2.078125 0.390625q-1.921875 0 -2.9375 -0.796875q-1.0 -0.796875 -1.28125 -2.359375zm16.75 -0.234375l1.71875 0.21875q-0.40625 1.5 -1.515625 2.34375q-1.09375 0.828125 -2.8125 0.828125q-2.15625 0 -3.421875 -1.328125q-1.265625 -1.328125 -1.265625 -3.734375q0 -2.484377 1.265625 -3.859377q1.28125 -1.375 3.328125 -1.375q1.984375 0 3.234375 1.34375q1.25 1.34375 1.25 3.796877q0 0.140625 -0.015625 0.4375l-7.34375 0q0.09375 1.625 0.921875 2.484375q0.828125 0.859375 2.0625 0.859375q0.90625 0 1.546875 -0.46875q0.65625 -0.484375 1.046875 -1.546875zm-5.484375 -2.703127l5.5 0q-0.109375 -1.234375 -0.625 -1.859375q-0.796875 -0.96875 -2.078125 -0.96875q-1.140625 0 -1.9375 0.78125q-0.78125 0.765625 -0.859375 2.046875zm9.094467 5.875002l0 -9.859377l1.5 0l0 1.5q0.578125 -1.046875 1.0625 -1.375q0.484375 -0.34375 1.078125 -0.34375q0.84375 0 1.71875 0.546875l-0.578125 1.546875q-0.609375 -0.359375 -1.234375 -0.359375q-0.546875 0 -0.984375 0.328125q-0.421875 0.328125 -0.609375 0.90625q-0.28125 0.890625 -0.28125 1.9531269l0 5.15625l-1.671875 0zm8.962677 0l-3.75 -9.859377l1.765625 0l2.125 5.906252q0.34375 0.953125 0.625 1.984375q0.21875 -0.78125 0.625 -1.875l2.1875 -6.015627l1.71875 0l-3.734375 9.859377l-1.5625 0zm13.343765 -3.171875l1.71875 0.21875q-0.40625 1.5 -1.515625 2.34375q-1.09375 0.828125 -2.8125 0.828125q-2.1562653 0 -3.4218903 -1.328125q-1.265625 -1.328125 -1.265625 -3.734375q0 -2.484377 1.265625 -3.859377q1.28125 -1.375 3.3281403 -1.375q1.984375 0 3.234375 1.34375q1.25 1.34375 1.25 3.796877q0 0.140625 -0.015625 0.4375l-7.3437653 0q0.09375 1.625 0.921875 2.484375q0.82814026 0.859375 2.0625153 0.859375q0.90625 0 1.546875 -0.46875q0.65625 -0.484375 1.046875 -1.546875zm-5.4843903 -2.703127l5.5000153 0q-0.109375 -1.234375 -0.625 -1.859375q-0.796875 -0.96875 -2.078125 -0.96875q-1.140625 0 -1.9375153 0.78125q-0.78125 0.765625 -0.859375 2.046875zm9.094482 5.875002l0 -9.859377l1.5 0l0 1.5q0.578125 -1.046875 1.0625 -1.375q0.484375 -0.34375 1.078125 -0.34375q0.84375 0 1.71875 0.546875l-0.578125 1.546875q-0.609375 -0.359375 -1.234375 -0.359375q-0.546875 0 -0.984375 0.328125q-0.421875 0.328125 -0.609375 0.90625q-0.28125 0.890625 -0.28125 1.9531269l0 5.15625l-1.671875 0z" fill-rule="nonzero"></path><path fill="#000000" fill-opacity="0.0" d="m59.04462 54.61155l0 253.29135" fill-rule="evenodd"></path><path stroke="#000000" stroke-width="1.0" stroke-linejoin="round" stroke-linecap="butt" d="m59.04462 54.61155l0 247.29135" fill-rule="evenodd"></path><path fill="#000000" stroke="#000000" stroke-width="1.0" stroke-linecap="butt" d="m57.392887 301.9029l1.6517334 4.538086l1.6517296 -4.538086z" fill-rule="evenodd"></path><path fill="#000000" fill-opacity="0.0" d="m214.08661 54.61155l0 255.46457" fill-rule="evenodd"></path><path stroke="#000000" stroke-width="1.0" stroke-linejoin="round" stroke-linecap="butt" d="m214.08661 54.61155l0 249.46457" fill-rule="evenodd"></path><path fill="#000000" stroke="#000000" stroke-width="1.0" stroke-linecap="butt" d="m212.43488 304.0761l1.6517334 4.5381165l1.6517334 -4.5381165z" fill-rule="evenodd"></path><path fill="#000000" fill-opacity="0.0" d="m60.120735 89.10236l153.03937 39.874016" fill-rule="evenodd"></path><path stroke="#000000" stroke-width="1.0" stroke-linejoin="round" stroke-linecap="butt" d="m60.120735 89.10236l147.23322 38.36123" fill-rule="evenodd"></path><path fill="#000000" stroke="#000000" stroke-width="1.0" stroke-linecap="butt" d="m206.9375 129.06197l4.8079376 -0.45417786l-3.9750366 -2.7425613z" fill-rule="evenodd"></path><path fill="#000000" fill-opacity="0.0" d="m60.120735 172.20992l153.03937 -39.874023" fill-rule="evenodd"></path><path stroke="#000000" stroke-width="1.0" stroke-linejoin="round" stroke-linecap="butt" d="m65.926895 170.69713l147.23322 -38.361237" fill-rule="evenodd"></path><path fill="#000000" stroke="#000000" stroke-width="1.0" stroke-linecap="butt" d="m65.510445 169.09875l-3.9750366 2.742569l4.8079376 0.45417786z" fill-rule="evenodd"></path><path fill="#000000" fill-opacity="0.0" d="m60.120735 175.56943l153.03937 39.874023" fill-rule="evenodd"></path><path stroke="#000000" stroke-width="1.0" stroke-linejoin="round" stroke-linecap="butt" d="m60.120735 175.56943l147.23322 38.36125" fill-rule="evenodd"></path><path fill="#000000" stroke="#000000" stroke-width="1.0" stroke-linecap="butt" d="m206.9375 215.52904l4.8079376 -0.45417786l-3.9750366 -2.742569z" fill-rule="evenodd"></path><path fill="#000000" fill-opacity="0.0" d="m60.120735 258.67697l153.03937 -39.87401" fill-rule="evenodd"></path><path stroke="#000000" stroke-width="1.0" stroke-linejoin="round" stroke-linecap="butt" d="m65.926895 257.1642l147.23322 -38.36125" fill-rule="evenodd"></path><path fill="#000000" stroke="#000000" stroke-width="1.0" stroke-linecap="butt" d="m65.510445 255.56583l-3.9750366 2.7425537l4.8079376 0.45419312z" fill-rule="evenodd"></path><path fill="#000000" fill-opacity="0.0" d="m107.77061 73.249115l73.73229 19.748032l-7.5275574 28.125984l-73.73229 -19.748032z" fill-rule="evenodd"></path><path fill="#000000" d="m117.11405 91.34824l1.6451416 0.44062042l-0.6069641 1.1800232q1.3003998 -1.172226 2.3720016 -0.88521576q0.3924179 0.10510254 0.7625122 0.41451263l-1.0478592 1.2560425q-0.22129059 -0.14015198 -0.4929657 -0.21291351q-0.4527893 -0.121276855 -1.013588 0.10057068q-0.55675507 0.20674133 -0.9819412 0.7075424q-0.4100876 0.50484467 -1.0019608 1.6889038l-0.9830475 1.920433l-1.7507935 -0.46892548l3.0994644 -6.141594zm9.067497 6.488693l-4.4071655 -1.1803894q-0.043373108 0.101615906 -0.059532166 0.1619873q-0.17369843 0.6490326 0.09455109 1.1576233q0.27230072 0.49349976 0.80055237 0.6349869q0.8753967 0.23445892 1.6158447 -0.5377655l1.5009995 0.67700195q-0.70729065 0.8296356 -1.6063004 1.1064758q-0.89497375 0.26174164 -1.8609238 0.0030288696q-1.3130951 -0.3516922 -1.9210358 -1.4041824q-0.5928421 -1.0484543 -0.22522736 -2.4219818q0.355484 -1.3282547 1.3888702 -2.1676025q1.3909607 -1.1479721 3.262497 -0.64671326q1.1923523 0.31935883 1.7037811 1.2489471q0.51142883 0.9295883 0.1559372 2.2578354q-0.17370605 0.6490326 -0.4428482 1.1107483zm-1.1922989 -1.4678192q0.028274536 -0.105651855 0.044433594 -0.16603088q0.19390106 -0.72450256 -0.0411911 -1.1756821q-0.22000122 -0.44714355 -0.76335144 -0.5926666q-0.5433502 -0.1455307 -1.0901184 0.14476776q-0.53167725 0.29434967 -0.8967056 1.053894l2.746933 0.7357178zm8.762642 -0.56468964l1.6149445 0.43253326l-4.2791595 8.494629l-1.7658844 -0.47296906l1.4499054 -2.879158q-0.5729065 0.267128 -1.0248566 0.32401276q-0.4479065 0.041793823 -0.9761658 -0.0996933q-1.0414124 -0.27893066 -1.4744034 -1.1389847q-0.43299103 -0.860054 -0.08154297 -2.1732101q0.28277588 -1.0565643 0.9719925 -1.9395599q0.68922424 -0.88300323 1.5701752 -1.2132034q0.9000702 -0.3412552 1.7754669 -0.106796265q1.418747 0.37998962 1.7375641 1.7270813l0.4819641 -0.9546814zm-4.838669 2.909729q-0.17370605 0.6490326 0.06840515 1.1344452q0.26124573 0.4743576 0.77441406 0.61180115q0.4376831 0.11723328 0.9259949 -0.07550049q0.5034027 -0.18868256 0.9458008 -0.81427765q0.46154785 -0.63664246 0.6312103 -1.2705841q0.19793701 -0.7395935 -0.0703125 -1.2481842q-0.26826477 -0.5085907 -0.75123596 -0.6379471q-0.40751648 -0.10914612 -0.9149475 0.09463501q-0.50743103 0.20378113 -0.9770508 0.8706131q-0.45048523 0.655777 -0.63227844 1.3349991zm10.5993805 5.6049194l-1.7658844 -0.47296143l4.2942657 -8.490585l1.7507935 0.46892548l-1.5205078 3.0220108q0.7098236 -0.2951584 1.279541 -0.36902618q0.5697174 -0.0738678 1.1583405 0.08378601q0.79992676 0.21424866 1.1274872 0.80342865q0.34669495 0.578125 0.15280151 1.3026276q-0.105041504 0.39243317 -0.5083313 1.1740875l-1.8179169 3.5893784l-1.7507935 -0.46892548l1.8532104 -3.6608047q0.29040527 -0.60160065 0.33888245 -0.7827225q0.08483887 -0.31697083 -0.05885315 -0.5657425q-0.14369202 -0.24877167 -0.50593567 -0.34578705q-0.43769836 -0.11723328 -0.9259949 0.07550049q-0.6373291 0.26604462 -1.0665436 0.78193665q-0.23576355 0.2765503 -0.81552124 1.415329l-1.2190399 2.4395447zm7.9145813 -3.4608307l0.60398865 -1.2293396l0.8603058 0.23041534l0.50917053 -0.9959259l2.330536 -0.66986084l-1.073822 2.1387558l1.0715942 0.2870102l-0.6190796 1.2253036l-1.0716095 -0.28701782l-1.3047028 2.5783615q-0.34887695 0.699173 -0.3771515 0.8048248q-0.052520752 0.1962204 0.03590393 0.34931183q0.107559204 0.14203644 0.4396057 0.23097229q0.1207428 0.032341003 0.5967102 0.1274643l-0.6341858 1.2212601q-0.47702026 -0.030708313 -0.9449005 -0.15602875q-0.93577576 -0.2506256 -1.2654572 -0.71097565q-0.32565308 -0.47543335 -0.15196228 -1.124466q0.08079529 -0.30187988 0.5940094 -1.3128967l1.2462463 -2.4807892l-0.8451996 -0.2263794zm5.4949646 0.08063507l1.6602325 0.444664l-0.37608337 0.74040985q1.2204437 -0.6921921 2.2769623 -0.40922546q0.739563 0.19808197 1.0471497 0.62015533q0.32670593 0.41101837 0.28694153 0.9826889q0.48043823 -0.40511322 1.1881256 -0.57144165q0.7227783 -0.16227722 1.4019775 0.019630432q0.7848358 0.21020508 1.1094208 0.75006104q0.32458496 0.53985596 0.142807 1.2190781q-0.08888245 0.33206177 -0.49217224 1.1137085l-1.8965912 3.7624207l-1.7507935 -0.46891785l1.8965912 -3.7624207q0.34887695 -0.699173 0.3771515 -0.8048248q0.07270813 -0.27169037 -0.05291748 -0.46709442q-0.12562561 -0.19540405 -0.44258118 -0.28029633q-0.664093 -0.17786407 -1.3630829 0.37900543q-0.5065918 0.38193512 -1.1025085 1.5810928l-1.4105835 2.7926407l-1.7658844 -0.47296906l1.8844757 -3.7171326q0.3176117 -0.6428375 0.37013245 -0.8390579q0.06867981 -0.25659943 -0.06800842 -0.471138q-0.12158203 -0.210495 -0.42344666 -0.2913437q-0.28677368 -0.076805115 -0.64816284 0.004333496q-0.34628296 0.08518219 -0.6534729 0.32642365q-0.30718994 0.24123383 -0.6024933 0.6797714q-0.13201904 0.19110107 -0.5081024 0.9315109l-1.4337616 2.818779l-1.7507782 -0.46891785l3.0994568 -6.141594zm8.393188 9.219719l4.2791595 -8.494629l1.7507935 0.46892548l-4.2791595 8.494621l-1.7507935 -0.46891785z" fill-rule="nonzero"></path><path fill="#000000" fill-opacity="0.0" d="m87.19946 136.00038l80.91339 -21.669289l7.5275574 28.125984l-80.91339 21.669296z" fill-rule="evenodd"></path><path fill="#000000" d="m121.99849 149.24915l-1.765892 0.47291565l-0.5209961 -9.501144l1.7508011 -0.46888733l0.19230652 3.3777313q0.46744537 -0.6104431 0.924057 -0.959198q0.45661163 -0.34873962 1.0452423 -0.5063782q0.7999344 -0.2142334 1.3779602 0.13241577q0.5890732 0.32751465 0.78297424 1.0520172q0.105033875 0.39242554 0.14609528 1.2710876l0.21806335 4.017868l-1.7508087 0.46887207l-0.22315979 -4.0973663q-0.048919678 -0.666275 -0.09739685 -0.84739685q-0.08483124 -0.31697083 -0.33355713 -0.46064758q-0.24872589 -0.1436615 -0.6109619 -0.046661377q-0.43769836 0.11721802 -0.76441956 0.52822876q-0.41918945 0.54901123 -0.53331757 1.2104187q-0.066101074 0.35739136 4.8828125E-4 1.633606l0.16252136 2.722519zm5.1272583 -6.95372l-0.09082794 -1.3667755l0.8603058 -0.23040771l-0.056381226 -1.1171875l1.6842117 -1.7451019l0.13806152 2.3893738l1.0716095 -0.2869873l0.07574463 1.3708191l-1.0716095 0.2869873l0.15763855 2.8855743q0.04701233 0.78001404 0.075286865 0.8856659q0.052505493 0.19622803 0.2055664 0.28463745q0.16412354 0.0692749 0.49617004 -0.01965332q0.1207428 -0.032333374 0.58055115 -0.18782043l0.060638428 1.3748627q-0.42855835 0.21182251 -0.8964386 0.3371277q-0.93577576 0.25061035 -1.451294 0.01663208q-0.51956177 -0.24906921 -0.6932678 -0.8981018q-0.08078003 -0.30187988 -0.14120483 -1.4341736l-0.1595459 -2.77182l-0.84521484 0.22634888zm4.800186 -2.6766357l1.6602325 -0.44462585l0.044036865 0.8293457q0.71147156 -1.20961 1.7679901 -1.4925537q0.739563 -0.19805908 1.2168121 0.013824463q0.48831177 0.19273376 0.73939514 0.70780945q0.21382141 -0.59106445 0.7437744 -1.0888519q0.54504395 -0.5018158 1.2242279 -0.6837158q0.7848358 -0.21018982 1.3356476 0.095214844q0.55081177 0.30540466 0.732605 0.9846344q0.08886719 0.33206177 0.12992859 1.2107239l0.23634338 4.207062l-1.7507935 0.46888733l-0.23634338 -4.207077q-0.04701233 -0.78001404 -0.075302124 -0.8856659q-0.07270813 -0.27168274 -0.27912903 -0.37815857q-0.2064209 -0.10647583 -0.52337646 -0.021591187q-0.664093 0.17784119 -0.9914398 1.0095825q-0.24806213 0.58406067 -0.16531372 1.9206543l0.17295837 3.1240997l-1.7658997 0.47291565l-0.2242279 -4.161789q-0.045944214 -0.71559143 -0.098464966 -0.9118042q-0.06866455 -0.25660706 -0.29421997 -0.37413025q-0.21046448 -0.12156677 -0.5123291 -0.040725708q-0.28675842 0.076797485 -0.5592804 0.327713q-0.25743103 0.24687195 -0.4030304 0.609375q-0.14559937 0.3625183 -0.18235779 0.8899689q-0.018920898 0.23153687 0.025115967 1.0608673l0.16595459 3.1583405l-1.7508087 0.46887207l-0.3827057 -6.8692017zm11.875427 3.7913513l-0.53608704 -9.497101l1.7507935 -0.46887207l0.53608704 9.497101l-1.7507935 0.46887207z" fill-rule="nonzero"></path><path fill="#000000" fill-opacity="0.0" d="m107.77061 158.63834l73.73229 19.748032l-7.5275574 28.125977l-73.73229 -19.748016z" fill-rule="evenodd"></path><path fill="#000000" d="m119.96175 177.50017l1.6451416 0.44062805l-0.6069641 1.1800232q1.3003998 -1.172226 2.3720016 -0.88520813q0.39242554 0.10510254 0.7625122 0.414505l-1.0478592 1.2560425q-0.22129059 -0.14015198 -0.4929657 -0.21292114q-0.4527893 -0.1212616 -1.013588 0.10057068q-0.55675507 0.20675659 -0.9819336 0.70755005q-0.4100876 0.50483704 -1.0019608 1.6889038l-0.9830551 1.9204254l-1.7507935 -0.46891785l3.0994644 -6.1416016zm9.06749 6.488693l-4.407158 -1.1803894q-0.04336548 0.101623535 -0.059524536 0.16200256q-0.17370605 0.6490326 0.09454346 1.1576233q0.27230072 0.49349976 0.80055237 0.63497925q0.8753967 0.23446655 1.6158447 -0.5377655l1.5009995 0.67700195q-0.707283 0.8296356 -1.6063004 1.1064758q-0.89497375 0.26174927 -1.8609238 0.0030212402q-1.3130951 -0.35168457 -1.9210281 -1.4041748q-0.5928421 -1.0484467 -0.22523499 -2.4219818q0.355484 -1.3282471 1.3888779 -2.1676025q1.3909607 -1.1479645 3.2624893 -0.64671326q1.1923447 0.3193512 1.7037735 1.2489471q0.5114441 0.9295807 0.15594482 2.257843q-0.17370605 0.6490326 -0.44285583 1.110733zm-1.1922913 -1.467804q0.028274536 -0.105667114 0.044433594 -0.16603088q0.19390869 -0.72450256 -0.0411911 -1.1756897q-0.22000122 -0.44714355 -0.76335144 -0.5926666q-0.5433502 -0.14552307 -1.0901184 0.14477539q-0.53167725 0.29434204 -0.8967056 1.0538788l2.746933 0.73573303zm8.762634 -0.56469727l1.6149597 0.4325409l-4.279175 8.494614l-1.7658844 -0.47296143l1.4499207 -2.8791504q-0.5729065 0.26712036 -1.0248566 0.32400513q-0.4479065 0.041793823 -0.9761658 -0.09970093q-1.0414276 -0.2789154 -1.474411 -1.138977q-0.43299866 -0.8600464 -0.08154297 -2.1732025q0.28277588 -1.0565643 0.9720001 -1.9395752q0.68922424 -0.8829956 1.5701599 -1.2131958q0.90008545 -0.34126282 1.7754822 -0.106796265q1.418747 0.37998962 1.7375641 1.7270813l0.48194885 -0.9546814zm-4.8386536 2.909729q-0.17370605 0.6490326 0.06840515 1.1344452q0.26123047 0.47436523 0.7743988 0.61180115q0.43769836 0.11723328 0.92601013 -0.07550049q0.50338745 -0.18869019 0.9458008 -0.81427q0.4615326 -0.63664246 0.63119507 -1.2705841q0.19795227 -0.7395935 -0.0703125 -1.2481842q-0.2682495 -0.50860596 -0.7512207 -0.6379547q-0.40751648 -0.10914612 -0.9149475 0.09463501q-0.5074463 0.20378113 -0.97706604 0.87060547q-0.45048523 0.65579224 -0.6322632 1.3350067zm13.884018 3.8480225l1.6287689 0.74357605q-0.72558594 1.0188446 -1.7172852 1.4002533q-0.98765564 0.366333 -2.074356 0.07527161q-1.2376251 -0.33148193 -1.7792511 -1.2691498q-0.5265198 -0.93362427 -0.17910767 -2.2316895q0.28681946 -1.0716553 0.9749756 -1.8902435q0.69218445 -0.8336792 1.7281036 -1.1385498q1.0359192 -0.3048706 2.1075287 -0.017868042q1.1470642 0.30723572 1.6646576 1.0928955q0.5326996 0.78970337 0.36068726 1.795044l-1.7238007 -0.26757812q0.08505249 -0.55955505 -0.11795044 -0.88890076q-0.20300293 -0.32936096 -0.65579224 -0.45063782q-0.4980774 -0.13339233 -1.0518494 0.122680664q-0.5386963 0.26010132 -0.9821625 0.950119q-0.42837524 0.694046 -0.6061249 1.3581696q-0.15350342 0.5735626 0.033340454 0.9633026q0.20193481 0.3937683 0.62454224 0.506958q0.42259216 0.1131897 0.895813 -0.08357239q0.47724915 -0.21186829 0.8692627 -0.77008057zm2.3417969 1.3065948l1.7782288 0.18510437q0.080963135 0.6040039 0.352417 0.9193573q0.2865448 0.3193817 0.87516785 0.47703552q0.5886383 0.15765381 1.0235748 -0.01701355q0.3050537 -0.1124115 0.3777771 -0.38409424q0.044433594 -0.16603088 -0.05101013 -0.35334778q-0.0843811 -0.16819763 -0.6355896 -0.5261078q-1.4584656 -0.95677185 -1.7550049 -1.3597107q-0.45936584 -0.6406555 -0.25334167 -1.4104462q0.20602417 -0.7697754 0.9290314 -1.1746368q1.0099945 -0.5706177 2.594757 -0.14616394q1.2527161 0.33551025 1.7764893 0.97724915q0.5278168 0.6266327 0.4837799 1.4559784l-1.7068024 -0.14979553q-0.023788452 -0.3945923 -0.26612854 -0.6374359q-0.3277893 -0.3466034 -0.88623047 -0.49617004q-0.5433502 -0.14552307 -0.833313 -0.029083252q-0.28996277 0.11645508 -0.354599 0.35795593q-0.06462097 0.2414856 0.13243103 0.4721985q0.12667847 0.1309967 0.88812256 0.6099243q1.2010498 0.7098999 1.5267029 1.1853333q0.48147583 0.67892456 0.28756714 1.4034271q-0.24641418 0.92071533 -1.2130432 1.38974q-0.9515228 0.47305298 -2.3702698 0.093063354q-1.403656 -0.37594604 -2.0360565 -1.0953064q-0.6283417 -0.73443604 -0.6646576 -1.747055zm7.1601105 1.9177246l1.7782288 0.18510437q0.080963135 0.6040039 0.352417 0.91934204q0.2865448 0.3193817 0.87516785 0.47703552q0.58862305 0.15766907 1.0235748 -0.01701355q0.3050537 -0.11239624 0.3777771 -0.38407898q0.044433594 -0.16603088 -0.05101013 -0.35336304q-0.0843811 -0.16818237 -0.6355896 -0.5260925q-1.4584808 -0.9567871 -1.7550049 -1.3597107q-0.45936584 -0.6406555 -0.25334167 -1.4104462q0.20602417 -0.7697754 0.9290314 -1.1746368q1.0099792 -0.57063293 2.594757 -0.1461792q1.2527161 0.3355255 1.7764893 0.9772644q0.5278168 0.6266327 0.48376465 1.4559784l-1.7067871 -0.14981079q-0.023803711 -0.39457703 -0.26612854 -0.63742065q-0.3277893 -0.3466034 -0.88623047 -0.49617004q-0.5433502 -0.14552307 -0.833313 -0.029083252q-0.28996277 0.11643982 -0.354599 0.35794067q-0.06463623 0.24150085 0.13241577 0.47221375q0.12669373 0.1309967 0.8881378 0.6099243q1.2010498 0.70988464 1.5267029 1.1853333q0.48146057 0.67892456 0.28756714 1.4034271q-0.24642944 0.92071533 -1.2130432 1.3897247q-0.9515228 0.47306824 -2.3702698 0.09307861q-1.403656 -0.37594604 -2.0360565 -1.0953064q-0.62835693 -0.73443604 -0.6646576 -1.747055z" fill-rule="nonzero"></path><path fill="#000000" fill-opacity="0.0" d="m87.19946 224.00038l80.91339 -21.669281l7.5275574 28.125977l-80.91339 21.669296z" fill-rule="evenodd"></path><path fill="#000000" d="m126.81394 233.32289l1.78228 -0.16996765q-0.119628906 1.2452087 -0.78816986 2.0712738q-0.6725769 0.8109741 -1.759285 1.102005q-1.2376328 0.33143616 -2.1751404 -0.21009827q-0.92240906 -0.54556274 -1.2698212 -1.8436279q-0.28681946 -1.0716553 -0.09957123 -2.1246948q0.18319702 -1.0681305 0.92826843 -1.8499908q0.7450638 -0.7818451 1.8166733 -1.0688324q1.1470795 -0.3072052 1.987854 0.11465454q0.8558655 0.41781616 1.2090149 1.3746643l-1.6268692 0.62979126q-0.20579529 -0.5272064 -0.5461502 -0.7110443q-0.3403473 -0.18383789 -0.7931442 -0.062576294q-0.49806976 0.13339233 -0.8498688 0.6319885q-0.3367157 0.49456787 -0.3762207 1.3139343q-0.024414062 0.8153076 0.15332794 1.4794464q0.15351105 0.5735626 0.5100174 0.8177643q0.37160492 0.24017334 0.79421234 0.1269989q0.42260742 -0.11317444 0.7342377 -0.5201416q0.30758667 -0.42207336 0.3683548 -1.1015472zm2.6811447 -0.038650513l1.6327972 -0.72843933q0.37182617 0.4827423 0.7644806 0.620224q0.4077301 0.13343811 0.9963684 -0.02420044q0.58862305 -0.15763855 0.8781433 -0.52633667q0.20811462 -0.24984741 0.13539124 -0.52153015q-0.044433594 -0.16603088 -0.2206726 -0.28059387q-0.15708923 -0.103515625 -0.81333923 -0.13804626q-1.7412567 -0.099823 -2.1993713 -0.30064392q-0.71791077 -0.32536316 -0.92393494 -1.0951385q-0.20600891 -0.76979065 0.21806335 -1.4818573q0.589859 -0.99909973 2.1746368 -1.423523q1.2527313 -0.335495 2.0269623 -0.041397095q0.77020264 0.27900696 1.146286 1.0194244l-1.553299 0.72332764q-0.21769714 -0.32991028 -0.5489044 -0.41914368q-0.45706177 -0.13641357 -1.0155029 0.013137817q-0.5433502 0.14552307 -0.73635864 0.39131165q-0.19302368 0.24580383 -0.12838745 0.4873047q0.06463623 0.24150085 0.35055542 0.342865q0.1751709 0.05014038 1.0739746 0.08441162q1.3949585 0.014633179 1.9145203 0.26371765q0.75616455 0.3474579 0.950058 1.0719604q0.24642944 0.92071533 -0.35662842 1.8101196q-0.5879669 0.885376 -2.0067291 1.2653198q-1.403656 0.37591553 -2.3107452 0.068878174q-0.9111481 -0.32214355 -1.4483643 -1.1811523zm7.160141 -1.9175568l1.6328125 -0.72843933q0.37182617 0.4827423 0.76446533 0.620224q0.40774536 0.13343811 0.9963684 -0.02420044q0.5886383 -0.15763855 0.87815857 -0.52633667q0.20809937 -0.24983215 0.13539124 -0.52153015q-0.044433594 -0.16603088 -0.2206726 -0.28059387q-0.15710449 -0.103500366 -0.81333923 -0.138031q-1.7412567 -0.099823 -2.1993866 -0.30065918q-0.7178955 -0.3253479 -0.9239197 -1.0951385q-0.20602417 -0.7697754 0.2180481 -1.481842q0.58987427 -0.999115 2.174652 -1.423523q1.2527313 -0.335495 2.0269623 -0.041397095q0.77020264 0.27900696 1.146286 1.0194092l-1.553299 0.72332764q-0.21769714 -0.32991028 -0.5489044 -0.41914368q-0.45706177 -0.13639832 -1.0155029 0.013153076q-0.5433502 0.14550781 -0.7363739 0.39131165q-0.19300842 0.24580383 -0.12837219 0.4873047q0.06463623 0.24150085 0.35055542 0.34284973q0.1751709 0.05014038 1.0739746 0.08442688q1.3949585 0.014633179 1.914505 0.2637024q0.7561798 0.3474579 0.95007324 1.0719604q0.24642944 0.9207306 -0.35662842 1.8101349q-0.5879669 0.8853607 -2.0067291 1.2653198q-1.403656 0.37590027 -2.3107605 0.068862915q-0.9111328 -0.3221283 -1.4483643 -1.1811523z" fill-rule="nonzero"></path><path fill="#000000" fill-opacity="0.0" d="m27.238846 313.35434l218.80315 0l0 32.346436l-218.80315 0z" fill-rule="evenodd"></path><path fill="#000000" d="m79.85301 336.44757l-3.25 -13.59375l2.8125 0l2.046875 9.328125l2.484375 -9.328125l3.265625 0l2.390625 9.5l2.09375 -9.5l2.765625 0l-3.3125 13.59375l-2.90625 0l-2.71875 -10.171875l-2.6875 10.171875l-2.984375 0zm15.655533 -11.1875l0 -2.40625l2.609375 0l0 2.40625l-2.609375 0zm0 11.1875l0 -9.859375l2.609375 0l0 9.859375l-2.609375 0zm9.698929 -9.859375l0 2.078125l-1.78125 0l0 3.984375q0 1.203125 0.046875 1.40625q0.0625 0.1875 0.234375 0.328125q0.1875 0.125 0.453125 0.125q0.359375 0 1.046875 -0.25l0.21875 2.015625q-0.90625 0.390625 -2.0625 0.390625q-0.703125 0 -1.265625 -0.234375q-0.5625 -0.234375 -0.828125 -0.609375q-0.265625 -0.375 -0.375 -1.015625q-0.078125 -0.453125 -0.078125 -1.84375l0 -4.296875l-1.203125 0l0 -2.078125l1.203125 0l0 -1.953125l2.609375 -1.515625l0 3.46875l1.78125 0zm4.306427 -3.734375l0 5.0q1.25 -1.484375 3.015625 -1.484375q0.890625 0 1.609375 0.34375q0.734375 0.328125 1.09375 0.84375q0.375 0.515625 0.5 1.15625q0.140625 0.625 0.140625 1.953125l0 5.78125l-2.609375 0l0 -5.203125q0 -1.546875 -0.15625 -1.96875q-0.140625 -0.421875 -0.515625 -0.65625q-0.375 -0.25 -0.9375 -0.25q-0.65625 0 -1.171875 0.3125q-0.5 0.3125 -0.734375 0.953125q-0.234375 0.640625 -0.234375 1.875l0 4.9375l-2.609375 0l0 -13.59375l2.609375 0zm8.192856 8.53125q0 -1.296875 0.640625 -2.515625q0.640625 -1.21875 1.8125 -1.859375q1.171875 -0.640625 2.609375 -0.640625q2.25 0 3.671875 1.453125q1.421875 1.453125 1.421875 3.671875q0 2.234375 -1.4375 3.703125q-1.4375 1.46875 -3.625 1.46875q-1.359375 0 -2.59375 -0.609375q-1.21875 -0.609375 -1.859375 -1.796875q-0.640625 -1.1875 -0.640625 -2.875zm2.671875 0.140625q0 1.46875 0.6875 2.25q0.703125 0.765625 1.71875 0.765625q1.015625 0 1.703125 -0.765625q0.703125 -0.78125 0.703125 -2.265625q0 -1.453125 -0.703125 -2.234375q-0.6875 -0.78125 -1.703125 -0.78125q-1.015625 0 -1.71875 0.78125q-0.6875 0.78125 -0.6875 2.25zm15.802231 4.921875l0 -1.46875q-0.53125 0.78125 -1.40625 1.234375q-0.875 0.453125 -1.859375 0.453125q-0.984375 0 -1.78125 -0.4375q-0.78125 -0.4375 -1.140625 -1.21875q-0.34375 -0.796875 -0.34375 -2.1875l0 -6.234375l2.609375 0l0 4.53125q0 2.078125 0.140625 2.546875q0.140625 0.46875 0.515625 0.75q0.390625 0.265625 0.96875 0.265625q0.671875 0 1.203125 -0.359375q0.53125 -0.375 0.71875 -0.90625q0.1875 -0.546875 0.1875 -2.671875l0 -4.15625l2.609375 0l0 9.859375l-2.421875 0zm9.427231 -9.859375l0 2.078125l-1.78125 0l0 3.984375q0 1.203125 0.046875 1.40625q0.0625 0.1875 0.234375 0.328125q0.1875 0.125 0.453125 0.125q0.359375 0 1.046875 -0.25l0.21875 2.015625q-0.90625 0.390625 -2.0625 0.390625q-0.703125 0 -1.265625 -0.234375q-0.5625 -0.234375 -0.828125 -0.609375q-0.265625 -0.375 -0.375 -1.015625q-0.078125 -0.453125 -0.078125 -1.84375l0 -4.296875l-1.203125 0l0 -2.078125l1.203125 0l0 -1.953125l2.609375 -1.515625l0 3.46875l1.78125 0zm6.895981 9.859375l0 -13.59375l4.421875 0q2.5 0 3.265625 0.203125q1.15625 0.296875 1.9375 1.328125q0.796875 1.015625 0.796875 2.640625q0 1.25 -0.453125 2.109375q-0.453125 0.859375 -1.15625 1.34375q-0.703125 0.484375 -1.421875 0.640625q-0.984375 0.203125 -2.84375 0.203125l-1.796875 0l0 5.125l-2.75 0zm2.75 -11.296875l0 3.859375l1.5 0q1.625 0 2.171875 -0.21875q0.546875 -0.21875 0.859375 -0.671875q0.3125 -0.453125 0.3125 -1.046875q0 -0.75 -0.4375 -1.234375q-0.4375 -0.484375 -1.09375 -0.59375q-0.5 -0.09375 -1.984375 -0.09375l-1.328125 0zm16.162323 11.296875l0 -1.46875q-0.53125 0.78125 -1.40625 1.234375q-0.875 0.453125 -1.859375 0.453125q-0.984375 0 -1.78125 -0.4375q-0.78125 -0.4375 -1.140625 -1.21875q-0.34375 -0.796875 -0.34375 -2.1875l0 -6.234375l2.609375 0l0 4.53125q0 2.078125 0.140625 2.546875q0.140625 0.46875 0.515625 0.75q0.390625 0.265625 0.96875 0.265625q0.671875 0 1.203125 -0.359375q0.53125 -0.375 0.71875 -0.90625q0.1875 -0.546875 0.1875 -2.671875l0 -4.15625l2.609375 0l0 9.859375l-2.421875 0zm4.005356 -2.8125l2.609375 -0.390625q0.171875 0.75 0.671875 1.15625q0.515625 0.390625 1.4375 0.390625q1.0 0 1.515625 -0.375q0.34375 -0.265625 0.34375 -0.703125q0 -0.296875 -0.1875 -0.484375q-0.1875 -0.1875 -0.875 -0.34375q-3.140625 -0.703125 -4.0 -1.265625q-1.15625 -0.796875 -1.15625 -2.21875q0 -1.28125 1.0 -2.15625q1.015625 -0.875 3.140625 -0.875q2.03125 0 3.0 0.65625q0.984375 0.65625 1.359375 1.953125l-2.453125 0.453125q-0.15625 -0.578125 -0.609375 -0.875q-0.4375 -0.3125 -1.25 -0.3125q-1.03125 0 -1.46875 0.296875q-0.296875 0.203125 -0.296875 0.515625q0 0.28125 0.25 0.484375q0.359375 0.25 2.4375 0.734375q2.078125 0.46875 2.90625 1.15625q0.828125 0.6875 0.828125 1.9375q0 1.359375 -1.140625 2.328125q-1.125 0.96875 -3.34375 0.96875q-2.015625 0 -3.1875 -0.8125q-1.171875 -0.8125 -1.53125 -2.21875zm13.891342 -10.78125l0 5.0q1.25 -1.484375 3.015625 -1.484375q0.890625 0 1.609375 0.34375q0.734375 0.328125 1.09375 0.84375q0.375 0.515625 0.5 1.15625q0.140625 0.625 0.140625 1.953125l0 5.78125l-2.609375 0l0 -5.203125q0 -1.546875 -0.15625 -1.96875q-0.140625 -0.421875 -0.515625 -0.65625q-0.375 -0.25 -0.9375 -0.25q-0.65625 0 -1.171875 0.3125q-0.5 0.3125 -0.734375 0.953125q-0.234375 0.640625 -0.234375 1.875l0 4.9375l-2.609375 0l0 -13.59375l2.609375 0z" fill-rule="nonzero"></path><path fill="#000000" fill-opacity="0.0" d="m320.3832 6.1076117l101.322815 0l0 48.503937l-101.322815 0z" fill-rule="evenodd"></path><path stroke="#000000" stroke-width="1.0" stroke-linejoin="round" stroke-linecap="butt" d="m320.3832 6.1076117l101.322815 0l0 48.503937l-101.322815 0z" fill-rule="evenodd"></path><path fill="#000000" d="m340.6647 37.27958l-1.546875 0l0 -13.593752l1.65625 0l0 4.84375q1.0625 -1.328125 2.703125 -1.328125q0.90625 0 1.71875 0.375q0.8125 0.359375 1.328125 1.03125q0.53125 0.65625 0.828125 1.59375q0.296875 0.9375 0.296875 2.000002q0 2.53125 -1.25 3.921875q-1.25 1.375 -3.0 1.375q-1.75 0 -2.734375 -1.453125l0 1.234375zm-0.015625 -5.0q0 1.765625 0.46875 2.5625q0.796875 1.28125 2.140625 1.28125q1.09375 0 1.890625 -0.9375q0.796875 -0.953125 0.796875 -2.84375q0 -1.9218769 -0.765625 -2.843752q-0.765625 -0.921875 -1.84375 -0.921875q-1.09375 0 -1.890625 0.953125q-0.796875 0.953125 -0.796875 2.750002zm8.828857 5.0l0 -9.859377l1.5 0l0 1.5q0.578125 -1.046875 1.0625 -1.375q0.484375 -0.34375 1.078125 -0.34375q0.84375 0 1.71875 0.546875l-0.578125 1.546875q-0.609375 -0.359375 -1.234375 -0.359375q-0.546875 0 -0.984375 0.328125q-0.421875 0.328125 -0.609375 0.90625q-0.28125 0.890625 -0.28125 1.9531269l0 5.15625l-1.671875 0zm5.603302 -4.921875q0 -2.734377 1.53125 -4.062502q1.265625 -1.09375 3.09375 -1.09375q2.03125 0 3.3125 1.34375q1.296875 1.328125 1.296875 3.671877q0 1.90625 -0.578125 3.0q-0.5625 1.078125 -1.65625 1.6875q-1.078125 0.59375 -2.375 0.59375q-2.0625 0 -3.34375 -1.328125q-1.28125 -1.328125 -1.28125 -3.8125zm1.71875 0q0 1.890625 0.828125 2.828125q0.828125 0.9375 2.078125 0.9375q1.25 0 2.0625 -0.9375q0.828125 -0.953125 0.828125 -2.890625q0 -1.8281269 -0.828125 -2.765627q-0.828125 -0.9375 -2.0625 -0.9375q-1.25 0 -2.078125 0.9375q-0.828125 0.9375 -0.828125 2.828127zm11.110077 4.921875l-3.015625 -9.859377l1.71875 0l1.5625 5.687502l0.59375 2.125q0.03125 -0.15625 0.5 -2.03125l1.578125 -5.781252l1.71875 0l1.46875 5.718752l0.484375 1.890625l0.578125 -1.90625l1.6875 -5.703127l1.625 0l-3.078125 9.859377l-1.734375 0l-1.578125 -5.906252l-0.375 -1.671875l-2.0 7.578127l-1.734375 0zm10.972961 -2.9375l1.65625 -0.265625q0.140625 1.0 0.765625 1.53125q0.640625 0.515625 1.78125 0.515625q1.15625 0 1.703125 -0.46875q0.5625 -0.46875 0.5625 -1.09375q0 -0.5625 -0.484375 -0.890625q-0.34375 -0.21875 -1.703125 -0.5625q-1.84375 -0.46875 -2.5625 -0.796875q-0.703125 -0.3437519 -1.078125 -0.9375019q-0.359375 -0.609375 -0.359375 -1.328125q0 -0.65625 0.296875 -1.21875q0.3125 -0.5625 0.828125 -0.9375q0.390625 -0.28125 1.0625 -0.484375q0.671875 -0.203125 1.4375 -0.203125q1.171875 0 2.046875 0.34375q0.875 0.328125 1.28125 0.90625q0.421875 0.5625 0.578125 1.515625l-1.625 0.21875q-0.109375 -0.75 -0.65625 -1.171875q-0.53125 -0.4375 -1.5 -0.4375q-1.15625 0 -1.640625 0.390625q-0.484375 0.375 -0.484375 0.875q0 0.328125 0.203125 0.59375q0.203125 0.265625 0.640625 0.4375q0.25 0.09375 1.46875 0.4375q1.765625 0.46875 2.46875 0.7656269q0.703125 0.296875 1.09375 0.875q0.40625 0.578125 0.40625 1.4375q0 0.828125 -0.484375 1.578125q-0.484375 0.734375 -1.40625 1.140625q-0.921875 0.390625 -2.078125 0.390625q-1.921875 0 -2.9375 -0.796875q-1.0 -0.796875 -1.28125 -2.359375zm16.75 -0.234375l1.71875 0.21875q-0.40625 1.5 -1.515625 2.34375q-1.09375 0.828125 -2.8125 0.828125q-2.15625 0 -3.421875 -1.328125q-1.265625 -1.328125 -1.265625 -3.734375q0 -2.484377 1.265625 -3.859377q1.28125 -1.375 3.328125 -1.375q1.984375 0 3.234375 1.34375q1.25 1.34375 1.25 3.796877q0 0.140625 -0.015625 0.4375l-7.34375 0q0.09375 1.625 0.921875 2.484375q0.828125 0.859375 2.0625 0.859375q0.90625 0 1.546875 -0.46875q0.65625 -0.484375 1.046875 -1.546875zm-5.484375 -2.703127l5.5 0q-0.109375 -1.234375 -0.625 -1.859375q-0.796875 -0.96875 -2.078125 -0.96875q-1.140625 0 -1.9375 0.78125q-0.78125 0.765625 -0.859375 2.046875zm9.094452 5.875002l0 -9.859377l1.5 0l0 1.5q0.578125 -1.046875 1.0625 -1.375q0.484375 -0.34375 1.078125 -0.34375q0.84375 0 1.71875 0.546875l-0.578125 1.546875q-0.609375 -0.359375 -1.234375 -0.359375q-0.546875 0 -0.984375 0.328125q-0.421875 0.328125 -0.609375 0.90625q-0.28125 0.890625 -0.28125 1.9531269l0 5.15625l-1.671875 0z" fill-rule="nonzero"></path><path fill="#000000" fill-opacity="0.0" d="m475.4252 6.1076117l101.322845 0l0 48.503937l-101.322845 0z" fill-rule="evenodd"></path><path stroke="#000000" stroke-width="1.0" stroke-linejoin="round" stroke-linecap="butt" d="m475.4252 6.1076117l101.322845 0l0 48.503937l-101.322845 0z" fill-rule="evenodd"></path><path fill="#000000" d="m500.74823 34.34208l1.65625 -0.265625q0.140625 1.0 0.765625 1.53125q0.640625 0.515625 1.78125 0.515625q1.15625 0 1.703125 -0.46875q0.5625 -0.46875 0.5625 -1.09375q0 -0.5625 -0.484375 -0.890625q-0.34375 -0.21875 -1.703125 -0.5625q-1.84375 -0.46875 -2.5625 -0.796875q-0.703125 -0.3437519 -1.078125 -0.9375019q-0.359375 -0.609375 -0.359375 -1.328125q0 -0.65625 0.296875 -1.21875q0.3125 -0.5625 0.828125 -0.9375q0.390625 -0.28125 1.0625 -0.484375q0.671875 -0.203125 1.4375 -0.203125q1.171875 0 2.046875 0.34375q0.875 0.328125 1.28125 0.90625q0.421875 0.5625 0.578125 1.515625l-1.625 0.21875q-0.109375 -0.75 -0.65625 -1.171875q-0.53125 -0.4375 -1.5 -0.4375q-1.15625 0 -1.640625 0.390625q-0.484375 0.375 -0.484375 0.875q0 0.328125 0.203125 0.59375q0.203125 0.265625 0.640625 0.4375q0.25 0.09375 1.46875 0.4375q1.765625 0.46875 2.46875 0.7656269q0.703125 0.296875 1.09375 0.875q0.40625 0.578125 0.40625 1.4375q0 0.828125 -0.484375 1.578125q-0.484375 0.734375 -1.40625 1.140625q-0.921875 0.390625 -2.078125 0.390625q-1.921875 0 -2.9375 -0.796875q-1.0 -0.796875 -1.28125 -2.359375zm16.75 -0.234375l1.71875 0.21875q-0.40625 1.5 -1.515625 2.34375q-1.09375 0.828125 -2.8125 0.828125q-2.15625 0 -3.421875 -1.328125q-1.265625 -1.328125 -1.265625 -3.734375q0 -2.484377 1.265625 -3.859377q1.28125 -1.375 3.328125 -1.375q1.984375 0 3.234375 1.34375q1.25 1.34375 1.25 3.796877q0 0.140625 -0.015625 0.4375l-7.34375 0q0.09375 1.625 0.921875 2.484375q0.828125 0.859375 2.0625 0.859375q0.90625 0 1.546875 -0.46875q0.65625 -0.484375 1.046875 -1.546875zm-5.484375 -2.703127l5.5 0q-0.109375 -1.234375 -0.625 -1.859375q-0.796875 -0.96875 -2.078125 -0.96875q-1.140625 0 -1.9375 0.78125q-0.78125 0.765625 -0.859375 2.046875zm9.094482 5.875002l0 -9.859377l1.5 0l0 1.5q0.578125 -1.046875 1.0625 -1.375q0.484375 -0.34375 1.078125 -0.34375q0.84375 0 1.71875 0.546875l-0.578125 1.546875q-0.609375 -0.359375 -1.234375 -0.359375q-0.546875 0 -0.984375 0.328125q-0.421875 0.328125 -0.609375 0.90625q-0.28125 0.890625 -0.28125 1.9531269l0 5.15625l-1.671875 0zm8.9626465 0l-3.75 -9.859377l1.765625 0l2.125 5.906252q0.34375 0.953125 0.625 1.984375q0.21875 -0.78125 0.625 -1.875l2.1875 -6.015627l1.71875 0l-3.734375 9.859377l-1.5625 0zm13.34375 -3.171875l1.71875 0.21875q-0.40625 1.5 -1.515625 2.34375q-1.09375 0.828125 -2.8125 0.828125q-2.15625 0 -3.421875 -1.328125q-1.265625 -1.328125 -1.265625 -3.734375q0 -2.484377 1.265625 -3.859377q1.28125 -1.375 3.328125 -1.375q1.984375 0 3.234375 1.34375q1.25 1.34375 1.25 3.796877q0 0.140625 -0.015625 0.4375l-7.34375 0q0.09375 1.625 0.921875 2.484375q0.828125 0.859375 2.0625 0.859375q0.90625 0 1.546875 -0.46875q0.65625 -0.484375 1.046875 -1.546875zm-5.484375 -2.703127l5.5 0q-0.109375 -1.234375 -0.625 -1.859375q-0.796875 -0.96875 -2.078125 -0.96875q-1.140625 0 -1.9375 0.78125q-0.78125 0.765625 -0.859375 2.046875zm9.094482 5.875002l0 -9.859377l1.5 0l0 1.5q0.578125 -1.046875 1.0625 -1.375q0.484375 -0.34375 1.078125 -0.34375q0.84375 0 1.71875 0.546875l-0.578125 1.546875q-0.609375 -0.359375 -1.234375 -0.359375q-0.546875 0 -0.984375 0.328125q-0.421875 0.328125 -0.609375 0.90625q-0.28125 0.890625 -0.28125 1.9531269l0 5.15625l-1.671875 0z" fill-rule="nonzero"></path><path fill="#000000" fill-opacity="0.0" d="m371.04462 54.61155l0 253.29135" fill-rule="evenodd"></path><path stroke="#000000" stroke-width="1.0" stroke-linejoin="round" stroke-linecap="butt" d="m371.04462 54.61155l0 247.29135" fill-rule="evenodd"></path><path fill="#000000" stroke="#000000" stroke-width="1.0" stroke-linecap="butt" d="m369.39288 301.9029l1.6517334 4.538086l1.6517334 -4.538086z" fill-rule="evenodd"></path><path fill="#000000" fill-opacity="0.0" d="m526.0866 54.61155l0 255.46457" fill-rule="evenodd"></path><path stroke="#000000" stroke-width="1.0" stroke-linejoin="round" stroke-linecap="butt" d="m526.0866 54.61155l0 249.46457" fill-rule="evenodd"></path><path fill="#000000" stroke="#000000" stroke-width="1.0" stroke-linecap="butt" d="m524.4349 304.0761l1.6517334 4.5381165l1.6517334 -4.5381165z" fill-rule="evenodd"></path><path fill="#000000" fill-opacity="0.0" d="m372.12073 89.10236l153.03937 39.874016" fill-rule="evenodd"></path><path stroke="#000000" stroke-width="1.0" stroke-linejoin="round" stroke-linecap="butt" d="m372.12073 89.10236l147.23322 38.36123" fill-rule="evenodd"></path><path fill="#000000" stroke="#000000" stroke-width="1.0" stroke-linecap="butt" d="m518.9375 129.06197l4.8079224 -0.45417786l-3.9750366 -2.7425613z" fill-rule="evenodd"></path><path fill="#000000" fill-opacity="0.0" d="m372.12073 172.20992l153.03937 -39.874023" fill-rule="evenodd"></path><path stroke="#000000" stroke-width="1.0" stroke-linejoin="round" stroke-linecap="butt" d="m377.92688 170.69713l147.23322 -38.361237" fill-rule="evenodd"></path><path fill="#000000" stroke="#000000" stroke-width="1.0" stroke-linecap="butt" d="m377.51044 169.09875l-3.9750366 2.742569l4.807953 0.45417786z" fill-rule="evenodd"></path><path fill="#000000" fill-opacity="0.0" d="m372.12073 197.9105l153.03937 -39.87401" fill-rule="evenodd"></path><path stroke="#000000" stroke-width="1.0" stroke-linejoin="round" stroke-linecap="butt" d="m377.92688 196.39774l147.23322 -38.361237" fill-rule="evenodd"></path><path fill="#000000" stroke="#000000" stroke-width="1.0" stroke-linecap="butt" d="m377.51044 194.79936l-3.9750366 2.742569l4.807953 0.45417786z" fill-rule="evenodd"></path><path fill="#000000" fill-opacity="0.0" d="m419.7706 73.249115l73.7323 19.748032l-7.5275574 28.125984l-73.7323 -19.748032z" fill-rule="evenodd"></path><path fill="#000000" d="m429.11404 91.34824l1.6451416 0.44062042l-0.6069641 1.1800232q1.300415 -1.172226 2.3720093 -0.88521576q0.39242554 0.10510254 0.7625122 0.41451263l-1.0478516 1.2560425q-0.22131348 -0.14015198 -0.49298096 -0.21291351q-0.4527893 -0.121276855 -1.0135803 0.10057068q-0.5567627 0.20674133 -0.9819336 0.7075424q-0.4100952 0.50484467 -1.0019531 1.6889038l-0.98306274 1.920433l-1.7507935 -0.46892548l3.0994568 -6.141594zm9.067505 6.488693l-4.4071655 -1.1803894q-0.04336548 0.101615906 -0.059539795 0.1619873q-0.17370605 0.6490326 0.094573975 1.1576233q0.27227783 0.49349976 0.8005371 0.6349869q0.8753967 0.23445892 1.6158447 -0.5377655l1.5010071 0.67700195q-0.7073059 0.8296356 -1.6063232 1.1064758q-0.8949585 0.26174164 -1.8609009 0.0030288696q-1.3131104 -0.3516922 -1.921051 -1.4041824q-0.5928345 -1.0484543 -0.22521973 -2.4219818q0.35549927 -1.3282547 1.3888855 -2.1676025q1.3909607 -1.1479721 3.2624817 -0.64671326q1.1923523 0.31935883 1.7037659 1.2489471q0.5114441 0.9295883 0.15594482 2.2578354q-0.17370605 0.6490326 -0.44284058 1.1107483zm-1.1922913 -1.4678192q0.028259277 -0.105651855 0.044433594 -0.16603088q0.19390869 -0.72450256 -0.04119873 -1.1756821q-0.22000122 -0.44714355 -0.7633667 -0.5926666q-0.54333496 -0.1455307 -1.0900879 0.14476776q-0.53167725 0.29434967 -0.8967285 1.053894l2.7469482 0.7357178zm8.762634 -0.56468964l1.6149597 0.43253326l-4.279175 8.494629l-1.7658997 -0.47296906l1.4499207 -2.879158q-0.5729065 0.267128 -1.0248413 0.32401276q-0.447937 0.041793823 -0.9761658 -0.0996933q-1.0414429 -0.27893066 -1.4744263 -1.1389847q-0.4329834 -0.860054 -0.08154297 -2.1732101q0.28277588 -1.0565643 0.9720154 -1.9395599q0.689209 -0.88300323 1.5701599 -1.2132034q0.90008545 -0.3412552 1.7754822 -0.106796265q1.4187317 0.37998962 1.7375488 1.7270813l0.4819641 -0.9546814zm-4.8386536 2.909729q-0.17370605 0.6490326 0.06838989 1.1344452q0.26123047 0.4743576 0.77441406 0.61180115q0.4376831 0.11723328 0.9259949 -0.07550049q0.50338745 -0.18868256 0.9458008 -0.81427765q0.46154785 -0.63664246 0.63119507 -1.2705841q0.19796753 -0.7395935 -0.0703125 -1.2481842q-0.2682495 -0.5085907 -0.7512207 -0.6379471q-0.40750122 -0.10914612 -0.9149475 0.09463501q-0.5074463 0.20378113 -0.9770508 0.8706131q-0.4505005 0.655777 -0.6322632 1.3349991zm10.599365 5.6049194l-1.7658691 -0.47296143l4.2942505 -8.490585l1.7507935 0.46892548l-1.5205078 3.0220108q0.70980835 -0.2951584 1.279541 -0.36902618q0.56970215 -0.0738678 1.1583557 0.08378601q0.79992676 0.21424866 1.1274719 0.80342865q0.3467102 0.578125 0.15280151 1.3026276q-0.105041504 0.39243317 -0.5083313 1.1740875l-1.8179321 3.5893784l-1.7507935 -0.46892548l1.8532104 -3.6608047q0.2904358 -0.60160065 0.3388977 -0.7827225q0.08483887 -0.31697083 -0.05886841 -0.5657425q-0.14367676 -0.24877167 -0.5059204 -0.34578705q-0.4376831 -0.11723328 -0.9259949 0.07550049q-0.6373291 0.26604462 -1.0665588 0.78193665q-0.23574829 0.2765503 -0.81552124 1.415329l-1.2190247 2.4395447zm7.9145813 -3.4608307l0.6039734 -1.2293396l0.86032104 0.23041534l0.5091553 -0.9959259l2.3305664 -0.66986084l-1.0738525 2.1387558l1.0716248 0.2870102l-0.6191101 1.2253036l-1.0715942 -0.28701782l-1.304718 2.5783615q-0.34887695 0.699173 -0.37713623 0.8048248q-0.052520752 0.1962204 0.03591919 0.34931183q0.107543945 0.14203644 0.4396057 0.23097229q0.12072754 0.032341003 0.5966797 0.1274643l-0.6341553 1.2212601q-0.47705078 -0.030708313 -0.9449158 -0.15602875q-0.9357605 -0.2506256 -1.2654724 -0.71097565q-0.32565308 -0.47543335 -0.15194702 -1.124466q0.08081055 -0.30187988 0.59402466 -1.3128967l1.2462463 -2.4807892l-0.84521484 -0.2263794zm5.4949646 0.08063507l1.6602478 0.444664l-0.37609863 0.74040985q1.220459 -0.6921921 2.2769775 -0.40922546q0.7395325 0.19808197 1.0471191 0.62015533q0.3267212 0.41101837 0.2869568 0.9826889q0.48043823 -0.40511322 1.1881409 -0.57144165q0.7227783 -0.16227722 1.401947 0.019630432q0.7848511 0.21020508 1.109436 0.75006104q0.32458496 0.53985596 0.14279175 1.2190781q-0.08886719 0.33206177 -0.49215698 1.1137085l-1.8965759 3.7624207l-1.7507935 -0.46891785l1.8965759 -3.7624207q0.34887695 -0.699173 0.37713623 -0.8048248q0.07272339 -0.27169037 -0.052886963 -0.46709442q-0.12564087 -0.19540405 -0.44259644 -0.28029633q-0.664093 -0.17786407 -1.3630676 0.37900543q-0.5065918 0.38193512 -1.1025085 1.5810928l-1.4105835 2.7926407l-1.7658997 -0.47296906l1.8844604 -3.7171326q0.31762695 -0.6428375 0.3701477 -0.8390579q0.06866455 -0.25659943 -0.067993164 -0.471138q-0.12161255 -0.210495 -0.4234619 -0.2913437q-0.28677368 -0.076805115 -0.64816284 0.004333496q-0.34628296 0.08518219 -0.6534729 0.32642365q-0.30718994 0.24123383 -0.602478 0.6797714q-0.13201904 0.19110107 -0.5081177 0.9315109l-1.4337463 2.818779l-1.7507935 -0.46891785l3.0994568 -6.141594zm8.393188 9.219719l4.279175 -8.494629l1.7507935 0.46892548l-4.279175 8.494621l-1.7507935 -0.46891785z" fill-rule="nonzero"></path><path fill="#000000" fill-opacity="0.0" d="m399.19946 136.00038l80.91339 -21.669289l7.5275574 28.125984l-80.91339 21.669296z" fill-rule="evenodd"></path><path fill="#000000" d="m433.9985 149.24915l-1.7658997 0.47291565l-0.5209961 -9.501144l1.7507935 -0.46888733l0.19232178 3.3777313q0.46743774 -0.6104431 0.92404175 -0.959198q0.456604 -0.34873962 1.045227 -0.5063782q0.7999573 -0.2142334 1.3779602 0.13241577q0.5890808 0.32751465 0.7829895 1.0520172q0.105041504 0.39242554 0.14608765 1.2710876l0.21807861 4.017868l-1.750824 0.46887207l-0.22314453 -4.0973663q-0.048919678 -0.666275 -0.09741211 -0.84739685q-0.08483887 -0.31697083 -0.33355713 -0.46064758q-0.24871826 -0.1436615 -0.6109619 -0.046661377q-0.4376831 0.11721802 -0.7644043 0.52822876q-0.41918945 0.54901123 -0.5333252 1.2104187q-0.066101074 0.35739136 4.8828125E-4 1.633606l0.16253662 2.722519zm5.127228 -6.95372l-0.09082031 -1.3667755l0.86032104 -0.23040771l-0.056396484 -1.1171875l1.6842346 -1.7451019l0.13806152 2.3893738l1.0715942 -0.2869873l0.07574463 1.3708191l-1.0716248 0.2869873l0.15765381 2.8855743q0.04699707 0.78001404 0.075286865 0.8856659q0.052520752 0.19622803 0.2055664 0.28463745q0.16412354 0.0692749 0.4961853 -0.01965332q0.12072754 -0.032333374 0.5805359 -0.18782043l0.060638428 1.3748627q-0.42855835 0.21182251 -0.89642334 0.3371277q-0.935791 0.25061035 -1.451294 0.01663208q-0.51956177 -0.24906921 -0.6932678 -0.8981018q-0.08081055 -0.30187988 -0.14123535 -1.4341736l-0.1595459 -2.77182l-0.84521484 0.22634888zm4.8002014 -2.6766357l1.6602478 -0.44462585l0.044036865 0.8293457q0.7114563 -1.20961 1.7679749 -1.4925537q0.739563 -0.19805908 1.2168274 0.013824463q0.48828125 0.19273376 0.7393799 0.70780945q0.21383667 -0.59106445 0.7437744 -1.0888519q0.54504395 -0.5018158 1.2242126 -0.6837158q0.7848511 -0.21018982 1.3356628 0.095214844q0.55081177 0.30540466 0.732605 0.9846344q0.08886719 0.33206177 0.12994385 1.2107239l0.23632812 4.207062l-1.7507935 0.46888733l-0.23635864 -4.207077q-0.04699707 -0.78001404 -0.075286865 -0.8856659q-0.07269287 -0.27168274 -0.27911377 -0.37815857q-0.2064209 -0.10647583 -0.52337646 -0.021591187q-0.66412354 0.17784119 -0.9914551 1.0095825q-0.24804688 0.58406067 -0.16531372 1.9206543l0.17294312 3.1240997l-1.7658691 0.47291565l-0.22424316 -4.161789q-0.045928955 -0.71559143 -0.09844971 -0.9118042q-0.06869507 -0.25660706 -0.2942505 -0.37413025q-0.21044922 -0.12156677 -0.5122986 -0.040725708q-0.28677368 0.076797485 -0.55929565 0.327713q-0.25741577 0.24687195 -0.40304565 0.609375q-0.14559937 0.3625183 -0.18234253 0.8899689q-0.018920898 0.23153687 0.025115967 1.0608673l0.16595459 3.1583405l-1.750824 0.46887207l-0.38269043 -6.8692017zm11.875427 3.7913513l-0.5361023 -9.497101l1.750824 -0.46887207l0.5360718 9.497101l-1.7507935 0.46887207z" fill-rule="nonzero"></path><path fill="#000000" fill-opacity="0.0" d="m390.3176 165.61142l100.8819 -26.992126l7.5275574 28.125977l-100.8819 26.992126z" fill-rule="evenodd"></path><path fill="#000000" d="m411.04538 175.66103l1.6603394 -0.44424438l0.041900635 0.70047q0.4111328 -0.57907104 0.8265381 -0.9004822q0.41540527 -0.32141113 0.94369507 -0.46276855q1.0263977 -0.2746277 1.8351135 0.26921082q0.823822 0.53977966 1.1954651 1.9284058q0.47262573 1.765976 -0.2758789 3.2602081q-0.6419983 1.2878265 -1.9098816 1.6270752q-1.2829895 0.34327698 -2.225891 -0.52049255l0.19546509 3.570816l-1.750885 0.46847534l-0.5359802 -9.496674zm2.0543823 3.445465q0.20196533 0.75468445 0.67733765 1.0803833q0.49047852 0.32165527 1.0036621 0.18434143q0.42263794 -0.11306763 0.7453308 -0.53907776q0.3227234 -0.42601013 0.3854065 -1.2191772q0.07376099 -0.8122864 -0.09185791 -1.4311371q-0.19796753 -0.7395935 -0.64611816 -1.0240479q-0.45217896 -0.2995453 -0.99557495 -0.15415955q-0.4981079 0.13327026 -0.8237915 0.60861206q-0.3146057 0.45619202 -0.3551941 1.2110901q-0.04058838 0.7548828 0.10079956 1.2831726zm5.855591 -5.5618744l1.7509155 -0.46847534l0.23013306 4.062958q0.03488159 0.73469543 0.079315186 0.9007263q0.07675171 0.28678894 0.344635 0.44155884q0.26382446 0.13967896 0.58081055 0.054870605q0.2414856 -0.06462097 0.44366455 -0.21575928q0.20217896 -0.15115356 0.39520264 -0.39689636q0.19302368 -0.2457428 0.31356812 -0.52059937q0.1315918 -0.29400635 0.19662476 -0.71577454q0.044006348 -0.3190918 -0.00491333 -0.9853363l-0.16397095 -3.2719269l1.750885 -0.46847534l0.3826294 6.8688965l-1.6452332 0.4402008l-0.05722046 -0.93899536q-0.79293823 1.3282013 -2.060852 1.66745q-0.8150635 0.21807861 -1.3890686 -0.11357117q-0.57806396 -0.34675598 -0.78408813 -1.1165314q-0.08886719 -0.33206177 -0.16329956 -1.3958435l-0.19973755 -3.828476zm7.532135 2.998825l1.632904 -0.7280426q0.3718567 0.4827881 0.76452637 0.62034607q0.40774536 0.1335144 0.99642944 -0.023986816q0.58865356 -0.15750122 0.87820435 -0.5261078q0.20812988 -0.24978638 0.1354065 -0.5214691q-0.044433594 -0.16604614 -0.2206726 -0.2806244q-0.15710449 -0.10354614 -0.813385 -0.13821411q-1.7413635 -0.10018921 -2.199524 -0.30110168q-0.717926 -0.3255005 -0.9239502 -1.0952759q-0.20602417 -0.76979065 0.21807861 -1.48172q0.5899353 -0.9989166 2.1748047 -1.4229736q1.2528076 -0.33520508 2.027069 -0.04095459q0.77023315 0.2791443 1.1463318 1.0196075l-1.5534058 0.72294617q-0.21768188 -0.3299408 -0.5489197 -0.41923523q-0.45706177 -0.13650513 -1.015564 0.012924194q-0.5433655 0.14538574 -0.7364197 0.39112854q-0.19302368 0.2457428 -0.12838745 0.48724365q0.06463623 0.24150085 0.35058594 0.34291077q0.1751709 0.050186157 1.0740356 0.08465576q1.3950195 0.0149383545 1.9146118 0.26409912q0.75619507 0.34761047 0.95010376 1.072113q0.24642944 0.92071533 -0.35668945 1.8099365q-0.5880127 0.8851929 -2.006836 1.2648163q-1.4037476 0.3755951 -2.310913 0.068374634q-0.91116333 -0.3223114 -1.4484253 -1.1813965zm9.671997 -0.63072205l-1.7659912 0.47251892l-0.520874 -9.500717l1.750885 -0.46847534l0.19229126 3.3775787q0.46746826 -0.61032104 0.9241028 -0.9589386q0.45666504 -0.3486328 1.0453186 -0.50613403q0.7999878 -0.2140503 1.3780212 0.13270569q0.5891113 0.3276062 0.78302 1.0521088q0.105041504 0.3924408 0.14608765 1.2710571l0.21801758 4.017685l-1.7509155 0.46847534l-0.22311401 -4.097183q-0.048919678 -0.6662445 -0.09738159 -0.8473816q-0.08483887 -0.31695557 -0.33358765 -0.4606781q-0.24871826 -0.14372253 -0.61099243 -0.046798706q-0.43771362 0.117126465 -0.76446533 0.52804565q-0.41921997 0.5488739 -0.53338623 1.2102356q-0.066101074 0.35734558 4.8828125E-4 1.6335144l0.16247559 2.7223816zm11.680878 -6.036789l-4.4074707 1.1792603q0.013183594 0.109695435 0.02935791 0.17007446q0.17370605 0.6490326 0.66012573 0.9555969q0.48239136 0.2914734 1.0106812 0.15013123q0.87545776 -0.23423767 1.1311646 -1.2731476l1.6384583 -0.16342163q-0.19833374 1.0720673 -0.83883667 1.7610474q-0.64456177 0.6738739 -1.6105957 0.9323425q-1.3131714 0.35134888 -2.3655396 -0.25668335q-1.037262 -0.6120758 -1.4048767 -1.985611q-0.35546875 -1.3282471 0.1204834 -2.57164q0.6315918 -1.6894073 2.5032349 -2.1901855q1.1924438 -0.31904602 2.0997925 0.23072815q0.90737915 0.54977417 1.2628479 1.8780365q0.17370605 0.6490326 0.1711731 1.1834717zm-1.7660217 -0.6758728q-0.028289795 -0.105667114 -0.044433594 -0.16603088q-0.19390869 -0.72450256 -0.6229248 -0.99790955q-0.41394043 -0.2774353 -0.9573059 -0.13204956q-0.543396 0.14538574 -0.8720703 0.67004395q-0.3135376 0.5206146 -0.25039673 1.3609619l2.7471313 -0.73501587zm9.336792 1.5616608l-1.6754456 0.44828796l-0.038909912 -0.74980164q-0.3577881 0.59713745 -0.77319336 0.91856384q-0.40029907 0.31736755 -0.98898315 0.47486877q-1.0112915 0.27059937 -1.8270264 -0.23899841q-0.8046875 -0.5287323 -1.1682434 -1.8871765q-0.41607666 -1.554657 0.120025635 -3.056778q0.551239 -1.5061493 2.0002441 -1.8938599q1.3132019 -0.35134888 2.256073 0.51242065l-0.19143677 -3.555725l1.7509155 -0.46847534l0.5359802 9.496674zm-4.7712708 -1.5701294q0.18984985 0.7094116 0.6420288 1.0089569q0.45220947 0.29956055 0.96539307 0.1622467q0.48303223 -0.12924194 0.8016968 -0.570343q0.33374023 -0.44514465 0.39752197 -1.1738892q0.074798584 -0.747879 -0.09082031 -1.3667145q-0.18984985 -0.7094116 -0.69540405 -1.0270386q-0.49450684 -0.33674622 -0.97753906 -0.20751953q-0.7848816 0.21000671 -1.0527344 1.2036285q-0.2567749 0.9744873 0.009857178 1.9706726zm13.954681 -3.523468l1.7823792 -0.16958618q-0.119659424 1.2451172 -0.7882385 2.070984q-0.6726074 0.810791 -1.7593994 1.1015625q-1.2377014 0.3311615 -2.1752625 -0.21054077q-0.92245483 -0.54574585 -1.269867 -1.8437958q-0.2868042 -1.0716705 -0.09954834 -2.1246033q0.18322754 -1.0680237 0.9283447 -1.8496704q0.7451477 -0.781662 1.816803 -1.0683899q1.1471558 -0.30693054 1.9879761 0.11508179q0.8559265 0.41796875 1.2090454 1.3748322l-1.6269531 0.6294098q-0.20581055 -0.5272217 -0.5461731 -0.7111206q-0.34036255 -0.18389893 -0.7931824 -0.06274414q-0.4981079 0.13327026 -0.84994507 0.6317749q-0.33673096 0.49446106 -0.37625122 1.3137665q-0.024414062 0.8152771 0.15332031 1.4794006q0.15350342 0.5735626 0.5100403 0.8178406q0.37161255 0.24023438 0.7942505 0.12715149q0.42263794 -0.113082886 0.73428345 -0.5199585q0.3076172 -0.42196655 0.3683777 -1.1013947zm2.681305 -0.038085938l1.632904 -0.7280426q0.3718567 0.48280334 0.76452637 0.6203613q0.40774536 0.1335144 0.9963989 -0.023986816q0.5886841 -0.15751648 0.87823486 -0.52612305q0.20809937 -0.24978638 0.1354065 -0.5214691q-0.044433594 -0.16603088 -0.2206726 -0.2806244q-0.15713501 -0.103530884 -0.8134155 -0.13821411q-1.741333 -0.10018921 -2.1994934 -0.30110168q-0.717926 -0.32548523 -0.9239502 -1.0952759q-0.20602417 -0.7697754 0.21807861 -1.48172q0.5899353 -0.9989166 2.1748047 -1.4229736q1.2528076 -0.33520508 2.027069 -0.04095459q0.77023315 0.27915955 1.1463318 1.0196075l-1.5534058 0.72294617q-0.21768188 -0.3299408 -0.5489197 -0.41923523q-0.4570923 -0.13648987 -1.015564 0.012924194q-0.543396 0.145401 -0.7364197 0.3911438q-0.19302368 0.2457428 -0.12838745 0.48724365q0.06463623 0.24150085 0.35058594 0.34291077q0.1751709 0.0501709 1.0740051 0.0846405q1.39505 0.0149383545 1.9146423 0.26411438q0.75619507 0.3475952 0.95010376 1.0720978q0.24642944 0.92071533 -0.35668945 1.8099518q-0.5880127 0.8851776 -2.0068665 1.2648163q-1.4037476 0.37557983 -2.3108826 0.068359375q-0.91119385 -0.3223114 -1.4484253 -1.1813965zm7.1605835 -1.9158936l1.6329346 -0.7280426q0.37182617 0.4827881 0.76449585 0.62034607q0.40774536 0.1335144 0.99642944 -0.023986816q0.58865356 -0.15750122 0.87820435 -0.52612305q0.20812988 -0.24977112 0.1354065 -0.5214691q-0.044433594 -0.16603088 -0.2206726 -0.28060913q-0.15710449 -0.10354614 -0.813385 -0.13821411q-1.7413635 -0.10018921 -2.1994934 -0.30110168q-0.71795654 -0.3255005 -0.9239807 -1.0952759q-0.20602417 -0.76979065 0.21807861 -1.48172q0.5899353 -0.9989166 2.1748047 -1.4229736q1.2528076 -0.33520508 2.0270996 -0.04095459q0.77023315 0.2791443 1.1463318 1.0196075l-1.5534058 0.72294617q-0.2177124 -0.3299408 -0.5489502 -0.41923523q-0.45706177 -0.13650513 -1.0155334 0.012924194q-0.543396 0.14538574 -0.7364197 0.39112854q-0.19302368 0.2457428 -0.12841797 0.48724365q0.06463623 0.24150085 0.35058594 0.34291077q0.1751709 0.050186157 1.0740356 0.08465576q1.3950195 0.014923096 1.9146118 0.26409912q0.7562256 0.34761047 0.95010376 1.072113q0.24642944 0.92071533 -0.35668945 1.8099365q-0.5880127 0.8851929 -2.006836 1.2648163q-1.4037476 0.3755951 -2.3108826 0.068374634q-0.91119385 -0.3223114 -1.4484558 -1.1813965z" fill-rule="nonzero"></path><path fill="#000000" fill-opacity="0.0" d="m339.23883 313.35434l218.80316 0l0 32.346436l-218.80316 0z" fill-rule="evenodd"></path><path fill="#000000" d="m406.35532 336.44757l-3.25 -13.59375l2.8125 0l2.046875 9.328125l2.484375 -9.328125l3.265625 0l2.390625 9.5l2.09375 -9.5l2.765625 0l-3.3125 13.59375l-2.90625 0l-2.71875 -10.171875l-2.6875 10.171875l-2.984375 0zm15.655548 -11.1875l0 -2.40625l2.609375 0l0 2.40625l-2.609375 0zm0 11.1875l0 -9.859375l2.609375 0l0 9.859375l-2.609375 0zm9.698914 -9.859375l0 2.078125l-1.78125 0l0 3.984375q0 1.203125 0.046875 1.40625q0.0625 0.1875 0.234375 0.328125q0.1875 0.125 0.453125 0.125q0.359375 0 1.046875 -0.25l0.21875 2.015625q-0.90625 0.390625 -2.0625 0.390625q-0.703125 0 -1.265625 -0.234375q-0.5625 -0.234375 -0.828125 -0.609375q-0.265625 -0.375 -0.375 -1.015625q-0.078125 -0.453125 -0.078125 -1.84375l0 -4.296875l-1.203125 0l0 -2.078125l1.203125 0l0 -1.953125l2.609375 -1.515625l0 3.46875l1.78125 0zm4.306427 -3.734375l0 5.0q1.25 -1.484375 3.015625 -1.484375q0.890625 0 1.609375 0.34375q0.734375 0.328125 1.09375 0.84375q0.375 0.515625 0.5 1.15625q0.140625 0.625 0.140625 1.953125l0 5.78125l-2.609375 0l0 -5.203125q0 -1.546875 -0.15625 -1.96875q-0.140625 -0.421875 -0.515625 -0.65625q-0.375 -0.25 -0.9375 -0.25q-0.65625 0 -1.171875 0.3125q-0.5 0.3125 -0.734375 0.953125q-0.234375 0.640625 -0.234375 1.875l0 4.9375l-2.609375 0l0 -13.59375l2.609375 0zm13.985535 13.59375l0 -13.59375l4.421875 0q2.5 0 3.265625 0.203125q1.15625 0.296875 1.9375 1.328125q0.796875 1.015625 0.796875 2.640625q0 1.25 -0.453125 2.109375q-0.453125 0.859375 -1.15625 1.34375q-0.703125 0.484375 -1.421875 0.640625q-0.984375 0.203125 -2.84375 0.203125l-1.796875 0l0 5.125l-2.75 0zm2.75 -11.296875l0 3.859375l1.5 0q1.625 0 2.171875 -0.21875q0.546875 -0.21875 0.859375 -0.671875q0.3125 -0.453125 0.3125 -1.046875q0 -0.75 -0.4375 -1.234375q-0.4375 -0.484375 -1.09375 -0.59375q-0.5 -0.09375 -1.984375 -0.09375l-1.328125 0zm16.162323 11.296875l0 -1.46875q-0.53125 0.78125 -1.40625 1.234375q-0.875 0.453125 -1.859375 0.453125q-0.984375 0 -1.78125 -0.4375q-0.78125 -0.4375 -1.140625 -1.21875q-0.34375 -0.796875 -0.34375 -2.1875l0 -6.234375l2.609375 0l0 4.53125q0 2.078125 0.140625 2.546875q0.140625 0.46875 0.515625 0.75q0.390625 0.265625 0.96875 0.265625q0.671875 0 1.203125 -0.359375q0.53125 -0.375 0.71875 -0.90625q0.1875 -0.546875 0.1875 -2.671875l0 -4.15625l2.609375 0l0 9.859375l-2.421875 0zm4.005371 -2.8125l2.609375 -0.390625q0.171875 0.75 0.671875 1.15625q0.515625 0.390625 1.4375 0.390625q1.0 0 1.515625 -0.375q0.34375 -0.265625 0.34375 -0.703125q0 -0.296875 -0.1875 -0.484375q-0.1875 -0.1875 -0.875 -0.34375q-3.140625 -0.703125 -4.0 -1.265625q-1.15625 -0.796875 -1.15625 -2.21875q0 -1.28125 1.0 -2.15625q1.015625 -0.875 3.140625 -0.875q2.03125 0 3.0 0.65625q0.984375 0.65625 1.359375 1.953125l-2.453125 0.453125q-0.15625 -0.578125 -0.609375 -0.875q-0.4375 -0.3125 -1.25 -0.3125q-1.03125 0 -1.46875 0.296875q-0.296875 0.203125 -0.296875 0.515625q0 0.28125 0.25 0.484375q0.359375 0.25 2.4375 0.734375q2.078125 0.46875 2.90625 1.15625q0.828125 0.6875 0.828125 1.9375q0 1.359375 -1.140625 2.328125q-1.125 0.96875 -3.34375 0.96875q-2.015625 0 -3.1875 -0.8125q-1.171875 -0.8125 -1.53125 -2.21875zm13.891327 -10.78125l0 5.0q1.25 -1.484375 3.015625 -1.484375q0.890625 0 1.609375 0.34375q0.734375 0.328125 1.09375 0.84375q0.375 0.515625 0.5 1.15625q0.140625 0.625 0.140625 1.953125l0 5.78125l-2.609375 0l0 -5.203125q0 -1.546875 -0.15625 -1.96875q-0.140625 -0.421875 -0.515625 -0.65625q-0.375 -0.25 -0.9375 -0.25q-0.65625 0 -1.171875 0.3125q-0.5 0.3125 -0.734375 0.953125q-0.234375 0.640625 -0.234375 1.875l0 4.9375l-2.609375 0l0 -13.59375l2.609375 0z" fill-rule="nonzero"></path></g></svg>

