<?xml version="1.0" encoding="UTF-8" standalone="no"?><!DOCTYPE svg PUBLIC "-//W3C//DTD SVG 1.1//EN" "http://www.w3.org/Graphics/SVG/1.1/DTD/svg11.dtd"><svg width="100%" height="100%" viewBox="0 0 747 136" version="1.1" xmlns="http://www.w3.org/2000/svg" xmlns:xlink="http://www.w3.org/1999/xlink" xml:space="preserve" xmlns:serif="http://www.serif.com/" style="fill-rule:evenodd;clip-rule:evenodd;stroke-linecap:round;stroke-linejoin:round;stroke-miterlimit:1.5;"><path d="M312.757,53.887c0,-2.044 -1.659,-3.704 -3.703,-3.704l-293.481,0c-2.044,0 -3.704,1.66 -3.704,3.704l0,7.407c0,2.044 1.66,3.703 3.704,3.703l293.481,0c2.044,0 3.703,-1.659 3.703,-3.703l0,-7.407Z" style="fill:none;stroke:#e62626;stroke-width:1px;"/><path d="M697.757,39.073c0,-2.044 -1.659,-3.703 -3.703,-3.703l-293.481,0c-2.044,0 -3.704,1.659 -3.704,3.703l0,7.407c0,2.044 1.66,3.703 3.704,3.703l293.481,0c2.044,0 3.703,-1.659 3.703,-3.703l0,-7.407Z" style="fill:none;stroke:#e62626;stroke-width:1px;"/><path d="M334.419,58.906l-1.301,-5.019l40.745,-10.567l-1.209,-4.66l9.029,5.31l-5.31,9.029l-1.208,-4.66l-40.746,10.567Z" style="fill:none;stroke:#e62626;stroke-width:1px;"/><text x="14.976px" y="14.375px" style="font-family:'Arial-BoldMT', 'Arial', sans-serif;font-weight:700;font-size:20px;">2016</text><text x="398.976px" y="14.375px" style="font-family:'Arial-BoldMT', 'Arial', sans-serif;font-weight:700;font-size:20px;">2017</text><text x="383.976px" y="29.062px" style="font-family:'HelveticaNeue', 'Helvetica Neue';font-size:12px;">The following apply to me: (multiple choice)</text><rect x="470.976" y="39.862" width="81" height="7.2" style="fill:#00acd7;stroke:#00acd7;stroke-width:1px;stroke-linecap:butt;stroke-linejoin:miter;stroke-miterlimit:4;"/><text x="400.056px" y="47.062px" style="font-family:'HelveticaNeue', 'Helvetica Neue';font-size:12px;">4,201 (67%)</text><text x="557.976px" y="47.062px" style="font-family:'HelveticaNeue', 'Helvetica Neue';font-size:12px;">I pr<tspan x="575.316px 582.204px " y="47.062px 47.062px ">og</tspan>ram at work in Go</text><rect x="470.976" y="54.262" width="75.84" height="7.2" style="fill:#00acd7;stroke:#00acd7;stroke-width:1px;stroke-linecap:butt;stroke-linejoin:miter;stroke-miterlimit:4;"/><text x="400.056px" y="61.462px" style="font-family:'HelveticaNeue', 'Helvetica Neue';font-size:12px;">3,935 (63%)</text><text x="552.816px" y="61.462px" style="font-family:'HelveticaNeue', 'Helvetica Neue';font-size:12px;">I pr<tspan x="570.156px 577.044px " y="61.462px 61.462px ">og</tspan>ram in Go outside of work</text><rect x="470.976" y="68.662" width="65.16" height="7.2" style="fill:#00acd7;stroke:#00acd7;stroke-width:1px;stroke-linecap:butt;stroke-linejoin:miter;stroke-miterlimit:4;"/><text x="400.056px" y="75.862px" style="font-family:'HelveticaNeue', 'Helvetica Neue';font-size:12px;">3,381 (54%)</text><text x="542.136px" y="75.862px" style="font-family:'HelveticaNeue', 'Helvetica Neue';font-size:12px;">I pr<tspan x="559.476px 566.364px " y="75.862px 75.862px ">og</tspan>ram at work in another language</text><rect x="470.976" y="83.062" width="19.32" height="7.2" style="fill:#00acd7;stroke:#00acd7;stroke-width:1px;stroke-linecap:butt;stroke-linejoin:miter;stroke-miterlimit:4;"/><text x="400.056px" y="90.262px" style="font-family:'HelveticaNeue', 'Helvetica Neue';font-size:12px;">1,001 (16%)</text><text x="496.296px" y="90.262px" style="font-family:'HelveticaNeue', 'Helvetica Neue';font-size:12px;">I manage a pr<tspan x="569.88px 576.768px " y="90.262px 90.262px ">og</tspan>ramming team</text><rect x="470.976" y="97.462" width="9.72" height="7.2" style="fill:#00acd7;stroke:#00acd7;stroke-width:1px;stroke-linecap:butt;stroke-linejoin:miter;stroke-miterlimit:4;"/><text x="410.064px" y="104.662px" style="font-family:'HelveticaNeue', 'Helvetica Neue';font-size:12px;">506  (8%)</text><text x="486.696px" y="104.662px" style="font-family:'HelveticaNeue', 'Helvetica Neue';font-size:12px;">I am a student</text><rect x="470.976" y="111.862" width="2.16" height="7.2" style="fill:#777;stroke:#777;stroke-width:1px;stroke-linecap:butt;stroke-linejoin:miter;stroke-miterlimit:4;"/><text x="410.064px" y="119.062px" style="font-family:'HelveticaNeue', 'Helvetica Neue';font-size:12px;">113  (2%)</text><text x="479.136px" y="119.062px" style="font-family:'HelveticaNeue', 'Helvetica Neue';font-size:12px;">Other</text><rect x="470.976" y="126.262" width="0.48" height="7.2" style="fill:#fff;stroke:#000;stroke-width:1px;stroke-linecap:butt;stroke-linejoin:miter;stroke-miterlimit:4;"/><text x="416.736px" y="133.462px" style="font-family:'HelveticaNeue', 'Helvetica Neue';font-size:12px;">27  (0%)</text><text x="477.456px" y="133.462px" style="font-family:'HelveticaNeue', 'Helvetica Neue';font-size:12px;">No r<tspan x="500.124px 506.568px " y="133.462px 133.462px ">es</tspan>ponse</text><text x="-0.024px" y="28.728px" style="font-family:'HelveticaNeue', 'Helvetica Neue';font-size:12px;">The following apply to me: (multiple choice)</text><rect x="86.976" y="39.528" width="79.68" height="7.2" style="fill:#00c4b3;stroke:#00c4b3;stroke-width:1px;stroke-linecap:butt;stroke-linejoin:miter;stroke-miterlimit:4;"/><text x="16.056px" y="46.728px" style="font-family:'HelveticaNeue', 'Helvetica Neue';font-size:12px;">2,386 (66%)</text><text x="172.656px" y="46.728px" style="font-family:'HelveticaNeue', 'Helvetica Neue';font-size:12px;">I pr<tspan x="189.996px 196.884px " y="46.728px 46.728px ">og</tspan>ram in Go outside of work</text><rect x="86.976" y="53.928" width="74.64" height="7.2" style="fill:#00c4b3;stroke:#00c4b3;stroke-width:1px;stroke-linecap:butt;stroke-linejoin:miter;stroke-miterlimit:4;"/><text x="16.056px" y="61.128px" style="font-family:'HelveticaNeue', 'Helvetica Neue';font-size:12px;">2,235 (62%)</text><text x="167.616px" y="61.128px" style="font-family:'HelveticaNeue', 'Helvetica Neue';font-size:12px;">I pr<tspan x="184.956px 191.844px " y="61.128px 61.128px ">og</tspan>ram at work in Go</text><rect x="86.976" y="68.328" width="66.84" height="7.2" style="fill:#00c4b3;stroke:#00c4b3;stroke-width:1px;stroke-linecap:butt;stroke-linejoin:miter;stroke-miterlimit:4;"/><text x="16.056px" y="75.528px" style="font-family:'HelveticaNeue', 'Helvetica Neue';font-size:12px;">2,004 (56%)</text><text x="159.816px" y="75.528px" style="font-family:'HelveticaNeue', 'Helvetica Neue';font-size:12px;">I pr<tspan x="177.156px 184.044px " y="75.528px 75.528px ">og</tspan>ram at work in another language</text><rect x="86.976" y="82.728" width="20.64" height="7.2" style="fill:#00c4b3;stroke:#00c4b3;stroke-width:1px;stroke-linecap:butt;stroke-linejoin:miter;stroke-miterlimit:4;"/><text x="26.064px" y="89.928px" style="font-family:'HelveticaNeue', 'Helvetica Neue';font-size:12px;">618 (17%)</text><text x="113.616px" y="89.928px" style="font-family:'HelveticaNeue', 'Helvetica Neue';font-size:12px;">I manage a pr<tspan x="187.2px 194.088px " y="89.928px 89.928px ">og</tspan>ramming team</text><rect x="86.976" y="97.128" width="11.28" height="7.2" style="fill:#00c4b3;stroke:#00c4b3;stroke-width:1px;stroke-linecap:butt;stroke-linejoin:miter;stroke-miterlimit:4;"/><text x="26.064px" y="104.328px" style="font-family:'HelveticaNeue', 'Helvetica Neue';font-size:12px;">337  (9%)</text><text x="104.256px" y="104.328px" style="font-family:'HelveticaNeue', 'Helvetica Neue';font-size:12px;">I am a student</text><rect x="86.976" y="111.528" width="2.64" height="7.2" style="fill:#777;stroke:#777;stroke-width:1px;stroke-linecap:butt;stroke-linejoin:miter;stroke-miterlimit:4;"/><text x="32.736px" y="118.728px" style="font-family:'HelveticaNeue', 'Helvetica Neue';font-size:12px;">78  (2%)</text><text x="95.616px" y="118.728px" style="font-family:'HelveticaNeue', 'Helvetica Neue';font-size:12px;">Other</text><rect x="86.976" y="125.928" width="0.36" height="7.2" style="fill:#fff;stroke:#000;stroke-width:1px;stroke-linecap:butt;stroke-linejoin:miter;stroke-miterlimit:4;"/><text x="32.736px" y="133.128px" style="font-family:'HelveticaNeue', 'Helvetica Neue';font-size:12px;">10  (0%)</text><text x="93.336px" y="133.128px" style="font-family:'HelveticaNeue', 'Helvetica Neue';font-size:12px;">No r<tspan x="116.004px 122.448px " y="133.128px 133.128px ">es</tspan>ponse</text></svg>