<?xml version="1.0" standalone="no"?>
<!DOCTYPE svg PUBLIC "-//W3C//DTD SVG 1.1//EN"
  "http://www.w3.org/Graphics/SVG/1.1/DTD/svg11.dtd">
<svg width="70.00em" height="11.60em" version="1.1"
     xmlns="http://www.w3.org/2000/svg">
  <defs>
    <style type="text/css"><![CDATA[
      svg {
        font-family: "Helvetica Neue", Arial, sans-serif; /* Helvetica on Mac aka sans-serif has broken U+2007 */
      }
      tspan.size {
        font-size: 0.80em;
      }
      tspan.head {
        font-weight: bold;
      }
      tspan.paren {
        font-weight: normal !important;
      }
    ]]></style>
  </defs>
<text x="0.00em" y="1.20em" class="head"><tspan class="size">To what extent do you agree or disagree with the following statements: </tspan></text>
<text x="0.00em" y="2.40em"><tspan class="size">(<tspan fill="#CE3262">strongly disagree</tspan>, <tspan fill="#D77A95">disagree</tspan>, <tspan fill="#E6B1C1">somewhat disagree</tspan>, <tspan fill="#cccccc">neither agree nor disagree</tspan>, <tspan fill="#77CCE9">somewhat agree</tspan>, <tspan fill="#50BFE2">agree</tspan>, <tspan fill="#00ACD7">strongly agree</tspan>)</tspan></text>
<rect x="14.00em" y="3.30em" width="0.10em" height="0.60em" stroke="#CE3262" fill="#CE3262"/>
<rect x="14.10em" y="3.30em" width="0.25em" height="0.60em" stroke="#D77A95" fill="#D77A95"/>
<rect x="14.35em" y="3.30em" width="0.44em" height="0.60em" stroke="#E6B1C1" fill="#E6B1C1"/>
<rect x="14.79em" y="3.30em" width="0.65em" height="0.60em" stroke="#cccccc" fill="#cccccc"/>
<rect x="15.44em" y="3.30em" width="2.74em" height="0.60em" stroke="#77CCE9" fill="#77CCE9"/>
<rect x="18.19em" y="3.30em" width="3.41em" height="0.60em" stroke="#50BFE2" fill="#50BFE2"/>
<rect x="21.60em" y="3.30em" width="1.32em" height="0.60em" stroke="#00ACD7" fill="#00ACD7"/>
<text x="13.50em" y="3.90em" text-anchor="end"><tspan class="size">5,555 (<tspan fill="#CE3262">1</tspan>, <tspan fill="#D77A95">2</tspan>, <tspan fill="#E6B1C1">4</tspan>, <tspan fill="#cccccc">7</tspan>, <tspan fill="#77CCE9">27</tspan>, <tspan fill="#50BFE2">34</tspan>, <tspan fill="#00ACD7">13</tspan>%)</tspan></text>
<text x="23.42em" y="3.90em"><tspan class="size">I have a good understanding of Go best practices (9.5:1) [11:1]</tspan></text>
<rect x="14.00em" y="4.50em" width="0.04em" height="0.60em" stroke="#CE3262" fill="#CE3262"/>
<rect x="14.04em" y="4.50em" width="0.09em" height="0.60em" stroke="#D77A95" fill="#D77A95"/>
<rect x="14.13em" y="4.50em" width="0.26em" height="0.60em" stroke="#E6B1C1" fill="#E6B1C1"/>
<rect x="14.40em" y="4.50em" width="0.38em" height="0.60em" stroke="#cccccc" fill="#cccccc"/>
<rect x="14.78em" y="4.50em" width="1.71em" height="0.60em" stroke="#77CCE9" fill="#77CCE9"/>
<rect x="16.48em" y="4.50em" width="4.17em" height="0.60em" stroke="#50BFE2" fill="#50BFE2"/>
<rect x="20.66em" y="4.50em" width="2.26em" height="0.60em" stroke="#00ACD7" fill="#00ACD7"/>
<text x="13.50em" y="5.10em" text-anchor="end"><tspan class="size">5,549 (<tspan fill="#CE3262">0.4</tspan>, <tspan fill="#D77A95">0.9</tspan>, <tspan fill="#E6B1C1">3</tspan>, <tspan fill="#cccccc">4</tspan>, <tspan fill="#77CCE9">17</tspan>, <tspan fill="#50BFE2">42</tspan>, <tspan fill="#00ACD7">23</tspan>%)</tspan></text>
<text x="23.41em" y="5.10em"><tspan class="size">I am able to quickly find answers to my questions (21:1) [31:1]</tspan></text>
<rect x="14.00em" y="5.70em" width="0.04em" height="0.60em" stroke="#CE3262" fill="#CE3262"/>
<rect x="14.04em" y="5.70em" width="0.04em" height="0.60em" stroke="#D77A95" fill="#D77A95"/>
<rect x="14.08em" y="5.70em" width="0.10em" height="0.60em" stroke="#E6B1C1" fill="#E6B1C1"/>
<rect x="14.18em" y="5.70em" width="0.17em" height="0.60em" stroke="#cccccc" fill="#cccccc"/>
<rect x="14.35em" y="5.70em" width="0.64em" height="0.60em" stroke="#77CCE9" fill="#77CCE9"/>
<rect x="14.99em" y="5.70em" width="3.19em" height="0.60em" stroke="#50BFE2" fill="#50BFE2"/>
<rect x="18.18em" y="5.70em" width="4.70em" height="0.60em" stroke="#00ACD7" fill="#00ACD7"/>
<text x="13.50em" y="6.30em" text-anchor="end"><tspan class="size">5,528 (<tspan fill="#CE3262">0.4</tspan>, <tspan fill="#D77A95">0.4</tspan>, <tspan fill="#E6B1C1">1</tspan>, <tspan fill="#cccccc">2</tspan>, <tspan fill="#77CCE9">6</tspan>, <tspan fill="#50BFE2">32</tspan>, <tspan fill="#00ACD7">47</tspan>%)</tspan></text>
<text x="23.38em" y="6.30em"><tspan class="size">Go&#39;s performance meets my needs (48:1) [80:1]</tspan></text>
<rect x="14.00em" y="6.90em" width="0.11em" height="0.60em" stroke="#CE3262" fill="#CE3262"/>
<rect x="14.11em" y="6.90em" width="0.24em" height="0.60em" stroke="#D77A95" fill="#D77A95"/>
<rect x="14.35em" y="6.90em" width="0.44em" height="0.60em" stroke="#E6B1C1" fill="#E6B1C1"/>
<rect x="14.79em" y="6.90em" width="1.21em" height="0.60em" stroke="#cccccc" fill="#cccccc"/>
<rect x="16.00em" y="6.90em" width="1.47em" height="0.60em" stroke="#77CCE9" fill="#77CCE9"/>
<rect x="17.47em" y="6.90em" width="2.60em" height="0.60em" stroke="#50BFE2" fill="#50BFE2"/>
<rect x="20.07em" y="6.90em" width="1.34em" height="0.60em" stroke="#00ACD7" fill="#00ACD7"/>
<text x="13.50em" y="7.50em" text-anchor="end"><tspan class="size">4,614 (<tspan fill="#CE3262">1</tspan>, <tspan fill="#D77A95">2</tspan>, <tspan fill="#E6B1C1">4</tspan>, <tspan fill="#cccccc">12</tspan>, <tspan fill="#77CCE9">15</tspan>, <tspan fill="#50BFE2">26</tspan>, <tspan fill="#00ACD7">13</tspan>%)</tspan></text>
<text x="21.91em" y="7.50em"><tspan class="size">Go&#39;s support for language interoperability meets my needs (6.8:1) [8.8:1]</tspan></text>
<rect x="14.00em" y="8.10em" width="0.08em" height="0.60em" stroke="#CE3262" fill="#CE3262"/>
<rect x="14.08em" y="8.10em" width="0.20em" height="0.60em" stroke="#D77A95" fill="#D77A95"/>
<rect x="14.28em" y="8.10em" width="0.55em" height="0.60em" stroke="#E6B1C1" fill="#E6B1C1"/>
<rect x="14.83em" y="8.10em" width="0.58em" height="0.60em" stroke="#cccccc" fill="#cccccc"/>
<rect x="15.41em" y="8.10em" width="2.44em" height="0.60em" stroke="#77CCE9" fill="#77CCE9"/>
<rect x="17.85em" y="8.10em" width="3.61em" height="0.60em" stroke="#50BFE2" fill="#50BFE2"/>
<rect x="21.46em" y="8.10em" width="1.34em" height="0.60em" stroke="#00ACD7" fill="#00ACD7"/>
<text x="13.50em" y="8.70em" text-anchor="end"><tspan class="size">5,478 (<tspan fill="#CE3262">0.8</tspan>, <tspan fill="#D77A95">2</tspan>, <tspan fill="#E6B1C1">5</tspan>, <tspan fill="#cccccc">6</tspan>, <tspan fill="#77CCE9">24</tspan>, <tspan fill="#50BFE2">36</tspan>, <tspan fill="#00ACD7">13</tspan>%)</tspan></text>
<text x="23.30em" y="8.70em"><tspan class="size">I am able to quickly find libraries that I need (8.9:1) [12:1]</tspan></text>
<rect x="14.00em" y="9.30em" width="0.09em" height="0.60em" stroke="#CE3262" fill="#CE3262"/>
<rect x="14.09em" y="9.30em" width="0.19em" height="0.60em" stroke="#D77A95" fill="#D77A95"/>
<rect x="14.28em" y="9.30em" width="0.51em" height="0.60em" stroke="#E6B1C1" fill="#E6B1C1"/>
<rect x="14.80em" y="9.30em" width="0.69em" height="0.60em" stroke="#cccccc" fill="#cccccc"/>
<rect x="15.49em" y="9.30em" width="2.33em" height="0.60em" stroke="#77CCE9" fill="#77CCE9"/>
<rect x="17.81em" y="9.30em" width="3.68em" height="0.60em" stroke="#50BFE2" fill="#50BFE2"/>
<rect x="21.49em" y="9.30em" width="1.25em" height="0.60em" stroke="#00ACD7" fill="#00ACD7"/>
<text x="13.50em" y="9.90em" text-anchor="end"><tspan class="size">5,443 (<tspan fill="#CE3262">0.9</tspan>, <tspan fill="#D77A95">2</tspan>, <tspan fill="#E6B1C1">5</tspan>, <tspan fill="#cccccc">7</tspan>, <tspan fill="#77CCE9">23</tspan>, <tspan fill="#50BFE2">37</tspan>, <tspan fill="#00ACD7">12</tspan>%)</tspan></text>
<text x="23.24em" y="9.90em"><tspan class="size">The Go libraries I use have the stability and features I need (9.1:1) [12:1]</tspan></text>
<rect x="14.00em" y="10.50em" width="0.08em" height="0.60em" stroke="#CE3262" fill="#CE3262"/>
<rect x="14.08em" y="10.50em" width="0.19em" height="0.60em" stroke="#D77A95" fill="#D77A95"/>
<rect x="14.27em" y="10.50em" width="0.42em" height="0.60em" stroke="#E6B1C1" fill="#E6B1C1"/>
<rect x="14.70em" y="10.50em" width="0.51em" height="0.60em" stroke="#cccccc" fill="#cccccc"/>
<rect x="15.21em" y="10.50em" width="1.71em" height="0.60em" stroke="#77CCE9" fill="#77CCE9"/>
<rect x="16.92em" y="10.50em" width="3.71em" height="0.60em" stroke="#50BFE2" fill="#50BFE2"/>
<rect x="20.63em" y="10.50em" width="2.24em" height="0.60em" stroke="#00ACD7" fill="#00ACD7"/>
<text x="13.50em" y="11.10em" text-anchor="end"><tspan class="size">5,521 (<tspan fill="#CE3262">0.8</tspan>, <tspan fill="#D77A95">2</tspan>, <tspan fill="#E6B1C1">4</tspan>, <tspan fill="#cccccc">5</tspan>, <tspan fill="#77CCE9">17</tspan>, <tspan fill="#50BFE2">37</tspan>, <tspan fill="#00ACD7">22</tspan>%)</tspan></text>
<text x="23.37em" y="11.10em"><tspan class="size">Go language, library, and tool documentation meet my needs (11:1) [16:1]</tspan></text>
</svg>
