<?xml version="1.0" standalone="no"?>
<!DOCTYPE svg PUBLIC "-//W3C//DTD SVG 1.1//EN"
  "http://www.w3.org/Graphics/SVG/1.1/DTD/svg11.dtd">
<svg width="70.00em" height="18.80em" version="1.1"
     xmlns="http://www.w3.org/2000/svg">
  <defs>
    <style type="text/css"><![CDATA[
      svg {
        font-family: "Helvetica Neue", Arial, sans-serif; /* Helvetica on Mac aka sans-serif has broken U+2007 */
      }
      tspan.size {
        font-size: 0.80em;
      }
      tspan.head {
        font-weight: bold;
      }
      tspan.paren {
        font-weight: normal !important;
      }
    ]]></style>
  </defs>
<text x="0.00em" y="1.20em" class="head"><tspan class="size">Rank the following in terms of where you get Go answers from: </tspan></text>
<rect x="12.00em" y="2.10em" width="2.81em" height="0.60em" stroke="#00acd7" fill="#00acd7"/>
<rect x="14.81em" y="2.10em" width="1.99em" height="0.60em" stroke="#2eb8da" fill="#2eb8da"/>
<rect x="16.80em" y="2.10em" width="1.31em" height="0.60em" stroke="#5cc4dd" fill="#5cc4dd"/>
<rect x="18.12em" y="2.10em" width="0.60em" height="0.60em" stroke="#8ad0e0" fill="#8ad0e0"/>
<rect x="18.72em" y="2.10em" width="0.25em" height="0.60em" stroke="#b8dce3" fill="#b8dce3"/>
<text x="11.50em" y="2.70em" text-anchor="end"><tspan class="size">4,337 (<tspan fill="#00acd7">28</tspan>, <tspan fill="#2eb8da">20</tspan>, <tspan fill="#5cc4dd">13</tspan>, <tspan fill="#8ad0e0">6</tspan>, <tspan fill="#b8dce3">2</tspan>%)</tspan></text>
<text x="19.47em" y="2.70em"><tspan class="size">Stack Overflow</tspan></text>
<rect x="12.00em" y="3.30em" width="2.90em" height="0.60em" stroke="#00acd7" fill="#00acd7"/>
<rect x="14.90em" y="3.30em" width="1.73em" height="0.60em" stroke="#2eb8da" fill="#2eb8da"/>
<rect x="16.64em" y="3.30em" width="0.93em" height="0.60em" stroke="#5cc4dd" fill="#5cc4dd"/>
<rect x="17.56em" y="3.30em" width="0.39em" height="0.60em" stroke="#8ad0e0" fill="#8ad0e0"/>
<rect x="17.95em" y="3.30em" width="0.14em" height="0.60em" stroke="#b8dce3" fill="#b8dce3"/>
<text x="11.50em" y="3.90em" text-anchor="end"><tspan class="size">3,791 (<tspan fill="#00acd7">29</tspan>, <tspan fill="#2eb8da">17</tspan>, <tspan fill="#5cc4dd">9</tspan>, <tspan fill="#8ad0e0">4</tspan>, <tspan fill="#b8dce3">1</tspan>%)</tspan></text>
<text x="18.59em" y="3.90em"><tspan class="size">golang.org</tspan></text>
<rect x="12.00em" y="4.50em" width="1.25em" height="0.60em" stroke="#00acd7" fill="#00acd7"/>
<rect x="13.25em" y="4.50em" width="1.68em" height="0.60em" stroke="#2eb8da" fill="#2eb8da"/>
<rect x="14.94em" y="4.50em" width="1.39em" height="0.60em" stroke="#5cc4dd" fill="#5cc4dd"/>
<rect x="16.33em" y="4.50em" width="0.83em" height="0.60em" stroke="#8ad0e0" fill="#8ad0e0"/>
<rect x="17.16em" y="4.50em" width="0.24em" height="0.60em" stroke="#b8dce3" fill="#b8dce3"/>
<text x="11.50em" y="5.10em" text-anchor="end"><tspan class="size">3,362 (<tspan fill="#00acd7">13</tspan>, <tspan fill="#2eb8da">17</tspan>, <tspan fill="#5cc4dd">14</tspan>, <tspan fill="#8ad0e0">8</tspan>, <tspan fill="#b8dce3">2</tspan>%)</tspan></text>
<text x="17.90em" y="5.10em"><tspan class="size">Reading source code (e.g., standard library, open-source packages)</tspan></text>
<rect x="12.00em" y="5.70em" width="0.37em" height="0.60em" stroke="#00acd7" fill="#00acd7"/>
<rect x="12.37em" y="5.70em" width="1.11em" height="0.60em" stroke="#2eb8da" fill="#2eb8da"/>
<rect x="13.47em" y="5.70em" width="1.33em" height="0.60em" stroke="#5cc4dd" fill="#5cc4dd"/>
<rect x="14.81em" y="5.70em" width="0.79em" height="0.60em" stroke="#8ad0e0" fill="#8ad0e0"/>
<rect x="15.60em" y="5.70em" width="0.30em" height="0.60em" stroke="#b8dce3" fill="#b8dce3"/>
<text x="11.50em" y="6.30em" text-anchor="end"><tspan class="size">2,428 (<tspan fill="#00acd7">4</tspan>, <tspan fill="#2eb8da">11</tspan>, <tspan fill="#5cc4dd">13</tspan>, <tspan fill="#8ad0e0">8</tspan>, <tspan fill="#b8dce3">3</tspan>%)</tspan></text>
<text x="16.40em" y="6.30em"><tspan class="size">GitHub</tspan></text>
<rect x="12.00em" y="6.90em" width="0.46em" height="0.60em" stroke="#00acd7" fill="#00acd7"/>
<rect x="12.46em" y="6.90em" width="0.55em" height="0.60em" stroke="#2eb8da" fill="#2eb8da"/>
<rect x="13.01em" y="6.90em" width="0.59em" height="0.60em" stroke="#5cc4dd" fill="#5cc4dd"/>
<rect x="13.60em" y="6.90em" width="0.48em" height="0.60em" stroke="#8ad0e0" fill="#8ad0e0"/>
<rect x="14.07em" y="6.90em" width="0.19em" height="0.60em" stroke="#b8dce3" fill="#b8dce3"/>
<text x="11.50em" y="7.50em" text-anchor="end"><tspan class="size">1,408 (<tspan fill="#00acd7">5</tspan>, <tspan fill="#2eb8da">6</tspan>, <tspan fill="#5cc4dd">6</tspan>, <tspan fill="#8ad0e0">5</tspan>, <tspan fill="#b8dce3">2</tspan>%)</tspan></text>
<text x="14.76em" y="7.50em"><tspan class="size">Coworkers</tspan></text>
<rect x="12.00em" y="8.10em" width="0.17em" height="0.60em" stroke="#00acd7" fill="#00acd7"/>
<rect x="12.17em" y="8.10em" width="0.41em" height="0.60em" stroke="#2eb8da" fill="#2eb8da"/>
<rect x="12.58em" y="8.10em" width="0.52em" height="0.60em" stroke="#5cc4dd" fill="#5cc4dd"/>
<rect x="13.10em" y="8.10em" width="0.38em" height="0.60em" stroke="#8ad0e0" fill="#8ad0e0"/>
<rect x="13.48em" y="8.10em" width="0.24em" height="0.60em" stroke="#b8dce3" fill="#b8dce3"/>
<text x="11.50em" y="8.70em" text-anchor="end"><tspan class="size">1,071 (<tspan fill="#00acd7">2</tspan>, <tspan fill="#2eb8da">4</tspan>, <tspan fill="#5cc4dd">5</tspan>, <tspan fill="#8ad0e0">4</tspan>, <tspan fill="#b8dce3">2</tspan>%)</tspan></text>
<text x="14.22em" y="8.70em"><tspan class="size">golang-nuts mailing list (groups.google.com/d/forum/golang-nuts)</tspan></text>
<rect x="12.00em" y="9.30em" width="0.12em" height="0.60em" stroke="#00acd7" fill="#00acd7"/>
<rect x="12.12em" y="9.30em" width="0.24em" height="0.60em" stroke="#2eb8da" fill="#2eb8da"/>
<rect x="12.36em" y="9.30em" width="0.38em" height="0.60em" stroke="#5cc4dd" fill="#5cc4dd"/>
<rect x="12.74em" y="9.30em" width="0.39em" height="0.60em" stroke="#8ad0e0" fill="#8ad0e0"/>
<rect x="13.13em" y="9.30em" width="0.31em" height="0.60em" stroke="#b8dce3" fill="#b8dce3"/>
<text x="11.50em" y="9.90em" text-anchor="end"><tspan class="size">895 (<tspan fill="#00acd7">1</tspan>, <tspan fill="#2eb8da">2</tspan>, <tspan fill="#5cc4dd">4</tspan>, <tspan fill="#8ad0e0">4</tspan>, <tspan fill="#b8dce3">3</tspan>%)</tspan></text>
<text x="13.94em" y="9.90em"><tspan class="size">Reddit (r/golang)</tspan></text>
<rect x="12.00em" y="10.50em" width="0.15em" height="0.60em" stroke="#00acd7" fill="#00acd7"/>
<rect x="12.15em" y="10.50em" width="0.17em" height="0.60em" stroke="#2eb8da" fill="#2eb8da"/>
<rect x="12.32em" y="10.50em" width="0.25em" height="0.60em" stroke="#5cc4dd" fill="#5cc4dd"/>
<rect x="12.56em" y="10.50em" width="0.20em" height="0.60em" stroke="#8ad0e0" fill="#8ad0e0"/>
<rect x="12.76em" y="10.50em" width="0.15em" height="0.60em" stroke="#b8dce3" fill="#b8dce3"/>
<text x="11.50em" y="11.10em" text-anchor="end"><tspan class="size">569 (<tspan fill="#00acd7">1</tspan>, <tspan fill="#2eb8da">2</tspan>, <tspan fill="#5cc4dd">2</tspan>, <tspan fill="#8ad0e0">2</tspan>, <tspan fill="#b8dce3">2</tspan>%)</tspan></text>
<text x="13.41em" y="11.10em"><tspan class="size">Gopher Slack (invite.slack.golangbridge.org)</tspan></text>
<rect x="12.00em" y="11.70em" width="0.09em" height="0.60em" stroke="#00acd7" fill="#00acd7"/>
<rect x="12.09em" y="11.70em" width="0.12em" height="0.60em" stroke="#2eb8da" fill="#2eb8da"/>
<rect x="12.22em" y="11.70em" width="0.18em" height="0.60em" stroke="#5cc4dd" fill="#5cc4dd"/>
<rect x="12.39em" y="11.70em" width="0.15em" height="0.60em" stroke="#8ad0e0" fill="#8ad0e0"/>
<rect x="12.54em" y="11.70em" width="0.15em" height="0.60em" stroke="#b8dce3" fill="#b8dce3"/>
<text x="11.50em" y="12.30em" text-anchor="end"><tspan class="size">432 (<tspan fill="#00acd7">0.9</tspan>, <tspan fill="#2eb8da">1</tspan>, <tspan fill="#5cc4dd">2</tspan>, <tspan fill="#8ad0e0">2</tspan>, <tspan fill="#b8dce3">2</tspan>%)</tspan></text>
<text x="13.19em" y="12.30em"><tspan class="size">Friends</tspan></text>
<rect x="12.00em" y="12.90em" width="0.05em" height="0.60em" stroke="#00acd7" fill="#00acd7"/>
<rect x="12.05em" y="12.90em" width="0.07em" height="0.60em" stroke="#2eb8da" fill="#2eb8da"/>
<rect x="12.12em" y="12.90em" width="0.09em" height="0.60em" stroke="#5cc4dd" fill="#5cc4dd"/>
<rect x="12.21em" y="12.90em" width="0.13em" height="0.60em" stroke="#8ad0e0" fill="#8ad0e0"/>
<rect x="12.34em" y="12.90em" width="0.11em" height="0.60em" stroke="#b8dce3" fill="#b8dce3"/>
<text x="11.50em" y="13.50em" text-anchor="end"><tspan class="size">283 (<tspan fill="#00acd7">0.5</tspan>, <tspan fill="#2eb8da">0.7</tspan>, <tspan fill="#5cc4dd">0.9</tspan>, <tspan fill="#8ad0e0">1</tspan>, <tspan fill="#b8dce3">1</tspan>%)</tspan></text>
<text x="12.95em" y="13.50em"><tspan class="size">Twitter</tspan></text>
<rect x="12.00em" y="14.10em" width="0.02em" height="0.60em" stroke="#00acd7" fill="#00acd7"/>
<rect x="12.02em" y="14.10em" width="0.08em" height="0.60em" stroke="#2eb8da" fill="#2eb8da"/>
<rect x="12.10em" y="14.10em" width="0.08em" height="0.60em" stroke="#5cc4dd" fill="#5cc4dd"/>
<rect x="12.19em" y="14.10em" width="0.10em" height="0.60em" stroke="#8ad0e0" fill="#8ad0e0"/>
<rect x="12.29em" y="14.10em" width="0.06em" height="0.60em" stroke="#b8dce3" fill="#b8dce3"/>
<text x="11.50em" y="14.70em" text-anchor="end"><tspan class="size">214 (<tspan fill="#00acd7">0.2</tspan>, <tspan fill="#2eb8da">0.8</tspan>, <tspan fill="#5cc4dd">0.8</tspan>, <tspan fill="#8ad0e0">1</tspan>, <tspan fill="#b8dce3">0.6</tspan>%)</tspan></text>
<text x="12.84em" y="14.70em"><tspan class="size">Go Forum (forum.golangbridge.org)</tspan></text>
<rect x="12.00em" y="15.30em" width="0.05em" height="0.60em" stroke="#00acd7" fill="#00acd7"/>
<rect x="12.05em" y="15.30em" width="0.07em" height="0.60em" stroke="#2eb8da" fill="#2eb8da"/>
<rect x="12.11em" y="15.30em" width="0.07em" height="0.60em" stroke="#5cc4dd" fill="#5cc4dd"/>
<rect x="12.19em" y="15.30em" width="0.06em" height="0.60em" stroke="#8ad0e0" fill="#8ad0e0"/>
<rect x="12.25em" y="15.30em" width="0.05em" height="0.60em" stroke="#b8dce3" fill="#b8dce3"/>
<text x="11.50em" y="15.90em" text-anchor="end"><tspan class="size">186 (<tspan fill="#00acd7">0.5</tspan>, <tspan fill="#2eb8da">0.7</tspan>, <tspan fill="#5cc4dd">0.7</tspan>, <tspan fill="#8ad0e0">0.6</tspan>, <tspan fill="#b8dce3">0.5</tspan>%)</tspan></text>
<text x="12.80em" y="15.90em"><tspan class="size">IRC</tspan></text>
<rect x="12.00em" y="16.50em" width="0.20em" height="0.60em" stroke="#777777" fill="#777777"/>
<rect x="12.20em" y="16.50em" width="0.14em" height="0.60em" stroke="#8e8e8e" fill="#8e8e8e"/>
<rect x="12.34em" y="16.50em" width="0.12em" height="0.60em" stroke="#a5a5a5" fill="#a5a5a5"/>
<rect x="12.46em" y="16.50em" width="0.09em" height="0.60em" stroke="#bcbcbc" fill="#bcbcbc"/>
<rect x="12.55em" y="16.50em" width="0.07em" height="0.60em" stroke="#d3d3d3" fill="#d3d3d3"/>
<text x="11.50em" y="17.10em" text-anchor="end"><tspan class="size">386 (<tspan fill="#777777">2</tspan>, <tspan fill="#8e8e8e">1</tspan>, <tspan fill="#a5a5a5">1</tspan>, <tspan fill="#bcbcbc">0.9</tspan>, <tspan fill="#d3d3d3">0.7</tspan>%)</tspan></text>
<text x="13.12em" y="17.10em"><tspan class="size">Other</tspan></text>
<rect x="12.00em" y="17.70em" width="1.36em" height="0.60em" stroke="black" fill="white"/>
<text x="11.50em" y="18.30em" text-anchor="end"><tspan class="size">844 (14%)</tspan></text>
<text x="13.86em" y="18.30em"><tspan class="size">No response</tspan></text>
</svg>
