<?xml version="1.0" encoding="UTF-8" standalone="no"?><!DOCTYPE svg PUBLIC "-//W3C//DTD SVG 1.1//EN" "http://www.w3.org/Graphics/SVG/1.1/DTD/svg11.dtd"><svg width="100%" height="100%" viewBox="0 0 750 285" version="1.1" xmlns="http://www.w3.org/2000/svg" xmlns:xlink="http://www.w3.org/1999/xlink" xml:space="preserve" xmlns:serif="http://www.serif.com/" style="fill-rule:evenodd;clip-rule:evenodd;"><g><text x="0.002px" y="14.375px" style="font-family:'Arial-BoldMT', 'Arial', sans-serif;font-weight:700;font-size:20px;">2016</text><text x="410.002px" y="14.375px" style="font-family:'Arial-BoldMT', 'Arial', sans-serif;font-weight:700;font-size:20px;">2017</text></g><g><text x="0.916px" y="33.391px" style="font-family:'HelveticaNeue', 'Helvetica Neue';font-size:12px;">My team deploys Non-Go pr<tspan x="153.628px 160.516px " y="33.391px 33.391px ">og</tspan>rams to: (multiple choice)</text><rect x="87.916" y="44.191" width="57.24" height="7.2" style="fill:#00c4b3;stroke:#00c4b3;stroke-width:1px;"/><text x="16.996px" y="51.391px" style="font-family:'HelveticaNeue', 'Helvetica Neue';font-size:12px;">1,714 (48%)</text><text x="151.156px" y="51.391px" style="font-family:'HelveticaNeue', 'Helvetica Neue';font-size:12px;">Self/Company Owned Servers</text><rect x="87.916" y="58.591" width="37.44" height="7.2" style="fill:#00c4b3;stroke:#00c4b3;stroke-width:1px;"/><text x="16.996px" y="65.791px" style="font-family:'HelveticaNeue', 'Helvetica Neue';font-size:12px;">1,122 (31%)</text><text x="131.356px" y="65.791px" style="font-family:'HelveticaNeue', 'Helvetica Neue';font-size:12px;">A<tspan x="138.844px 149.956px " y="65.791px 65.791px ">WS</tspan> EC2</text><rect x="87.916" y="72.991" width="12" height="7.2" style="fill:#00c4b3;stroke:#00c4b3;stroke-width:1px;"/><text x="27.004px" y="80.191px" style="font-family:'HelveticaNeue', 'Helvetica Neue';font-size:12px;">360 (10%)</text><text x="105.916px" y="80.191px" style="font-family:'HelveticaNeue', 'Helvetica Neue';font-size:12px;">Digital Ocean</text><rect x="87.916" y="87.391" width="11.4" height="7.2" style="fill:#00c4b3;stroke:#00c4b3;stroke-width:1px;"/><text x="27.004px" y="94.591px" style="font-family:'HelveticaNeue', 'Helvetica Neue';font-size:12px;">343 (10%)</text><text x="105.316px" y="94.591px" style="font-family:'HelveticaNeue', 'Helvetica Neue';font-size:12px;">A<tspan x="112.804px 123.916px " y="94.591px 94.591px ">WS</tspan> Container</text><rect x="87.916" y="101.791" width="8.28" height="7.2" style="fill:#00c4b3;stroke:#00c4b3;stroke-width:1px;"/><text x="27.004px" y="108.991px" style="font-family:'HelveticaNeue', 'Helvetica Neue';font-size:12px;">249  (7%)</text><text x="102.196px" y="108.991px" style="font-family:'HelveticaNeue', 'Helvetica Neue';font-size:12px;">None</text><rect x="87.916" y="116.191" width="7.8" height="7.2" style="fill:#00c4b3;stroke:#00c4b3;stroke-width:1px;"/><text x="27.004px" y="123.391px" style="font-family:'HelveticaNeue', 'Helvetica Neue';font-size:12px;">233  (6%)</text><text x="101.716px" y="123.391px" style="font-family:'HelveticaNeue', 'Helvetica Neue';font-size:12px;">A<tspan x="109.204px 120.316px " y="123.391px 123.391px ">WS</tspan> Lambda</text><rect x="87.916" y="130.591" width="6.96" height="7.2" style="fill:#00c4b3;stroke:#00c4b3;stroke-width:1px;"/><text x="27.004px" y="137.791px" style="font-family:'HelveticaNeue', 'Helvetica Neue';font-size:12px;">210  (6%)</text><text x="100.876px" y="137.791px" style="font-family:'HelveticaNeue', 'Helvetica Neue';font-size:12px;">Micr<tspan x="124.216px 131.104px " y="137.791px 137.791px ">os</tspan>oft Azur<tspan x="178.648px " y="137.791px ">e</tspan></text><rect x="87.916" y="144.991" width="6.24" height="7.2" style="fill:#00c4b3;stroke:#00c4b3;stroke-width:1px;"/><text x="27.004px" y="152.191px" style="font-family:'HelveticaNeue', 'Helvetica Neue';font-size:12px;">186  (5%)</text><text x="100.156px" y="152.191px" style="font-family:'HelveticaNeue', 'Helvetica Neue';font-size:12px;">Google Compute Engine</text><rect x="87.916" y="159.391" width="6.12" height="7.2" style="fill:#00c4b3;stroke:#00c4b3;stroke-width:1px;"/><text x="27.004px" y="166.591px" style="font-family:'HelveticaNeue', 'Helvetica Neue';font-size:12px;">185  (5%)</text><text x="100.036px" y="166.591px" style="font-family:'HelveticaNeue', 'Helvetica Neue';font-size:12px;">Her<tspan x="118.924px 125.812px " y="166.591px 166.591px ">ok</tspan>u</text><rect x="87.916" y="173.791" width="3.84" height="7.2" style="fill:#00c4b3;stroke:#00c4b3;stroke-width:1px;"/><text x="27.004px" y="180.991px" style="font-family:'HelveticaNeue', 'Helvetica Neue';font-size:12px;">115  (3%)</text><text x="97.756px" y="180.991px" style="font-family:'HelveticaNeue', 'Helvetica Neue';font-size:12px;">Google Container Engine (GKE)</text><rect x="87.916" y="188.191" width="3.36" height="7.2" style="fill:#00c4b3;stroke:#00c4b3;stroke-width:1px;"/><text x="27.004px" y="195.391px" style="font-family:'HelveticaNeue', 'Helvetica Neue';font-size:12px;">100  (3%)</text><text x="97.276px" y="195.391px" style="font-family:'HelveticaNeue', 'Helvetica Neue';font-size:12px;">Linode</text><rect x="87.916" y="202.591" width="3.12" height="7.2" style="fill:#00c4b3;stroke:#00c4b3;stroke-width:1px;"/><text x="33.676px" y="209.791px" style="font-family:'HelveticaNeue', 'Helvetica Neue';font-size:12px;">94  (3%)</text><text x="97.036px" y="209.791px" style="font-family:'HelveticaNeue', 'Helvetica Neue';font-size:12px;">Google App Engine</text><rect x="87.916" y="216.991" width="9.96" height="7.2" style="fill:#777;stroke:#777;stroke-width:1px;"/><text x="27.004px" y="224.191px" style="font-family:'HelveticaNeue', 'Helvetica Neue';font-size:12px;">297  (8%)</text><text x="103.876px" y="224.191px" style="font-family:'HelveticaNeue', 'Helvetica Neue';font-size:12px;">Other</text><rect x="87.916" y="231.391" width="22.08" height="7.2" style="fill:#fff;stroke:#000;stroke-width:1px;"/><text x="27.004px" y="238.591px" style="font-family:'HelveticaNeue', 'Helvetica Neue';font-size:12px;">660 (18%)</text><text x="115.996px" y="238.591px" style="font-family:'HelveticaNeue', 'Helvetica Neue';font-size:12px;">No r<tspan x="138.664px 145.108px " y="238.591px 238.591px ">es</tspan>ponse</text></g><g><text x="409.418px" y="33.391px" style="font-family:'HelveticaNeue', 'Helvetica Neue';font-size:12px;">My team deploys Non-Go pr<tspan x="562.13px 569.018px " y="33.391px 33.391px ">og</tspan>rams to: (multiple choice)</text><rect x="496.418" y="44.191" width="55.2" height="7.2" style="fill:#00acd7;stroke:#00acd7;stroke-width:1px;"/><text x="425.498px" y="51.391px" style="font-family:'HelveticaNeue', 'Helvetica Neue';font-size:12px;">2,865 (46%)</text><text x="557.618px" y="51.391px" style="font-family:'HelveticaNeue', 'Helvetica Neue';font-size:12px;">Self/Company Owned Servers</text><rect x="496.418" y="58.591" width="39.96" height="7.2" style="fill:#00acd7;stroke:#00acd7;stroke-width:1px;"/><text x="425.498px" y="65.791px" style="font-family:'HelveticaNeue', 'Helvetica Neue';font-size:12px;">2,076 (33%)</text><text x="542.378px" y="65.791px" style="font-family:'HelveticaNeue', 'Helvetica Neue';font-size:12px;">A<tspan x="549.866px 560.978px " y="65.791px 65.791px ">WS</tspan> EC2</text><rect x="496.418" y="72.991" width="15.48" height="7.2" style="fill:#00acd7;stroke:#00acd7;stroke-width:1px;"/><text x="435.506px" y="80.191px" style="font-family:'HelveticaNeue', 'Helvetica Neue';font-size:12px;">806 (13%)</text><text x="517.898px" y="80.191px" style="font-family:'HelveticaNeue', 'Helvetica Neue';font-size:12px;">A<tspan x="525.386px 536.498px " y="80.191px 80.191px ">WS</tspan> Container</text><rect x="496.418" y="87.391" width="12.36" height="7.2" style="fill:#00acd7;stroke:#00acd7;stroke-width:1px;"/><text x="435.506px" y="94.591px" style="font-family:'HelveticaNeue', 'Helvetica Neue';font-size:12px;">644 (10%)</text><text x="514.778px" y="94.591px" style="font-family:'HelveticaNeue', 'Helvetica Neue';font-size:12px;">A<tspan x="522.266px 533.378px " y="94.591px 94.591px ">WS</tspan> Lambda</text><rect x="496.418" y="101.791" width="10.2" height="7.2" style="fill:#00acd7;stroke:#00acd7;stroke-width:1px;"/><text x="435.506px" y="108.991px" style="font-family:'HelveticaNeue', 'Helvetica Neue';font-size:12px;">528  (8%)</text><text x="512.618px" y="108.991px" style="font-family:'HelveticaNeue', 'Helvetica Neue';font-size:12px;">Google Compute Engine</text><rect x="496.418" y="116.191" width="10.2" height="7.2" style="fill:#00acd7;stroke:#00acd7;stroke-width:1px;"/><text x="435.506px" y="123.391px" style="font-family:'HelveticaNeue', 'Helvetica Neue';font-size:12px;">527  (8%)</text><text x="512.618px" y="123.391px" style="font-family:'HelveticaNeue', 'Helvetica Neue';font-size:12px;">Digital Ocean</text><rect x="496.418" y="130.591" width="8.52" height="7.2" style="fill:#00acd7;stroke:#00acd7;stroke-width:1px;"/><text x="435.506px" y="137.791px" style="font-family:'HelveticaNeue', 'Helvetica Neue';font-size:12px;">442  (7%)</text><text x="510.938px" y="137.791px" style="font-family:'HelveticaNeue', 'Helvetica Neue';font-size:12px;">None</text><rect x="496.418" y="144.991" width="7.8" height="7.2" style="fill:#00acd7;stroke:#00acd7;stroke-width:1px;"/><text x="435.506px" y="152.191px" style="font-family:'HelveticaNeue', 'Helvetica Neue';font-size:12px;">402  (6%)</text><text x="510.218px" y="152.191px" style="font-family:'HelveticaNeue', 'Helvetica Neue';font-size:12px;">Micr<tspan x="533.558px 540.446px " y="152.191px 152.191px ">os</tspan>oft Azur<tspan x="587.99px " y="152.191px ">e</tspan></text><rect x="496.418" y="159.391" width="6.6" height="7.2" style="fill:#00acd7;stroke:#00acd7;stroke-width:1px;"/><text x="435.506px" y="166.591px" style="font-family:'HelveticaNeue', 'Helvetica Neue';font-size:12px;">340  (5%)</text><text x="509.018px" y="166.591px" style="font-family:'HelveticaNeue', 'Helvetica Neue';font-size:12px;">Her<tspan x="527.906px 534.794px " y="166.591px 166.591px ">ok</tspan>u</text><rect x="496.418" y="173.791" width="6.36" height="7.2" style="fill:#00acd7;stroke:#00acd7;stroke-width:1px;"/><text x="435.506px" y="180.991px" style="font-family:'HelveticaNeue', 'Helvetica Neue';font-size:12px;">327  (5%)</text><text x="508.778px" y="180.991px" style="font-family:'HelveticaNeue', 'Helvetica Neue';font-size:12px;">Google Container Engine (GKE)</text><rect x="496.418" y="188.191" width="3.6" height="7.2" style="fill:#00acd7;stroke:#00acd7;stroke-width:1px;"/><text x="435.506px" y="195.391px" style="font-family:'HelveticaNeue', 'Helvetica Neue';font-size:12px;">188  (3%)</text><text x="506.018px" y="195.391px" style="font-family:'HelveticaNeue', 'Helvetica Neue';font-size:12px;">Google App Engine</text><rect x="496.418" y="202.591" width="3.12" height="7.2" style="fill:#00acd7;stroke:#00acd7;stroke-width:1px;"/><text x="435.506px" y="209.791px" style="font-family:'HelveticaNeue', 'Helvetica Neue';font-size:12px;">159  (3%)</text><text x="505.538px" y="209.791px" style="font-family:'HelveticaNeue', 'Helvetica Neue';font-size:12px;">Linode</text><rect x="496.418" y="216.991" width="1.8" height="7.2" style="fill:#00acd7;stroke:#00acd7;stroke-width:1px;"/><text x="442.178px" y="224.191px" style="font-family:'HelveticaNeue', 'Helvetica Neue';font-size:12px;">95  (2%)</text><text x="504.218px" y="224.191px" style="font-family:'HelveticaNeue', 'Helvetica Neue';font-size:12px;">Google Cloud Functions</text><rect x="496.418" y="231.391" width="1.68" height="7.2" style="fill:#00acd7;stroke:#00acd7;stroke-width:1px;"/><text x="442.178px" y="238.591px" style="font-family:'HelveticaNeue', 'Helvetica Neue';font-size:12px;">85  (1%)</text><text x="504.098px" y="238.591px" style="font-family:'HelveticaNeue', 'Helvetica Neue';font-size:12px;">Azur<tspan x="528.086px 534.53px " y="238.591px 238.591px ">e </tspan>Container Service</text><rect x="496.418" y="245.791" width="0.96" height="7.2" style="fill:#00acd7;stroke:#00acd7;stroke-width:1px;"/><text x="442.178px" y="252.991px" style="font-family:'HelveticaNeue', 'Helvetica Neue';font-size:12px;">50  (1%)</text><text x="503.378px" y="252.991px" style="font-family:'HelveticaNeue', 'Helvetica Neue';font-size:12px;">Azur<tspan x="527.366px 533.81px " y="252.991px 252.991px ">e </tspan>Functions</text><rect x="496.418" y="260.191" width="10.08" height="7.2" style="fill:#777;stroke:#777;stroke-width:1px;"/><text x="435.506px" y="267.391px" style="font-family:'HelveticaNeue', 'Helvetica Neue';font-size:12px;">524  (8%)</text><text x="512.498px" y="267.391px" style="font-family:'HelveticaNeue', 'Helvetica Neue';font-size:12px;">Other</text><rect x="496.418" y="274.591" width="15.96" height="7.2" style="fill:#fff;stroke:#000;stroke-width:1px;"/><text x="435.506px" y="281.791px" style="font-family:'HelveticaNeue', 'Helvetica Neue';font-size:12px;">825 (13%)</text><text x="518.378px" y="281.791px" style="font-family:'HelveticaNeue', 'Helvetica Neue';font-size:12px;">No r<tspan x="541.046px 547.49px " y="281.791px 281.791px ">es</tspan>ponse</text></g><path d="M354.369,142.974l-3.445,-6.107l37.049,-20.9l-3.199,-5.671l13.647,3.803l-3.803,13.647l-3.199,-5.672l-37.05,20.9Z" style="fill:#e62626;fill-opacity:0.152941;stroke:#e62626;stroke-width:1px;stroke-linecap:round;stroke-linejoin:round;stroke-miterlimit:1.5;"/><path d="M340.5,85.67c0,-2.044 -1.66,-3.703 -3.704,-3.703l-332.593,0c-2.044,0 -3.703,1.659 -3.703,3.703l0,7.407c0,2.044 1.659,3.704 3.703,3.704l332.593,0c2.044,0 3.704,-1.66 3.704,-3.704l0,-7.407Z" style="fill:#e62626;fill-opacity:0.152941;stroke:#e62626;stroke-width:1px;stroke-linecap:round;stroke-linejoin:round;stroke-miterlimit:1.5;"/><path d="M340.5,115.67c0,-2.044 -1.66,-3.703 -3.704,-3.703l-332.593,0c-2.044,0 -3.703,1.659 -3.703,3.703l0,7.407c0,2.044 1.659,3.704 3.703,3.704l332.593,0c2.044,0 3.704,-1.66 3.704,-3.704l0,-7.407Z" style="fill:#e62626;fill-opacity:0.152941;stroke:#e62626;stroke-width:1px;stroke-linecap:round;stroke-linejoin:round;stroke-miterlimit:1.5;"/><path d="M340.5,172.67c0,-2.044 -1.66,-3.703 -3.704,-3.703l-332.593,0c-2.044,0 -3.703,1.659 -3.703,3.703l0,7.407c0,2.044 1.659,3.704 3.703,3.704l332.593,0c2.044,0 3.704,-1.66 3.704,-3.704l0,-7.407Z" style="fill:#e62626;fill-opacity:0.152941;stroke:#e62626;stroke-width:1px;stroke-linecap:round;stroke-linejoin:round;stroke-miterlimit:1.5;"/><path d="M340.5,144.67c0,-2.044 -1.66,-3.703 -3.704,-3.703l-332.593,0c-2.044,0 -3.703,1.659 -3.703,3.703l0,7.407c0,2.044 1.659,3.704 3.703,3.704l332.593,0c2.044,0 3.704,-1.66 3.704,-3.704l0,-7.407Z" style="fill:#e62626;fill-opacity:0.152941;stroke:#e62626;stroke-width:1px;stroke-linecap:round;stroke-linejoin:round;stroke-miterlimit:1.5;"/><path d="M748.745,71.67c0,-2.044 -1.659,-3.703 -3.703,-3.703l-332.593,0c-2.044,0 -3.703,1.659 -3.703,3.703l0,7.407c0,2.044 1.659,3.704 3.703,3.704l332.593,0c2.044,0 3.703,-1.66 3.703,-3.704l0,-7.407Z" style="fill:#e62626;fill-opacity:0.152941;stroke:#e62626;stroke-width:1px;stroke-linecap:round;stroke-linejoin:round;stroke-miterlimit:1.5;"/><path d="M748.745,101.67c0,-2.044 -1.659,-3.703 -3.703,-3.703l-332.593,0c-2.044,0 -3.703,1.659 -3.703,3.703l0,7.407c0,2.044 1.659,3.704 3.703,3.704l332.593,0c2.044,0 3.703,-1.66 3.703,-3.704l0,-7.407Z" style="fill:#e62626;fill-opacity:0.152941;stroke:#e62626;stroke-width:1px;stroke-linecap:round;stroke-linejoin:round;stroke-miterlimit:1.5;"/><path d="M748.745,173.67c0,-2.044 -1.659,-3.703 -3.703,-3.703l-332.593,0c-2.044,0 -3.703,1.659 -3.703,3.703l0,7.407c0,2.044 1.659,3.704 3.703,3.704l332.593,0c2.044,0 3.703,-1.66 3.703,-3.704l0,-7.407Z" style="fill:#e62626;fill-opacity:0.152941;stroke:#e62626;stroke-width:1px;stroke-linecap:round;stroke-linejoin:round;stroke-miterlimit:1.5;"/><path d="M748.745,86.67c0,-2.044 -1.659,-3.703 -3.703,-3.703l-332.593,0c-2.044,0 -3.703,1.659 -3.703,3.703l0,7.407c0,2.044 1.659,3.704 3.703,3.704l332.593,0c2.044,0 3.703,-1.66 3.703,-3.704l0,-7.407Z" style="fill:#e62626;fill-opacity:0.152941;stroke:#e62626;stroke-width:1px;stroke-linecap:round;stroke-linejoin:round;stroke-miterlimit:1.5;"/></svg>