<?xml version="1.0" standalone="no"?>
<!DOCTYPE svg PUBLIC "-//W3C//DTD SVG 1.1//EN"
  "http://www.w3.org/Graphics/SVG/1.1/DTD/svg11.dtd">
<svg width="70.00em" height="23.60em" version="1.1"
     xmlns="http://www.w3.org/2000/svg">
  <defs>
    <style type="text/css"><![CDATA[
      svg {
        font-family: "Helvetica Neue", Arial, sans-serif; /* Helvetica on Mac aka sans-serif has broken U+2007 */
      }
      tspan.size {
        font-size: 0.80em;
      }
      tspan.head {
        font-weight: bold;
      }
      tspan.paren {
        font-weight: normal !important;
      }
    ]]></style>
  </defs>
<text x="0.00em" y="1.20em" class="head"><tspan class="size">Rank the following in terms of where you get Go news from: </tspan></text>
<rect x="12.00em" y="2.10em" width="1.56em" height="0.60em" stroke="#00acd7" fill="#00acd7"/>
<rect x="13.56em" y="2.10em" width="1.40em" height="0.60em" stroke="#2eb8da" fill="#2eb8da"/>
<rect x="14.97em" y="2.10em" width="0.91em" height="0.60em" stroke="#5cc4dd" fill="#5cc4dd"/>
<rect x="15.87em" y="2.10em" width="0.43em" height="0.60em" stroke="#8ad0e0" fill="#8ad0e0"/>
<rect x="16.31em" y="2.10em" width="0.21em" height="0.60em" stroke="#b8dce3" fill="#b8dce3"/>
<text x="11.50em" y="2.70em" text-anchor="end"><tspan class="size">2,809 (<tspan fill="#00acd7">16</tspan>, <tspan fill="#2eb8da">14</tspan>, <tspan fill="#5cc4dd">9</tspan>, <tspan fill="#8ad0e0">4</tspan>, <tspan fill="#b8dce3">2</tspan>%)</tspan></text>
<text x="17.01em" y="2.70em"><tspan class="size">blog.Golang.org</tspan></text>
<rect x="12.00em" y="3.30em" width="1.49em" height="0.60em" stroke="#00acd7" fill="#00acd7"/>
<rect x="13.49em" y="3.30em" width="0.69em" height="0.60em" stroke="#2eb8da" fill="#2eb8da"/>
<rect x="14.18em" y="3.30em" width="0.41em" height="0.60em" stroke="#5cc4dd" fill="#5cc4dd"/>
<rect x="14.58em" y="3.30em" width="0.25em" height="0.60em" stroke="#8ad0e0" fill="#8ad0e0"/>
<rect x="14.84em" y="3.30em" width="0.12em" height="0.60em" stroke="#b8dce3" fill="#b8dce3"/>
<text x="11.50em" y="3.90em" text-anchor="end"><tspan class="size">1,838 (<tspan fill="#00acd7">15</tspan>, <tspan fill="#2eb8da">7</tspan>, <tspan fill="#5cc4dd">4</tspan>, <tspan fill="#8ad0e0">3</tspan>, <tspan fill="#b8dce3">1</tspan>%)</tspan></text>
<text x="15.45em" y="3.90em"><tspan class="size">Twitter</tspan></text>
<rect x="12.00em" y="4.50em" width="1.22em" height="0.60em" stroke="#00acd7" fill="#00acd7"/>
<rect x="13.22em" y="4.50em" width="0.74em" height="0.60em" stroke="#2eb8da" fill="#2eb8da"/>
<rect x="13.96em" y="4.50em" width="0.44em" height="0.60em" stroke="#5cc4dd" fill="#5cc4dd"/>
<rect x="14.40em" y="4.50em" width="0.23em" height="0.60em" stroke="#8ad0e0" fill="#8ad0e0"/>
<rect x="14.63em" y="4.50em" width="0.10em" height="0.60em" stroke="#b8dce3" fill="#b8dce3"/>
<text x="11.50em" y="5.10em" text-anchor="end"><tspan class="size">1,703 (<tspan fill="#00acd7">12</tspan>, <tspan fill="#2eb8da">7</tspan>, <tspan fill="#5cc4dd">4</tspan>, <tspan fill="#8ad0e0">2</tspan>, <tspan fill="#b8dce3">1</tspan>%)</tspan></text>
<text x="15.24em" y="5.10em"><tspan class="size">Reddit (r/golang)</tspan></text>
<rect x="12.00em" y="5.70em" width="1.30em" height="0.60em" stroke="#00acd7" fill="#00acd7"/>
<rect x="13.30em" y="5.70em" width="0.74em" height="0.60em" stroke="#2eb8da" fill="#2eb8da"/>
<rect x="14.04em" y="5.70em" width="0.33em" height="0.60em" stroke="#5cc4dd" fill="#5cc4dd"/>
<rect x="14.37em" y="5.70em" width="0.16em" height="0.60em" stroke="#8ad0e0" fill="#8ad0e0"/>
<rect x="14.52em" y="5.70em" width="0.07em" height="0.60em" stroke="#b8dce3" fill="#b8dce3"/>
<text x="11.50em" y="6.30em" text-anchor="end"><tspan class="size">1,617 (<tspan fill="#00acd7">13</tspan>, <tspan fill="#2eb8da">7</tspan>, <tspan fill="#5cc4dd">3</tspan>, <tspan fill="#8ad0e0">2</tspan>, <tspan fill="#b8dce3">0.7</tspan>%)</tspan></text>
<text x="15.10em" y="6.30em"><tspan class="size">Golangweekly.com</tspan></text>
<rect x="12.00em" y="6.90em" width="0.85em" height="0.60em" stroke="#00acd7" fill="#00acd7"/>
<rect x="12.85em" y="6.90em" width="0.79em" height="0.60em" stroke="#2eb8da" fill="#2eb8da"/>
<rect x="13.65em" y="6.90em" width="0.50em" height="0.60em" stroke="#5cc4dd" fill="#5cc4dd"/>
<rect x="14.15em" y="6.90em" width="0.26em" height="0.60em" stroke="#8ad0e0" fill="#8ad0e0"/>
<rect x="14.41em" y="6.90em" width="0.12em" height="0.60em" stroke="#b8dce3" fill="#b8dce3"/>
<text x="11.50em" y="7.50em" text-anchor="end"><tspan class="size">1,578 (<tspan fill="#00acd7">9</tspan>, <tspan fill="#2eb8da">8</tspan>, <tspan fill="#5cc4dd">5</tspan>, <tspan fill="#8ad0e0">3</tspan>, <tspan fill="#b8dce3">1</tspan>%)</tspan></text>
<text x="15.03em" y="7.50em"><tspan class="size">Hacker News</tspan></text>
<rect x="12.00em" y="8.10em" width="0.24em" height="0.60em" stroke="#00acd7" fill="#00acd7"/>
<rect x="12.24em" y="8.10em" width="0.49em" height="0.60em" stroke="#2eb8da" fill="#2eb8da"/>
<rect x="12.73em" y="8.10em" width="0.49em" height="0.60em" stroke="#5cc4dd" fill="#5cc4dd"/>
<rect x="13.22em" y="8.10em" width="0.30em" height="0.60em" stroke="#8ad0e0" fill="#8ad0e0"/>
<rect x="13.51em" y="8.10em" width="0.17em" height="0.60em" stroke="#b8dce3" fill="#b8dce3"/>
<text x="11.50em" y="8.70em" text-anchor="end"><tspan class="size">1,051 (<tspan fill="#00acd7">2</tspan>, <tspan fill="#2eb8da">5</tspan>, <tspan fill="#5cc4dd">5</tspan>, <tspan fill="#8ad0e0">3</tspan>, <tspan fill="#b8dce3">2</tspan>%)</tspan></text>
<text x="14.19em" y="8.70em"><tspan class="size">Community Blogs</tspan></text>
<rect x="12.00em" y="9.30em" width="0.24em" height="0.60em" stroke="#00acd7" fill="#00acd7"/>
<rect x="12.24em" y="9.30em" width="0.37em" height="0.60em" stroke="#2eb8da" fill="#2eb8da"/>
<rect x="12.61em" y="9.30em" width="0.38em" height="0.60em" stroke="#5cc4dd" fill="#5cc4dd"/>
<rect x="12.99em" y="9.30em" width="0.23em" height="0.60em" stroke="#8ad0e0" fill="#8ad0e0"/>
<rect x="13.22em" y="9.30em" width="0.16em" height="0.60em" stroke="#b8dce3" fill="#b8dce3"/>
<text x="11.50em" y="9.90em" text-anchor="end"><tspan class="size">859 (<tspan fill="#00acd7">2</tspan>, <tspan fill="#2eb8da">4</tspan>, <tspan fill="#5cc4dd">4</tspan>, <tspan fill="#8ad0e0">2</tspan>, <tspan fill="#b8dce3">2</tspan>%)</tspan></text>
<text x="13.88em" y="9.90em"><tspan class="size">GitHub</tspan></text>
<rect x="12.00em" y="10.50em" width="0.35em" height="0.60em" stroke="#00acd7" fill="#00acd7"/>
<rect x="12.35em" y="10.50em" width="0.43em" height="0.60em" stroke="#2eb8da" fill="#2eb8da"/>
<rect x="12.79em" y="10.50em" width="0.30em" height="0.60em" stroke="#5cc4dd" fill="#5cc4dd"/>
<rect x="13.09em" y="10.50em" width="0.14em" height="0.60em" stroke="#8ad0e0" fill="#8ad0e0"/>
<rect x="13.22em" y="10.50em" width="0.06em" height="0.60em" stroke="#b8dce3" fill="#b8dce3"/>
<text x="11.50em" y="11.10em" text-anchor="end"><tspan class="size">798 (<tspan fill="#00acd7">4</tspan>, <tspan fill="#2eb8da">4</tspan>, <tspan fill="#5cc4dd">3</tspan>, <tspan fill="#8ad0e0">1</tspan>, <tspan fill="#b8dce3">0.6</tspan>%)</tspan></text>
<text x="13.78em" y="11.10em"><tspan class="size">Coworkers</tspan></text>
<rect x="12.00em" y="11.70em" width="0.14em" height="0.60em" stroke="#00acd7" fill="#00acd7"/>
<rect x="12.14em" y="11.70em" width="0.28em" height="0.60em" stroke="#2eb8da" fill="#2eb8da"/>
<rect x="12.42em" y="11.70em" width="0.34em" height="0.60em" stroke="#5cc4dd" fill="#5cc4dd"/>
<rect x="12.76em" y="11.70em" width="0.23em" height="0.60em" stroke="#8ad0e0" fill="#8ad0e0"/>
<rect x="12.98em" y="11.70em" width="0.15em" height="0.60em" stroke="#b8dce3" fill="#b8dce3"/>
<text x="11.50em" y="12.30em" text-anchor="end"><tspan class="size">704 (<tspan fill="#00acd7">1</tspan>, <tspan fill="#2eb8da">3</tspan>, <tspan fill="#5cc4dd">3</tspan>, <tspan fill="#8ad0e0">2</tspan>, <tspan fill="#b8dce3">1</tspan>%)</tspan></text>
<text x="13.63em" y="12.30em"><tspan class="size">Just For Func</tspan></text>
<rect x="12.00em" y="12.90em" width="0.22em" height="0.60em" stroke="#00acd7" fill="#00acd7"/>
<rect x="12.22em" y="12.90em" width="0.21em" height="0.60em" stroke="#2eb8da" fill="#2eb8da"/>
<rect x="12.43em" y="12.90em" width="0.19em" height="0.60em" stroke="#5cc4dd" fill="#5cc4dd"/>
<rect x="12.63em" y="12.90em" width="0.14em" height="0.60em" stroke="#8ad0e0" fill="#8ad0e0"/>
<rect x="12.76em" y="12.90em" width="0.07em" height="0.60em" stroke="#b8dce3" fill="#b8dce3"/>
<text x="11.50em" y="13.50em" text-anchor="end"><tspan class="size">516 (<tspan fill="#00acd7">2</tspan>, <tspan fill="#2eb8da">2</tspan>, <tspan fill="#5cc4dd">2</tspan>, <tspan fill="#8ad0e0">1</tspan>, <tspan fill="#b8dce3">0.7</tspan>%)</tspan></text>
<text x="13.33em" y="13.50em"><tspan class="size">golang-nuts mailing list (groups.google.com/d/forum/golang-nuts)</tspan></text>
<rect x="12.00em" y="14.10em" width="0.13em" height="0.60em" stroke="#00acd7" fill="#00acd7"/>
<rect x="12.13em" y="14.10em" width="0.21em" height="0.60em" stroke="#2eb8da" fill="#2eb8da"/>
<rect x="12.35em" y="14.10em" width="0.17em" height="0.60em" stroke="#5cc4dd" fill="#5cc4dd"/>
<rect x="12.52em" y="14.10em" width="0.11em" height="0.60em" stroke="#8ad0e0" fill="#8ad0e0"/>
<rect x="12.62em" y="14.10em" width="0.06em" height="0.60em" stroke="#b8dce3" fill="#b8dce3"/>
<text x="11.50em" y="14.70em" text-anchor="end"><tspan class="size">428 (<tspan fill="#00acd7">1</tspan>, <tspan fill="#2eb8da">2</tspan>, <tspan fill="#5cc4dd">2</tspan>, <tspan fill="#8ad0e0">1</tspan>, <tspan fill="#b8dce3">0.6</tspan>%)</tspan></text>
<text x="13.19em" y="14.70em"><tspan class="size">Go Time podcast</tspan></text>
<rect x="12.00em" y="15.30em" width="0.18em" height="0.60em" stroke="#00acd7" fill="#00acd7"/>
<rect x="12.18em" y="15.30em" width="0.17em" height="0.60em" stroke="#2eb8da" fill="#2eb8da"/>
<rect x="12.35em" y="15.30em" width="0.14em" height="0.60em" stroke="#5cc4dd" fill="#5cc4dd"/>
<rect x="12.50em" y="15.30em" width="0.10em" height="0.60em" stroke="#8ad0e0" fill="#8ad0e0"/>
<rect x="12.59em" y="15.30em" width="0.04em" height="0.60em" stroke="#b8dce3" fill="#b8dce3"/>
<text x="11.50em" y="15.90em" text-anchor="end"><tspan class="size">393 (<tspan fill="#00acd7">2</tspan>, <tspan fill="#2eb8da">2</tspan>, <tspan fill="#5cc4dd">1</tspan>, <tspan fill="#8ad0e0">1</tspan>, <tspan fill="#b8dce3">0.4</tspan>%)</tspan></text>
<text x="13.13em" y="15.90em"><tspan class="size">Golangnews.com</tspan></text>
<rect x="12.00em" y="16.50em" width="0.10em" height="0.60em" stroke="#00acd7" fill="#00acd7"/>
<rect x="12.10em" y="16.50em" width="0.14em" height="0.60em" stroke="#2eb8da" fill="#2eb8da"/>
<rect x="12.24em" y="16.50em" width="0.12em" height="0.60em" stroke="#5cc4dd" fill="#5cc4dd"/>
<rect x="12.36em" y="16.50em" width="0.10em" height="0.60em" stroke="#8ad0e0" fill="#8ad0e0"/>
<rect x="12.46em" y="16.50em" width="0.07em" height="0.60em" stroke="#b8dce3" fill="#b8dce3"/>
<text x="11.50em" y="17.10em" text-anchor="end"><tspan class="size">333 (<tspan fill="#00acd7">1</tspan>, <tspan fill="#2eb8da">1</tspan>, <tspan fill="#5cc4dd">1</tspan>, <tspan fill="#8ad0e0">1</tspan>, <tspan fill="#b8dce3">0.7</tspan>%)</tspan></text>
<text x="13.03em" y="17.10em"><tspan class="size">Gopher Slack (invite.slack.golangbridge.org)</tspan></text>
<rect x="12.00em" y="17.70em" width="0.10em" height="0.60em" stroke="#00acd7" fill="#00acd7"/>
<rect x="12.10em" y="17.70em" width="0.13em" height="0.60em" stroke="#2eb8da" fill="#2eb8da"/>
<rect x="12.24em" y="17.70em" width="0.12em" height="0.60em" stroke="#5cc4dd" fill="#5cc4dd"/>
<rect x="12.35em" y="17.70em" width="0.07em" height="0.60em" stroke="#8ad0e0" fill="#8ad0e0"/>
<rect x="12.43em" y="17.70em" width="0.04em" height="0.60em" stroke="#b8dce3" fill="#b8dce3"/>
<text x="11.50em" y="18.30em" text-anchor="end"><tspan class="size">287 (<tspan fill="#00acd7">1</tspan>, <tspan fill="#2eb8da">1</tspan>, <tspan fill="#5cc4dd">1</tspan>, <tspan fill="#8ad0e0">0.7</tspan>, <tspan fill="#b8dce3">0.4</tspan>%)</tspan></text>
<text x="12.96em" y="18.30em"><tspan class="size">golang-announce (groups.google.com/d/forum/golang-announce)</tspan></text>
<rect x="12.00em" y="18.90em" width="0.05em" height="0.60em" stroke="#00acd7" fill="#00acd7"/>
<rect x="12.05em" y="18.90em" width="0.05em" height="0.60em" stroke="#2eb8da" fill="#2eb8da"/>
<rect x="12.10em" y="18.90em" width="0.04em" height="0.60em" stroke="#5cc4dd" fill="#5cc4dd"/>
<rect x="12.14em" y="18.90em" width="0.02em" height="0.60em" stroke="#8ad0e0" fill="#8ad0e0"/>
<rect x="12.17em" y="18.90em" width="0.03em" height="0.60em" stroke="#b8dce3" fill="#b8dce3"/>
<text x="11.50em" y="19.50em" text-anchor="end"><tspan class="size">120 (<tspan fill="#00acd7">0.5</tspan>, <tspan fill="#2eb8da">0.5</tspan>, <tspan fill="#5cc4dd">0.4</tspan>, <tspan fill="#8ad0e0">0.2</tspan>, <tspan fill="#b8dce3">0.3</tspan>%)</tspan></text>
<text x="12.69em" y="19.50em"><tspan class="size">Facebook</tspan></text>
<rect x="12.00em" y="20.10em" width="0.01em" height="0.60em" stroke="#00acd7" fill="#00acd7"/>
<rect x="12.01em" y="20.10em" width="0.04em" height="0.60em" stroke="#2eb8da" fill="#2eb8da"/>
<rect x="12.05em" y="20.10em" width="0.04em" height="0.60em" stroke="#5cc4dd" fill="#5cc4dd"/>
<rect x="12.09em" y="20.10em" width="0.02em" height="0.60em" stroke="#8ad0e0" fill="#8ad0e0"/>
<rect x="12.11em" y="20.10em" width="0.02em" height="0.60em" stroke="#b8dce3" fill="#b8dce3"/>
<text x="11.50em" y="20.70em" text-anchor="end"><tspan class="size">86 (<tspan fill="#00acd7">0.1</tspan>, <tspan fill="#2eb8da">0.4</tspan>, <tspan fill="#5cc4dd">0.4</tspan>, <tspan fill="#8ad0e0">0.2</tspan>, <tspan fill="#b8dce3">0.2</tspan>%)</tspan></text>
<text x="12.64em" y="20.70em"><tspan class="size">Go Forum (forum.golangbridge.org)</tspan></text>
<rect x="12.00em" y="21.30em" width="0.12em" height="0.60em" stroke="#777777" fill="#777777"/>
<rect x="12.12em" y="21.30em" width="0.10em" height="0.60em" stroke="#8e8e8e" fill="#8e8e8e"/>
<rect x="12.22em" y="21.30em" width="0.07em" height="0.60em" stroke="#a5a5a5" fill="#a5a5a5"/>
<rect x="12.29em" y="21.30em" width="0.03em" height="0.60em" stroke="#bcbcbc" fill="#bcbcbc"/>
<rect x="12.31em" y="21.30em" width="0.01em" height="0.60em" stroke="#d3d3d3" fill="#d3d3d3"/>
<text x="11.50em" y="21.90em" text-anchor="end"><tspan class="size">205 (<tspan fill="#777777">1</tspan>, <tspan fill="#8e8e8e">1</tspan>, <tspan fill="#a5a5a5">0.7</tspan>, <tspan fill="#bcbcbc">0.3</tspan>, <tspan fill="#d3d3d3">0.1</tspan>%)</tspan></text>
<text x="12.83em" y="21.90em"><tspan class="size">Other</tspan></text>
<rect x="12.00em" y="22.50em" width="1.67em" height="0.60em" stroke="black" fill="white"/>
<text x="11.50em" y="23.10em" text-anchor="end"><tspan class="size">1,040 (17%)</tspan></text>
<text x="14.17em" y="23.10em"><tspan class="size">No response</tspan></text>
</svg>
