<?xml version="1.0" encoding="UTF-8" standalone="no"?><!DOCTYPE svg PUBLIC "-//W3C//DTD SVG 1.1//EN" "http://www.w3.org/Graphics/SVG/1.1/DTD/svg11.dtd"><svg width="100%" height="100%" viewBox="0 0 711 178" version="1.1" xmlns="http://www.w3.org/2000/svg" xmlns:xlink="http://www.w3.org/1999/xlink" xml:space="preserve" xmlns:serif="http://www.serif.com/" style="fill-rule:evenodd;clip-rule:evenodd;stroke-linecap:round;stroke-linejoin:round;stroke-miterlimit:1.5;"><path d="M302.656,52.22c0,-2.044 -1.66,-3.703 -3.704,-3.703l-288.147,0c-2.044,0 -3.703,1.659 -3.703,3.703l0,7.407c0,2.044 1.659,3.703 3.703,3.703l288.147,0c2.044,0 3.704,-1.659 3.704,-3.703l0,-7.407Z" style="fill:none;stroke:#e62626;stroke-width:1px;"/><path d="M687.656,37.407c0,-2.044 -1.66,-3.704 -3.704,-3.704l-293.48,0c-2.044,0 -3.704,1.66 -3.704,3.704l0,7.406c0,2.044 1.66,3.704 3.704,3.704l293.48,0c2.044,0 3.704,-1.66 3.704,-3.704l0,-7.406Z" style="fill:none;stroke:#e62626;stroke-width:1px;"/><path d="M324.318,57.239l-1.301,-5.018l40.745,-10.568l-1.209,-4.66l9.029,5.31l-5.31,9.029l-1.209,-4.66l-40.745,10.567Z" style="fill:none;stroke:#e62626;stroke-width:1px;"/><text x="14.016px" y="14.375px" style="font-family:'Arial-BoldMT', 'Arial', sans-serif;font-weight:700;font-size:20px;">2016</text><text x="398.016px" y="14.375px" style="font-family:'Arial-BoldMT', 'Arial', sans-serif;font-weight:700;font-size:20px;">2017</text><g><text x="-0.984px" y="27.728px" style="font-family:'HelveticaNeue', 'Helvetica Neue';font-size:12px;">I write the following in Go: (multiple choice)</text><rect x="86.016" y="38.528" width="75" height="7.2" style="fill:#00c4b3;stroke:#00c4b3;stroke-width:1px;stroke-linecap:butt;stroke-linejoin:miter;stroke-miterlimit:4;"/><text x="15.096px" y="45.728px" style="font-family:'HelveticaNeue', 'Helvetica Neue';font-size:12px;">2,247 (63%)</text><text x="167.016px" y="45.728px" style="font-family:'HelveticaNeue', 'Helvetica Neue';font-size:12px;">A runnable/interactive pr<tspan x="298.368px 305.256px " y="45.728px 45.728px ">og</tspan>ram</text><rect x="86.016" y="52.928" width="72.6" height="7.2" style="fill:#00c4b3;stroke:#00c4b3;stroke-width:1px;stroke-linecap:butt;stroke-linejoin:miter;stroke-miterlimit:4;"/><text x="15.096px" y="60.128px" style="font-family:'HelveticaNeue', 'Helvetica Neue';font-size:12px;">2,174 (60%)</text><text x="164.616px" y="60.128px" style="font-family:'HelveticaNeue', 'Helvetica Neue';font-size:12px;">API/RPC services</text><rect x="86.016" y="67.328" width="63" height="7.2" style="fill:#00c4b3;stroke:#00c4b3;stroke-width:1px;stroke-linecap:butt;stroke-linejoin:miter;stroke-miterlimit:4;"/><text x="15.096px" y="74.528px" style="font-family:'HelveticaNeue', 'Helvetica Neue';font-size:12px;">1,886 (52%)</text><text x="155.016px" y="74.528px" style="font-family:'HelveticaNeue', 'Helvetica Neue';font-size:12px;">W<tspan x="165.444px 171.888px " y="74.528px 74.528px ">eb</tspan> services</text><rect x="86.016" y="81.728" width="52.8" height="7.2" style="fill:#00c4b3;stroke:#00c4b3;stroke-width:1px;stroke-linecap:butt;stroke-linejoin:miter;stroke-miterlimit:4;"/><text x="15.096px" y="88.928px" style="font-family:'HelveticaNeue', 'Helvetica Neue';font-size:12px;">1,583 (44%)</text><text x="144.816px" y="88.928px" style="font-family:'HelveticaNeue', 'Helvetica Neue';font-size:12px;">Agents and daemons</text><rect x="86.016" y="96.128" width="47.28" height="7.2" style="fill:#00c4b3;stroke:#00c4b3;stroke-width:1px;stroke-linecap:butt;stroke-linejoin:miter;stroke-miterlimit:4;"/><text x="15.096px" y="103.328px" style="font-family:'HelveticaNeue', 'Helvetica Neue';font-size:12px;">1,417 (39%)</text><text x="139.296px" y="103.328px" style="font-family:'HelveticaNeue', 'Helvetica Neue';font-size:12px;">Libraries or Frameworks</text><rect x="86.016" y="110.528" width="40.32" height="7.2" style="fill:#00c4b3;stroke:#00c4b3;stroke-width:1px;stroke-linecap:butt;stroke-linejoin:miter;stroke-miterlimit:4;"/><text x="15.096px" y="117.728px" style="font-family:'HelveticaNeue', 'Helvetica Neue';font-size:12px;">1,209 (34%)</text><text x="132.336px" y="117.728px" style="font-family:'HelveticaNeue', 'Helvetica Neue';font-size:12px;">Data pr<tspan x="171.684px 178.572px " y="117.728px 117.728px ">oc</tspan>essing</text><rect x="86.016" y="124.928" width="37.44" height="7.2" style="fill:#00c4b3;stroke:#00c4b3;stroke-width:1px;stroke-linecap:butt;stroke-linejoin:miter;stroke-miterlimit:4;"/><text x="15.096px" y="132.128px" style="font-family:'HelveticaNeue', 'Helvetica Neue';font-size:12px;">1,120 (31%)</text><text x="129.456px" y="132.128px" style="font-family:'HelveticaNeue', 'Helvetica Neue';font-size:12px;">Automation/scripts</text><rect x="86.016" y="139.328" width="3.6" height="7.2" style="fill:#00c4b3;stroke:#00c4b3;stroke-width:1px;stroke-linecap:butt;stroke-linejoin:miter;stroke-miterlimit:4;"/><text x="25.104px" y="146.528px" style="font-family:'HelveticaNeue', 'Helvetica Neue';font-size:12px;">107  (3%)</text><text x="95.616px" y="146.528px" style="font-family:'HelveticaNeue', 'Helvetica Neue';font-size:12px;">I don&apos;t write in Go</text><rect x="86.016" y="153.728" width="4.56" height="7.2" style="fill:#777;stroke:#777;stroke-width:1px;stroke-linecap:butt;stroke-linejoin:miter;stroke-miterlimit:4;"/><text x="25.104px" y="160.928px" style="font-family:'HelveticaNeue', 'Helvetica Neue';font-size:12px;">137  (4%)</text><text x="96.576px" y="160.928px" style="font-family:'HelveticaNeue', 'Helvetica Neue';font-size:12px;">Other</text><rect x="86.016" y="168.128" width="1.56" height="7.2" style="fill:#fff;stroke:#000;stroke-width:1px;stroke-linecap:butt;stroke-linejoin:miter;stroke-miterlimit:4;"/><text x="31.776px" y="175.328px" style="font-family:'HelveticaNeue', 'Helvetica Neue';font-size:12px;">45  (1%)</text><text x="93.576px" y="175.328px" style="font-family:'HelveticaNeue', 'Helvetica Neue';font-size:12px;">No r<tspan x="116.244px 122.688px " y="175.328px 175.328px ">es</tspan>ponse</text></g><g><text x="377.016px" y="27.728px" style="font-family:'HelveticaNeue', 'Helvetica Neue';font-size:12px;">I write the following in Go: (multiple choice)</text><rect x="464.016" y="38.528" width="78.48" height="7.2" style="fill:#00acd7;stroke:#00acd7;stroke-width:1px;stroke-linecap:butt;stroke-linejoin:miter;stroke-miterlimit:4;"/><text x="393.096px" y="45.728px" style="font-family:'HelveticaNeue', 'Helvetica Neue';font-size:12px;">4,071 (65%)</text><text x="548.496px" y="45.728px" style="font-family:'HelveticaNeue', 'Helvetica Neue';font-size:12px;">API/RPC services</text><rect x="464.016" y="52.928" width="75.6" height="7.2" style="fill:#00acd7;stroke:#00acd7;stroke-width:1px;stroke-linecap:butt;stroke-linejoin:miter;stroke-miterlimit:4;"/><text x="393.096px" y="60.128px" style="font-family:'HelveticaNeue', 'Helvetica Neue';font-size:12px;">3,921 (63%)</text><text x="545.616px" y="60.128px" style="font-family:'HelveticaNeue', 'Helvetica Neue';font-size:12px;">A runnable/interactive pr<tspan x="676.968px 683.856px " y="60.128px 60.128px ">og</tspan>ram</text><rect x="464.016" y="67.328" width="58.32" height="7.2" style="fill:#00acd7;stroke:#00acd7;stroke-width:1px;stroke-linecap:butt;stroke-linejoin:miter;stroke-miterlimit:4;"/><text x="393.096px" y="74.528px" style="font-family:'HelveticaNeue', 'Helvetica Neue';font-size:12px;">3,027 (49%)</text><text x="528.336px" y="74.528px" style="font-family:'HelveticaNeue', 'Helvetica Neue';font-size:12px;">W<tspan x="538.764px 545.208px " y="74.528px 74.528px ">eb</tspan> services</text><rect x="464.016" y="81.728" width="53.28" height="7.2" style="fill:#00acd7;stroke:#00acd7;stroke-width:1px;stroke-linecap:butt;stroke-linejoin:miter;stroke-miterlimit:4;"/><text x="393.096px" y="88.928px" style="font-family:'HelveticaNeue', 'Helvetica Neue';font-size:12px;">2,766 (44%)</text><text x="523.296px" y="88.928px" style="font-family:'HelveticaNeue', 'Helvetica Neue';font-size:12px;">Agents and daemons</text><rect x="464.016" y="96.128" width="46.2" height="7.2" style="fill:#00acd7;stroke:#00acd7;stroke-width:1px;stroke-linecap:butt;stroke-linejoin:miter;stroke-miterlimit:4;"/><text x="393.096px" y="103.328px" style="font-family:'HelveticaNeue', 'Helvetica Neue';font-size:12px;">2,394 (38%)</text><text x="516.216px" y="103.328px" style="font-family:'HelveticaNeue', 'Helvetica Neue';font-size:12px;">Libraries or Frameworks</text><rect x="464.016" y="110.528" width="39.24" height="7.2" style="fill:#00acd7;stroke:#00acd7;stroke-width:1px;stroke-linecap:butt;stroke-linejoin:miter;stroke-miterlimit:4;"/><text x="393.096px" y="117.728px" style="font-family:'HelveticaNeue', 'Helvetica Neue';font-size:12px;">2,038 (33%)</text><text x="509.256px" y="117.728px" style="font-family:'HelveticaNeue', 'Helvetica Neue';font-size:12px;">Automation/scripts</text><rect x="464.016" y="124.928" width="39.12" height="7.2" style="fill:#00acd7;stroke:#00acd7;stroke-width:1px;stroke-linecap:butt;stroke-linejoin:miter;stroke-miterlimit:4;"/><text x="393.096px" y="132.128px" style="font-family:'HelveticaNeue', 'Helvetica Neue';font-size:12px;">2,030 (33%)</text><text x="509.136px" y="132.128px" style="font-family:'HelveticaNeue', 'Helvetica Neue';font-size:12px;">Data pr<tspan x="548.484px 555.372px " y="132.128px 132.128px ">oc</tspan>essing</text><rect x="464.016" y="139.328" width="3.24" height="7.2" style="fill:#00acd7;stroke:#00acd7;stroke-width:1px;stroke-linecap:butt;stroke-linejoin:miter;stroke-miterlimit:4;"/><text x="403.104px" y="146.528px" style="font-family:'HelveticaNeue', 'Helvetica Neue';font-size:12px;">167  (3%)</text><text x="473.256px" y="146.528px" style="font-family:'HelveticaNeue', 'Helvetica Neue';font-size:12px;">I don&apos;t write in Go</text><rect x="464.016" y="153.728" width="3.36" height="7.2" style="fill:#777;stroke:#777;stroke-width:1px;stroke-linecap:butt;stroke-linejoin:miter;stroke-miterlimit:4;"/><text x="403.104px" y="160.928px" style="font-family:'HelveticaNeue', 'Helvetica Neue';font-size:12px;">176  (3%)</text><text x="473.376px" y="160.928px" style="font-family:'HelveticaNeue', 'Helvetica Neue';font-size:12px;">Other</text><rect x="464.016" y="168.128" width="1.32" height="7.2" style="fill:#fff;stroke:#000;stroke-width:1px;stroke-linecap:butt;stroke-linejoin:miter;stroke-miterlimit:4;"/><text x="409.776px" y="175.328px" style="font-family:'HelveticaNeue', 'Helvetica Neue';font-size:12px;">70  (1%)</text><text x="471.336px" y="175.328px" style="font-family:'HelveticaNeue', 'Helvetica Neue';font-size:12px;">No r<tspan x="494.004px 500.448px " y="175.328px 175.328px ">es</tspan>ponse</text></g></svg>