<?xml version="1.0" standalone="no"?>
<!DOCTYPE svg PUBLIC "-//W3C//DTD SVG 1.1//EN"
  "http://www.w3.org/Graphics/SVG/1.1/DTD/svg11.dtd">
<svg width="70.00em" height="12.80em" version="1.1"
     xmlns="http://www.w3.org/2000/svg">
  <defs>
    <style type="text/css"><![CDATA[
      svg {
        font-family: "Helvetica Neue", Arial, sans-serif; /* Helvetica on Mac aka sans-serif has broken U+2007 */
      }
      tspan.size {
        font-size: 0.80em;
      }
      tspan.head {
        font-weight: bold;
      }
      tspan.paren {
        font-weight: normal !important;
      }
    ]]></style>
  </defs>
<text x="0.00em" y="1.20em" class="head"><tspan class="size">If it were not for the following reasons I would use Go more: </tspan></text>
<rect x="7.25em" y="2.10em" width="3.13em" height="0.60em" stroke="#00acd7" fill="#00acd7"/>
<rect x="10.38em" y="2.10em" width="1.41em" height="0.60em" stroke="#4ec0dd" fill="#4ec0dd"/>
<rect x="11.79em" y="2.10em" width="0.41em" height="0.60em" stroke="#9cd4e3" fill="#9cd4e3"/>
<text x="6.75em" y="2.70em" text-anchor="end"><tspan class="size">3,077 (<tspan fill="#00acd7">31</tspan>, <tspan fill="#4ec0dd">14</tspan>, <tspan fill="#9cd4e3">4</tspan>%)</tspan></text>
<text x="12.69em" y="2.70em"><tspan class="size">I work on an existing project written in another language</tspan></text>
<rect x="7.25em" y="3.30em" width="1.37em" height="0.60em" stroke="#00acd7" fill="#00acd7"/>
<rect x="8.62em" y="3.30em" width="1.55em" height="0.60em" stroke="#4ec0dd" fill="#4ec0dd"/>
<rect x="10.18em" y="3.30em" width="0.53em" height="0.60em" stroke="#9cd4e3" fill="#9cd4e3"/>
<text x="6.75em" y="3.90em" text-anchor="end"><tspan class="size">2,152 (<tspan fill="#00acd7">14</tspan>, <tspan fill="#4ec0dd">16</tspan>, <tspan fill="#9cd4e3">5</tspan>%)</tspan></text>
<text x="11.21em" y="3.90em"><tspan class="size">My project / team / TL prefers another language</tspan></text>
<rect x="7.25em" y="4.50em" width="1.04em" height="0.60em" stroke="#00acd7" fill="#00acd7"/>
<rect x="8.29em" y="4.50em" width="0.53em" height="0.60em" stroke="#4ec0dd" fill="#4ec0dd"/>
<rect x="8.82em" y="4.50em" width="0.39em" height="0.60em" stroke="#9cd4e3" fill="#9cd4e3"/>
<text x="6.75em" y="5.10em" text-anchor="end"><tspan class="size">1,218 (<tspan fill="#00acd7">10</tspan>, <tspan fill="#4ec0dd">5</tspan>, <tspan fill="#9cd4e3">4</tspan>%)</tspan></text>
<text x="9.71em" y="5.10em"><tspan class="size">Go lacks critical features</tspan></text>
<rect x="7.25em" y="5.70em" width="0.64em" height="0.60em" stroke="#00acd7" fill="#00acd7"/>
<rect x="7.89em" y="5.70em" width="0.68em" height="0.60em" stroke="#4ec0dd" fill="#4ec0dd"/>
<rect x="8.57em" y="5.70em" width="0.45em" height="0.60em" stroke="#9cd4e3" fill="#9cd4e3"/>
<text x="6.75em" y="6.30em" text-anchor="end"><tspan class="size">1,100 (<tspan fill="#00acd7">6</tspan>, <tspan fill="#4ec0dd">7</tspan>, <tspan fill="#9cd4e3">4</tspan>%)</tspan></text>
<text x="9.52em" y="6.30em"><tspan class="size">Go lacks critical libraries</tspan></text>
<rect x="7.25em" y="6.90em" width="0.63em" height="0.60em" stroke="#00acd7" fill="#00acd7"/>
<rect x="7.88em" y="6.90em" width="0.64em" height="0.60em" stroke="#4ec0dd" fill="#4ec0dd"/>
<rect x="8.53em" y="6.90em" width="0.42em" height="0.60em" stroke="#9cd4e3" fill="#9cd4e3"/>
<text x="6.75em" y="7.50em" text-anchor="end"><tspan class="size">1,056 (<tspan fill="#00acd7">6</tspan>, <tspan fill="#4ec0dd">6</tspan>, <tspan fill="#9cd4e3">4</tspan>%)</tspan></text>
<text x="9.45em" y="7.50em"><tspan class="size">Go isn't appropriate for what I'm working on</tspan></text>
<rect x="7.25em" y="8.10em" width="0.36em" height="0.60em" stroke="#00acd7" fill="#00acd7"/>
<rect x="7.61em" y="8.10em" width="0.37em" height="0.60em" stroke="#4ec0dd" fill="#4ec0dd"/>
<rect x="7.99em" y="8.10em" width="0.30em" height="0.60em" stroke="#9cd4e3" fill="#9cd4e3"/>
<text x="6.75em" y="8.70em" text-anchor="end"><tspan class="size">643 (<tspan fill="#00acd7">4</tspan>, <tspan fill="#4ec0dd">4</tspan>, <tspan fill="#9cd4e3">3</tspan>%)</tspan></text>
<text x="8.78em" y="8.70em"><tspan class="size">Not enough education or support resources for Go</tspan></text>
<rect x="7.25em" y="9.30em" width="0.19em" height="0.60em" stroke="#00acd7" fill="#00acd7"/>
<rect x="7.44em" y="9.30em" width="0.18em" height="0.60em" stroke="#4ec0dd" fill="#4ec0dd"/>
<rect x="7.62em" y="9.30em" width="0.13em" height="0.60em" stroke="#9cd4e3" fill="#9cd4e3"/>
<text x="6.75em" y="9.90em" text-anchor="end"><tspan class="size">311 (<tspan fill="#00acd7">2</tspan>, <tspan fill="#4ec0dd">2</tspan>, <tspan fill="#9cd4e3">1</tspan>%)</tspan></text>
<text x="8.25em" y="9.90em"><tspan class="size">Go lacks critical performance</tspan></text>
<rect x="7.25em" y="10.50em" width="0.53em" height="0.60em" stroke="#777777" fill="#777777"/>
<rect x="7.78em" y="10.50em" width="0.43em" height="0.60em" stroke="#9d9d9d" fill="#9d9d9d"/>
<rect x="8.21em" y="10.50em" width="0.31em" height="0.60em" stroke="#c3c3c3" fill="#c3c3c3"/>
<text x="6.75em" y="11.10em" text-anchor="end"><tspan class="size">790 (<tspan fill="#777777">5</tspan>, <tspan fill="#9d9d9d">4</tspan>, <tspan fill="#c3c3c3">3</tspan>%)</tspan></text>
<text x="9.02em" y="11.10em"><tspan class="size">Other</tspan></text>
<rect x="7.25em" y="11.70em" width="2.10em" height="0.60em" stroke="black" fill="white"/>
<text x="6.75em" y="12.30em" text-anchor="end"><tspan class="size">1,309 (21%)</tspan></text>
<text x="9.85em" y="12.30em"><tspan class="size">No response</tspan></text>
</svg>
