<svg version="1.1" viewBox="0.0 0.0 600.0 157.0" fill="none" stroke="none" stroke-linecap="square" stroke-miterlimit="10" width="600" height="157" xmlns:xlink="http://www.w3.org/1999/xlink" xmlns="http://www.w3.org/2000/svg"><path fill="#ffffff" d="M0 0L600.0 0L600.0 157.0L0 157.0L0 0Z" fill-rule="nonzero"/><path stroke="#333333" stroke-width="1.0" stroke-linecap="butt" d="M7.5 26.5L7.5 76.5" fill-rule="nonzero"/><path stroke="#cccccc" stroke-width="1.0" stroke-linecap="butt" d="M124.5 26.5L124.5 76.5" fill-rule="nonzero"/><path stroke="#cccccc" stroke-width="1.0" stroke-linecap="butt" d="M241.5 26.5L241.5 76.5" fill-rule="nonzero"/><path stroke="#cccccc" stroke-width="1.0" stroke-linecap="butt" d="M358.5 26.5L358.5 76.5" fill-rule="nonzero"/><path stroke="#cccccc" stroke-width="1.0" stroke-linecap="butt" d="M475.5 26.5L475.5 76.5" fill-rule="nonzero"/><path stroke="#cccccc" stroke-width="1.0" stroke-linecap="butt" d="M592.5 26.5L592.5 76.5" fill-rule="nonzero"/><clipPath id="id_0"><path d="M7.875 26.953323L592.125 26.953323L592.125 76.01582L7.875 76.01582L7.875 26.953323Z" clip-rule="nonzero"/></clipPath><path stroke="#000000" stroke-width="0.0" stroke-linecap="butt" stroke-opacity="0.0" clip-path="url(#id_0)" d="M8.0 63.0L8.0 39.0L47.0 39.0L47.0 63.0Z" fill-rule="nonzero"/><path fill="#a61c00" clip-path="url(#id_0)" d="M8.0 63.0L8.0 39.0L47.0 39.0L47.0 63.0Z" fill-rule="nonzero"/><path stroke="#000000" stroke-width="0.0" stroke-linecap="butt" stroke-opacity="0.0" clip-path="url(#id_0)" d="M47.0 63.0L47.0 39.0L203.0 39.0L203.0 63.0Z" fill-rule="nonzero"/><path fill="#f1c232" clip-path="url(#id_0)" d="M47.0 63.0L47.0 39.0L203.0 39.0L203.0 63.0Z" fill-rule="nonzero"/><path stroke="#000000" stroke-width="0.0" stroke-linecap="butt" stroke-opacity="0.0" clip-path="url(#id_0)" d="M203.0 63.0L203.0 39.0L590.0 39.0C591.10455 39.0 592.0 39.89543 592.0 41.0L592.0 61.0C592.0 62.10457 591.10455 63.0 590.0 63.0Z" fill-rule="nonzero"/><path fill="#6aa84f" clip-path="url(#id_0)" d="M203.0 63.0L203.0 39.0L590.0 39.0C591.10455 39.0 592.0 39.89543 592.0 41.0L592.0 61.0C592.0 62.10457 591.10455 63.0 590.0 63.0Z" fill-rule="nonzero"/><path stroke="#a61c00" stroke-width="3.0" stroke-linejoin="round" stroke-linecap="round" d="M25.538893 47.578125L22.007643 55.5L20.867018 55.5L24.382643 47.859375L19.773268 47.859375L19.773268 46.96875L25.538893 46.96875L25.538893 47.578125ZM26.929518 48.609375Q26.929518 47.84375 27.413893 47.34375Q27.913893 46.84375 28.679518 46.84375Q29.460768 46.84375 29.945143 47.34375Q30.429518 47.84375 30.429518 48.640625L30.429518 49.0625Q30.429518 49.828125 29.929518 50.328125Q29.445143 50.8125 28.695143 50.8125Q27.929518 50.8125 27.429518 50.328125Q26.929518 49.828125 26.929518 49.015625L26.929518 48.609375ZM27.742018 49.0625Q27.742018 49.515625 27.992018 49.8125Q28.257643 50.109375 28.695143 50.109375Q29.117018 50.109375 29.367018 49.828125Q29.617018 49.53125 29.617018 49.03125L29.617018 48.609375Q29.617018 48.15625 29.367018 47.859375Q29.117018 47.546875 28.679518 47.546875Q28.242018 47.546875 27.992018 47.859375Q27.742018 48.15625 27.742018 48.625L27.742018 49.0625ZM31.085768 53.40625Q31.085768 52.640625 31.570143 52.15625Q32.07014 51.65625 32.835766 51.65625Q33.60139 51.65625 34.085766 52.15625Q34.585766 52.640625 34.585766 53.453125L34.585766 53.859375Q34.585766 54.625 34.10139 55.125Q33.617016 55.625 32.85139 55.625Q32.085766 55.625 31.585768 55.140625Q31.085768 54.640625 31.085768 53.828125L31.085768 53.40625ZM31.898268 53.859375Q31.898268 54.328125 32.148266 54.625Q32.41389 54.921875 32.85139 54.921875Q33.273266 54.921875 33.523266 54.640625Q33.773266 54.34375 33.773266 53.84375L33.773266 53.40625Q33.773266 52.9375 33.50764 52.65625Q33.25764 52.359375 32.835766 52.359375Q32.41389 52.359375 32.148266 52.65625Q31.898268 52.9375 31.898268 53.4375L31.898268 53.859375ZM28.945143 54.859375L28.320143 54.46875L32.492016 47.796875L33.10139 48.1875L28.945143 54.859375Z" fill-rule="nonzero"/><path fill="#f3f3f3" d="M25.538893 47.578125L22.007643 55.5L20.867018 55.5L24.382643 47.859375L19.773268 47.859375L19.773268 46.96875L25.538893 46.96875L25.538893 47.578125ZM26.929518 48.609375Q26.929518 47.84375 27.413893 47.34375Q27.913893 46.84375 28.679518 46.84375Q29.460768 46.84375 29.945143 47.34375Q30.429518 47.84375 30.429518 48.640625L30.429518 49.0625Q30.429518 49.828125 29.929518 50.328125Q29.445143 50.8125 28.695143 50.8125Q27.929518 50.8125 27.429518 50.328125Q26.929518 49.828125 26.929518 49.015625L26.929518 48.609375ZM27.742018 49.0625Q27.742018 49.515625 27.992018 49.8125Q28.257643 50.109375 28.695143 50.109375Q29.117018 50.109375 29.367018 49.828125Q29.617018 49.53125 29.617018 49.03125L29.617018 48.609375Q29.617018 48.15625 29.367018 47.859375Q29.117018 47.546875 28.679518 47.546875Q28.242018 47.546875 27.992018 47.859375Q27.742018 48.15625 27.742018 48.625L27.742018 49.0625ZM31.085768 53.40625Q31.085768 52.640625 31.570143 52.15625Q32.070145 51.65625 32.83577 51.65625Q33.601395 51.65625 34.08577 52.15625Q34.58577 52.640625 34.58577 53.453125L34.58577 53.859375Q34.58577 54.625 34.101395 55.125Q33.61702 55.625 32.851395 55.625Q32.08577 55.625 31.585768 55.140625Q31.085768 54.640625 31.085768 53.828125L31.085768 53.40625ZM31.898268 53.859375Q31.898268 54.328125 32.14827 54.625Q32.413895 54.921875 32.851395 54.921875Q33.27327 54.921875 33.52327 54.640625Q33.77327 54.34375 33.77327 53.84375L33.77327 53.40625Q33.77327 52.9375 33.507645 52.65625Q33.257645 52.359375 32.83577 52.359375Q32.413895 52.359375 32.14827 52.65625Q31.898268 52.9375 31.898268 53.4375L31.898268 53.859375ZM28.945143 54.859375L28.320143 54.46875L32.49202 47.796875L33.101395 48.1875L28.945143 54.859375Z" fill-rule="nonzero"/><path fill="#f3f3f3" d="M119.52934 55.5L113.93559 55.5L113.93559 54.71875L116.88872 51.4375Q117.54497 50.6875 117.79497 50.234375Q118.04497 49.765625 118.04497 49.265625Q118.04497 48.59375 117.63872 48.171875Q117.24809 47.734375 116.56059 47.734375Q115.76372 47.734375 115.31059 48.203125Q114.85747 48.65625 114.85747 49.484375L113.77934 49.484375Q113.77934 48.296875 114.52934 47.578125Q115.29497 46.84375 116.56059 46.84375Q117.76372 46.84375 118.45122 47.46875Q119.13872 48.09375 119.13872 49.140625Q119.13872 50.390625 117.52934 52.140625L115.24809 54.609375L119.52934 54.609375L119.52934 55.5ZM126.45122 47.578125L122.91997 55.5L121.77934 55.5L125.29497 47.859375L120.68559 47.859375L120.68559 46.96875L126.45122 46.96875L126.45122 47.578125ZM127.84184 48.609375Q127.84184 47.84375 128.32622 47.34375Q128.82622 46.84375 129.59184 46.84375Q130.3731 46.84375 130.85747 47.34375Q131.34184 47.84375 131.34184 48.640625L131.34184 49.0625Q131.34184 49.828125 130.84184 50.328125Q130.35747 50.8125 129.60747 50.8125Q128.84184 50.8125 128.34184 50.328125Q127.84184 49.828125 127.84184 49.015625L127.84184 48.609375ZM128.65434 49.0625Q128.65434 49.515625 128.90434 49.8125Q129.16997 50.109375 129.60747 50.109375Q130.02934 50.109375 130.27934 49.828125Q130.52934 49.53125 130.52934 49.03125L130.52934 48.609375Q130.52934 48.15625 130.27934 47.859375Q130.02934 47.546875 129.59184 47.546875Q129.15434 47.546875 128.90434 47.859375Q128.65434 48.15625 128.65434 48.625L128.65434 49.0625ZM131.9981 53.40625Q131.9981 52.640625 132.48247 52.15625Q132.98247 51.65625 133.7481 51.65625Q134.51372 51.65625 134.9981 52.15625Q135.4981 52.640625 135.4981 53.453125L135.4981 53.859375Q135.4981 54.625 135.01372 55.125Q134.52934 55.625 133.76372 55.625Q132.9981 55.625 132.4981 55.140625Q131.9981 54.640625 131.9981 53.828125L131.9981 53.40625ZM132.8106 53.859375Q132.8106 54.328125 133.0606 54.625Q133.32622 54.921875 133.76372 54.921875Q134.1856 54.921875 134.4356 54.640625Q134.6856 54.34375 134.6856 53.84375L134.6856 53.40625Q134.6856 52.9375 134.41997 52.65625Q134.16997 52.359375 133.7481 52.359375Q133.32622 52.359375 133.0606 52.65625Q132.8106 52.9375 132.8106 53.4375L132.8106 53.859375ZM129.85747 54.859375L129.23247 54.46875L133.40434 47.796875L134.01372 48.1875L129.85747 54.859375Z" fill-rule="nonzero"/><path stroke="#6aa84f" stroke-width="3.0" stroke-linejoin="round" stroke-linecap="round" d="M390.88107 46.96875L390.88107 47.875L390.67795 47.875Q389.41232 47.90625 388.66232 48.640625Q387.91232 49.359375 387.78732 50.671875Q388.47482 49.90625 389.63107 49.90625Q390.74045 49.90625 391.41232 50.6875Q392.0842 51.46875 392.0842 52.71875Q392.0842 54.03125 391.36545 54.828125Q390.6467 55.625 389.42795 55.625Q388.2092 55.625 387.44357 54.6875Q386.69357 53.734375 386.69357 52.25L386.69357 51.84375Q386.69357 49.484375 387.69357 48.234375Q388.69357 46.984375 390.67795 46.96875L390.88107 46.96875ZM389.4592 50.8125Q388.8967 50.8125 388.42795 51.140625Q387.9592 51.46875 387.7717 51.984375L387.7717 52.375Q387.7717 53.4375 388.24045 54.078125Q388.72482 54.71875 389.42795 54.71875Q390.16232 54.71875 390.5842 54.1875Q391.00607 53.640625 391.00607 52.765625Q391.00607 51.890625 390.5842 51.359375Q390.16232 50.8125 389.4592 50.8125ZM399.13107 47.578125L395.59982 55.5L394.4592 55.5L397.97482 47.859375L393.36545 47.859375L393.36545 46.96875L399.13107 46.96875L399.13107 47.578125ZM400.5217 48.609375Q400.5217 47.84375 401.00607 47.34375Q401.50607 46.84375 402.2717 46.84375Q403.05295 46.84375 403.53732 47.34375Q404.0217 47.84375 404.0217 48.640625L404.0217 49.0625Q404.0217 49.828125 403.5217 50.328125Q403.03732 50.8125 402.28732 50.8125Q401.5217 50.8125 401.0217 50.328125Q400.5217 49.828125 400.5217 49.015625L400.5217 48.609375ZM401.3342 49.0625Q401.3342 49.515625 401.5842 49.8125Q401.84982 50.109375 402.28732 50.109375Q402.7092 50.109375 402.9592 49.828125Q403.2092 49.53125 403.2092 49.03125L403.2092 48.609375Q403.2092 48.15625 402.9592 47.859375Q402.7092 47.546875 402.2717 47.546875Q401.8342 47.546875 401.5842 47.859375Q401.3342 48.15625 401.3342 48.625L401.3342 49.0625ZM404.67795 53.40625Q404.67795 52.640625 405.16232 52.15625Q405.66232 51.65625 406.42795 51.65625Q407.19357 51.65625 407.67795 52.15625Q408.17795 52.640625 408.17795 53.453125L408.17795 53.859375Q408.17795 54.625 407.69357 55.125Q407.2092 55.625 406.44357 55.625Q405.67795 55.625 405.17795 55.140625Q404.67795 54.640625 404.67795 53.828125L404.67795 53.40625ZM405.49045 53.859375Q405.49045 54.328125 405.74045 54.625Q406.00607 54.921875 406.44357 54.921875Q406.86545 54.921875 407.11545 54.640625Q407.36545 54.34375 407.36545 53.84375L407.36545 53.40625Q407.36545 52.9375 407.09982 52.65625Q406.84982 52.359375 406.42795 52.359375Q406.00607 52.359375 405.74045 52.65625Q405.49045 52.9375 405.49045 53.4375L405.49045 53.859375ZM402.53732 54.859375L401.91232 54.46875L406.0842 47.796875L406.69357 48.1875L402.53732 54.859375Z" fill-rule="nonzero"/><path fill="#f3f3f3" d="M390.88107 46.96875L390.88107 47.875L390.67795 47.875Q389.41232 47.90625 388.66232 48.640625Q387.91232 49.359375 387.78732 50.671875Q388.47482 49.90625 389.63107 49.90625Q390.74045 49.90625 391.41232 50.6875Q392.0842 51.46875 392.0842 52.71875Q392.0842 54.03125 391.36545 54.828125Q390.6467 55.625 389.42795 55.625Q388.2092 55.625 387.44357 54.6875Q386.69357 53.734375 386.69357 52.25L386.69357 51.84375Q386.69357 49.484375 387.69357 48.234375Q388.69357 46.984375 390.67795 46.96875L390.88107 46.96875ZM389.4592 50.8125Q388.8967 50.8125 388.42795 51.140625Q387.9592 51.46875 387.7717 51.984375L387.7717 52.375Q387.7717 53.4375 388.24045 54.078125Q388.72482 54.71875 389.42795 54.71875Q390.16232 54.71875 390.5842 54.1875Q391.00607 53.640625 391.00607 52.765625Q391.00607 51.890625 390.5842 51.359375Q390.16232 50.8125 389.4592 50.8125ZM399.13107 47.578125L395.59982 55.5L394.4592 55.5L397.97482 47.859375L393.36545 47.859375L393.36545 46.96875L399.13107 46.96875L399.13107 47.578125ZM400.5217 48.609375Q400.5217 47.84375 401.00607 47.34375Q401.50607 46.84375 402.2717 46.84375Q403.05295 46.84375 403.53732 47.34375Q404.0217 47.84375 404.0217 48.640625L404.0217 49.0625Q404.0217 49.828125 403.5217 50.328125Q403.03732 50.8125 402.28732 50.8125Q401.5217 50.8125 401.0217 50.328125Q400.5217 49.828125 400.5217 49.015625L400.5217 48.609375ZM401.3342 49.0625Q401.3342 49.515625 401.5842 49.8125Q401.84982 50.109375 402.28732 50.109375Q402.7092 50.109375 402.9592 49.828125Q403.2092 49.53125 403.2092 49.03125L403.2092 48.609375Q403.2092 48.15625 402.9592 47.859375Q402.7092 47.546875 402.2717 47.546875Q401.8342 47.546875 401.5842 47.859375Q401.3342 48.15625 401.3342 48.625L401.3342 49.0625ZM404.67795 53.40625Q404.67795 52.640625 405.16232 52.15625Q405.66232 51.65625 406.42795 51.65625Q407.19357 51.65625 407.67795 52.15625Q408.17795 52.640625 408.17795 53.453125L408.17795 53.859375Q408.17795 54.625 407.69357 55.125Q407.2092 55.625 406.44357 55.625Q405.67795 55.625 405.17795 55.140625Q404.67795 54.640625 404.67795 53.828125L404.67795 53.40625ZM405.49045 53.859375Q405.49045 54.328125 405.74045 54.625Q406.00607 54.921875 406.44357 54.921875Q406.86545 54.921875 407.11545 54.640625Q407.36545 54.34375 407.36545 53.84375L407.36545 53.40625Q407.36545 52.9375 407.09982 52.65625Q406.84982 52.359375 406.42795 52.359375Q406.00607 52.359375 405.74045 52.65625Q405.49045 52.9375 405.49045 53.4375L405.49045 53.859375ZM402.53732 54.859375L401.91232 54.46875L406.0842 47.796875L406.69357 48.1875L402.53732 54.859375Z" fill-rule="nonzero"/><path fill="#666666" d="M232.60938 116.52787Q232.60938 115.762245 233.09375 115.262245Q233.59375 114.762245 234.35938 114.762245Q235.14062 114.762245 235.625 115.262245Q236.10938 115.762245 236.10938 116.55912L236.10938 116.980995Q236.10938 117.74662 235.60938 118.24662Q235.125 118.730995 234.375 118.730995Q233.60938 118.730995 233.10938 118.24662Q232.60938 117.74662 232.60938 116.93412L232.60938 116.52787ZM233.42188 116.980995Q233.42188 117.43412 233.67188 117.730995Q233.9375 118.02787 234.375 118.02787Q234.79688 118.02787 235.04688 117.74662Q235.29688 117.449745 235.29688 116.949745L235.29688 116.52787Q235.29688 116.074745 235.04688 115.77787Q234.79688 115.46537 234.35938 115.46537Q233.92188 115.46537 233.67188 115.77787Q233.42188 116.074745 233.42188 116.543495L233.42188 116.980995ZM236.76562 121.324745Q236.76562 120.55912 237.25 120.074745Q237.75 119.574745 238.51562 119.574745Q239.28125 119.574745 239.76562 120.074745Q240.26562 120.55912 240.26562 121.37162L240.26562 121.77787Q240.26562 122.543495 239.78125 123.043495Q239.29688 123.543495 238.53125 123.543495Q237.76562 123.543495 237.26562 123.05912Q236.76562 122.55912 236.76562 121.74662L236.76562 121.324745ZM237.57812 121.77787Q237.57812 122.24662 237.82812 122.543495Q238.09375 122.84037 238.53125 122.84037Q238.95312 122.84037 239.20312 122.55912Q239.45312 122.262245 239.45312 121.762245L239.45312 121.324745Q239.45312 120.855995 239.1875 120.574745Q238.9375 120.27787 238.51562 120.27787Q238.09375 120.27787 237.82812 120.574745Q237.57812 120.855995 237.57812 121.355995L237.57812 121.77787ZM234.625 122.77787L234.0 122.387245L238.17188 115.71537L238.78125 116.105995L234.625 122.77787ZM244.53125 120.18412Q244.53125 119.262245 244.89062 118.512245Q245.26562 117.762245 245.92188 117.37162Q246.57812 116.96537 247.40625 116.96537Q248.70312 116.96537 249.5 117.855995Q250.3125 118.74662 250.3125 120.24662L250.3125 120.324745Q250.3125 121.24662 249.95312 121.980995Q249.59375 122.71537 248.9375 123.137245Q248.28125 123.543495 247.42188 123.543495Q246.14062 123.543495 245.32812 122.65287Q244.53125 121.74662 244.53125 120.262245L244.53125 120.18412ZM245.625 120.324745Q245.625 121.37162 246.10938 122.012245Q246.60938 122.65287 247.42188 122.65287Q248.25 122.65287 248.73438 122.012245Q249.21875 121.355995 249.21875 120.18412Q249.21875 119.15287 248.71875 118.512245Q248.23438 117.855995 247.40625 117.855995Q246.60938 117.855995 246.10938 118.49662Q245.625 119.12162 245.625 120.324745ZM252.35938 123.418495L252.35938 117.918495L251.35938 117.918495L251.35938 117.074745L252.35938 117.074745L252.35938 116.43412Q252.35938 115.40287 252.89062 114.855995Q253.4375 114.293495 254.4375 114.293495Q254.8125 114.293495 255.1875 114.387245L255.125 115.27787Q254.84375 115.21537 254.54688 115.21537Q254.01562 115.21537 253.71875 115.52787Q253.4375 115.84037 253.4375 116.40287L253.4375 117.074745L254.79688 117.074745L254.79688 117.918495L253.4375 117.918495L253.4375 123.418495L252.35938 123.418495ZM261.89062 118.043495Q261.64062 118.012245 261.35938 118.012245Q260.28125 118.012245 259.90625 118.918495L259.90625 123.418495L258.82812 123.418495L258.82812 117.074745L259.875 117.074745L259.89062 117.80912Q260.42188 116.96537 261.40625 116.96537Q261.71875 116.96537 261.89062 117.043495L261.89062 118.043495ZM265.45312 123.543495Q264.15625 123.543495 263.34375 122.699745Q262.54688 121.84037 262.54688 120.418495L262.54688 120.230995Q262.54688 119.27787 262.90625 118.543495Q263.26562 117.793495 263.90625 117.387245Q264.5625 116.96537 265.3125 116.96537Q266.54688 116.96537 267.23438 117.77787Q267.92188 118.59037 267.92188 120.105995L267.92188 120.55912L263.625 120.55912Q263.65625 121.49662 264.17188 122.074745Q264.70312 122.65287 265.51562 122.65287Q266.07812 122.65287 266.46875 122.418495Q266.875 122.18412 267.1875 121.793495L267.84375 122.30912Q267.04688 123.543495 265.45312 123.543495ZM265.3125 117.855995Q264.65625 117.855995 264.20312 118.34037Q263.76562 118.80912 263.67188 119.668495L266.84375 119.668495L266.84375 119.59037Q266.79688 118.762245 266.39062 118.30912Q266.0 117.855995 265.3125 117.855995ZM272.51562 121.730995Q272.51562 121.293495 272.17188 121.05912Q271.84375 120.80912 271.01562 120.637245Q270.20312 120.46537 269.71875 120.21537Q269.23438 119.96537 269.0 119.637245Q268.78125 119.293495 268.78125 118.824745Q268.78125 118.043495 269.4375 117.512245Q270.09375 116.96537 271.125 116.96537Q272.20312 116.96537 272.85938 117.52787Q273.53125 118.074745 273.53125 118.93412L272.45312 118.93412Q272.45312 118.49662 272.0625 118.18412Q271.6875 117.855995 271.125 117.855995Q270.53125 117.855995 270.1875 118.12162Q269.85938 118.37162 269.85938 118.77787Q269.85938 119.168495 270.17188 119.37162Q270.48438 119.574745 271.29688 119.762245Q272.10938 119.93412 272.60938 120.18412Q273.10938 120.43412 273.34375 120.793495Q273.59375 121.15287 273.59375 121.65287Q273.59375 122.512245 272.90625 123.02787Q272.23438 123.543495 271.15625 123.543495Q270.39062 123.543495 269.79688 123.27787Q269.21875 122.99662 268.89062 122.512245Q268.5625 122.02787 268.5625 121.46537L269.64062 121.46537Q269.67188 122.012245 270.07812 122.34037Q270.48438 122.65287 271.15625 122.65287Q271.76562 122.65287 272.14062 122.40287Q272.51562 122.15287 272.51562 121.730995ZM280.17188 120.324745Q280.17188 121.762245 279.51562 122.65287Q278.85938 123.543495 277.71875 123.543495Q276.5625 123.543495 275.90625 122.80912L275.90625 125.855995L274.82812 125.855995L274.82812 117.074745L275.8125 117.074745L275.85938 117.77787Q276.53125 116.96537 277.70312 116.96537Q278.84375 116.96537 279.5 117.824745Q280.17188 118.68412 280.17188 120.21537L280.17188 120.324745ZM279.09375 120.199745Q279.09375 119.12162 278.625 118.512245Q278.17188 117.887245 277.375 117.887245Q276.39062 117.887245 275.90625 118.74662L275.90625 121.77787Q276.39062 122.65287 277.39062 122.65287Q278.17188 122.65287 278.625 122.043495Q279.09375 121.418495 279.09375 120.199745ZM281.53125 120.18412Q281.53125 119.262245 281.89062 118.512245Q282.26562 117.762245 282.92188 117.37162Q283.57812 116.96537 284.40625 116.96537Q285.70312 116.96537 286.5 117.855995Q287.3125 118.74662 287.3125 120.24662L287.3125 120.324745Q287.3125 121.24662 286.95312 121.980995Q286.59375 122.71537 285.9375 123.137245Q285.28125 123.543495 284.42188 123.543495Q283.14062 123.543495 282.32812 122.65287Q281.53125 121.74662 281.53125 120.262245L281.53125 120.18412ZM282.625 120.324745Q282.625 121.37162 283.10938 122.012245Q283.60938 122.65287 284.42188 122.65287Q285.25 122.65287 285.73438 122.012245Q286.21875 121.355995 286.21875 120.18412Q286.21875 119.15287 285.71875 118.512245Q285.23438 117.855995 284.40625 117.855995Q283.60938 117.855995 283.10938 118.49662Q282.625 119.12162 282.625 120.324745ZM289.84375 117.074745L289.875 117.87162Q290.60938 116.96537 291.78125 116.96537Q293.79688 116.96537 293.8125 119.230995L293.8125 123.418495L292.71875 123.418495L292.71875 119.21537Q292.71875 118.543495 292.40625 118.21537Q292.10938 117.887245 291.45312 117.887245Q290.92188 117.887245 290.51562 118.168495Q290.125 118.449745 289.90625 118.90287L289.90625 123.418495L288.82812 123.418495L288.82812 117.074745L289.84375 117.074745ZM299.51562 121.730995Q299.51562 121.293495 299.17188 121.05912Q298.84375 120.80912 298.01562 120.637245Q297.20312 120.46537 296.71875 120.21537Q296.23438 119.96537 296.0 119.637245Q295.78125 119.293495 295.78125 118.824745Q295.78125 118.043495 296.4375 117.512245Q297.09375 116.96537 298.125 116.96537Q299.20312 116.96537 299.85938 117.52787Q300.53125 118.074745 300.53125 118.93412L299.45312 118.93412Q299.45312 118.49662 299.0625 118.18412Q298.6875 117.855995 298.125 117.855995Q297.53125 117.855995 297.1875 118.12162Q296.85938 118.37162 296.85938 118.77787Q296.85938 119.168495 297.17188 119.37162Q297.48438 119.574745 298.29688 119.762245Q299.10938 119.93412 299.60938 120.18412Q300.10938 120.43412 300.34375 120.793495Q300.59375 121.15287 300.59375 121.65287Q300.59375 122.512245 299.90625 123.02787Q299.23438 123.543495 298.15625 123.543495Q297.39062 123.543495 296.79688 123.27787Q296.21875 122.99662 295.89062 122.512245Q295.5625 122.02787 295.5625 121.46537L296.64062 121.46537Q296.67188 122.012245 297.07812 122.34037Q297.48438 122.65287 298.15625 122.65287Q298.76562 122.65287 299.14062 122.40287Q299.51562 122.15287 299.51562 121.730995ZM304.45312 123.543495Q303.15625 123.543495 302.34375 122.699745Q301.54688 121.84037 301.54688 120.418495L301.54688 120.230995Q301.54688 119.27787 301.90625 118.543495Q302.26562 117.793495 302.90625 117.387245Q303.5625 116.96537 304.3125 116.96537Q305.54688 116.96537 306.23438 117.77787Q306.92188 118.59037 306.92188 120.105995L306.92188 120.55912L302.625 120.55912Q302.65625 121.49662 303.17188 122.074745Q303.70312 122.65287 304.51562 122.65287Q305.07812 122.65287 305.46875 122.418495Q305.875 122.18412 306.1875 121.793495L306.84375 122.30912Q306.04688 123.543495 304.45312 123.543495ZM304.3125 117.855995Q303.65625 117.855995 303.20312 118.34037Q302.76562 118.80912 302.67188 119.668495L305.84375 119.668495L305.84375 119.59037Q305.79688 118.762245 305.39062 118.30912Q305.0 117.855995 304.3125 117.855995ZM311.51562 121.730995Q311.51562 121.293495 311.17188 121.05912Q310.84375 120.80912 310.01562 120.637245Q309.20312 120.46537 308.71875 120.21537Q308.23438 119.96537 308.0 119.637245Q307.78125 119.293495 307.78125 118.824745Q307.78125 118.043495 308.4375 117.512245Q309.09375 116.96537 310.125 116.96537Q311.20312 116.96537 311.85938 117.52787Q312.53125 118.074745 312.53125 118.93412L311.45312 118.93412Q311.45312 118.49662 311.0625 118.18412Q310.6875 117.855995 310.125 117.855995Q309.53125 117.855995 309.1875 118.12162Q308.85938 118.37162 308.85938 118.77787Q308.85938 119.168495 309.17188 119.37162Q309.48438 119.574745 310.29688 119.762245Q311.10938 119.93412 311.60938 120.18412Q312.10938 120.43412 312.34375 120.793495Q312.59375 121.15287 312.59375 121.65287Q312.59375 122.512245 311.90625 123.02787Q311.23438 123.543495 310.15625 123.543495Q309.39062 123.543495 308.79688 123.27787Q308.21875 122.99662 307.89062 122.512245Q307.5625 122.02787 307.5625 121.46537L308.64062 121.46537Q308.67188 122.012245 309.07812 122.34037Q309.48438 122.65287 310.15625 122.65287Q310.76562 122.65287 311.14062 122.40287Q311.51562 122.15287 311.51562 121.730995ZM316.78125 119.949745Q316.78125 118.637245 317.125 117.418495Q317.48438 116.199745 318.1875 115.199745Q318.89062 114.199745 319.65625 113.793495L319.875 114.512245Q319.01562 115.168495 318.46875 116.512245Q317.92188 117.855995 317.875 119.52787L317.85938 120.02787Q317.85938 122.293495 318.6875 123.949745Q319.1875 124.949745 319.875 125.512245L319.65625 126.168495Q318.875 125.74662 318.15625 124.71537Q316.78125 122.730995 316.78125 119.949745ZM321.84375 117.074745L321.875 117.87162Q322.60938 116.96537 323.78125 116.96537Q325.79688 116.96537 325.8125 119.230995L325.8125 123.418495L324.71875 123.418495L324.71875 119.21537Q324.71875 118.543495 324.40625 118.21537Q324.10938 117.887245 323.45312 117.887245Q322.92188 117.887245 322.51562 118.168495Q322.125 118.449745 321.90625 118.90287L321.90625 123.418495L320.82812 123.418495L320.82812 117.074745L321.84375 117.074745ZM332.78125 118.65287L327.89062 118.65287L327.89062 117.699745L332.78125 117.699745L332.78125 118.65287ZM332.78125 121.074745L327.89062 121.074745L327.89062 120.137245L332.78125 120.137245L332.78125 121.074745ZM340.21875 115.49662L336.6875 123.418495L335.54688 123.418495L339.0625 115.77787L334.45312 115.77787L334.45312 114.887245L340.21875 114.887245L340.21875 115.49662ZM341.78125 125.12162L341.17188 124.699745Q341.71875 123.93412 341.75 123.105995L341.75 122.137245L342.8125 122.137245L342.8125 122.980995Q342.8125 123.574745 342.51562 124.168495Q342.21875 124.762245 341.78125 125.12162ZM348.89062 117.105995Q348.89062 117.74662 348.54688 118.24662Q348.20312 118.74662 347.64062 119.02787Q348.29688 119.30912 348.6875 119.87162Q349.07812 120.418495 349.07812 121.12162Q349.07812 122.21537 348.32812 122.887245Q347.59375 123.543495 346.375 123.543495Q345.14062 123.543495 344.39062 122.887245Q343.65625 122.21537 343.65625 121.12162Q343.65625 120.418495 344.03125 119.87162Q344.40625 119.30912 345.07812 119.02787Q344.51562 118.74662 344.1875 118.24662Q343.85938 117.74662 343.85938 117.105995Q343.85938 116.02787 344.54688 115.40287Q345.23438 114.762245 346.375 114.762245Q347.5 114.762245 348.1875 115.40287Q348.89062 116.02787 348.89062 117.105995ZM348.0 121.09037Q348.0 120.37162 347.54688 119.93412Q347.09375 119.480995 346.35938 119.480995Q345.625 119.480995 345.17188 119.93412Q344.73438 120.37162 344.73438 121.105995Q344.73438 121.824745 345.17188 122.24662Q345.60938 122.65287 346.375 122.65287Q347.125 122.65287 347.5625 122.230995Q348.0 121.80912 348.0 121.09037ZM346.375 115.65287Q345.73438 115.65287 345.32812 116.05912Q344.9375 116.449745 344.9375 117.137245Q344.9375 117.77787 345.32812 118.18412Q345.71875 118.59037 346.35938 118.59037Q347.01562 118.59037 347.40625 118.18412Q347.79688 117.77787 347.79688 117.137245Q347.79688 116.480995 347.39062 116.074745Q346.98438 115.65287 346.375 115.65287ZM356.29688 123.418495L350.70312 123.418495L350.70312 122.637245L353.65625 119.355995Q354.3125 118.605995 354.5625 118.15287Q354.8125 117.68412 354.8125 117.18412Q354.8125 116.512245 354.40625 116.09037Q354.01562 115.65287 353.32812 115.65287Q352.53125 115.65287 352.07812 116.12162Q351.625 116.574745 351.625 117.40287L350.54688 117.40287Q350.54688 116.21537 351.29688 115.49662Q352.0625 114.762245 353.32812 114.762245Q354.53125 114.762245 355.21875 115.387245Q355.90625 116.012245 355.90625 117.05912Q355.90625 118.30912 354.29688 120.05912L352.01562 122.52787L356.29688 122.52787L356.29688 123.418495ZM363.21875 115.49662L359.6875 123.418495L358.54688 123.418495L362.0625 115.77787L357.45312 115.77787L357.45312 114.887245L363.21875 114.887245L363.21875 115.49662ZM367.32812 120.012245Q367.32812 121.324745 366.98438 122.52787Q366.64062 123.71537 365.92188 124.730995Q365.21875 125.74662 364.45312 126.168495L364.21875 125.512245Q365.125 124.824745 365.67188 123.37162Q366.21875 121.90287 366.23438 120.137245L366.23438 119.949745Q366.23438 118.71537 365.96875 117.65287Q365.71875 116.59037 365.25 115.762245Q364.79688 114.918495 364.21875 114.449745L364.45312 113.793495Q365.21875 114.21537 365.92188 115.21537Q366.625 116.21537 366.96875 117.43412Q367.32812 118.637245 367.32812 120.012245Z" fill-rule="nonzero"/><path fill="#666666" d="M119.52187 94.01582L113.92812 94.01582L113.92812 93.23457L116.88125 89.95332Q117.5375 89.20332 117.7875 88.7502Q118.0375 88.28145 118.0375 87.78145Q118.0375 87.10957 117.63125 86.6877Q117.24062 86.2502 116.55312 86.2502Q115.75625 86.2502 115.30312 86.71895Q114.85 87.17207 114.85 88.0002L113.77187 88.0002Q113.77187 86.8127 114.52187 86.09395Q115.2875 85.35957 116.55312 85.35957Q117.75625 85.35957 118.44375 85.98457Q119.13125 86.60957 119.13125 87.65645Q119.13125 88.90645 117.52187 90.65645L115.24062 93.1252L119.52187 93.1252L119.52187 94.01582ZM126.2875 90.3752Q126.2875 92.28145 125.63125 93.21895Q124.99062 94.14082 123.6 94.14082Q122.24062 94.14082 121.58437 93.23457Q120.92812 92.32832 120.89687 90.51582L120.89687 89.07832Q120.89687 87.1877 121.5375 86.28145Q122.19375 85.35957 123.58437 85.35957Q124.95937 85.35957 125.61562 86.2502Q126.27187 87.1252 126.2875 88.96895L126.2875 90.3752ZM125.19375 88.89082Q125.19375 87.51582 124.80312 86.89082Q124.42812 86.2502 123.58437 86.2502Q122.75625 86.2502 122.36562 86.89082Q121.99062 87.51582 121.99062 88.8127L121.99062 90.54707Q121.99062 91.92207 122.38125 92.59395Q122.7875 93.2502 123.6 93.2502Q124.39687 93.2502 124.7875 92.6252Q125.17812 92.0002 125.19375 90.67207L125.19375 88.89082ZM127.83437 87.1252Q127.83437 86.35957 128.31876 85.85957Q128.81876 85.35957 129.58438 85.35957Q130.36563 85.35957 130.85 85.85957Q131.33438 86.35957 131.33438 87.15645L131.33438 87.57832Q131.33438 88.34395 130.83438 88.84395Q130.35 89.32832 129.6 89.32832Q128.83438 89.32832 128.33438 88.84395Q127.83437 88.34395 127.83437 87.53145L127.83437 87.1252ZM128.64688 87.57832Q128.64688 88.03145 128.89688 88.32832Q129.1625 88.6252 129.6 88.6252Q130.02188 88.6252 130.27188 88.34395Q130.52188 88.04707 130.52188 87.54707L130.52188 87.1252Q130.52188 86.67207 130.27188 86.3752Q130.02188 86.0627 129.58438 86.0627Q129.14688 86.0627 128.89688 86.3752Q128.64688 86.67207 128.64688 87.14082L128.64688 87.57832ZM131.99063 91.92207Q131.99063 91.15645 132.475 90.67207Q132.975 90.17207 133.74063 90.17207Q134.50626 90.17207 134.99063 90.67207Q135.49063 91.15645 135.49063 91.96895L135.49063 92.3752Q135.49063 93.14082 135.00626 93.64082Q134.52188 94.14082 133.75626 94.14082Q132.99063 94.14082 132.49063 93.65645Q131.99063 93.15645 131.99063 92.34395L131.99063 91.92207ZM132.80313 92.3752Q132.80313 92.84395 133.05313 93.14082Q133.31876 93.4377 133.75626 93.4377Q134.17813 93.4377 134.42813 93.15645Q134.67813 92.85957 134.67813 92.35957L134.67813 91.92207Q134.67813 91.45332 134.4125 91.17207Q134.1625 90.8752 133.74063 90.8752Q133.31876 90.8752 133.05313 91.17207Q132.80313 91.45332 132.80313 91.95332L132.80313 92.3752ZM129.85 93.3752L129.225 92.98457L133.39688 86.3127L134.00626 86.70332L129.85 93.3752Z" fill-rule="nonzero"/><path fill="#666666" d="M235.35625 91.15645L236.54375 91.15645L236.54375 92.03145L235.35625 92.03145L235.35625 94.01582L234.27812 94.01582L234.27812 92.03145L230.3875 92.03145L230.3875 91.39082L234.2 85.48457L235.35625 85.48457L235.35625 91.15645ZM231.62187 91.15645L234.27812 91.15645L234.27812 86.96895L234.1375 87.20332L231.62187 91.15645ZM243.1375 90.3752Q243.1375 92.28145 242.48125 93.21895Q241.84062 94.14082 240.45 94.14082Q239.09062 94.14082 238.43437 93.23457Q237.77812 92.32832 237.74687 90.51582L237.74687 89.07832Q237.74687 87.1877 238.3875 86.28145Q239.04375 85.35957 240.43437 85.35957Q241.80937 85.35957 242.46562 86.2502Q243.12187 87.1252 243.1375 88.96895L243.1375 90.3752ZM242.04375 88.89082Q242.04375 87.51582 241.65312 86.89082Q241.27812 86.2502 240.43437 86.2502Q239.60625 86.2502 239.21562 86.89082Q238.84062 87.51582 238.84062 88.8127L238.84062 90.54707Q238.84062 91.92207 239.23125 92.59395Q239.6375 93.2502 240.45 93.2502Q241.24687 93.2502 241.6375 92.6252Q242.02812 92.0002 242.04375 90.67207L242.04375 88.89082ZM244.68437 87.1252Q244.68437 86.35957 245.16875 85.85957Q245.66875 85.35957 246.43437 85.35957Q247.21562 85.35957 247.7 85.85957Q248.18437 86.35957 248.18437 87.15645L248.18437 87.57832Q248.18437 88.34395 247.68437 88.84395Q247.2 89.32832 246.45 89.32832Q245.68437 89.32832 245.18437 88.84395Q244.68437 88.34395 244.68437 87.53145L244.68437 87.1252ZM245.49687 87.57832Q245.49687 88.03145 245.74687 88.32832Q246.0125 88.6252 246.45 88.6252Q246.87187 88.6252 247.12187 88.34395Q247.37187 88.04707 247.37187 87.54707L247.37187 87.1252Q247.37187 86.67207 247.12187 86.3752Q246.87187 86.0627 246.43437 86.0627Q245.99687 86.0627 245.74687 86.3752Q245.49687 86.67207 245.49687 87.14082L245.49687 87.57832ZM248.84062 91.92207Q248.84062 91.15645 249.325 90.67207Q249.825 90.17207 250.59062 90.17207Q251.35625 90.17207 251.84062 90.67207Q252.34062 91.15645 252.34062 91.96895L252.34062 92.3752Q252.34062 93.14082 251.85625 93.64082Q251.37187 94.14082 250.60625 94.14082Q249.84062 94.14082 249.34062 93.65645Q248.84062 93.15645 248.84062 92.34395L248.84062 91.92207ZM249.65312 92.3752Q249.65312 92.84395 249.90312 93.14082Q250.16875 93.4377 250.60625 93.4377Q251.02812 93.4377 251.27812 93.15645Q251.52812 92.85957 251.52812 92.35957L251.52812 91.92207Q251.52812 91.45332 251.2625 91.17207Q251.0125 90.8752 250.59062 90.8752Q250.16875 90.8752 249.90312 91.17207Q249.65312 91.45332 249.65312 91.95332L249.65312 92.3752ZM246.7 93.3752L246.075 92.98457L250.24687 86.3127L250.85625 86.70332L246.7 93.3752Z" fill-rule="nonzero"/><path fill="#666666" d="M351.89374 85.48457L351.89374 86.39082L351.6906 86.39082Q350.425 86.42207 349.675 87.15645Q348.925 87.8752 348.8 89.1877Q349.4875 88.42207 350.64374 88.42207Q351.7531 88.42207 352.425 89.20332Q353.09686 89.98457 353.09686 91.23457Q353.09686 92.54707 352.3781 93.34395Q351.65936 94.14082 350.4406 94.14082Q349.22186 94.14082 348.45624 93.20332Q347.70624 92.2502 347.70624 90.76582L347.70624 90.35957Q347.70624 88.0002 348.70624 86.7502Q349.70624 85.5002 351.6906 85.48457L351.89374 85.48457ZM350.47186 89.32832Q349.90936 89.32832 349.4406 89.65645Q348.97186 89.98457 348.78436 90.5002L348.78436 90.89082Q348.78436 91.95332 349.2531 92.59395Q349.7375 93.23457 350.4406 93.23457Q351.175 93.23457 351.59686 92.70332Q352.01874 92.15645 352.01874 91.28145Q352.01874 90.40645 351.59686 89.8752Q351.175 89.32832 350.47186 89.32832ZM359.9875 90.3752Q359.9875 92.28145 359.33124 93.21895Q358.6906 94.14082 357.3 94.14082Q355.9406 94.14082 355.28436 93.23457Q354.6281 92.32832 354.59686 90.51582L354.59686 89.07832Q354.59686 87.1877 355.2375 86.28145Q355.89374 85.35957 357.28436 85.35957Q358.65936 85.35957 359.3156 86.2502Q359.97186 87.1252 359.9875 88.96895L359.9875 90.3752ZM358.89374 88.89082Q358.89374 87.51582 358.5031 86.89082Q358.1281 86.2502 357.28436 86.2502Q356.45624 86.2502 356.0656 86.89082Q355.6906 87.51582 355.6906 88.8127L355.6906 90.54707Q355.6906 91.92207 356.08124 92.59395Q356.4875 93.2502 357.3 93.2502Q358.09686 93.2502 358.4875 92.6252Q358.8781 92.0002 358.89374 90.67207L358.89374 88.89082ZM361.53436 87.1252Q361.53436 86.35957 362.01874 85.85957Q362.51874 85.35957 363.28436 85.35957Q364.0656 85.35957 364.55 85.85957Q365.03436 86.35957 365.03436 87.15645L365.03436 87.57832Q365.03436 88.34395 364.53436 88.84395Q364.05 89.32832 363.3 89.32832Q362.53436 89.32832 362.03436 88.84395Q361.53436 88.34395 361.53436 87.53145L361.53436 87.1252ZM362.34686 87.57832Q362.34686 88.03145 362.59686 88.32832Q362.8625 88.6252 363.3 88.6252Q363.72186 88.6252 363.97186 88.34395Q364.22186 88.04707 364.22186 87.54707L364.22186 87.1252Q364.22186 86.67207 363.97186 86.3752Q363.72186 86.0627 363.28436 86.0627Q362.84686 86.0627 362.59686 86.3752Q362.34686 86.67207 362.34686 87.14082L362.34686 87.57832ZM365.6906 91.92207Q365.6906 91.15645 366.175 90.67207Q366.675 90.17207 367.4406 90.17207Q368.20624 90.17207 368.6906 90.67207Q369.1906 91.15645 369.1906 91.96895L369.1906 92.3752Q369.1906 93.14082 368.70624 93.64082Q368.22186 94.14082 367.45624 94.14082Q366.6906 94.14082 366.1906 93.65645Q365.6906 93.15645 365.6906 92.34395L365.6906 91.92207ZM366.5031 92.3752Q366.5031 92.84395 366.7531 93.14082Q367.01874 93.4377 367.45624 93.4377Q367.8781 93.4377 368.1281 93.15645Q368.3781 92.85957 368.3781 92.35957L368.3781 91.92207Q368.3781 91.45332 368.1125 91.17207Q367.8625 90.8752 367.4406 90.8752Q367.01874 90.8752 366.7531 91.17207Q366.5031 91.45332 366.5031 91.95332L366.5031 92.3752ZM363.55 93.3752L362.925 92.98457L367.09686 86.3127L367.70624 86.70332L363.55 93.3752Z" fill-rule="nonzero"/><path fill="#666666" d="M469.66562 87.70332Q469.66562 88.34395 469.32187 88.84395Q468.97812 89.34395 468.41562 89.6252Q469.07187 89.90645 469.4625 90.46895Q469.85312 91.01582 469.85312 91.71895Q469.85312 92.8127 469.10312 93.48457Q468.36874 94.14082 467.15 94.14082Q465.91562 94.14082 465.16562 93.48457Q464.43124 92.8127 464.43124 91.71895Q464.43124 91.01582 464.80624 90.46895Q465.18124 89.90645 465.85312 89.6252Q465.29062 89.34395 464.9625 88.84395Q464.63437 88.34395 464.63437 87.70332Q464.63437 86.6252 465.32187 86.0002Q466.00937 85.35957 467.15 85.35957Q468.275 85.35957 468.9625 86.0002Q469.66562 86.6252 469.66562 87.70332ZM468.775 91.6877Q468.775 90.96895 468.32187 90.53145Q467.86874 90.07832 467.13437 90.07832Q466.4 90.07832 465.94687 90.53145Q465.50937 90.96895 465.50937 91.70332Q465.50937 92.42207 465.94687 92.84395Q466.38437 93.2502 467.15 93.2502Q467.9 93.2502 468.3375 92.82832Q468.775 92.40645 468.775 91.6877ZM467.15 86.2502Q466.50937 86.2502 466.10312 86.65645Q465.7125 87.04707 465.7125 87.73457Q465.7125 88.3752 466.10312 88.78145Q466.49374 89.1877 467.13437 89.1877Q467.79062 89.1877 468.18124 88.78145Q468.57187 88.3752 468.57187 87.73457Q468.57187 87.07832 468.16562 86.67207Q467.75937 86.2502 467.15 86.2502ZM476.8375 90.3752Q476.8375 92.28145 476.18124 93.21895Q475.54062 94.14082 474.15 94.14082Q472.79062 94.14082 472.13437 93.23457Q471.47812 92.32832 471.44687 90.51582L471.44687 89.07832Q471.44687 87.1877 472.0875 86.28145Q472.74374 85.35957 474.13437 85.35957Q475.50937 85.35957 476.16562 86.2502Q476.82187 87.1252 476.8375 88.96895L476.8375 90.3752ZM475.74374 88.89082Q475.74374 87.51582 475.35312 86.89082Q474.97812 86.2502 474.13437 86.2502Q473.30624 86.2502 472.91562 86.89082Q472.54062 87.51582 472.54062 88.8127L472.54062 90.54707Q472.54062 91.92207 472.93124 92.59395Q473.3375 93.2502 474.15 93.2502Q474.94687 93.2502 475.3375 92.6252Q475.72812 92.0002 475.74374 90.67207L475.74374 88.89082ZM478.38437 87.1252Q478.38437 86.35957 478.86874 85.85957Q479.36874 85.35957 480.13437 85.35957Q480.91562 85.35957 481.4 85.85957Q481.88437 86.35957 481.88437 87.15645L481.88437 87.57832Q481.88437 88.34395 481.38437 88.84395Q480.9 89.32832 480.15 89.32832Q479.38437 89.32832 478.88437 88.84395Q478.38437 88.34395 478.38437 87.53145L478.38437 87.1252ZM479.19687 87.57832Q479.19687 88.03145 479.44687 88.32832Q479.7125 88.6252 480.15 88.6252Q480.57187 88.6252 480.82187 88.34395Q481.07187 88.04707 481.07187 87.54707L481.07187 87.1252Q481.07187 86.67207 480.82187 86.3752Q480.57187 86.0627 480.13437 86.0627Q479.69687 86.0627 479.44687 86.3752Q479.19687 86.67207 479.19687 87.14082L479.19687 87.57832ZM482.54062 91.92207Q482.54062 91.15645 483.025 90.67207Q483.525 90.17207 484.29062 90.17207Q485.05624 90.17207 485.54062 90.67207Q486.04062 91.15645 486.04062 91.96895L486.04062 92.3752Q486.04062 93.14082 485.55624 93.64082Q485.07187 94.14082 484.30624 94.14082Q483.54062 94.14082 483.04062 93.65645Q482.54062 93.15645 482.54062 92.34395L482.54062 91.92207ZM483.35312 92.3752Q483.35312 92.84395 483.60312 93.14082Q483.86874 93.4377 484.30624 93.4377Q484.72812 93.4377 484.97812 93.15645Q485.22812 92.85957 485.22812 92.35957L485.22812 91.92207Q485.22812 91.45332 484.9625 91.17207Q484.7125 90.8752 484.29062 90.8752Q483.86874 90.8752 483.60312 91.17207Q483.35312 91.45332 483.35312 91.95332L483.35312 92.3752ZM480.4 93.3752L479.775 92.98457L483.94687 86.3127L484.55624 86.70332L480.4 93.3752Z" fill-rule="nonzero"/><path fill="#a61c00" d="M182.5 136.98865C182.5 136.43637 182.94771 135.98865 183.5 135.98865L193.5 135.98865C194.05229 135.98865 194.5 136.43637 194.5 136.98865L194.5 146.98865C194.5 147.54094 194.05229 147.98865 193.5 147.98865L183.5 147.98865C182.94771 147.98865 182.5 147.54094 182.5 146.98865Z" fill-rule="nonzero"/><path fill="#666666" d="M203.48438 146.48865L203.48438 137.9574L205.90625 137.9574Q207.01562 137.9574 207.85938 138.4574Q208.71875 138.94177 209.1875 139.84802Q209.65625 140.75427 209.65625 141.94177L209.65625 142.47302Q209.65625 143.69177 209.1875 144.59802Q208.73438 145.50427 207.85938 145.98865Q207.0 146.47302 205.85938 146.48865L203.48438 146.48865ZM204.60938 138.87927L204.60938 145.56677L205.79688 145.56677Q207.09375 145.56677 207.8125 144.7699Q208.54688 143.9574 208.54688 142.4574L208.54688 141.9574Q208.54688 140.50427 207.85938 139.7074Q207.1875 138.8949 205.92188 138.87927L204.60938 138.87927ZM213.95312 146.61365Q212.65625 146.61365 211.84375 145.7699Q211.04688 144.91052 211.04688 143.48865L211.04688 143.30115Q211.04688 142.34802 211.40625 141.61365Q211.76562 140.86365 212.40625 140.4574Q213.0625 140.03552 213.8125 140.03552Q215.04688 140.03552 215.73438 140.84802Q216.42188 141.66052 216.42188 143.17615L216.42188 143.62927L212.125 143.62927Q212.15625 144.56677 212.67188 145.1449Q213.20312 145.72302 214.01562 145.72302Q214.57812 145.72302 214.96875 145.48865Q215.375 145.25427 215.6875 144.86365L216.34375 145.37927Q215.54688 146.61365 213.95312 146.61365ZM213.8125 140.92615Q213.15625 140.92615 212.70312 141.41052Q212.26562 141.87927 212.17188 142.73865L215.34375 142.73865L215.34375 142.66052Q215.29688 141.8324 214.89062 141.37927Q214.5 140.92615 213.8125 140.92615ZM218.79688 138.61365L218.79688 140.1449L219.96875 140.1449L219.96875 140.98865L218.79688 140.98865L218.79688 144.91052Q218.79688 145.30115 218.95312 145.48865Q219.10938 145.67615 219.48438 145.67615Q219.67188 145.67615 220.0 145.61365L220.0 146.48865Q219.57812 146.61365 219.17188 146.61365Q218.45312 146.61365 218.07812 146.17615Q217.70312 145.72302 217.70312 144.91052L217.70312 140.98865L216.54688 140.98865L216.54688 140.1449L217.70312 140.1449L217.70312 138.61365L218.79688 138.61365ZM224.39062 141.11365Q224.14062 141.0824 223.85938 141.0824Q222.78125 141.0824 222.40625 141.98865L222.40625 146.48865L221.32812 146.48865L221.32812 140.1449L222.375 140.1449L222.39062 140.87927Q222.92188 140.03552 223.90625 140.03552Q224.21875 140.03552 224.39062 140.11365L224.39062 141.11365ZM229.23438 146.48865Q229.14062 146.30115 229.07812 145.81677Q228.32812 146.61365 227.28125 146.61365Q226.34375 146.61365 225.73438 146.0824Q225.14062 145.55115 225.14062 144.72302Q225.14062 143.73865 225.89062 143.19177Q226.64062 142.6449 228.01562 142.6449L229.0625 142.6449L229.0625 142.1449Q229.0625 141.5824 228.71875 141.25427Q228.39062 140.91052 227.71875 140.91052Q227.14062 140.91052 226.75 141.2074Q226.35938 141.48865 226.35938 141.91052L225.26562 141.91052Q225.26562 141.42615 225.59375 140.98865Q225.9375 140.55115 226.51562 140.30115Q227.09375 140.03552 227.78125 140.03552Q228.89062 140.03552 229.5 140.5824Q230.125 141.12927 230.15625 142.0824L230.15625 145.00427Q230.15625 145.87927 230.375 146.3949L230.375 146.48865L229.23438 146.48865ZM227.4375 145.66052Q227.95312 145.66052 228.40625 145.3949Q228.85938 145.12927 229.0625 144.7074L229.0625 143.41052L228.21875 143.41052Q226.21875 143.41052 226.21875 144.5824Q226.21875 145.0824 226.5625 145.37927Q226.90625 145.66052 227.4375 145.66052ZM234.85938 145.72302Q235.4375 145.72302 235.875 145.37927Q236.3125 145.0199 236.35938 144.48865L237.39062 144.48865Q237.35938 145.03552 237.0 145.53552Q236.65625 146.0199 236.07812 146.31677Q235.51562 146.61365 234.85938 146.61365Q233.5625 146.61365 232.79688 145.75427Q232.04688 144.87927 232.04688 143.37927L232.04688 143.19177Q232.04688 142.2699 232.375 141.55115Q232.71875 140.8324 233.34375 140.44177Q233.98438 140.03552 234.85938 140.03552Q235.92188 140.03552 236.625 140.67615Q237.34375 141.30115 237.39062 142.3324L236.35938 142.3324Q236.3125 141.7074 235.89062 141.31677Q235.46875 140.92615 234.85938 140.92615Q234.03125 140.92615 233.57812 141.5199Q233.125 142.11365 233.125 143.23865L233.125 143.44177Q233.125 144.53552 233.57812 145.12927Q234.03125 145.72302 234.85938 145.72302ZM239.79688 138.61365L239.79688 140.1449L240.96875 140.1449L240.96875 140.98865L239.79688 140.98865L239.79688 144.91052Q239.79688 145.30115 239.95312 145.48865Q240.10938 145.67615 240.48438 145.67615Q240.67188 145.67615 241.0 145.61365L241.0 146.48865Q240.57812 146.61365 240.17188 146.61365Q239.45312 146.61365 239.07812 146.17615Q238.70312 145.72302 238.70312 144.91052L238.70312 140.98865L237.54688 140.98865L237.54688 140.1449L238.70312 140.1449L238.70312 138.61365L239.79688 138.61365ZM242.03125 143.25427Q242.03125 142.3324 242.39062 141.5824Q242.76562 140.8324 243.42188 140.44177Q244.07812 140.03552 244.90625 140.03552Q246.20312 140.03552 247.0 140.92615Q247.8125 141.81677 247.8125 143.31677L247.8125 143.3949Q247.8125 144.31677 247.45312 145.05115Q247.09375 145.78552 246.4375 146.2074Q245.78125 146.61365 244.92188 146.61365Q243.64062 146.61365 242.82812 145.72302Q242.03125 144.81677 242.03125 143.3324L242.03125 143.25427ZM243.125 143.3949Q243.125 144.44177 243.60938 145.0824Q244.10938 145.72302 244.92188 145.72302Q245.75 145.72302 246.23438 145.0824Q246.71875 144.42615 246.71875 143.25427Q246.71875 142.22302 246.21875 141.5824Q245.73438 140.92615 244.90625 140.92615Q244.10938 140.92615 243.60938 141.56677Q243.125 142.19177 243.125 143.3949ZM252.39062 141.11365Q252.14062 141.0824 251.85938 141.0824Q250.78125 141.0824 250.40625 141.98865L250.40625 146.48865L249.32812 146.48865L249.32812 140.1449L250.375 140.1449L250.39062 140.87927Q250.92188 140.03552 251.90625 140.03552Q252.21875 140.03552 252.39062 140.11365L252.39062 141.11365Z" fill-rule="nonzero"/><path fill="#f1c232" d="M268.5 136.98865C268.5 136.43637 268.94772 135.98865 269.5 135.98865L279.5 135.98865C280.05228 135.98865 280.5 136.43637 280.5 136.98865L280.5 146.98865C280.5 147.54094 280.05228 147.98865 279.5 147.98865L269.5 147.98865C268.94772 147.98865 268.5 147.54094 268.5 146.98865Z" fill-rule="nonzero"/><path fill="#666666" d="M290.60938 143.1449L290.60938 146.48865L289.48438 146.48865L289.48438 137.9574L292.64062 137.9574Q294.03125 137.9574 294.82812 138.67615Q295.625 139.37927 295.625 140.56677Q295.625 141.80115 294.84375 142.47302Q294.07812 143.1449 292.625 143.1449L290.60938 143.1449ZM290.60938 142.22302L292.64062 142.22302Q293.54688 142.22302 294.01562 141.80115Q294.5 141.37927 294.5 140.5824Q294.5 139.81677 294.01562 139.36365Q293.54688 138.8949 292.70312 138.87927L290.60938 138.87927L290.60938 142.22302ZM301.23438 146.48865Q301.14062 146.30115 301.07812 145.81677Q300.32812 146.61365 299.28125 146.61365Q298.34375 146.61365 297.73438 146.0824Q297.14062 145.55115 297.14062 144.72302Q297.14062 143.73865 297.89062 143.19177Q298.64062 142.6449 300.01562 142.6449L301.0625 142.6449L301.0625 142.1449Q301.0625 141.5824 300.71875 141.25427Q300.39062 140.91052 299.71875 140.91052Q299.14062 140.91052 298.75 141.2074Q298.35938 141.48865 298.35938 141.91052L297.26562 141.91052Q297.26562 141.42615 297.59375 140.98865Q297.9375 140.55115 298.51562 140.30115Q299.09375 140.03552 299.78125 140.03552Q300.89062 140.03552 301.5 140.5824Q302.125 141.12927 302.15625 142.0824L302.15625 145.00427Q302.15625 145.87927 302.375 146.3949L302.375 146.48865L301.23438 146.48865ZM299.4375 145.66052Q299.95312 145.66052 300.40625 145.3949Q300.85938 145.12927 301.0625 144.7074L301.0625 143.41052L300.21875 143.41052Q298.21875 143.41052 298.21875 144.5824Q298.21875 145.0824 298.5625 145.37927Q298.90625 145.66052 299.4375 145.66052ZM308.01562 144.80115Q308.01562 144.36365 307.67188 144.12927Q307.34375 143.87927 306.51562 143.7074Q305.70312 143.53552 305.21875 143.28552Q304.73438 143.03552 304.5 142.7074Q304.28125 142.36365 304.28125 141.8949Q304.28125 141.11365 304.9375 140.5824Q305.59375 140.03552 306.625 140.03552Q307.70312 140.03552 308.35938 140.59802Q309.03125 141.1449 309.03125 142.00427L307.95312 142.00427Q307.95312 141.56677 307.5625 141.25427Q307.1875 140.92615 306.625 140.92615Q306.03125 140.92615 305.6875 141.19177Q305.35938 141.44177 305.35938 141.84802Q305.35938 142.23865 305.67188 142.44177Q305.98438 142.6449 306.79688 142.8324Q307.60938 143.00427 308.10938 143.25427Q308.60938 143.50427 308.84375 143.86365Q309.09375 144.22302 309.09375 144.72302Q309.09375 145.5824 308.40625 146.09802Q307.73438 146.61365 306.65625 146.61365Q305.89062 146.61365 305.29688 146.34802Q304.71875 146.06677 304.39062 145.5824Q304.0625 145.09802 304.0625 144.53552L305.14062 144.53552Q305.17188 145.0824 305.57812 145.41052Q305.98438 145.72302 306.65625 145.72302Q307.26562 145.72302 307.64062 145.47302Q308.01562 145.22302 308.01562 144.80115ZM314.01562 144.80115Q314.01562 144.36365 313.67188 144.12927Q313.34375 143.87927 312.51562 143.7074Q311.70312 143.53552 311.21875 143.28552Q310.73438 143.03552 310.5 142.7074Q310.28125 142.36365 310.28125 141.8949Q310.28125 141.11365 310.9375 140.5824Q311.59375 140.03552 312.625 140.03552Q313.70312 140.03552 314.35938 140.59802Q315.03125 141.1449 315.03125 142.00427L313.95312 142.00427Q313.95312 141.56677 313.5625 141.25427Q313.1875 140.92615 312.625 140.92615Q312.03125 140.92615 311.6875 141.19177Q311.35938 141.44177 311.35938 141.84802Q311.35938 142.23865 311.67188 142.44177Q311.98438 142.6449 312.79688 142.8324Q313.60938 143.00427 314.10938 143.25427Q314.60938 143.50427 314.84375 143.86365Q315.09375 144.22302 315.09375 144.72302Q315.09375 145.5824 314.40625 146.09802Q313.73438 146.61365 312.65625 146.61365Q311.89062 146.61365 311.29688 146.34802Q310.71875 146.06677 310.39062 145.5824Q310.0625 145.09802 310.0625 144.53552L311.14062 144.53552Q311.17188 145.0824 311.57812 145.41052Q311.98438 145.72302 312.65625 145.72302Q313.26562 145.72302 313.64062 145.47302Q314.01562 145.22302 314.01562 144.80115ZM317.5 146.48865L316.42188 146.48865L316.42188 140.1449L317.5 140.1449L317.5 146.48865ZM316.32812 138.47302Q316.32812 138.2074 316.48438 138.0199Q316.65625 137.8324 316.96875 137.8324Q317.28125 137.8324 317.4375 138.0199Q317.60938 138.2074 317.60938 138.47302Q317.60938 138.72302 317.4375 138.91052Q317.28125 139.0824 316.96875 139.0824Q316.65625 139.0824 316.48438 138.91052Q316.32812 138.72302 316.32812 138.47302ZM321.40625 145.0199L322.98438 140.1449L324.09375 140.1449L321.8125 146.48865L320.98438 146.48865L318.6875 140.1449L319.79688 140.1449L321.40625 145.0199ZM327.95312 146.61365Q326.65625 146.61365 325.84375 145.7699Q325.04688 144.91052 325.04688 143.48865L325.04688 143.30115Q325.04688 142.34802 325.40625 141.61365Q325.76562 140.86365 326.40625 140.4574Q327.0625 140.03552 327.8125 140.03552Q329.04688 140.03552 329.73438 140.84802Q330.42188 141.66052 330.42188 143.17615L330.42188 143.62927L326.125 143.62927Q326.15625 144.56677 326.67188 145.1449Q327.20312 145.72302 328.01562 145.72302Q328.57812 145.72302 328.96875 145.48865Q329.375 145.25427 329.6875 144.86365L330.34375 145.37927Q329.54688 146.61365 327.95312 146.61365ZM327.8125 140.92615Q327.15625 140.92615 326.70312 141.41052Q326.26562 141.87927 326.17188 142.73865L329.34375 142.73865L329.34375 142.66052Q329.29688 141.8324 328.89062 141.37927Q328.5 140.92615 327.8125 140.92615Z" fill-rule="nonzero"/><path fill="#6aa84f" d="M346.5 136.98865C346.5 136.43637 346.94772 135.98865 347.5 135.98865L357.5 135.98865C358.05228 135.98865 358.5 136.43637 358.5 136.98865L358.5 146.98865C358.5 147.54094 358.05228 147.98865 357.5 147.98865L347.5 147.98865C346.94772 147.98865 346.5 147.54094 346.5 146.98865Z" fill-rule="nonzero"/><path fill="#666666" d="M368.60938 143.1449L368.60938 146.48865L367.48438 146.48865L367.48438 137.9574L370.64062 137.9574Q372.03125 137.9574 372.82812 138.67615Q373.625 139.37927 373.625 140.56677Q373.625 141.80115 372.84375 142.47302Q372.07812 143.1449 370.625 143.1449L368.60938 143.1449ZM368.60938 142.22302L370.64062 142.22302Q371.54688 142.22302 372.01562 141.80115Q372.5 141.37927 372.5 140.5824Q372.5 139.81677 372.01562 139.36365Q371.54688 138.8949 370.70312 138.87927L368.60938 138.87927L368.60938 142.22302ZM378.39062 141.11365Q378.14062 141.0824 377.85938 141.0824Q376.78125 141.0824 376.40625 141.98865L376.40625 146.48865L375.32812 146.48865L375.32812 140.1449L376.375 140.1449L376.39062 140.87927Q376.92188 140.03552 377.90625 140.03552Q378.21875 140.03552 378.39062 140.11365L378.39062 141.11365ZM379.03125 143.25427Q379.03125 142.3324 379.39062 141.5824Q379.76562 140.8324 380.42188 140.44177Q381.07812 140.03552 381.90625 140.03552Q383.20312 140.03552 384.0 140.92615Q384.8125 141.81677 384.8125 143.31677L384.8125 143.3949Q384.8125 144.31677 384.45312 145.05115Q384.09375 145.78552 383.4375 146.2074Q382.78125 146.61365 381.92188 146.61365Q380.64062 146.61365 379.82812 145.72302Q379.03125 144.81677 379.03125 143.3324L379.03125 143.25427ZM380.125 143.3949Q380.125 144.44177 380.60938 145.0824Q381.10938 145.72302 381.92188 145.72302Q382.75 145.72302 383.23438 145.0824Q383.71875 144.42615 383.71875 143.25427Q383.71875 142.22302 383.21875 141.5824Q382.73438 140.92615 381.90625 140.92615Q381.10938 140.92615 380.60938 141.56677Q380.125 142.19177 380.125 143.3949ZM387.34375 140.1449L387.375 140.84802Q388.0625 140.03552 389.25 140.03552Q390.57812 140.03552 391.0625 141.05115Q391.375 140.59802 391.875 140.31677Q392.39062 140.03552 393.07812 140.03552Q395.17188 140.03552 395.20312 142.23865L395.20312 146.48865L394.125 146.48865L394.125 142.30115Q394.125 141.62927 393.8125 141.30115Q393.5 140.9574 392.76562 140.9574Q392.15625 140.9574 391.75 141.31677Q391.35938 141.67615 391.29688 142.28552L391.29688 146.48865L390.21875 146.48865L390.21875 142.3324Q390.21875 140.9574 388.85938 140.9574Q387.79688 140.9574 387.40625 141.86365L387.40625 146.48865L386.3125 146.48865L386.3125 140.1449L387.34375 140.1449ZM397.03125 143.25427Q397.03125 142.3324 397.39062 141.5824Q397.76562 140.8324 398.42188 140.44177Q399.07812 140.03552 399.90625 140.03552Q401.20312 140.03552 402.0 140.92615Q402.8125 141.81677 402.8125 143.31677L402.8125 143.3949Q402.8125 144.31677 402.45312 145.05115Q402.09375 145.78552 401.4375 146.2074Q400.78125 146.61365 399.92188 146.61365Q398.64062 146.61365 397.82812 145.72302Q397.03125 144.81677 397.03125 143.3324L397.03125 143.25427ZM398.125 143.3949Q398.125 144.44177 398.60938 145.0824Q399.10938 145.72302 399.92188 145.72302Q400.75 145.72302 401.23438 145.0824Q401.71875 144.42615 401.71875 143.25427Q401.71875 142.22302 401.21875 141.5824Q400.73438 140.92615 399.90625 140.92615Q399.10938 140.92615 398.60938 141.56677Q398.125 142.19177 398.125 143.3949ZM405.79688 138.61365L405.79688 140.1449L406.96875 140.1449L406.96875 140.98865L405.79688 140.98865L405.79688 144.91052Q405.79688 145.30115 405.95312 145.48865Q406.10938 145.67615 406.48438 145.67615Q406.67188 145.67615 407.0 145.61365L407.0 146.48865Q406.57812 146.61365 406.17188 146.61365Q405.45312 146.61365 405.07812 146.17615Q404.70312 145.72302 404.70312 144.91052L404.70312 140.98865L403.54688 140.98865L403.54688 140.1449L404.70312 140.1449L404.70312 138.61365L405.79688 138.61365ZM410.95312 146.61365Q409.65625 146.61365 408.84375 145.7699Q408.04688 144.91052 408.04688 143.48865L408.04688 143.30115Q408.04688 142.34802 408.40625 141.61365Q408.76562 140.86365 409.40625 140.4574Q410.0625 140.03552 410.8125 140.03552Q412.04688 140.03552 412.73438 140.84802Q413.42188 141.66052 413.42188 143.17615L413.42188 143.62927L409.125 143.62927Q409.15625 144.56677 409.67188 145.1449Q410.20312 145.72302 411.01562 145.72302Q411.57812 145.72302 411.96875 145.48865Q412.375 145.25427 412.6875 144.86365L413.34375 145.37927Q412.54688 146.61365 410.95312 146.61365ZM410.8125 140.92615Q410.15625 140.92615 409.70312 141.41052Q409.26562 141.87927 409.17188 142.73865L412.34375 142.73865L412.34375 142.66052Q412.29688 141.8324 411.89062 141.37927Q411.5 140.92615 410.8125 140.92615ZM417.39062 141.11365Q417.14062 141.0824 416.85938 141.0824Q415.78125 141.0824 415.40625 141.98865L415.40625 146.48865L414.32812 146.48865L414.32812 140.1449L415.375 140.1449L415.39062 140.87927Q415.92188 140.03552 416.90625 140.03552Q417.21875 140.03552 417.39062 140.11365L417.39062 141.11365Z" fill-rule="nonzero"/><path fill="#666666" d="M16.6625 20.033249L15.334375 20.033249L10.31875 12.361374L10.31875 20.033249L9.00625 20.033249L9.00625 10.080124L10.31875 10.080124L15.35 17.783249L15.35 10.080124L16.6625 10.080124L16.6625 20.033249ZM20.31875 16.142624L20.31875 20.033249L19.00625 20.033249L19.00625 10.080124L22.678125 10.080124Q24.303125 10.080124 25.225 10.923874Q26.1625 11.751999 26.1625 13.126999Q26.1625 14.564499 25.25625 15.361374Q24.35 16.142624 22.6625 16.142624L20.31875 16.142624ZM20.31875 15.064499L22.678125 15.064499Q23.725 15.064499 24.2875 14.564499Q24.85 14.064499 24.85 13.142624Q24.85 12.251999 24.2875 11.720749Q23.725 11.173874 22.75625 11.158249L20.31875 11.158249L20.31875 15.064499ZM30.94375 15.595749Q29.25625 15.111374 28.475 14.408249Q27.709375 13.689499 27.709375 12.658249Q27.709375 11.486374 28.646875 10.720749Q29.584375 9.939499 31.1 9.939499Q32.115623 9.939499 32.9125 10.345749Q33.725 10.736374 34.1625 11.439499Q34.615623 12.126999 34.615623 12.955124L33.2875 12.955124Q33.2875 12.048874 32.709373 11.533249Q32.146873 11.017624 31.1 11.017624Q30.13125 11.017624 29.584375 11.455124Q29.0375 11.876999 29.0375 12.642624Q29.0375 13.251999 29.553125 13.673874Q30.06875 14.080124 31.303125 14.439499Q32.553123 14.783249 33.25625 15.205124Q33.959373 15.626999 34.2875 16.189499Q34.63125 16.751999 34.63125 17.501999Q34.63125 18.720749 33.678123 19.455124Q32.740623 20.173874 31.1625 20.173874Q30.13125 20.173874 29.240625 19.783249Q28.365625 19.376999 27.88125 18.705124Q27.396875 18.017624 27.396875 17.142624L28.709375 17.142624Q28.709375 18.048874 29.38125 18.580124Q30.053125 19.095749 31.1625 19.095749Q32.209373 19.095749 32.75625 18.673874Q33.303123 18.251999 33.303123 17.517624Q33.303123 16.783249 32.7875 16.392624Q32.2875 15.986374 30.94375 15.595749ZM39.00625 20.033249L39.00625 10.080124L41.81875 10.080124Q43.115623 10.080124 44.115623 10.658249Q45.115623 11.220749 45.646873 12.283249Q46.19375 13.345749 46.209373 14.720749L46.209373 15.361374Q46.209373 16.767624 45.6625 17.830124Q45.115623 18.876999 44.1 19.455124Q43.1 20.017624 41.75625 20.033249L39.00625 20.033249ZM40.31875 11.158249L40.31875 18.955124L41.69375 18.955124Q43.209373 18.955124 44.053123 18.017624Q44.9125 17.080124 44.9125 15.330124L44.9125 14.751999Q44.9125 13.048874 44.115623 12.111374Q43.31875 11.173874 41.85 11.158249L40.31875 11.158249ZM49.178123 20.033249L47.9125 20.033249L47.9125 12.642624L49.178123 12.642624L49.178123 20.033249ZM47.81875 10.673874Q47.81875 10.361374 48.00625 10.158249Q48.19375 9.939499 48.553123 9.939499Q48.928123 9.939499 49.115623 10.158249Q49.31875 10.361374 49.31875 10.673874Q49.31875 10.986374 49.115623 11.189499Q48.928123 11.392624 48.553123 11.392624Q48.19375 11.392624 48.00625 11.189499Q47.81875 10.986374 47.81875 10.673874ZM55.115623 18.064499Q55.115623 17.564499 54.725 17.283249Q54.334373 16.986374 53.38125 16.783249Q52.428123 16.580124 51.85 16.298874Q51.2875 16.001999 51.021873 15.611374Q50.75625 15.220749 50.75625 14.673874Q50.75625 13.751999 51.521873 13.126999Q52.2875 12.501999 53.490623 12.501999Q54.740623 12.501999 55.521873 13.158249Q56.303123 13.798874 56.303123 14.814499L55.0375 14.814499Q55.0375 14.283249 54.6 13.908249Q54.1625 13.533249 53.490623 13.533249Q52.803123 13.533249 52.4125 13.845749Q52.021873 14.142624 52.021873 14.626999Q52.021873 15.080124 52.38125 15.314499Q52.740623 15.548874 53.678123 15.767624Q54.63125 15.970749 55.225 16.267624Q55.81875 16.564499 56.1 16.986374Q56.38125 17.392624 56.38125 17.986374Q56.38125 18.970749 55.584373 19.580124Q54.7875 20.173874 53.521873 20.173874Q52.646873 20.173874 51.959373 19.861374Q51.271873 19.533249 50.88125 18.970749Q50.50625 18.408249 50.50625 17.751999L51.771873 17.751999Q51.803123 18.392624 52.271873 18.767624Q52.75625 19.142624 53.521873 19.142624Q54.240623 19.142624 54.678123 18.845749Q55.115623 18.548874 55.115623 18.064499ZM59.521873 10.845749L59.521873 12.642624L60.896873 12.642624L60.896873 13.611374L59.521873 13.611374L59.521873 18.205124Q59.521873 18.642624 59.709373 18.876999Q59.896873 19.095749 60.334373 19.095749Q60.553123 19.095749 60.94375 19.001999L60.94375 20.033249Q60.44375 20.173874 59.975 20.173874Q59.115623 20.173874 58.678123 19.658249Q58.25625 19.142624 58.25625 18.205124L58.25625 13.611374L56.9125 13.611374L56.9125 12.642624L58.25625 12.642624L58.25625 10.845749L59.521873 10.845749ZM66.38125 13.767624Q66.1 13.720749 65.75625 13.720749Q64.52187 13.720749 64.06875 14.783249L64.06875 20.033249L62.803123 20.033249L62.803123 12.642624L64.0375 12.642624L64.05312 13.486374Q64.67812 12.501999 65.81875 12.501999Q66.19375 12.501999 66.38125 12.595749L66.38125 13.767624ZM69.17812 20.033249L67.9125 20.033249L67.9125 12.642624L69.17812 12.642624L69.17812 20.033249ZM67.81875 10.673874Q67.81875 10.361374 68.00625 10.158249Q68.19375 9.939499 68.55312 9.939499Q68.92812 9.939499 69.11562 10.158249Q69.31875 10.361374 69.31875 10.673874Q69.31875 10.986374 69.11562 11.189499Q68.92812 11.392624 68.55312 11.392624Q68.19375 11.392624 68.00625 11.189499Q67.81875 10.986374 67.81875 10.673874ZM77.06875 16.423874Q77.06875 18.111374 76.2875 19.142624Q75.50625 20.173874 74.19375 20.173874Q72.80312 20.173874 72.0375 19.173874L71.975 20.033249L70.80312 20.033249L70.80312 9.533249L72.06875 9.533249L72.06875 13.455124Q72.83437 12.501999 74.17812 12.501999Q75.5375 12.501999 76.30312 13.517624Q77.06875 14.533249 77.06875 16.314499L77.06875 16.423874ZM75.80312 16.267624Q75.80312 14.986374 75.30312 14.283249Q74.80312 13.580124 73.86562 13.580124Q72.61562 13.580124 72.06875 14.736374L72.06875 17.939499Q72.64687 19.095749 73.88125 19.095749Q74.7875 19.095749 75.2875 18.392624Q75.80312 17.689499 75.80312 16.267624ZM83.38125 19.298874Q82.63125 20.173874 81.20937 20.173874Q80.02187 20.173874 79.39687 19.486374Q78.7875 18.798874 78.7875 17.455124L78.7875 12.642624L80.0375 12.642624L80.0375 17.408249Q80.0375 19.095749 81.4125 19.095749Q82.86562 19.095749 83.33437 18.017624L83.33437 12.642624L84.6 12.642624L84.6 20.033249L83.39687 20.033249L83.38125 19.298874ZM88.52187 10.845749L88.52187 12.642624L89.89687 12.642624L89.89687 13.611374L88.52187 13.611374L88.52187 18.205124Q88.52187 18.642624 88.70937 18.876999Q88.89687 19.095749 89.33437 19.095749Q89.55312 19.095749 89.94375 19.001999L89.94375 20.033249Q89.44375 20.173874 88.975 20.173874Q88.11562 20.173874 87.67812 19.658249Q87.25625 19.142624 87.25625 18.205124L87.25625 13.611374L85.9125 13.611374L85.9125 12.642624L87.25625 12.642624L87.25625 10.845749L88.52187 10.845749ZM93.17812 20.033249L91.9125 20.033249L91.9125 12.642624L93.17812 12.642624L93.17812 20.033249ZM91.81875 10.673874Q91.81875 10.361374 92.00625 10.158249Q92.19375 9.939499 92.55312 9.939499Q92.92812 9.939499 93.11562 10.158249Q93.31875 10.361374 93.31875 10.673874Q93.31875 10.986374 93.11562 11.189499Q92.92812 11.392624 92.55312 11.392624Q92.19375 11.392624 92.00625 11.189499Q91.81875 10.986374 91.81875 10.673874ZM94.475 16.267624Q94.475 15.173874 94.89687 14.314499Q95.33437 13.439499 96.08437 12.970749Q96.85 12.501999 97.83437 12.501999Q99.33437 12.501999 100.27187 13.548874Q101.20937 14.595749 101.20937 16.330124L101.20937 16.423874Q101.20937 17.501999 100.7875 18.361374Q100.38125 19.205124 99.6 19.689499Q98.83437 20.173874 97.85 20.173874Q96.33437 20.173874 95.39687 19.126999Q94.475 18.080124 94.475 16.361374L94.475 16.267624ZM95.74062 16.423874Q95.74062 17.642624 96.30312 18.392624Q96.88125 19.142624 97.85 19.142624Q98.80312 19.142624 99.36562 18.392624Q99.94375 17.626999 99.94375 16.267624Q99.94375 15.048874 99.36562 14.298874Q98.7875 13.533249 97.83437 13.533249Q96.89687 13.533249 96.31875 14.283249Q95.74062 15.033249 95.74062 16.423874ZM104.00625 12.642624L104.0375 13.564499Q104.89687 12.501999 106.25625 12.501999Q108.6 12.501999 108.63125 15.142624L108.63125 20.033249L107.36562 20.033249L107.36562 15.142624Q107.35 14.345749 106.99062 13.970749Q106.63125 13.580124 105.88125 13.580124Q105.25625 13.580124 104.7875 13.908249Q104.33437 14.236374 104.06875 14.767624L104.06875 20.033249L102.80312 20.033249L102.80312 12.642624L104.00625 12.642624Z" fill-rule="nonzero"/></svg>