<?xml version="1.0" standalone="no"?>
<!DOCTYPE svg PUBLIC "-//W3C//DTD SVG 1.1//EN" 
  "http://www.w3.org/Graphics/SVG/1.1/DTD/svg11.dtd">
<svg width="60.00em" height="20.00em" version="1.1"
     xmlns="http://www.w3.org/2000/svg">
  <defs>
    <style type="text/css"><![CDATA[
      svg {
        font-family: "Helvetica Neue", Arial, sans-serif; /* Helvetica on Mac aka sans-serif has broken U+2007 */
      }
      tspan.size {
        font-size: 0.80em;
      }
      tspan.head {
        font-weight: bold;
      }
      tspan.paren {
        font-weight: normal !important;
      }
    ]]></style>
  </defs>
<text x="0.00em" y="1.20em" class="head"><tspan class="size">I work in the following areas: <tspan class="paren">(multiple choice)</tspan></tspan></text>
<rect x="7.25em" y="2.10em" width="6.32em" height="0.60em" stroke="#0000ff" fill="#0000ff"/>
<text x="6.75em" y="2.70em" text-anchor="end"><tspan class="size">2,272 (63%)</tspan></text>
<text x="14.07em" y="2.70em"><tspan class="size">Web development</tspan></text>
<rect x="7.25em" y="3.30em" width="3.78em" height="0.60em" stroke="#0000ff" fill="#0000ff"/>
<text x="6.75em" y="3.90em" text-anchor="end"><tspan class="size">1,359 (38%)</tspan></text>
<text x="11.53em" y="3.90em"><tspan class="size">Systems programming</tspan></text>
<rect x="7.25em" y="4.50em" width="3.48em" height="0.60em" stroke="#0000ff" fill="#0000ff"/>
<text x="6.75em" y="5.10em" text-anchor="end"><tspan class="size">1,251 (35%)</tspan></text>
<text x="11.23em" y="5.10em"><tspan class="size">DevOps</tspan></text>
<rect x="7.25em" y="5.70em" width="3.25em" height="0.60em" stroke="#0000ff" fill="#0000ff"/>
<text x="6.75em" y="6.30em" text-anchor="end"><tspan class="size">1,169 (33%)</tspan></text>
<text x="11.00em" y="6.30em"><tspan class="size">Network programming</tspan></text>
<rect x="7.25em" y="6.90em" width="2.80em" height="0.60em" stroke="#0000ff" fill="#0000ff"/>
<text x="6.75em" y="7.50em" text-anchor="end"><tspan class="size">1,006 (28%)</tspan></text>
<text x="10.55em" y="7.50em"><tspan class="size">Databases</tspan></text>
<rect x="7.25em" y="8.10em" width="1.48em" height="0.60em" stroke="#0000ff" fill="#0000ff"/>
<text x="6.75em" y="8.70em" text-anchor="end"><tspan class="size">533 (15%)</tspan></text>
<text x="9.23em" y="8.70em"><tspan class="size">Mobile</tspan></text>
<rect x="7.25em" y="9.30em" width="1.36em" height="0.60em" stroke="#0000ff" fill="#0000ff"/>
<text x="6.75em" y="9.90em" text-anchor="end"><tspan class="size">490 (14%)</tspan></text>
<text x="9.11em" y="9.90em"><tspan class="size">Desktop/GUI applications</tspan></text>
<rect x="7.25em" y="10.50em" width="1.27em" height="0.60em" stroke="#0000ff" fill="#0000ff"/>
<text x="6.75em" y="11.10em" text-anchor="end"><tspan class="size">457 (13%)</tspan></text>
<text x="9.02em" y="11.10em"><tspan class="size">Security</tspan></text>
<rect x="7.25em" y="11.70em" width="1.21em" height="0.60em" stroke="#0000ff" fill="#0000ff"/>
<text x="6.75em" y="12.30em" text-anchor="end"><tspan class="size">435 (12%)</tspan></text>
<text x="8.96em" y="12.30em"><tspan class="size">Data Science</tspan></text>
<rect x="7.25em" y="12.90em" width="1.16em" height="0.60em" stroke="#0000ff" fill="#0000ff"/>
<text x="6.75em" y="13.50em" text-anchor="end"><tspan class="size">417 (12%)</tspan></text>
<text x="8.91em" y="13.50em"><tspan class="size">Finance/Commerce</tspan></text>
<rect x="7.25em" y="14.10em" width="1.10em" height="0.60em" stroke="#0000ff" fill="#0000ff"/>
<text x="6.75em" y="14.70em" text-anchor="end"><tspan class="size">394 (11%)</tspan></text>
<text x="8.85em" y="14.70em"><tspan class="size">Embedded devices/Internet of Things</tspan></text>
<rect x="7.25em" y="15.30em" width="1.05em" height="0.60em" stroke="#0000ff" fill="#0000ff"/>
<text x="6.75em" y="15.90em" text-anchor="end"><tspan class="size">379 (11%)</tspan></text>
<text x="8.80em" y="15.90em"><tspan class="size">Academic/Scientific/Numeric</tspan></text>
<rect x="7.25em" y="16.50em" width="0.63em" height="0.60em" stroke="#0000ff" fill="#0000ff"/>
<text x="6.75em" y="17.10em" text-anchor="end"><tspan class="size">228  (6%)</tspan></text>
<text x="8.38em" y="17.10em"><tspan class="size">Gaming</tspan></text>
<rect x="7.25em" y="17.70em" width="0.66em" height="0.60em" stroke="#777777" fill="#777777"/>
<text x="6.75em" y="18.30em" text-anchor="end"><tspan class="size">238  (7%)</tspan></text>
<text x="8.41em" y="18.30em"><tspan class="size">Other</tspan></text>
<rect x="7.25em" y="18.90em" width="0.21em" height="0.60em" stroke="black" fill="white"/>
<text x="6.75em" y="19.50em" text-anchor="end"><tspan class="size">74  (2%)</tspan></text>
<text x="7.96em" y="19.50em"><tspan class="size">No response</tspan></text>
</svg>
