<?xml version="1.0" standalone="no"?>
<!DOCTYPE svg PUBLIC "-//W3C//DTD SVG 1.1//EN" 
  "http://www.w3.org/Graphics/SVG/1.1/DTD/svg11.dtd">
<svg width="60.00em" height="26.00em" version="1.1"
     xmlns="http://www.w3.org/2000/svg">
  <defs>
    <style type="text/css"><![CDATA[
      svg {
        font-family: "Helvetica Neue", Arial, sans-serif; /* Helvetica on Mac aka sans-serif has broken U+2007 */
      }
      tspan.size {
        font-size: 0.80em;
      }
      tspan.head {
        font-weight: bold;
      }
      tspan.paren {
        font-weight: normal !important;
      }
    ]]></style>
  </defs>
<text x="0.00em" y="1.20em" class="head"><tspan class="size">What one addition would make the biggest improvement to Go editing in your preferred editor?</tspan></text>
<rect x="7.25em" y="2.10em" width="0.50em" height="0.60em" stroke="#0000ff" fill="#0000ff"/>
<text x="6.75em" y="2.70em" text-anchor="end"><tspan class="size">180 (5.0%)</tspan></text>
<text x="8.25em" y="2.70em"><tspan class="size">debugging</tspan></text>
<rect x="7.25em" y="3.30em" width="0.38em" height="0.60em" stroke="#0000ff" fill="#0000ff"/>
<text x="6.75em" y="3.90em" text-anchor="end"><tspan class="size">136 (3.8%)</tspan></text>
<text x="8.13em" y="3.90em"><tspan class="size">debugger</tspan></text>
<rect x="7.25em" y="4.50em" width="0.32em" height="0.60em" stroke="#0000ff" fill="#0000ff"/>
<text x="6.75em" y="5.10em" text-anchor="end"><tspan class="size">116 (3.2%)</tspan></text>
<text x="8.07em" y="5.10em"><tspan class="size">refactoring</tspan></text>
<rect x="7.25em" y="5.70em" width="0.22em" height="0.60em" stroke="#0000ff" fill="#0000ff"/>
<text x="6.75em" y="6.30em" text-anchor="end"><tspan class="size">79 (2.2%)</tspan></text>
<text x="7.97em" y="6.30em"><tspan class="size">integration</tspan></text>
<rect x="7.25em" y="6.90em" width="0.20em" height="0.60em" stroke="#0000ff" fill="#0000ff"/>
<text x="6.75em" y="7.50em" text-anchor="end"><tspan class="size">72 (2.0%)</tspan></text>
<text x="7.95em" y="7.50em"><tspan class="size">tools</tspan></text>
<rect x="7.25em" y="8.10em" width="0.19em" height="0.60em" stroke="#0000ff" fill="#0000ff"/>
<text x="6.75em" y="8.70em" text-anchor="end"><tspan class="size">68 (1.9%)</tspan></text>
<text x="7.94em" y="8.70em"><tspan class="size">completion</tspan></text>
<rect x="7.25em" y="9.30em" width="0.16em" height="0.60em" stroke="#0000ff" fill="#0000ff"/>
<text x="6.75em" y="9.90em" text-anchor="end"><tspan class="size">58 (1.6%)</tspan></text>
<text x="7.91em" y="9.90em"><tspan class="size">editor</tspan></text>
<rect x="7.25em" y="10.50em" width="0.13em" height="0.60em" stroke="#0000ff" fill="#0000ff"/>
<text x="6.75em" y="11.10em" text-anchor="end"><tspan class="size">46 (1.3%)</tspan></text>
<text x="7.88em" y="11.10em"><tspan class="size">debug</tspan></text>
<rect x="7.25em" y="11.70em" width="0.12em" height="0.60em" stroke="#0000ff" fill="#0000ff"/>
<text x="6.75em" y="12.30em" text-anchor="end"><tspan class="size">43 (1.2%)</tspan></text>
<text x="7.87em" y="12.30em"><tspan class="size">code completion</tspan></text>
<rect x="7.25em" y="12.90em" width="0.12em" height="0.60em" stroke="#0000ff" fill="#0000ff"/>
<text x="6.75em" y="13.50em" text-anchor="end"><tspan class="size">43 (1.2%)</tspan></text>
<text x="7.87em" y="13.50em"><tspan class="size">work</tspan></text>
<rect x="7.25em" y="14.10em" width="0.11em" height="0.60em" stroke="#0000ff" fill="#0000ff"/>
<text x="6.75em" y="14.70em" text-anchor="end"><tspan class="size">41 (1.1%)</tspan></text>
<text x="7.86em" y="14.70em"><tspan class="size">vim</tspan></text>
<rect x="7.25em" y="15.30em" width="0.11em" height="0.60em" stroke="#0000ff" fill="#0000ff"/>
<text x="6.75em" y="15.90em" text-anchor="end"><tspan class="size">40 (1.1%)</tspan></text>
<text x="7.86em" y="15.90em"><tspan class="size">autocomplete</tspan></text>
<rect x="7.25em" y="16.50em" width="0.11em" height="0.60em" stroke="#0000ff" fill="#0000ff"/>
<text x="6.75em" y="17.10em" text-anchor="end"><tspan class="size">40 (1.1%)</tspan></text>
<text x="7.86em" y="17.10em"><tspan class="size">vscode</tspan></text>
<rect x="7.25em" y="17.70em" width="0.10em" height="0.60em" stroke="#0000ff" fill="#0000ff"/>
<text x="6.75em" y="18.30em" text-anchor="end"><tspan class="size">37 (1.0%)</tspan></text>
<text x="7.85em" y="18.30em"><tspan class="size">package</tspan></text>
<rect x="7.25em" y="18.90em" width="0.10em" height="0.60em" stroke="#0000ff" fill="#0000ff"/>
<text x="6.75em" y="19.50em" text-anchor="end"><tspan class="size">37 (1.0%)</tspan></text>
<text x="7.85em" y="19.50em"><tspan class="size">plugin</tspan></text>
<rect x="7.25em" y="20.10em" width="0.10em" height="0.60em" stroke="#0000ff" fill="#0000ff"/>
<text x="6.75em" y="20.70em" text-anchor="end"><tspan class="size">36 (1.0%)</tspan></text>
<text x="7.85em" y="20.70em"><tspan class="size">definition</tspan></text>
<rect x="7.25em" y="21.30em" width="0.10em" height="0.60em" stroke="#0000ff" fill="#0000ff"/>
<text x="6.75em" y="21.90em" text-anchor="end"><tspan class="size">36 (1.0%)</tspan></text>
<text x="7.85em" y="21.90em"><tspan class="size">easier</tspan></text>
<rect x="7.25em" y="22.50em" width="0.10em" height="0.60em" stroke="#0000ff" fill="#0000ff"/>
<text x="6.75em" y="23.10em" text-anchor="end"><tspan class="size">36 (1.0%)</tspan></text>
<text x="7.85em" y="23.10em"><tspan class="size">good</tspan></text>
<rect x="7.25em" y="23.70em" width="0.10em" height="0.60em" stroke="#0000ff" fill="#0000ff"/>
<text x="6.75em" y="24.30em" text-anchor="end"><tspan class="size">36 (1.0%)</tspan></text>
<text x="7.85em" y="24.30em"><tspan class="size">ide</tspan></text>
<rect x="7.25em" y="24.90em" width="0.10em" height="0.60em" stroke="#0000ff" fill="#0000ff"/>
<text x="6.75em" y="25.50em" text-anchor="end"><tspan class="size">36 (1.0%)</tspan></text>
<text x="7.85em" y="25.50em"><tspan class="size">intellij</tspan></text>
<rect x="22.25em" y="2.10em" width="0.10em" height="0.60em" stroke="#0000ff" fill="#0000ff"/>
<text x="21.75em" y="2.70em" text-anchor="end"><tspan class="size">35 (1.0%)</tspan></text>
<text x="22.85em" y="2.70em"><tspan class="size">faster</tspan></text>
<rect x="22.25em" y="3.30em" width="0.10em" height="0.60em" stroke="#0000ff" fill="#0000ff"/>
<text x="21.75em" y="3.90em" text-anchor="end"><tspan class="size">35 (1.0%)</tspan></text>
<text x="22.85em" y="3.90em"><tspan class="size">function</tspan></text>
<rect x="22.25em" y="4.50em" width="0.09em" height="0.60em" stroke="#0000ff" fill="#0000ff"/>
<text x="21.75em" y="5.10em" text-anchor="end"><tspan class="size">34 (0.9%)</tspan></text>
<text x="22.84em" y="5.10em"><tspan class="size">atom</tspan></text>
<rect x="22.25em" y="5.70em" width="0.09em" height="0.60em" stroke="#0000ff" fill="#0000ff"/>
<text x="21.75em" y="6.30em" text-anchor="end"><tspan class="size">34 (0.9%)</tspan></text>
<text x="22.84em" y="6.30em"><tspan class="size">interface</tspan></text>
<rect x="22.25em" y="6.90em" width="0.09em" height="0.60em" stroke="#0000ff" fill="#0000ff"/>
<text x="21.75em" y="7.50em" text-anchor="end"><tspan class="size">33 (0.9%)</tspan></text>
<text x="22.84em" y="7.50em"><tspan class="size">vim-go</tspan></text>
<rect x="22.25em" y="8.10em" width="0.09em" height="0.60em" stroke="#0000ff" fill="#0000ff"/>
<text x="21.75em" y="8.70em" text-anchor="end"><tspan class="size">32 (0.9%)</tspan></text>
<text x="22.84em" y="8.70em"><tspan class="size">gopath</tspan></text>
<rect x="22.25em" y="9.30em" width="0.09em" height="0.60em" stroke="#0000ff" fill="#0000ff"/>
<text x="21.75em" y="9.90em" text-anchor="end"><tspan class="size">31 (0.9%)</tspan></text>
<text x="22.84em" y="9.90em"><tspan class="size">integrated</tspan></text>
<rect x="22.25em" y="10.50em" width="0.08em" height="0.60em" stroke="#0000ff" fill="#0000ff"/>
<text x="21.75em" y="11.10em" text-anchor="end"><tspan class="size">30 (0.8%)</tspan></text>
<text x="22.83em" y="11.10em"><tspan class="size">working</tspan></text>
<rect x="22.25em" y="11.70em" width="0.08em" height="0.60em" stroke="#0000ff" fill="#0000ff"/>
<text x="21.75em" y="12.30em" text-anchor="end"><tspan class="size">29 (0.8%)</tspan></text>
<text x="22.83em" y="12.30em"><tspan class="size">auto</tspan></text>
<rect x="22.25em" y="12.90em" width="0.08em" height="0.60em" stroke="#0000ff" fill="#0000ff"/>
<text x="21.75em" y="13.50em" text-anchor="end"><tspan class="size">28 (0.8%)</tspan></text>
<text x="22.83em" y="13.50em"><tspan class="size">refactoring support</tspan></text>
<rect x="22.25em" y="14.10em" width="0.08em" height="0.60em" stroke="#0000ff" fill="#0000ff"/>
<text x="21.75em" y="14.70em" text-anchor="end"><tspan class="size">27 (0.8%)</tspan></text>
<text x="22.83em" y="14.70em"><tspan class="size">delve</tspan></text>
<rect x="22.25em" y="15.30em" width="0.08em" height="0.60em" stroke="#0000ff" fill="#0000ff"/>
<text x="21.75em" y="15.90em" text-anchor="end"><tspan class="size">27 (0.8%)</tspan></text>
<text x="22.83em" y="15.90em"><tspan class="size">type</tspan></text>
<rect x="22.25em" y="16.50em" width="0.07em" height="0.60em" stroke="#0000ff" fill="#0000ff"/>
<text x="21.75em" y="17.10em" text-anchor="end"><tspan class="size">26 (0.7%)</tspan></text>
<text x="22.82em" y="17.10em"><tspan class="size">guru</tspan></text>
<rect x="22.25em" y="17.70em" width="0.07em" height="0.60em" stroke="#0000ff" fill="#0000ff"/>
<text x="21.75em" y="18.30em" text-anchor="end"><tspan class="size">26 (0.7%)</tspan></text>
<text x="22.82em" y="18.30em"><tspan class="size">syntax</tspan></text>
<rect x="22.25em" y="18.90em" width="0.07em" height="0.60em" stroke="#0000ff" fill="#0000ff"/>
<text x="21.75em" y="19.50em" text-anchor="end"><tspan class="size">25 (0.7%)</tspan></text>
<text x="22.82em" y="19.50em"><tspan class="size">error</tspan></text>
<rect x="22.25em" y="20.10em" width="0.07em" height="0.60em" stroke="#0000ff" fill="#0000ff"/>
<text x="21.75em" y="20.70em" text-anchor="end"><tspan class="size">25 (0.7%)</tspan></text>
<text x="22.82em" y="20.70em"><tspan class="size">method</tspan></text>
<rect x="22.25em" y="21.30em" width="0.07em" height="0.60em" stroke="#0000ff" fill="#0000ff"/>
<text x="21.75em" y="21.90em" text-anchor="end"><tspan class="size">25 (0.7%)</tspan></text>
<text x="22.82em" y="21.90em"><tspan class="size">packages</tspan></text>
<rect x="22.25em" y="22.50em" width="0.07em" height="0.60em" stroke="#0000ff" fill="#0000ff"/>
<text x="21.75em" y="23.10em" text-anchor="end"><tspan class="size">25 (0.7%)</tspan></text>
<text x="22.82em" y="23.10em"><tspan class="size">plugins</tspan></text>
<rect x="22.25em" y="23.70em" width="0.07em" height="0.60em" stroke="#0000ff" fill="#0000ff"/>
<text x="21.75em" y="24.30em" text-anchor="end"><tspan class="size">24 (0.7%)</tspan></text>
<text x="22.82em" y="24.30em"><tspan class="size">compile</tspan></text>
<rect x="22.25em" y="24.90em" width="0.07em" height="0.60em" stroke="#0000ff" fill="#0000ff"/>
<text x="21.75em" y="25.50em" text-anchor="end"><tspan class="size">24 (0.7%)</tspan></text>
<text x="22.82em" y="25.50em"><tspan class="size">jump</tspan></text>
<rect x="37.25em" y="2.10em" width="0.06em" height="0.60em" stroke="#0000ff" fill="#0000ff"/>
<text x="36.75em" y="2.70em" text-anchor="end"><tspan class="size">23 (0.6%)</tspan></text>
<text x="37.81em" y="2.70em"><tspan class="size">features</tspan></text>
<rect x="37.25em" y="3.30em" width="0.06em" height="0.60em" stroke="#0000ff" fill="#0000ff"/>
<text x="36.75em" y="3.90em" text-anchor="end"><tspan class="size">23 (0.6%)</tspan></text>
<text x="37.81em" y="3.90em"><tspan class="size">find</tspan></text>
<rect x="37.25em" y="4.50em" width="0.06em" height="0.60em" stroke="#0000ff" fill="#0000ff"/>
<text x="36.75em" y="5.10em" text-anchor="end"><tspan class="size">23 (0.6%)</tspan></text>
<text x="37.81em" y="5.10em"><tspan class="size">goimports</tspan></text>
<rect x="37.25em" y="5.70em" width="0.06em" height="0.60em" stroke="#0000ff" fill="#0000ff"/>
<text x="36.75em" y="6.30em" text-anchor="end"><tspan class="size">23 (0.6%)</tspan></text>
<text x="37.81em" y="6.30em"><tspan class="size">navigation</tspan></text>
<rect x="37.25em" y="6.90em" width="0.06em" height="0.60em" stroke="#0000ff" fill="#0000ff"/>
<text x="36.75em" y="7.50em" text-anchor="end"><tspan class="size">23 (0.6%)</tspan></text>
<text x="37.81em" y="7.50em"><tspan class="size">performance</tspan></text>
<rect x="37.25em" y="8.10em" width="0.06em" height="0.60em" stroke="#0000ff" fill="#0000ff"/>
<text x="36.75em" y="8.70em" text-anchor="end"><tspan class="size">23 (0.6%)</tspan></text>
<text x="37.81em" y="8.70em"><tspan class="size">refactoring tools</tspan></text>
<rect x="37.25em" y="9.30em" width="0.06em" height="0.60em" stroke="#0000ff" fill="#0000ff"/>
<text x="36.75em" y="9.90em" text-anchor="end"><tspan class="size">23 (0.6%)</tspan></text>
<text x="37.81em" y="9.90em"><tspan class="size">works</tspan></text>
<rect x="37.25em" y="10.50em" width="0.06em" height="0.60em" stroke="#0000ff" fill="#0000ff"/>
<text x="36.75em" y="11.10em" text-anchor="end"><tspan class="size">22 (0.6%)</tspan></text>
<text x="37.81em" y="11.10em"><tspan class="size">autocompletion</tspan></text>
<rect x="37.25em" y="11.70em" width="0.06em" height="0.60em" stroke="#0000ff" fill="#0000ff"/>
<text x="36.75em" y="12.30em" text-anchor="end"><tspan class="size">22 (0.6%)</tspan></text>
<text x="37.81em" y="12.30em"><tspan class="size">debugging support</tspan></text>
<rect x="37.25em" y="12.90em" width="0.06em" height="0.60em" stroke="#0000ff" fill="#0000ff"/>
<text x="36.75em" y="13.50em" text-anchor="end"><tspan class="size">22 (0.6%)</tspan></text>
<text x="37.81em" y="13.50em"><tspan class="size">errors</tspan></text>
<rect x="37.25em" y="14.10em" width="0.06em" height="0.60em" stroke="#0000ff" fill="#0000ff"/>
<text x="36.75em" y="14.70em" text-anchor="end"><tspan class="size">22 (0.6%)</tspan></text>
<text x="37.81em" y="14.70em"><tspan class="size">gofmt</tspan></text>
<rect x="37.25em" y="15.30em" width="0.06em" height="0.60em" stroke="#0000ff" fill="#0000ff"/>
<text x="36.75em" y="15.90em" text-anchor="end"><tspan class="size">22 (0.6%)</tspan></text>
<text x="37.81em" y="15.90em"><tspan class="size">run</tspan></text>
<rect x="37.25em" y="16.50em" width="0.06em" height="0.60em" stroke="#0000ff" fill="#0000ff"/>
<text x="36.75em" y="17.10em" text-anchor="end"><tspan class="size">21 (0.6%)</tspan></text>
<text x="37.81em" y="17.10em"><tspan class="size">highlighting</tspan></text>
<rect x="37.25em" y="17.70em" width="0.06em" height="0.60em" stroke="#0000ff" fill="#0000ff"/>
<text x="36.75em" y="18.30em" text-anchor="end"><tspan class="size">21 (0.6%)</tspan></text>
<text x="37.81em" y="18.30em"><tspan class="size">save</tspan></text>
<rect x="37.25em" y="18.90em" width="0.06em" height="0.60em" stroke="#0000ff" fill="#0000ff"/>
<text x="36.75em" y="19.50em" text-anchor="end"><tspan class="size">21 (0.6%)</tspan></text>
<text x="37.81em" y="19.50em"><tspan class="size">setup</tspan></text>
<rect x="37.25em" y="20.10em" width="0.06em" height="0.60em" stroke="#0000ff" fill="#0000ff"/>
<text x="36.75em" y="20.70em" text-anchor="end"><tspan class="size">21 (0.6%)</tspan></text>
<text x="37.81em" y="20.70em"><tspan class="size">visual</tspan></text>
<rect x="37.25em" y="21.30em" width="0.06em" height="0.60em" stroke="#0000ff" fill="#0000ff"/>
<text x="36.75em" y="21.90em" text-anchor="end"><tspan class="size">20 (0.6%)</tspan></text>
<text x="37.81em" y="21.90em"><tspan class="size">documentation</tspan></text>
<rect x="37.25em" y="22.50em" width="0.06em" height="0.60em" stroke="#0000ff" fill="#0000ff"/>
<text x="36.75em" y="23.10em" text-anchor="end"><tspan class="size">20 (0.6%)</tspan></text>
<text x="37.81em" y="23.10em"><tspan class="size">great</tspan></text>
<rect x="37.25em" y="23.70em" width="6.37em" height="0.60em" stroke="black" fill="white"/>
<text x="36.75em" y="24.30em" text-anchor="end"><tspan class="size">2,291 (63.7%)</tspan></text>
<text x="44.12em" y="24.30em"><tspan class="size">No response</tspan></text>
</svg>
