<?xml version="1.0" standalone="no"?>
<!DOCTYPE svg PUBLIC "-//W3C//DTD SVG 1.1//EN" 
  "http://www.w3.org/Graphics/SVG/1.1/DTD/svg11.dtd">
<svg width="60.00em" height="26.00em" version="1.1"
     xmlns="http://www.w3.org/2000/svg">
  <defs>
    <style type="text/css"><![CDATA[
      svg {
        font-family: "Helvetica Neue", Arial, sans-serif; /* Helvetica on Mac aka sans-serif has broken U+2007 */
      }
      tspan.size {
        font-size: 0.80em;
      }
      tspan.head {
        font-weight: bold;
      }
      tspan.paren {
        font-weight: normal !important;
      }
    ]]></style>
  </defs>
<text x="0.00em" y="1.20em" class="head"><tspan class="size">What changes would improve Go most?</tspan></text>
<rect x="7.25em" y="2.10em" width="1.59em" height="0.60em" stroke="#0000ff" fill="#0000ff"/>
<text x="6.75em" y="2.70em" text-anchor="end"><tspan class="size">572 (16%)</tspan></text>
<text x="9.34em" y="2.70em"><tspan class="size">generics</tspan></text>
<rect x="7.25em" y="3.30em" width="1.25em" height="0.60em" stroke="#0000ff" fill="#0000ff"/>
<text x="6.75em" y="3.90em" text-anchor="end"><tspan class="size">451 (13%)</tspan></text>
<text x="9.00em" y="3.90em"><tspan class="size">management</tspan></text>
<rect x="7.25em" y="4.50em" width="0.92em" height="0.60em" stroke="#0000ff" fill="#0000ff"/>
<text x="6.75em" y="5.10em" text-anchor="end"><tspan class="size">330  (9%)</tspan></text>
<text x="8.67em" y="5.10em"><tspan class="size">dependency</tspan></text>
<rect x="7.25em" y="5.70em" width="0.87em" height="0.60em" stroke="#0000ff" fill="#0000ff"/>
<text x="6.75em" y="6.30em" text-anchor="end"><tspan class="size">314  (9%)</tspan></text>
<text x="8.62em" y="6.30em"><tspan class="size">package</tspan></text>
<rect x="7.25em" y="6.90em" width="0.74em" height="0.60em" stroke="#0000ff" fill="#0000ff"/>
<text x="6.75em" y="7.50em" text-anchor="end"><tspan class="size">266  (7%)</tspan></text>
<text x="8.49em" y="7.50em"><tspan class="size">dependency management</tspan></text>
<rect x="7.25em" y="8.10em" width="0.46em" height="0.60em" stroke="#0000ff" fill="#0000ff"/>
<text x="6.75em" y="8.70em" text-anchor="end"><tspan class="size">164  (5%)</tspan></text>
<text x="8.21em" y="8.70em"><tspan class="size">library</tspan></text>
<rect x="7.25em" y="9.30em" width="0.44em" height="0.60em" stroke="#0000ff" fill="#0000ff"/>
<text x="6.75em" y="9.90em" text-anchor="end"><tspan class="size">159  (4%)</tspan></text>
<text x="8.19em" y="9.90em"><tspan class="size">gui</tspan></text>
<rect x="7.25em" y="10.50em" width="0.37em" height="0.60em" stroke="#0000ff" fill="#0000ff"/>
<text x="6.75em" y="11.10em" text-anchor="end"><tspan class="size">134  (4%)</tspan></text>
<text x="8.12em" y="11.10em"><tspan class="size">package management</tspan></text>
<rect x="7.25em" y="11.70em" width="0.37em" height="0.60em" stroke="#0000ff" fill="#0000ff"/>
<text x="6.75em" y="12.30em" text-anchor="end"><tspan class="size">134  (4%)</tspan></text>
<text x="8.12em" y="12.30em"><tspan class="size">vendoring</tspan></text>
<rect x="7.25em" y="12.90em" width="0.36em" height="0.60em" stroke="#0000ff" fill="#0000ff"/>
<text x="6.75em" y="13.50em" text-anchor="end"><tspan class="size">128  (4%)</tspan></text>
<text x="8.11em" y="13.50em"><tspan class="size">debugger</tspan></text>
<rect x="7.25em" y="14.10em" width="0.35em" height="0.60em" stroke="#0000ff" fill="#0000ff"/>
<text x="6.75em" y="14.70em" text-anchor="end"><tspan class="size">126  (4%)</tspan></text>
<text x="8.10em" y="14.70em"><tspan class="size">libraries</tspan></text>
<rect x="7.25em" y="15.30em" width="0.34em" height="0.60em" stroke="#0000ff" fill="#0000ff"/>
<text x="6.75em" y="15.90em" text-anchor="end"><tspan class="size">122  (3%)</tspan></text>
<text x="8.09em" y="15.90em"><tspan class="size">standard</tspan></text>
<rect x="7.25em" y="16.50em" width="0.33em" height="0.60em" stroke="#0000ff" fill="#0000ff"/>
<text x="6.75em" y="17.10em" text-anchor="end"><tspan class="size">117  (3%)</tspan></text>
<text x="8.08em" y="17.10em"><tspan class="size">type</tspan></text>
<rect x="7.25em" y="17.70em" width="0.30em" height="0.60em" stroke="#0000ff" fill="#0000ff"/>
<text x="6.75em" y="18.30em" text-anchor="end"><tspan class="size">109  (3%)</tspan></text>
<text x="8.05em" y="18.30em"><tspan class="size">error</tspan></text>
<rect x="7.25em" y="18.90em" width="0.26em" height="0.60em" stroke="#0000ff" fill="#0000ff"/>
<text x="6.75em" y="19.50em" text-anchor="end"><tspan class="size">94  (3%)</tspan></text>
<text x="8.01em" y="19.50em"><tspan class="size">system</tspan></text>
<rect x="7.25em" y="20.10em" width="0.25em" height="0.60em" stroke="#0000ff" fill="#0000ff"/>
<text x="6.75em" y="20.70em" text-anchor="end"><tspan class="size">89  (2%)</tspan></text>
<text x="8.00em" y="20.70em"><tspan class="size">types</tspan></text>
<rect x="7.25em" y="21.30em" width="0.24em" height="0.60em" stroke="#0000ff" fill="#0000ff"/>
<text x="6.75em" y="21.90em" text-anchor="end"><tspan class="size">88  (2%)</tspan></text>
<text x="7.99em" y="21.90em"><tspan class="size">official</tspan></text>
<rect x="7.25em" y="22.50em" width="0.24em" height="0.60em" stroke="#0000ff" fill="#0000ff"/>
<text x="6.75em" y="23.10em" text-anchor="end"><tspan class="size">85  (2%)</tspan></text>
<text x="7.99em" y="23.10em"><tspan class="size">tools</tspan></text>
<rect x="7.25em" y="23.70em" width="0.23em" height="0.60em" stroke="#0000ff" fill="#0000ff"/>
<text x="6.75em" y="24.30em" text-anchor="end"><tspan class="size">84  (2%)</tspan></text>
<text x="7.98em" y="24.30em"><tspan class="size">c</tspan></text>
<rect x="7.25em" y="24.90em" width="0.23em" height="0.60em" stroke="#0000ff" fill="#0000ff"/>
<text x="6.75em" y="25.50em" text-anchor="end"><tspan class="size">82  (2%)</tspan></text>
<text x="7.98em" y="25.50em"><tspan class="size">gopath</tspan></text>
<rect x="22.25em" y="2.10em" width="0.22em" height="0.60em" stroke="#0000ff" fill="#0000ff"/>
<text x="21.75em" y="2.70em" text-anchor="end"><tspan class="size">78  (2%)</tspan></text>
<text x="22.97em" y="2.70em"><tspan class="size">performance</tspan></text>
<rect x="22.25em" y="3.30em" width="0.19em" height="0.60em" stroke="#0000ff" fill="#0000ff"/>
<text x="21.75em" y="3.90em" text-anchor="end"><tspan class="size">70  (2%)</tspan></text>
<text x="22.94em" y="3.90em"><tspan class="size">error handling</tspan></text>
<rect x="22.25em" y="4.50em" width="0.19em" height="0.60em" stroke="#0000ff" fill="#0000ff"/>
<text x="21.75em" y="5.10em" text-anchor="end"><tspan class="size">70  (2%)</tspan></text>
<text x="22.94em" y="5.10em"><tspan class="size">ide</tspan></text>
<rect x="22.25em" y="5.70em" width="0.19em" height="0.60em" stroke="#0000ff" fill="#0000ff"/>
<text x="21.75em" y="6.30em" text-anchor="end"><tspan class="size">69  (2%)</tspan></text>
<text x="22.94em" y="6.30em"><tspan class="size">package manager</tspan></text>
<rect x="22.25em" y="6.90em" width="0.18em" height="0.60em" stroke="#0000ff" fill="#0000ff"/>
<text x="21.75em" y="7.50em" text-anchor="end"><tspan class="size">66  (2%)</tspan></text>
<text x="22.93em" y="7.50em"><tspan class="size">documentation</tspan></text>
<rect x="22.25em" y="8.10em" width="0.18em" height="0.60em" stroke="#0000ff" fill="#0000ff"/>
<text x="21.75em" y="8.70em" text-anchor="end"><tspan class="size">66  (2%)</tspan></text>
<text x="22.93em" y="8.70em"><tspan class="size">faster</tspan></text>
<rect x="22.25em" y="9.30em" width="0.18em" height="0.60em" stroke="#0000ff" fill="#0000ff"/>
<text x="21.75em" y="9.90em" text-anchor="end"><tspan class="size">64  (2%)</tspan></text>
<text x="22.93em" y="9.90em"><tspan class="size">good</tspan></text>
<rect x="22.25em" y="10.50em" width="0.18em" height="0.60em" stroke="#0000ff" fill="#0000ff"/>
<text x="21.75em" y="11.10em" text-anchor="end"><tspan class="size">63  (2%)</tspan></text>
<text x="22.93em" y="11.10em"><tspan class="size">simple</tspan></text>
<rect x="22.25em" y="11.70em" width="0.18em" height="0.60em" stroke="#0000ff" fill="#0000ff"/>
<text x="21.75em" y="12.30em" text-anchor="end"><tspan class="size">63  (2%)</tspan></text>
<text x="22.93em" y="12.30em"><tspan class="size">tool</tspan></text>
<rect x="22.25em" y="12.90em" width="0.17em" height="0.60em" stroke="#0000ff" fill="#0000ff"/>
<text x="21.75em" y="13.50em" text-anchor="end"><tspan class="size">62  (2%)</tspan></text>
<text x="22.92em" y="13.50em"><tspan class="size">mobile</tspan></text>
<rect x="22.25em" y="14.10em" width="0.17em" height="0.60em" stroke="#0000ff" fill="#0000ff"/>
<text x="21.75em" y="14.70em" text-anchor="end"><tspan class="size">60  (2%)</tspan></text>
<text x="22.92em" y="14.70em"><tspan class="size">debugging</tspan></text>
<rect x="22.25em" y="15.30em" width="0.16em" height="0.60em" stroke="#0000ff" fill="#0000ff"/>
<text x="21.75em" y="15.90em" text-anchor="end"><tspan class="size">57  (2%)</tspan></text>
<text x="22.91em" y="15.90em"><tspan class="size">build</tspan></text>
<rect x="22.25em" y="16.50em" width="0.16em" height="0.60em" stroke="#0000ff" fill="#0000ff"/>
<text x="21.75em" y="17.10em" text-anchor="end"><tspan class="size">56  (2%)</tspan></text>
<text x="22.91em" y="17.10em"><tspan class="size">packages</tspan></text>
<rect x="22.25em" y="17.70em" width="0.15em" height="0.60em" stroke="#0000ff" fill="#0000ff"/>
<text x="21.75em" y="18.30em" text-anchor="end"><tspan class="size">55  (2%)</tspan></text>
<text x="22.90em" y="18.30em"><tspan class="size">easier</tspan></text>
<rect x="22.25em" y="18.90em" width="0.15em" height="0.60em" stroke="#0000ff" fill="#0000ff"/>
<text x="21.75em" y="19.50em" text-anchor="end"><tspan class="size">55  (2%)</tspan></text>
<text x="22.90em" y="19.50em"><tspan class="size">standard library</tspan></text>
<rect x="22.25em" y="20.10em" width="0.15em" height="0.60em" stroke="#0000ff" fill="#0000ff"/>
<text x="21.75em" y="20.70em" text-anchor="end"><tspan class="size">55  (2%)</tspan></text>
<text x="22.90em" y="20.70em"><tspan class="size">tooling</tspan></text>
<rect x="22.25em" y="21.30em" width="0.15em" height="0.60em" stroke="#0000ff" fill="#0000ff"/>
<text x="21.75em" y="21.90em" text-anchor="end"><tspan class="size">54  (2%)</tspan></text>
<text x="22.90em" y="21.90em"><tspan class="size">interface</tspan></text>
<rect x="22.25em" y="22.50em" width="0.14em" height="0.60em" stroke="#0000ff" fill="#0000ff"/>
<text x="21.75em" y="23.10em" text-anchor="end"><tspan class="size">51  (1%)</tspan></text>
<text x="22.89em" y="23.10em"><tspan class="size">dependencies</tspan></text>
<rect x="22.25em" y="23.70em" width="0.14em" height="0.60em" stroke="#0000ff" fill="#0000ff"/>
<text x="21.75em" y="24.30em" text-anchor="end"><tspan class="size">51  (1%)</tspan></text>
<text x="22.89em" y="24.30em"><tspan class="size">generic</tspan></text>
<rect x="22.25em" y="24.90em" width="0.13em" height="0.60em" stroke="#0000ff" fill="#0000ff"/>
<text x="21.75em" y="25.50em" text-anchor="end"><tspan class="size">48  (1%)</tspan></text>
<text x="22.88em" y="25.50em"><tspan class="size">programming</tspan></text>
<rect x="37.25em" y="2.10em" width="0.13em" height="0.60em" stroke="#0000ff" fill="#0000ff"/>
<text x="36.75em" y="2.70em" text-anchor="end"><tspan class="size">48  (1%)</tspan></text>
<text x="37.88em" y="2.70em"><tspan class="size">versioning</tspan></text>
<rect x="37.25em" y="3.30em" width="0.13em" height="0.60em" stroke="#0000ff" fill="#0000ff"/>
<text x="36.75em" y="3.90em" text-anchor="end"><tspan class="size">47  (1%)</tspan></text>
<text x="37.88em" y="3.90em"><tspan class="size">syntax</tspan></text>
<rect x="37.25em" y="4.50em" width="0.13em" height="0.60em" stroke="#0000ff" fill="#0000ff"/>
<text x="36.75em" y="5.10em" text-anchor="end"><tspan class="size">45  (1%)</tspan></text>
<text x="37.88em" y="5.10em"><tspan class="size">compile</tspan></text>
<rect x="37.25em" y="5.70em" width="0.13em" height="0.60em" stroke="#0000ff" fill="#0000ff"/>
<text x="36.75em" y="6.30em" text-anchor="end"><tspan class="size">45  (1%)</tspan></text>
<text x="37.88em" y="6.30em"><tspan class="size">solution</tspan></text>
<rect x="37.25em" y="6.90em" width="0.12em" height="0.60em" stroke="#0000ff" fill="#0000ff"/>
<text x="36.75em" y="7.50em" text-anchor="end"><tspan class="size">44  (1%)</tspan></text>
<text x="37.87em" y="7.50em"><tspan class="size">framework</tspan></text>
<rect x="37.25em" y="8.10em" width="0.12em" height="0.60em" stroke="#0000ff" fill="#0000ff"/>
<text x="36.75em" y="8.70em" text-anchor="end"><tspan class="size">43  (1%)</tspan></text>
<text x="37.87em" y="8.70em"><tspan class="size">examples</tspan></text>
<rect x="37.25em" y="9.30em" width="0.12em" height="0.60em" stroke="#0000ff" fill="#0000ff"/>
<text x="36.75em" y="9.90em" text-anchor="end"><tspan class="size">43  (1%)</tspan></text>
<text x="37.87em" y="9.90em"><tspan class="size">gc</tspan></text>
<rect x="37.25em" y="10.50em" width="0.12em" height="0.60em" stroke="#0000ff" fill="#0000ff"/>
<text x="36.75em" y="11.10em" text-anchor="end"><tspan class="size">43  (1%)</tspan></text>
<text x="37.87em" y="11.10em"><tspan class="size">type system</tspan></text>
<rect x="37.25em" y="11.70em" width="0.12em" height="0.60em" stroke="#0000ff" fill="#0000ff"/>
<text x="36.75em" y="12.30em" text-anchor="end"><tspan class="size">42  (1%)</tspan></text>
<text x="37.87em" y="12.30em"><tspan class="size">gui library</tspan></text>
<rect x="37.25em" y="12.90em" width="0.11em" height="0.60em" stroke="#0000ff" fill="#0000ff"/>
<text x="36.75em" y="13.50em" text-anchor="end"><tspan class="size">41  (1%)</tspan></text>
<text x="37.86em" y="13.50em"><tspan class="size">templates</tspan></text>
<rect x="37.25em" y="14.10em" width="0.11em" height="0.60em" stroke="#0000ff" fill="#0000ff"/>
<text x="36.75em" y="14.70em" text-anchor="end"><tspan class="size">40  (1%)</tspan></text>
<text x="37.86em" y="14.70em"><tspan class="size">android</tspan></text>
<rect x="37.25em" y="15.30em" width="0.11em" height="0.60em" stroke="#0000ff" fill="#0000ff"/>
<text x="36.75em" y="15.90em" text-anchor="end"><tspan class="size">40  (1%)</tspan></text>
<text x="37.86em" y="15.90em"><tspan class="size">community</tspan></text>
<rect x="37.25em" y="16.50em" width="0.11em" height="0.60em" stroke="#0000ff" fill="#0000ff"/>
<text x="36.75em" y="17.10em" text-anchor="end"><tspan class="size">40  (1%)</tspan></text>
<text x="37.86em" y="17.10em"><tspan class="size">function</tspan></text>
<rect x="37.25em" y="17.70em" width="0.11em" height="0.60em" stroke="#0000ff" fill="#0000ff"/>
<text x="36.75em" y="18.30em" text-anchor="end"><tspan class="size">40  (1%)</tspan></text>
<text x="37.86em" y="18.30em"><tspan class="size">native</tspan></text>
<rect x="37.25em" y="18.90em" width="0.11em" height="0.60em" stroke="#0000ff" fill="#0000ff"/>
<text x="36.75em" y="19.50em" text-anchor="end"><tspan class="size">40  (1%)</tspan></text>
<text x="37.86em" y="19.50em"><tspan class="size">ui</tspan></text>
<rect x="37.25em" y="20.10em" width="0.11em" height="0.60em" stroke="#0000ff" fill="#0000ff"/>
<text x="36.75em" y="20.70em" text-anchor="end"><tspan class="size">40  (1%)</tspan></text>
<text x="37.86em" y="20.70em"><tspan class="size">web</tspan></text>
<rect x="37.25em" y="21.30em" width="0.11em" height="0.60em" stroke="#0000ff" fill="#0000ff"/>
<text x="36.75em" y="21.90em" text-anchor="end"><tspan class="size">39  (1%)</tspan></text>
<text x="37.86em" y="21.90em"><tspan class="size">functions</tspan></text>
<rect x="37.25em" y="22.50em" width="0.06em" height="0.60em" stroke="#0000ff" fill="#0000ff"/>
<text x="36.75em" y="23.10em" text-anchor="end"><tspan class="size">21  (1%)</tspan></text>
<text x="37.81em" y="23.10em"><tspan class="size">cross platform</tspan></text>
<rect x="37.25em" y="23.70em" width="3.38em" height="0.60em" stroke="black" fill="white"/>
<text x="36.75em" y="24.30em" text-anchor="end"><tspan class="size">1,215 (34%)</tspan></text>
<text x="41.13em" y="24.30em"><tspan class="size">No response</tspan></text>
</svg>
