<?xml version="1.0" standalone="no"?>
<!DOCTYPE svg PUBLIC "-//W3C//DTD SVG 1.1//EN" 
  "http://www.w3.org/Graphics/SVG/1.1/DTD/svg11.dtd">
<svg width="60.00em" height="33.20em" version="1.1"
     xmlns="http://www.w3.org/2000/svg">
  <defs>
    <style type="text/css"><![CDATA[
      svg {
        font-family: "Helvetica Neue", Arial, sans-serif; /* Helvetica on Mac aka sans-serif has broken U+2007 */
      }
      tspan.size {
        font-size: 0.80em;
      }
      tspan.head {
        font-weight: bold;
      }
      tspan.paren {
        font-weight: normal !important;
      }
    ]]></style>
  </defs>
<text x="0.00em" y="1.20em" class="head"><tspan class="size">Just for fun: What is your favorite Go keyword?</tspan></text>
<rect x="7.25em" y="2.10em" width="2.38em" height="0.60em" stroke="#0000ff" fill="#0000ff"/>
<text x="6.75em" y="2.70em" text-anchor="end"><tspan class="size">854 (24%)</tspan></text>
<text x="10.13em" y="2.70em"><tspan class="size">go</tspan></text>
<rect x="7.25em" y="3.30em" width="1.27em" height="0.60em" stroke="#0000ff" fill="#0000ff"/>
<text x="6.75em" y="3.90em" text-anchor="end"><tspan class="size">455 (13%)</tspan></text>
<text x="9.02em" y="3.90em"><tspan class="size">defer</tspan></text>
<rect x="7.25em" y="4.50em" width="0.70em" height="0.60em" stroke="#0000ff" fill="#0000ff"/>
<text x="6.75em" y="5.10em" text-anchor="end"><tspan class="size">253  (7%)</tspan></text>
<text x="8.45em" y="5.10em"><tspan class="size">func</tspan></text>
<rect x="7.25em" y="5.70em" width="0.67em" height="0.60em" stroke="#0000ff" fill="#0000ff"/>
<text x="6.75em" y="6.30em" text-anchor="end"><tspan class="size">240  (7%)</tspan></text>
<text x="8.42em" y="6.30em"><tspan class="size">select</tspan></text>
<rect x="7.25em" y="6.90em" width="0.63em" height="0.60em" stroke="#0000ff" fill="#0000ff"/>
<text x="6.75em" y="7.50em" text-anchor="end"><tspan class="size">227  (6%)</tspan></text>
<text x="8.38em" y="7.50em"><tspan class="size">interface</tspan></text>
<rect x="7.25em" y="8.10em" width="0.40em" height="0.60em" stroke="#0000ff" fill="#0000ff"/>
<text x="6.75em" y="8.70em" text-anchor="end"><tspan class="size">145  (4%)</tspan></text>
<text x="8.15em" y="8.70em"><tspan class="size">struct</tspan></text>
<rect x="7.25em" y="9.30em" width="0.39em" height="0.60em" stroke="#0000ff" fill="#0000ff"/>
<text x="6.75em" y="9.90em" text-anchor="end"><tspan class="size">139  (4%)</tspan></text>
<text x="8.14em" y="9.90em"><tspan class="size">chan</tspan></text>
<rect x="7.25em" y="10.50em" width="0.36em" height="0.60em" stroke="#0000ff" fill="#0000ff"/>
<text x="6.75em" y="11.10em" text-anchor="end"><tspan class="size">129  (4%)</tspan></text>
<text x="8.11em" y="11.10em"><tspan class="size">range</tspan></text>
<rect x="7.25em" y="11.70em" width="0.19em" height="0.60em" stroke="#0000ff" fill="#0000ff"/>
<text x="6.75em" y="12.30em" text-anchor="end"><tspan class="size">67  (2%)</tspan></text>
<text x="7.94em" y="12.30em"><tspan class="size">fallthrough</tspan></text>
<rect x="7.25em" y="12.90em" width="0.16em" height="0.60em" stroke="#0000ff" fill="#0000ff"/>
<text x="6.75em" y="13.50em" text-anchor="end"><tspan class="size">56  (2%)</tspan></text>
<text x="7.91em" y="13.50em"><tspan class="size">switch</tspan></text>
<rect x="7.25em" y="14.10em" width="0.15em" height="0.60em" stroke="#0000ff" fill="#0000ff"/>
<text x="6.75em" y="14.70em" text-anchor="end"><tspan class="size">53  (1%)</tspan></text>
<text x="7.90em" y="14.70em"><tspan class="size">for</tspan></text>
<rect x="7.25em" y="15.30em" width="0.13em" height="0.60em" stroke="#0000ff" fill="#0000ff"/>
<text x="6.75em" y="15.90em" text-anchor="end"><tspan class="size">48  (1%)</tspan></text>
<text x="7.88em" y="15.90em"><tspan class="size">type</tspan></text>
<rect x="7.25em" y="16.50em" width="0.13em" height="0.60em" stroke="#0000ff" fill="#0000ff"/>
<text x="6.75em" y="17.10em" text-anchor="end"><tspan class="size">47  (1%)</tspan></text>
<text x="7.88em" y="17.10em"><tspan class="size">map</tspan></text>
<rect x="7.25em" y="17.70em" width="0.12em" height="0.60em" stroke="#0000ff" fill="#0000ff"/>
<text x="6.75em" y="18.30em" text-anchor="end"><tspan class="size">44  (1%)</tspan></text>
<text x="7.87em" y="18.30em"><tspan class="size">goto</tspan></text>
<rect x="7.25em" y="18.90em" width="0.10em" height="0.60em" stroke="#0000ff" fill="#0000ff"/>
<text x="6.75em" y="19.50em" text-anchor="end"><tspan class="size">36  (1%)</tspan></text>
<text x="7.85em" y="19.50em"><tspan class="size">import</tspan></text>
<rect x="7.25em" y="20.10em" width="0.06em" height="0.60em" stroke="#0000ff" fill="#0000ff"/>
<text x="6.75em" y="20.70em" text-anchor="end"><tspan class="size">22  (1%)</tspan></text>
<text x="7.81em" y="20.70em"><tspan class="size">if</tspan></text>
<rect x="7.25em" y="21.30em" width="0.06em" height="0.60em" stroke="#0000ff" fill="#0000ff"/>
<text x="6.75em" y="21.90em" text-anchor="end"><tspan class="size">20  (1%)</tspan></text>
<text x="7.81em" y="21.90em"><tspan class="size">package</tspan></text>
<rect x="7.25em" y="22.50em" width="0.05em" height="0.60em" stroke="#0000ff" fill="#0000ff"/>
<text x="6.75em" y="23.10em" text-anchor="end"><tspan class="size">19  (1%)</tspan></text>
<text x="7.80em" y="23.10em"><tspan class="size">var</tspan></text>
<rect x="7.25em" y="23.70em" width="0.05em" height="0.60em" stroke="#0000ff" fill="#0000ff"/>
<text x="6.75em" y="24.30em" text-anchor="end"><tspan class="size">17  (0%)</tspan></text>
<text x="7.80em" y="24.30em"><tspan class="size">const</tspan></text>
<rect x="7.25em" y="24.90em" width="0.04em" height="0.60em" stroke="#0000ff" fill="#0000ff"/>
<text x="6.75em" y="25.50em" text-anchor="end"><tspan class="size">14  (0%)</tspan></text>
<text x="7.79em" y="25.50em"><tspan class="size">continue</tspan></text>
<rect x="7.25em" y="26.10em" width="0.04em" height="0.60em" stroke="#0000ff" fill="#0000ff"/>
<text x="6.75em" y="26.70em" text-anchor="end"><tspan class="size">13  (0%)</tspan></text>
<text x="7.79em" y="26.70em"><tspan class="size">return</tspan></text>
<rect x="7.25em" y="27.30em" width="0.03em" height="0.60em" stroke="#0000ff" fill="#0000ff"/>
<text x="6.75em" y="27.90em" text-anchor="end"><tspan class="size">12  (0%)</tspan></text>
<text x="7.78em" y="27.90em"><tspan class="size">break</tspan></text>
<rect x="7.25em" y="28.50em" width="0.01em" height="0.60em" stroke="#0000ff" fill="#0000ff"/>
<text x="6.75em" y="29.10em" text-anchor="end"><tspan class="size">3  (0%)</tspan></text>
<text x="7.76em" y="29.10em"><tspan class="size">else</tspan></text>
<rect x="7.25em" y="29.70em" width="0.01em" height="0.60em" stroke="#0000ff" fill="#0000ff"/>
<text x="6.75em" y="30.30em" text-anchor="end"><tspan class="size">2  (0%)</tspan></text>
<text x="7.76em" y="30.30em"><tspan class="size">case</tspan></text>
<rect x="7.25em" y="30.90em" width="0.01em" height="0.60em" stroke="#0000ff" fill="#0000ff"/>
<text x="6.75em" y="31.50em" text-anchor="end"><tspan class="size">2  (0%)</tspan></text>
<text x="7.76em" y="31.50em"><tspan class="size">default</tspan></text>
<rect x="7.25em" y="32.10em" width="1.89em" height="0.60em" stroke="black" fill="white"/>
<text x="6.75em" y="32.70em" text-anchor="end"><tspan class="size">678 (19%)</tspan></text>
<text x="9.64em" y="32.70em"><tspan class="size">No response</tspan></text>
</svg>
