<?xml version="1.0" standalone="no"?>
<!DOCTYPE svg PUBLIC "-//W3C//DTD SVG 1.1//EN" 
  "http://www.w3.org/Graphics/SVG/1.1/DTD/svg11.dtd">
<svg width="60.00em" height="26.00em" version="1.1"
     xmlns="http://www.w3.org/2000/svg">
  <defs>
    <style type="text/css"><![CDATA[
      svg {
        font-family: "Helvetica Neue", Arial, sans-serif; /* Helvetica on Mac aka sans-serif has broken U+2007 */
      }
      tspan.size {
        font-size: 0.80em;
      }
      tspan.head {
        font-weight: bold;
      }
      tspan.paren {
        font-weight: normal !important;
      }
    ]]></style>
  </defs>
<text x="0.00em" y="1.20em" class="head"><tspan class="size">What do you like most about Go?</tspan></text>
<rect x="7.25em" y="2.10em" width="1.66em" height="0.60em" stroke="#0000ff" fill="#0000ff"/>
<text x="6.75em" y="2.70em" text-anchor="end"><tspan class="size">595 (17%)</tspan></text>
<text x="9.41em" y="2.70em"><tspan class="size">simplicity</tspan></text>
<rect x="7.25em" y="3.30em" width="1.51em" height="0.60em" stroke="#0000ff" fill="#0000ff"/>
<text x="6.75em" y="3.90em" text-anchor="end"><tspan class="size">543 (15%)</tspan></text>
<text x="9.26em" y="3.90em"><tspan class="size">easy</tspan></text>
<rect x="7.25em" y="4.50em" width="1.45em" height="0.60em" stroke="#0000ff" fill="#0000ff"/>
<text x="6.75em" y="5.10em" text-anchor="end"><tspan class="size">523 (15%)</tspan></text>
<text x="9.20em" y="5.10em"><tspan class="size">concurrency</tspan></text>
<rect x="7.25em" y="5.70em" width="1.38em" height="0.60em" stroke="#0000ff" fill="#0000ff"/>
<text x="6.75em" y="6.30em" text-anchor="end"><tspan class="size">495 (14%)</tspan></text>
<text x="9.13em" y="6.30em"><tspan class="size">simple</tspan></text>
<rect x="7.25em" y="6.90em" width="1.26em" height="0.60em" stroke="#0000ff" fill="#0000ff"/>
<text x="6.75em" y="7.50em" text-anchor="end"><tspan class="size">454 (13%)</tspan></text>
<text x="9.01em" y="7.50em"><tspan class="size">fast</tspan></text>
<rect x="7.25em" y="8.10em" width="0.82em" height="0.60em" stroke="#0000ff" fill="#0000ff"/>
<text x="6.75em" y="8.70em" text-anchor="end"><tspan class="size">293  (8%)</tspan></text>
<text x="8.57em" y="8.70em"><tspan class="size">syntax</tspan></text>
<rect x="7.25em" y="9.30em" width="0.80em" height="0.60em" stroke="#0000ff" fill="#0000ff"/>
<text x="6.75em" y="9.90em" text-anchor="end"><tspan class="size">287  (8%)</tspan></text>
<text x="8.55em" y="9.90em"><tspan class="size">standard library</tspan></text>
<rect x="7.25em" y="10.50em" width="0.80em" height="0.60em" stroke="#0000ff" fill="#0000ff"/>
<text x="6.75em" y="11.10em" text-anchor="end"><tspan class="size">286  (8%)</tspan></text>
<text x="8.55em" y="11.10em"><tspan class="size">tooling</tspan></text>
<rect x="7.25em" y="11.70em" width="0.75em" height="0.60em" stroke="#0000ff" fill="#0000ff"/>
<text x="6.75em" y="12.30em" text-anchor="end"><tspan class="size">270  (8%)</tspan></text>
<text x="8.50em" y="12.30em"><tspan class="size">static</tspan></text>
<rect x="7.25em" y="12.90em" width="0.74em" height="0.60em" stroke="#0000ff" fill="#0000ff"/>
<text x="6.75em" y="13.50em" text-anchor="end"><tspan class="size">266  (7%)</tspan></text>
<text x="8.49em" y="13.50em"><tspan class="size">performance</tspan></text>
<rect x="7.25em" y="14.10em" width="0.65em" height="0.60em" stroke="#0000ff" fill="#0000ff"/>
<text x="6.75em" y="14.70em" text-anchor="end"><tspan class="size">235  (7%)</tspan></text>
<text x="8.40em" y="14.70em"><tspan class="size">speed</tspan></text>
<rect x="7.25em" y="15.30em" width="0.56em" height="0.60em" stroke="#0000ff" fill="#0000ff"/>
<text x="6.75em" y="15.90em" text-anchor="end"><tspan class="size">202  (6%)</tspan></text>
<text x="8.31em" y="15.90em"><tspan class="size">interfaces</tspan></text>
<rect x="7.25em" y="16.50em" width="0.51em" height="0.60em" stroke="#0000ff" fill="#0000ff"/>
<text x="6.75em" y="17.10em" text-anchor="end"><tspan class="size">184  (5%)</tspan></text>
<text x="8.26em" y="17.10em"><tspan class="size">channels</tspan></text>
<rect x="7.25em" y="17.70em" width="0.51em" height="0.60em" stroke="#0000ff" fill="#0000ff"/>
<text x="6.75em" y="18.30em" text-anchor="end"><tspan class="size">183  (5%)</tspan></text>
<text x="8.26em" y="18.30em"><tspan class="size">community</tspan></text>
<rect x="7.25em" y="18.90em" width="0.50em" height="0.60em" stroke="#0000ff" fill="#0000ff"/>
<text x="6.75em" y="19.50em" text-anchor="end"><tspan class="size">180  (5%)</tspan></text>
<text x="8.25em" y="19.50em"><tspan class="size">good</tspan></text>
<rect x="7.25em" y="20.10em" width="0.49em" height="0.60em" stroke="#0000ff" fill="#0000ff"/>
<text x="6.75em" y="20.70em" text-anchor="end"><tspan class="size">177  (5%)</tspan></text>
<text x="8.24em" y="20.70em"><tspan class="size">compilation</tspan></text>
<rect x="7.25em" y="21.30em" width="0.49em" height="0.60em" stroke="#0000ff" fill="#0000ff"/>
<text x="6.75em" y="21.90em" text-anchor="end"><tspan class="size">177  (5%)</tspan></text>
<text x="8.24em" y="21.90em"><tspan class="size">goroutines</tspan></text>
<rect x="7.25em" y="22.50em" width="0.46em" height="0.60em" stroke="#0000ff" fill="#0000ff"/>
<text x="6.75em" y="23.10em" text-anchor="end"><tspan class="size">167  (5%)</tspan></text>
<text x="8.21em" y="23.10em"><tspan class="size">binary</tspan></text>
<rect x="7.25em" y="23.70em" width="0.43em" height="0.60em" stroke="#0000ff" fill="#0000ff"/>
<text x="6.75em" y="24.30em" text-anchor="end"><tspan class="size">156  (4%)</tspan></text>
<text x="8.18em" y="24.30em"><tspan class="size">great</tspan></text>
<rect x="7.25em" y="24.90em" width="0.41em" height="0.60em" stroke="#0000ff" fill="#0000ff"/>
<text x="6.75em" y="25.50em" text-anchor="end"><tspan class="size">148  (4%)</tspan></text>
<text x="8.16em" y="25.50em"><tspan class="size">tools</tspan></text>
<rect x="22.25em" y="2.10em" width="0.41em" height="0.60em" stroke="#0000ff" fill="#0000ff"/>
<text x="21.75em" y="2.70em" text-anchor="end"><tspan class="size">146  (4%)</tspan></text>
<text x="23.16em" y="2.70em"><tspan class="size">compiled</tspan></text>
<rect x="22.25em" y="3.30em" width="0.38em" height="0.60em" stroke="#0000ff" fill="#0000ff"/>
<text x="21.75em" y="3.90em" text-anchor="end"><tspan class="size">137  (4%)</tspan></text>
<text x="23.13em" y="3.90em"><tspan class="size">compile</tspan></text>
<rect x="22.25em" y="4.50em" width="0.35em" height="0.60em" stroke="#0000ff" fill="#0000ff"/>
<text x="21.75em" y="5.10em" text-anchor="end"><tspan class="size">127  (4%)</tspan></text>
<text x="23.10em" y="5.10em"><tspan class="size">type</tspan></text>
<rect x="22.25em" y="5.70em" width="0.34em" height="0.60em" stroke="#0000ff" fill="#0000ff"/>
<text x="21.75em" y="6.30em" text-anchor="end"><tspan class="size">124  (3%)</tspan></text>
<text x="23.09em" y="6.30em"><tspan class="size">small</tspan></text>
<rect x="22.25em" y="6.90em" width="0.33em" height="0.60em" stroke="#0000ff" fill="#0000ff"/>
<text x="21.75em" y="7.50em" text-anchor="end"><tspan class="size">118  (3%)</tspan></text>
<text x="23.08em" y="7.50em"><tspan class="size">c</tspan></text>
<rect x="22.25em" y="8.10em" width="0.32em" height="0.60em" stroke="#0000ff" fill="#0000ff"/>
<text x="21.75em" y="8.70em" text-anchor="end"><tspan class="size">114  (3%)</tspan></text>
<text x="23.07em" y="8.70em"><tspan class="size">gofmt</tspan></text>
<rect x="22.25em" y="9.30em" width="0.32em" height="0.60em" stroke="#0000ff" fill="#0000ff"/>
<text x="21.75em" y="9.90em" text-anchor="end"><tspan class="size">114  (3%)</tspan></text>
<text x="23.07em" y="9.90em"><tspan class="size">libraries</tspan></text>
<rect x="22.25em" y="10.50em" width="0.24em" height="0.60em" stroke="#0000ff" fill="#0000ff"/>
<text x="21.75em" y="11.10em" text-anchor="end"><tspan class="size">88  (2%)</tspan></text>
<text x="22.99em" y="11.10em"><tspan class="size">clean</tspan></text>
<rect x="22.25em" y="11.70em" width="0.24em" height="0.60em" stroke="#0000ff" fill="#0000ff"/>
<text x="21.75em" y="12.30em" text-anchor="end"><tspan class="size">87  (2%)</tspan></text>
<text x="22.99em" y="12.30em"><tspan class="size">easy to learn</tspan></text>
<rect x="22.25em" y="12.90em" width="0.23em" height="0.60em" stroke="#0000ff" fill="#0000ff"/>
<text x="21.75em" y="13.50em" text-anchor="end"><tspan class="size">82  (2%)</tspan></text>
<text x="22.98em" y="13.50em"><tspan class="size">deployment</tspan></text>
<rect x="22.25em" y="14.10em" width="0.22em" height="0.60em" stroke="#0000ff" fill="#0000ff"/>
<text x="21.75em" y="14.70em" text-anchor="end"><tspan class="size">78  (2%)</tspan></text>
<text x="22.97em" y="14.70em"><tspan class="size">memory</tspan></text>
<rect x="22.25em" y="15.30em" width="0.22em" height="0.60em" stroke="#0000ff" fill="#0000ff"/>
<text x="21.75em" y="15.90em" text-anchor="end"><tspan class="size">78  (2%)</tspan></text>
<text x="22.97em" y="15.90em"><tspan class="size">strong</tspan></text>
<rect x="22.25em" y="16.50em" width="0.21em" height="0.60em" stroke="#0000ff" fill="#0000ff"/>
<text x="21.75em" y="17.10em" text-anchor="end"><tspan class="size">76  (2%)</tspan></text>
<text x="22.96em" y="17.10em"><tspan class="size">concise</tspan></text>
<rect x="22.25em" y="17.70em" width="0.21em" height="0.60em" stroke="#0000ff" fill="#0000ff"/>
<text x="21.75em" y="18.30em" text-anchor="end"><tspan class="size">76  (2%)</tspan></text>
<text x="22.96em" y="18.30em"><tspan class="size">single binary</tspan></text>
<rect x="22.25em" y="18.90em" width="0.20em" height="0.60em" stroke="#0000ff" fill="#0000ff"/>
<text x="21.75em" y="19.50em" text-anchor="end"><tspan class="size">73  (2%)</tspan></text>
<text x="22.95em" y="19.50em"><tspan class="size">low</tspan></text>
<rect x="22.25em" y="20.10em" width="0.20em" height="0.60em" stroke="#0000ff" fill="#0000ff"/>
<text x="21.75em" y="20.70em" text-anchor="end"><tspan class="size">73  (2%)</tspan></text>
<text x="22.95em" y="20.70em"><tspan class="size">static typing</tspan></text>
<rect x="22.25em" y="21.30em" width="0.20em" height="0.60em" stroke="#0000ff" fill="#0000ff"/>
<text x="21.75em" y="21.90em" text-anchor="end"><tspan class="size">71  (2%)</tspan></text>
<text x="22.95em" y="21.90em"><tspan class="size">build</tspan></text>
<rect x="22.25em" y="22.50em" width="0.19em" height="0.60em" stroke="#0000ff" fill="#0000ff"/>
<text x="21.75em" y="23.10em" text-anchor="end"><tspan class="size">68  (2%)</tspan></text>
<text x="22.94em" y="23.10em"><tspan class="size">easy to read</tspan></text>
<rect x="22.25em" y="23.70em" width="0.18em" height="0.60em" stroke="#0000ff" fill="#0000ff"/>
<text x="21.75em" y="24.30em" text-anchor="end"><tspan class="size">63  (2%)</tspan></text>
<text x="22.93em" y="24.30em"><tspan class="size">fast compilation</tspan></text>
<rect x="22.25em" y="24.90em" width="0.16em" height="0.60em" stroke="#0000ff" fill="#0000ff"/>
<text x="21.75em" y="25.50em" text-anchor="end"><tspan class="size">56  (2%)</tspan></text>
<text x="22.91em" y="25.50em"><tspan class="size">simple syntax</tspan></text>
<rect x="37.25em" y="2.10em" width="0.15em" height="0.60em" stroke="#0000ff" fill="#0000ff"/>
<text x="36.75em" y="2.70em" text-anchor="end"><tspan class="size">55  (2%)</tspan></text>
<text x="37.90em" y="2.70em"><tspan class="size">type system</tspan></text>
<rect x="37.25em" y="3.30em" width="0.15em" height="0.60em" stroke="#0000ff" fill="#0000ff"/>
<text x="36.75em" y="3.90em" text-anchor="end"><tspan class="size">54  (2%)</tspan></text>
<text x="37.90em" y="3.90em"><tspan class="size">simple language</tspan></text>
<rect x="37.25em" y="4.50em" width="0.14em" height="0.60em" stroke="#0000ff" fill="#0000ff"/>
<text x="36.75em" y="5.10em" text-anchor="end"><tspan class="size">51  (1%)</tspan></text>
<text x="37.89em" y="5.10em"><tspan class="size">easy concurrency</tspan></text>
<rect x="37.25em" y="5.70em" width="0.13em" height="0.60em" stroke="#0000ff" fill="#0000ff"/>
<text x="36.75em" y="6.30em" text-anchor="end"><tspan class="size">47  (1%)</tspan></text>
<text x="37.88em" y="6.30em"><tspan class="size">static binaries</tspan></text>
<rect x="37.25em" y="6.90em" width="0.13em" height="0.60em" stroke="#0000ff" fill="#0000ff"/>
<text x="36.75em" y="7.50em" text-anchor="end"><tspan class="size">46  (1%)</tspan></text>
<text x="37.88em" y="7.50em"><tspan class="size">go fmt</tspan></text>
<rect x="37.25em" y="8.10em" width="0.13em" height="0.60em" stroke="#0000ff" fill="#0000ff"/>
<text x="36.75em" y="8.70em" text-anchor="end"><tspan class="size">45  (1%)</tspan></text>
<text x="37.88em" y="8.70em"><tspan class="size">fast compile</tspan></text>
<rect x="37.25em" y="9.30em" width="0.12em" height="0.60em" stroke="#0000ff" fill="#0000ff"/>
<text x="36.75em" y="9.90em" text-anchor="end"><tspan class="size">43  (1%)</tspan></text>
<text x="37.87em" y="9.90em"><tspan class="size">small language</tspan></text>
<rect x="37.25em" y="10.50em" width="0.11em" height="0.60em" stroke="#0000ff" fill="#0000ff"/>
<text x="36.75em" y="11.10em" text-anchor="end"><tspan class="size">41  (1%)</tspan></text>
<text x="37.86em" y="11.10em"><tspan class="size">error handling</tspan></text>
<rect x="37.25em" y="11.70em" width="0.11em" height="0.60em" stroke="#0000ff" fill="#0000ff"/>
<text x="36.75em" y="12.30em" text-anchor="end"><tspan class="size">39  (1%)</tspan></text>
<text x="37.86em" y="12.30em"><tspan class="size">concurrency model</tspan></text>
<rect x="37.25em" y="12.90em" width="0.11em" height="0.60em" stroke="#0000ff" fill="#0000ff"/>
<text x="36.75em" y="13.50em" text-anchor="end"><tspan class="size">39  (1%)</tspan></text>
<text x="37.86em" y="13.50em"><tspan class="size">go routines</tspan></text>
<rect x="37.25em" y="14.10em" width="0.11em" height="0.60em" stroke="#0000ff" fill="#0000ff"/>
<text x="36.75em" y="14.70em" text-anchor="end"><tspan class="size">38  (1%)</tspan></text>
<text x="37.86em" y="14.70em"><tspan class="size">easy to use</tspan></text>
<rect x="37.25em" y="15.30em" width="0.11em" height="0.60em" stroke="#0000ff" fill="#0000ff"/>
<text x="36.75em" y="15.90em" text-anchor="end"><tspan class="size">38  (1%)</tspan></text>
<text x="37.86em" y="15.90em"><tspan class="size">statically typed</tspan></text>
<rect x="37.25em" y="16.50em" width="0.10em" height="0.60em" stroke="#0000ff" fill="#0000ff"/>
<text x="36.75em" y="17.10em" text-anchor="end"><tspan class="size">36  (1%)</tspan></text>
<text x="37.85em" y="17.10em"><tspan class="size">cross platform</tspan></text>
<rect x="37.25em" y="17.70em" width="0.10em" height="0.60em" stroke="#0000ff" fill="#0000ff"/>
<text x="36.75em" y="18.30em" text-anchor="end"><tspan class="size">35  (1%)</tspan></text>
<text x="37.85em" y="18.30em"><tspan class="size">concurrency primitives</tspan></text>
<rect x="37.25em" y="18.90em" width="0.10em" height="0.60em" stroke="#0000ff" fill="#0000ff"/>
<text x="36.75em" y="19.50em" text-anchor="end"><tspan class="size">35  (1%)</tspan></text>
<text x="37.85em" y="19.50em"><tspan class="size">goroutines channels</tspan></text>
<rect x="37.25em" y="20.10em" width="0.09em" height="0.60em" stroke="#0000ff" fill="#0000ff"/>
<text x="36.75em" y="20.70em" text-anchor="end"><tspan class="size">33  (1%)</tspan></text>
<text x="37.84em" y="20.70em"><tspan class="size">easy to write</tspan></text>
<rect x="37.25em" y="21.30em" width="0.08em" height="0.60em" stroke="#0000ff" fill="#0000ff"/>
<text x="36.75em" y="21.90em" text-anchor="end"><tspan class="size">27  (1%)</tspan></text>
<text x="37.83em" y="21.90em"><tspan class="size">great standard library</tspan></text>
<rect x="37.25em" y="22.50em" width="0.06em" height="0.60em" stroke="#0000ff" fill="#0000ff"/>
<text x="36.75em" y="23.10em" text-anchor="end"><tspan class="size">23  (1%)</tspan></text>
<text x="37.81em" y="23.10em"><tspan class="size">ease of use</tspan></text>
<rect x="37.25em" y="23.70em" width="2.61em" height="0.60em" stroke="black" fill="white"/>
<text x="36.75em" y="24.30em" text-anchor="end"><tspan class="size">940 (26%)</tspan></text>
<text x="40.36em" y="24.30em"><tspan class="size">No response</tspan></text>
</svg>
