<?xml version="1.0" standalone="no"?>
<!DOCTYPE svg PUBLIC "-//W3C//DTD SVG 1.1//EN" 
  "http://www.w3.org/Graphics/SVG/1.1/DTD/svg11.dtd">
<svg width="60.00em" height="22.40em" version="1.1"
     xmlns="http://www.w3.org/2000/svg">
  <defs>
    <style type="text/css"><![CDATA[
      svg {
        font-family: "Helvetica Neue", Arial, sans-serif; /* Helvetica on Mac aka sans-serif has broken U+2007 */
      }
      tspan.size {
        font-size: 0.80em;
      }
      tspan.head {
        font-weight: bold;
      }
      tspan.paren {
        font-weight: normal !important;
      }
    ]]></style>
  </defs>
<text x="0.00em" y="1.20em" class="head"><tspan class="size">Rank the following in terms of where you get Go news from: <tspan class="paren">(ordered choice, up to 5)</tspan></tspan></text>
<rect x="12.00em" y="2.10em" width="1.75em" height="0.60em" stroke="#0000ff" fill="#0000ff"/>
<rect x="13.75em" y="2.10em" width="1.38em" height="0.60em" stroke="#2828ff" fill="#2828ff"/>
<rect x="15.12em" y="2.10em" width="0.85em" height="0.60em" stroke="#5151ff" fill="#5151ff"/>
<rect x="15.98em" y="2.10em" width="0.43em" height="0.60em" stroke="#7a7aff" fill="#7a7aff"/>
<rect x="16.41em" y="2.10em" width="0.21em" height="0.60em" stroke="#a3a3ff" fill="#a3a3ff"/>
<text x="11.50em" y="2.70em" text-anchor="end"><tspan class="size">1,659 (<tspan fill="#0000ff">17</tspan>, <tspan fill="#2828ff">14</tspan>, <tspan fill="#5151ff">9</tspan>, <tspan fill="#7a7aff">4</tspan>, <tspan fill="#a3a3ff">2</tspan>%)</tspan></text>
<text x="17.11em" y="2.70em"><tspan class="size">blog.Golang.org</tspan></text>
<rect x="12.00em" y="3.30em" width="1.71em" height="0.60em" stroke="#0000ff" fill="#0000ff"/>
<rect x="13.71em" y="3.30em" width="0.80em" height="0.60em" stroke="#2828ff" fill="#2828ff"/>
<rect x="14.51em" y="3.30em" width="0.41em" height="0.60em" stroke="#5151ff" fill="#5151ff"/>
<rect x="14.92em" y="3.30em" width="0.20em" height="0.60em" stroke="#7a7aff" fill="#7a7aff"/>
<rect x="15.12em" y="3.30em" width="0.09em" height="0.60em" stroke="#a3a3ff" fill="#a3a3ff"/>
<text x="11.50em" y="3.90em" text-anchor="end"><tspan class="size">1,153 (<tspan fill="#0000ff">17</tspan>, <tspan fill="#2828ff">8</tspan>, <tspan fill="#5151ff">4</tspan>, <tspan fill="#7a7aff">2</tspan>, <tspan fill="#a3a3ff">1</tspan>%)</tspan></text>
<text x="15.71em" y="3.90em"><tspan class="size">Reddit (r/golang)</tspan></text>
<rect x="12.00em" y="4.50em" width="1.36em" height="0.60em" stroke="#0000ff" fill="#0000ff"/>
<rect x="13.36em" y="4.50em" width="0.78em" height="0.60em" stroke="#2828ff" fill="#2828ff"/>
<rect x="14.14em" y="4.50em" width="0.38em" height="0.60em" stroke="#5151ff" fill="#5151ff"/>
<rect x="14.51em" y="4.50em" width="0.28em" height="0.60em" stroke="#7a7aff" fill="#7a7aff"/>
<rect x="14.80em" y="4.50em" width="0.13em" height="0.60em" stroke="#a3a3ff" fill="#a3a3ff"/>
<text x="11.50em" y="5.10em" text-anchor="end"><tspan class="size">1,053 (<tspan fill="#0000ff">14</tspan>, <tspan fill="#2828ff">8</tspan>, <tspan fill="#5151ff">4</tspan>, <tspan fill="#7a7aff">3</tspan>, <tspan fill="#a3a3ff">1</tspan>%)</tspan></text>
<text x="15.43em" y="5.10em"><tspan class="size">Twitter</tspan></text>
<rect x="12.00em" y="5.70em" width="0.62em" height="0.60em" stroke="#0000ff" fill="#0000ff"/>
<rect x="12.62em" y="5.70em" width="0.81em" height="0.60em" stroke="#2828ff" fill="#2828ff"/>
<rect x="13.43em" y="5.70em" width="0.61em" height="0.60em" stroke="#5151ff" fill="#5151ff"/>
<rect x="14.04em" y="5.70em" width="0.33em" height="0.60em" stroke="#7a7aff" fill="#7a7aff"/>
<rect x="14.36em" y="5.70em" width="0.15em" height="0.60em" stroke="#a3a3ff" fill="#a3a3ff"/>
<text x="11.50em" y="6.30em" text-anchor="end"><tspan class="size">903 (<tspan fill="#0000ff">6</tspan>, <tspan fill="#2828ff">8</tspan>, <tspan fill="#5151ff">6</tspan>, <tspan fill="#7a7aff">3</tspan>, <tspan fill="#a3a3ff">1</tspan>%)</tspan></text>
<text x="15.01em" y="6.30em"><tspan class="size">Hacker News</tspan></text>
<rect x="12.00em" y="6.90em" width="0.90em" height="0.60em" stroke="#0000ff" fill="#0000ff"/>
<rect x="12.90em" y="6.90em" width="0.61em" height="0.60em" stroke="#2828ff" fill="#2828ff"/>
<rect x="13.51em" y="6.90em" width="0.43em" height="0.60em" stroke="#5151ff" fill="#5151ff"/>
<rect x="13.94em" y="6.90em" width="0.17em" height="0.60em" stroke="#7a7aff" fill="#7a7aff"/>
<rect x="14.12em" y="6.90em" width="0.04em" height="0.60em" stroke="#a3a3ff" fill="#a3a3ff"/>
<text x="11.50em" y="7.50em" text-anchor="end"><tspan class="size">777 (<tspan fill="#0000ff">9</tspan>, <tspan fill="#2828ff">6</tspan>, <tspan fill="#5151ff">4</tspan>, <tspan fill="#7a7aff">2</tspan>, <tspan fill="#a3a3ff">0</tspan>%)</tspan></text>
<text x="14.66em" y="7.50em"><tspan class="size">Golangweekly.com</tspan></text>
<rect x="12.00em" y="8.10em" width="0.20em" height="0.60em" stroke="#0000ff" fill="#0000ff"/>
<rect x="12.20em" y="8.10em" width="0.59em" height="0.60em" stroke="#2828ff" fill="#2828ff"/>
<rect x="12.79em" y="8.10em" width="0.48em" height="0.60em" stroke="#5151ff" fill="#5151ff"/>
<rect x="13.27em" y="8.10em" width="0.35em" height="0.60em" stroke="#7a7aff" fill="#7a7aff"/>
<rect x="13.63em" y="8.10em" width="0.13em" height="0.60em" stroke="#a3a3ff" fill="#a3a3ff"/>
<text x="11.50em" y="8.70em" text-anchor="end"><tspan class="size">633 (<tspan fill="#0000ff">2</tspan>, <tspan fill="#2828ff">6</tspan>, <tspan fill="#5151ff">5</tspan>, <tspan fill="#7a7aff">4</tspan>, <tspan fill="#a3a3ff">1</tspan>%)</tspan></text>
<text x="14.26em" y="8.70em"><tspan class="size">Community Blogs</tspan></text>
<rect x="12.00em" y="9.30em" width="0.18em" height="0.60em" stroke="#0000ff" fill="#0000ff"/>
<rect x="12.18em" y="9.30em" width="0.31em" height="0.60em" stroke="#2828ff" fill="#2828ff"/>
<rect x="12.49em" y="9.30em" width="0.36em" height="0.60em" stroke="#5151ff" fill="#5151ff"/>
<rect x="12.85em" y="9.30em" width="0.21em" height="0.60em" stroke="#7a7aff" fill="#7a7aff"/>
<rect x="13.06em" y="9.30em" width="0.14em" height="0.60em" stroke="#a3a3ff" fill="#a3a3ff"/>
<text x="11.50em" y="9.90em" text-anchor="end"><tspan class="size">430 (<tspan fill="#0000ff">2</tspan>, <tspan fill="#2828ff">3</tspan>, <tspan fill="#5151ff">4</tspan>, <tspan fill="#7a7aff">2</tspan>, <tspan fill="#a3a3ff">1</tspan>%)</tspan></text>
<text x="13.70em" y="9.90em"><tspan class="size">GitHub</tspan></text>
<rect x="12.00em" y="10.50em" width="0.29em" height="0.60em" stroke="#0000ff" fill="#0000ff"/>
<rect x="12.29em" y="10.50em" width="0.32em" height="0.60em" stroke="#2828ff" fill="#2828ff"/>
<rect x="12.60em" y="10.50em" width="0.30em" height="0.60em" stroke="#5151ff" fill="#5151ff"/>
<rect x="12.90em" y="10.50em" width="0.17em" height="0.60em" stroke="#7a7aff" fill="#7a7aff"/>
<rect x="13.07em" y="10.50em" width="0.09em" height="0.60em" stroke="#a3a3ff" fill="#a3a3ff"/>
<text x="11.50em" y="11.10em" text-anchor="end"><tspan class="size">418 (<tspan fill="#0000ff">3</tspan>, <tspan fill="#2828ff">3</tspan>, <tspan fill="#5151ff">3</tspan>, <tspan fill="#7a7aff">2</tspan>, <tspan fill="#a3a3ff">1</tspan>%)</tspan></text>
<text x="13.66em" y="11.10em"><tspan class="size">golang-nuts mailing list (groups.google.com/d/forum/golang-nuts)</tspan></text>
<rect x="12.00em" y="11.70em" width="0.32em" height="0.60em" stroke="#0000ff" fill="#0000ff"/>
<rect x="12.32em" y="11.70em" width="0.31em" height="0.60em" stroke="#2828ff" fill="#2828ff"/>
<rect x="12.63em" y="11.70em" width="0.29em" height="0.60em" stroke="#5151ff" fill="#5151ff"/>
<rect x="12.92em" y="11.70em" width="0.10em" height="0.60em" stroke="#7a7aff" fill="#7a7aff"/>
<rect x="13.02em" y="11.70em" width="0.08em" height="0.60em" stroke="#a3a3ff" fill="#a3a3ff"/>
<text x="11.50em" y="12.30em" text-anchor="end"><tspan class="size">394 (<tspan fill="#0000ff">3</tspan>, <tspan fill="#2828ff">3</tspan>, <tspan fill="#5151ff">3</tspan>, <tspan fill="#7a7aff">1</tspan>, <tspan fill="#a3a3ff">1</tspan>%)</tspan></text>
<text x="13.60em" y="12.30em"><tspan class="size">Coworkers</tspan></text>
<rect x="12.00em" y="12.90em" width="0.09em" height="0.60em" stroke="#0000ff" fill="#0000ff"/>
<rect x="12.09em" y="12.90em" width="0.13em" height="0.60em" stroke="#2828ff" fill="#2828ff"/>
<rect x="12.22em" y="12.90em" width="0.18em" height="0.60em" stroke="#5151ff" fill="#5151ff"/>
<rect x="12.40em" y="12.90em" width="0.12em" height="0.60em" stroke="#7a7aff" fill="#7a7aff"/>
<rect x="12.52em" y="12.90em" width="0.07em" height="0.60em" stroke="#a3a3ff" fill="#a3a3ff"/>
<text x="11.50em" y="13.50em" text-anchor="end"><tspan class="size">212 (<tspan fill="#0000ff">1</tspan>, <tspan fill="#2828ff">1</tspan>, <tspan fill="#5151ff">2</tspan>, <tspan fill="#7a7aff">1</tspan>, <tspan fill="#a3a3ff">1</tspan>%)</tspan></text>
<text x="13.09em" y="13.50em"><tspan class="size">Gopher Slack (invite.slack.golangbridge.org)</tspan></text>
<rect x="12.00em" y="14.10em" width="0.12em" height="0.60em" stroke="#0000ff" fill="#0000ff"/>
<rect x="12.12em" y="14.10em" width="0.17em" height="0.60em" stroke="#2828ff" fill="#2828ff"/>
<rect x="12.29em" y="14.10em" width="0.13em" height="0.60em" stroke="#5151ff" fill="#5151ff"/>
<rect x="12.41em" y="14.10em" width="0.09em" height="0.60em" stroke="#7a7aff" fill="#7a7aff"/>
<rect x="12.51em" y="14.10em" width="0.06em" height="0.60em" stroke="#a3a3ff" fill="#a3a3ff"/>
<text x="11.50em" y="14.70em" text-anchor="end"><tspan class="size">203 (<tspan fill="#0000ff">1</tspan>, <tspan fill="#2828ff">2</tspan>, <tspan fill="#5151ff">1</tspan>, <tspan fill="#7a7aff">1</tspan>, <tspan fill="#a3a3ff">1</tspan>%)</tspan></text>
<text x="13.06em" y="14.70em"><tspan class="size">Golangnews.com</tspan></text>
<rect x="12.00em" y="15.30em" width="0.11em" height="0.60em" stroke="#0000ff" fill="#0000ff"/>
<rect x="12.11em" y="15.30em" width="0.18em" height="0.60em" stroke="#2828ff" fill="#2828ff"/>
<rect x="12.28em" y="15.30em" width="0.14em" height="0.60em" stroke="#5151ff" fill="#5151ff"/>
<rect x="12.43em" y="15.30em" width="0.07em" height="0.60em" stroke="#7a7aff" fill="#7a7aff"/>
<rect x="12.50em" y="15.30em" width="0.06em" height="0.60em" stroke="#a3a3ff" fill="#a3a3ff"/>
<text x="11.50em" y="15.90em" text-anchor="end"><tspan class="size">199 (<tspan fill="#0000ff">1</tspan>, <tspan fill="#2828ff">2</tspan>, <tspan fill="#5151ff">1</tspan>, <tspan fill="#7a7aff">1</tspan>, <tspan fill="#a3a3ff">1</tspan>%)</tspan></text>
<text x="13.05em" y="15.90em"><tspan class="size">golang-announce (groups.google.com/d/forum/golang-announce)</tspan></text>
<rect x="12.00em" y="16.50em" width="0.11em" height="0.60em" stroke="#0000ff" fill="#0000ff"/>
<rect x="12.11em" y="16.50em" width="0.11em" height="0.60em" stroke="#2828ff" fill="#2828ff"/>
<rect x="12.22em" y="16.50em" width="0.13em" height="0.60em" stroke="#5151ff" fill="#5151ff"/>
<rect x="12.35em" y="16.50em" width="0.08em" height="0.60em" stroke="#7a7aff" fill="#7a7aff"/>
<rect x="12.43em" y="16.50em" width="0.06em" height="0.60em" stroke="#a3a3ff" fill="#a3a3ff"/>
<text x="11.50em" y="17.10em" text-anchor="end"><tspan class="size">176 (<tspan fill="#0000ff">1</tspan>, <tspan fill="#2828ff">1</tspan>, <tspan fill="#5151ff">1</tspan>, <tspan fill="#7a7aff">1</tspan>, <tspan fill="#a3a3ff">1</tspan>%)</tspan></text>
<text x="12.99em" y="17.10em"><tspan class="size">Go Time podcast</tspan></text>
<rect x="12.00em" y="17.70em" width="0.02em" height="0.60em" stroke="#0000ff" fill="#0000ff"/>
<rect x="12.02em" y="17.70em" width="0.04em" height="0.60em" stroke="#2828ff" fill="#2828ff"/>
<rect x="12.06em" y="17.70em" width="0.04em" height="0.60em" stroke="#5151ff" fill="#5151ff"/>
<rect x="12.10em" y="17.70em" width="0.05em" height="0.60em" stroke="#7a7aff" fill="#7a7aff"/>
<rect x="12.15em" y="17.70em" width="0.03em" height="0.60em" stroke="#a3a3ff" fill="#a3a3ff"/>
<text x="11.50em" y="18.30em" text-anchor="end"><tspan class="size">65 (<tspan fill="#0000ff">0</tspan>, <tspan fill="#2828ff">0</tspan>, <tspan fill="#5151ff">0</tspan>, <tspan fill="#7a7aff">1</tspan>, <tspan fill="#a3a3ff">0</tspan>%)</tspan></text>
<text x="12.68em" y="18.30em"><tspan class="size">Go Forum (forum.golangbridge.org)</tspan></text>
<rect x="12.00em" y="18.90em" width="0.02em" height="0.60em" stroke="#0000ff" fill="#0000ff"/>
<rect x="12.02em" y="18.90em" width="0.02em" height="0.60em" stroke="#2828ff" fill="#2828ff"/>
<rect x="12.04em" y="18.90em" width="0.04em" height="0.60em" stroke="#5151ff" fill="#5151ff"/>
<rect x="12.08em" y="18.90em" width="0.02em" height="0.60em" stroke="#7a7aff" fill="#7a7aff"/>
<rect x="12.11em" y="18.90em" width="0.01em" height="0.60em" stroke="#a3a3ff" fill="#a3a3ff"/>
<text x="11.50em" y="19.50em" text-anchor="end"><tspan class="size">42 (<tspan fill="#0000ff">0</tspan>, <tspan fill="#2828ff">0</tspan>, <tspan fill="#5151ff">0</tspan>, <tspan fill="#7a7aff">0</tspan>, <tspan fill="#a3a3ff">0</tspan>%)</tspan></text>
<text x="12.62em" y="19.50em"><tspan class="size">Facebook</tspan></text>
<rect x="12.00em" y="20.10em" width="0.15em" height="0.60em" stroke="#777777" fill="#777777"/>
<rect x="12.15em" y="20.10em" width="0.13em" height="0.60em" stroke="#888888" fill="#888888"/>
<rect x="12.28em" y="20.10em" width="0.11em" height="0.60em" stroke="#999999" fill="#999999"/>
<rect x="12.38em" y="20.10em" width="0.04em" height="0.60em" stroke="#aaaaaa" fill="#aaaaaa"/>
<rect x="12.42em" y="20.10em" width="0.02em" height="0.60em" stroke="#bbbbbb" fill="#bbbbbb"/>
<text x="11.50em" y="20.70em" text-anchor="end"><tspan class="size">160 (<tspan fill="#777777">1</tspan>, <tspan fill="#888888">1</tspan>, <tspan fill="#999999">1</tspan>, <tspan fill="#aaaaaa">0</tspan>, <tspan fill="#bbbbbb">0</tspan>%)</tspan></text>
<text x="12.95em" y="20.70em"><tspan class="size">Other</tspan></text>
<rect x="12.00em" y="21.30em" width="2.08em" height="0.60em" stroke="black" fill="white"/>
<text x="11.50em" y="21.90em" text-anchor="end"><tspan class="size">747 (21%)</tspan></text>
<text x="14.58em" y="21.90em"><tspan class="size">No response</tspan></text>
</svg>
