<svg version="1.1" viewBox="0.0 0.0 600.0 193.0" fill="none" stroke="none" stroke-linecap="square" stroke-miterlimit="10" width="600" height="193" xmlns:xlink="http://www.w3.org/1999/xlink" xmlns="http://www.w3.org/2000/svg"><path fill="#ffffff" d="M0 0L600.0 0L600.0 193.0L0 193.0L0 0Z" fill-rule="nonzero"/><path fill="#ffffff" d="M0 0L600.0 0L600.0 193.0L0 193.0L0 0Z" fill-rule="nonzero"/><path stroke="#333333" stroke-width="1.0" stroke-linecap="butt" d="M142.5 11.5L142.5 102.5" fill-rule="nonzero"/><path stroke="#cccccc" stroke-width="1.0" stroke-linecap="butt" d="M249.5 11.5L249.5 102.5" fill-rule="nonzero"/><path stroke="#cccccc" stroke-width="1.0" stroke-linecap="butt" d="M355.5 11.5L355.5 102.5" fill-rule="nonzero"/><path stroke="#cccccc" stroke-width="1.0" stroke-linecap="butt" d="M462.5 11.5L462.5 102.5" fill-rule="nonzero"/><path stroke="#cccccc" stroke-width="1.0" stroke-linecap="butt" d="M569.5 11.5L569.5 102.5" fill-rule="nonzero"/><clipPath id="id_0"><path d="M142.303 11.729015L569.4754 11.729015L569.4754 102.01428L142.303 102.01428L142.303 11.729015Z" clip-rule="nonzero"/></clipPath><path stroke="#000000" stroke-width="0.0" stroke-linecap="butt" stroke-opacity="0.0" clip-path="url(#id_0)" d="M142.0 49.0L142.0 36.0L461.0 36.0C462.10458 36.0 463.0 36.89543 463.0 38.0L463.0 47.0C463.0 48.10457 462.10458 49.0 461.0 49.0Z" fill-rule="nonzero"/><path fill="#d7eeee" clip-path="url(#id_0)" d="M142.0 49.0L142.0 36.0L461.0 36.0C462.10458 36.0 463.0 36.89543 463.0 38.0L463.0 47.0C463.0 48.10457 462.10458 49.0 461.0 49.0Z" fill-rule="nonzero"/><path stroke="#000000" stroke-width="0.0" stroke-linecap="butt" stroke-opacity="0.0" clip-path="url(#id_0)" d="M142.0 63.0L142.0 50.0L493.0 50.0C494.10458 50.0 495.0 50.89543 495.0 52.0L495.0 61.0C495.0 62.10457 494.10458 63.0 493.0 63.0Z" fill-rule="nonzero"/><path fill="#77cac5" clip-path="url(#id_0)" d="M142.0 63.0L142.0 50.0L493.0 50.0C494.10458 50.0 495.0 50.89543 495.0 52.0L495.0 61.0C495.0 62.10457 494.10458 63.0 493.0 63.0Z" fill-rule="nonzero"/><path stroke="#000000" stroke-width="0.0" stroke-linecap="butt" stroke-opacity="0.0" clip-path="url(#id_0)" d="M142.0 77.0L142.0 64.0L455.0 64.0C456.10458 64.0 457.0 64.89543 457.0 66.0L457.0 75.0C457.0 76.10457 456.10458 77.0 455.0 77.0Z" fill-rule="nonzero"/><path fill="#1ba29c" clip-path="url(#id_0)" d="M142.0 77.0L142.0 64.0L455.0 64.0C456.10458 64.0 457.0 64.89543 457.0 66.0L457.0 75.0C457.0 76.10457 456.10458 77.0 455.0 77.0Z" fill-rule="nonzero"/><path stroke="#ffffff" stroke-width="3.0" stroke-linejoin="round" stroke-linecap="round" d="M480.65106 40.515625L479.6042 40.59375Q479.46356 39.96875 479.21356 39.6875Q478.77606 39.234375 478.15106 39.234375Q477.65106 39.234375 477.26044 39.515625Q476.77606 39.890625 476.4792 40.59375Q476.19794 41.28125 476.1823 42.5625Q476.5573 41.984375 477.1042 41.703125Q477.6667 41.421875 478.27606 41.421875Q479.32294 41.421875 480.0573 42.203125Q480.8073 42.984375 480.8073 44.203125Q480.8073 45.015625 480.44794 45.71875Q480.1042 46.40625 479.4948 46.78125Q478.88544 47.140625 478.1198 47.140625Q476.7917 47.140625 475.96356 46.171875Q475.13544 45.203125 475.13544 42.984375Q475.13544 40.484375 476.0573 39.359375Q476.8542 38.375 478.21356 38.375Q479.2292 38.375 479.8698 38.953125Q480.52606 39.515625 480.65106 40.515625ZM476.3542 44.21875Q476.3542 44.765625 476.57294 45.265625Q476.8073 45.75 477.21356 46.015625Q477.63544 46.28125 478.1042 46.28125Q478.76044 46.28125 479.2448 45.75Q479.7292 45.203125 479.7292 44.28125Q479.7292 43.390625 479.2448 42.875Q478.77606 42.359375 478.0573 42.359375Q477.33856 42.359375 476.83856 42.875Q476.3542 43.390625 476.3542 44.21875ZM482.1823 42.765625Q482.1823 41.234375 482.4948 40.3125Q482.8073 39.375 483.4167 38.875Q484.0417 38.375 484.9792 38.375Q485.6667 38.375 486.1823 38.65625Q486.71356 38.9375 487.0573 39.46875Q487.40106 39.984375 487.58856 40.734375Q487.77606 41.484375 487.77606 42.765625Q487.77606 44.28125 487.46356 45.203125Q487.1667 46.125 486.5417 46.640625Q485.9323 47.140625 484.9792 47.140625Q483.7448 47.140625 483.02606 46.25Q482.1823 45.1875 482.1823 42.765625ZM483.26044 42.765625Q483.26044 44.875 483.76044 45.578125Q484.26044 46.28125 484.9792 46.28125Q485.71356 46.28125 486.19794 45.578125Q486.69794 44.875 486.69794 42.765625Q486.69794 40.640625 486.19794 39.953125Q485.71356 39.25 484.96356 39.25Q484.2448 39.25 483.8073 39.859375Q483.26044 40.640625 483.26044 42.765625ZM489.38544 40.46875Q489.38544 39.546875 489.83856 38.90625Q490.3073 38.265625 491.1823 38.265625Q491.9948 38.265625 492.52606 38.84375Q493.0573 39.421875 493.0573 40.53125Q493.0573 41.625 492.51044 42.21875Q491.9792 42.796875 491.19794 42.796875Q490.4167 42.796875 489.90106 42.21875Q489.38544 41.640625 489.38544 40.46875ZM491.21356 38.984375Q490.82294 38.984375 490.5573 39.328125Q490.3073 39.671875 490.3073 40.578125Q490.3073 41.40625 490.5573 41.75Q490.82294 42.078125 491.21356 42.078125Q491.6198 42.078125 491.8698 41.734375Q492.13544 41.390625 492.13544 40.5Q492.13544 39.65625 491.8698 39.328125Q491.6042 38.984375 491.21356 38.984375ZM491.21356 47.3125L495.9167 38.265625L496.77606 38.265625L492.08856 47.3125L491.21356 47.3125ZM494.9323 44.984375Q494.9323 44.0625 495.38544 43.421875Q495.8542 42.78125 496.7448 42.78125Q497.5573 42.78125 498.08856 43.359375Q498.6198 43.921875 498.6198 45.046875Q498.6198 46.140625 498.07294 46.734375Q497.5417 47.3125 496.7448 47.3125Q495.9792 47.3125 495.44794 46.734375Q494.9323 46.15625 494.9323 44.984375ZM496.77606 43.5Q496.3698 43.5 496.1042 43.84375Q495.8542 44.1875 495.8542 45.09375Q495.8542 45.90625 496.1198 46.25Q496.38544 46.59375 496.77606 46.59375Q497.1667 46.59375 497.4323 46.25Q497.69794 45.90625 497.69794 45.0Q497.69794 44.171875 497.4323 43.84375Q497.1667 43.5 496.77606 43.5Z" fill-rule="nonzero"/><path fill="#666666" d="M480.65106 40.515625L479.6042 40.59375Q479.46356 39.96875 479.21356 39.6875Q478.77606 39.234375 478.15106 39.234375Q477.65106 39.234375 477.26044 39.515625Q476.77606 39.890625 476.4792 40.59375Q476.19794 41.28125 476.1823 42.5625Q476.5573 41.984375 477.1042 41.703125Q477.6667 41.421875 478.27606 41.421875Q479.32294 41.421875 480.0573 42.203125Q480.8073 42.984375 480.8073 44.203125Q480.8073 45.015625 480.44794 45.71875Q480.1042 46.40625 479.4948 46.78125Q478.88544 47.140625 478.1198 47.140625Q476.7917 47.140625 475.96356 46.171875Q475.13544 45.203125 475.13544 42.984375Q475.13544 40.484375 476.0573 39.359375Q476.8542 38.375 478.21356 38.375Q479.2292 38.375 479.8698 38.953125Q480.52606 39.515625 480.65106 40.515625ZM476.3542 44.21875Q476.3542 44.765625 476.57294 45.265625Q476.8073 45.75 477.21356 46.015625Q477.63544 46.28125 478.1042 46.28125Q478.76044 46.28125 479.2448 45.75Q479.7292 45.203125 479.7292 44.28125Q479.7292 43.390625 479.2448 42.875Q478.77606 42.359375 478.0573 42.359375Q477.33856 42.359375 476.83856 42.875Q476.3542 43.390625 476.3542 44.21875ZM482.1823 42.765625Q482.1823 41.234375 482.4948 40.3125Q482.8073 39.375 483.4167 38.875Q484.0417 38.375 484.9792 38.375Q485.6667 38.375 486.1823 38.65625Q486.71356 38.9375 487.0573 39.46875Q487.40106 39.984375 487.58856 40.734375Q487.77606 41.484375 487.77606 42.765625Q487.77606 44.28125 487.46356 45.203125Q487.1667 46.125 486.5417 46.640625Q485.9323 47.140625 484.9792 47.140625Q483.7448 47.140625 483.02606 46.25Q482.1823 45.1875 482.1823 42.765625ZM483.26044 42.765625Q483.26044 44.875 483.76044 45.578125Q484.26044 46.28125 484.9792 46.28125Q485.71356 46.28125 486.19794 45.578125Q486.69794 44.875 486.69794 42.765625Q486.69794 40.640625 486.19794 39.953125Q485.71356 39.25 484.96356 39.25Q484.2448 39.25 483.8073 39.859375Q483.26044 40.640625 483.26044 42.765625ZM489.38544 40.46875Q489.38544 39.546875 489.83856 38.90625Q490.3073 38.265625 491.1823 38.265625Q491.9948 38.265625 492.52606 38.84375Q493.0573 39.421875 493.0573 40.53125Q493.0573 41.625 492.51044 42.21875Q491.9792 42.796875 491.19794 42.796875Q490.4167 42.796875 489.90106 42.21875Q489.38544 41.640625 489.38544 40.46875ZM491.21356 38.984375Q490.82294 38.984375 490.5573 39.328125Q490.3073 39.671875 490.3073 40.578125Q490.3073 41.40625 490.5573 41.75Q490.82294 42.078125 491.21356 42.078125Q491.6198 42.078125 491.8698 41.734375Q492.13544 41.390625 492.13544 40.5Q492.13544 39.65625 491.8698 39.328125Q491.6042 38.984375 491.21356 38.984375ZM491.21356 47.3125L495.9167 38.265625L496.77606 38.265625L492.08856 47.3125L491.21356 47.3125ZM494.9323 44.984375Q494.9323 44.0625 495.38544 43.421875Q495.8542 42.78125 496.7448 42.78125Q497.5573 42.78125 498.08856 43.359375Q498.6198 43.921875 498.6198 45.046875Q498.6198 46.140625 498.07294 46.734375Q497.5417 47.3125 496.7448 47.3125Q495.9792 47.3125 495.44794 46.734375Q494.9323 46.15625 494.9323 44.984375ZM496.77606 43.5Q496.3698 43.5 496.1042 43.84375Q495.8542 44.1875 495.8542 45.09375Q495.8542 45.90625 496.1198 46.25Q496.38544 46.59375 496.77606 46.59375Q497.1667 46.59375 497.4323 46.25Q497.69794 45.90625 497.69794 45.0Q497.69794 44.171875 497.4323 43.84375Q497.1667 43.5 496.77606 43.5Z" fill-rule="nonzero"/><path stroke="#ffffff" stroke-width="3.0" stroke-linejoin="round" stroke-linecap="round" d="M512.689 54.515625L511.64212 54.59375Q511.5015 53.96875 511.2515 53.6875Q510.814 53.234375 510.189 53.234375Q509.689 53.234375 509.29837 53.515625Q508.814 53.890625 508.51712 54.59375Q508.23587 55.28125 508.22025 56.5625Q508.59525 55.984375 509.14212 55.703125Q509.70462 55.421875 510.314 55.421875Q511.36087 55.421875 512.0953 56.203125Q512.8453 56.984375 512.8453 58.203125Q512.8453 59.015625 512.4859 59.71875Q512.14215 60.40625 511.53275 60.78125Q510.92337 61.140625 510.15775 61.140625Q508.82962 61.140625 508.0015 60.171875Q507.17337 59.203125 507.17337 56.984375Q507.17337 54.484375 508.09525 53.359375Q508.89212 52.375 510.2515 52.375Q511.26712 52.375 511.90775 52.953125Q512.564 53.515625 512.689 54.515625ZM508.39212 58.21875Q508.39212 58.765625 508.61087 59.265625Q508.84525 59.75 509.2515 60.015625Q509.67337 60.28125 510.14212 60.28125Q510.79837 60.28125 511.28275 59.75Q511.76712 59.203125 511.76712 58.28125Q511.76712 57.390625 511.28275 56.875Q510.814 56.359375 510.09525 56.359375Q509.3765 56.359375 508.8765 56.875Q508.39212 57.390625 508.39212 58.21875ZM519.689 54.515625L518.64215 54.59375Q518.5015 53.96875 518.2515 53.6875Q517.814 53.234375 517.189 53.234375Q516.689 53.234375 516.2984 53.515625Q515.814 53.890625 515.51715 54.59375Q515.2359 55.28125 515.2203 56.5625Q515.5953 55.984375 516.14215 55.703125Q516.70465 55.421875 517.314 55.421875Q518.3609 55.421875 519.0953 56.203125Q519.8453 56.984375 519.8453 58.203125Q519.8453 59.015625 519.4859 59.71875Q519.14215 60.40625 518.5328 60.78125Q517.9234 61.140625 517.1578 61.140625Q515.82965 61.140625 515.0015 60.171875Q514.1734 59.203125 514.1734 56.984375Q514.1734 54.484375 515.0953 53.359375Q515.89215 52.375 517.2515 52.375Q518.26715 52.375 518.9078 52.953125Q519.564 53.515625 519.689 54.515625ZM515.39215 58.21875Q515.39215 58.765625 515.6109 59.265625Q515.8453 59.75 516.2515 60.015625Q516.6734 60.28125 517.14215 60.28125Q517.7984 60.28125 518.2828 59.75Q518.76715 59.203125 518.76715 58.28125Q518.76715 57.390625 518.2828 56.875Q517.814 56.359375 517.0953 56.359375Q516.3765 56.359375 515.8765 56.875Q515.39215 57.390625 515.39215 58.21875ZM521.4234 54.46875Q521.4234 53.546875 521.8765 52.90625Q522.3453 52.265625 523.2203 52.265625Q524.0328 52.265625 524.564 52.84375Q525.0953 53.421875 525.0953 54.53125Q525.0953 55.625 524.5484 56.21875Q524.01715 56.796875 523.2359 56.796875Q522.45465 56.796875 521.939 56.21875Q521.4234 55.640625 521.4234 54.46875ZM523.2515 52.984375Q522.8609 52.984375 522.5953 53.328125Q522.3453 53.671875 522.3453 54.578125Q522.3453 55.40625 522.5953 55.75Q522.8609 56.078125 523.2515 56.078125Q523.6578 56.078125 523.9078 55.734375Q524.1734 55.390625 524.1734 54.5Q524.1734 53.65625 523.9078 53.328125Q523.64215 52.984375 523.2515 52.984375ZM523.2515 61.3125L527.95465 52.265625L528.814 52.265625L524.1265 61.3125L523.2515 61.3125ZM526.9703 58.984375Q526.9703 58.0625 527.4234 57.421875Q527.89215 56.78125 528.7828 56.78125Q529.5953 56.78125 530.1265 57.359375Q530.6578 57.921875 530.6578 59.046875Q530.6578 60.140625 530.1109 60.734375Q529.57965 61.3125 528.7828 61.3125Q528.01715 61.3125 527.4859 60.734375Q526.9703 60.15625 526.9703 58.984375ZM528.814 57.5Q528.4078 57.5 528.14215 57.84375Q527.89215 58.1875 527.89215 59.09375Q527.89215 59.90625 528.1578 60.25Q528.4234 60.59375 528.814 60.59375Q529.20465 60.59375 529.4703 60.25Q529.7359 59.90625 529.7359 59.0Q529.7359 58.171875 529.4703 57.84375Q529.20465 57.5 528.814 57.5Z" fill-rule="nonzero"/><path fill="#666666" d="M512.68896 54.515625L511.64212 54.59375Q511.5015 53.96875 511.2515 53.6875Q510.814 53.234375 510.189 53.234375Q509.689 53.234375 509.29837 53.515625Q508.814 53.890625 508.51712 54.59375Q508.23587 55.28125 508.22025 56.5625Q508.59525 55.984375 509.14212 55.703125Q509.70462 55.421875 510.314 55.421875Q511.36087 55.421875 512.0952 56.203125Q512.8452 56.984375 512.8452 58.203125Q512.8452 59.015625 512.48584 59.71875Q512.1421 60.40625 511.53275 60.78125Q510.92337 61.140625 510.15775 61.140625Q508.82962 61.140625 508.0015 60.171875Q507.17337 59.203125 507.17337 56.984375Q507.17337 54.484375 508.09525 53.359375Q508.89212 52.375 510.2515 52.375Q511.26712 52.375 511.90775 52.953125Q512.56396 53.515625 512.68896 54.515625ZM508.39212 58.21875Q508.39212 58.765625 508.61087 59.265625Q508.84525 59.75 509.2515 60.015625Q509.67337 60.28125 510.14212 60.28125Q510.79837 60.28125 511.28275 59.75Q511.76712 59.203125 511.76712 58.28125Q511.76712 57.390625 511.28275 56.875Q510.814 56.359375 510.09525 56.359375Q509.3765 56.359375 508.8765 56.875Q508.39212 57.390625 508.39212 58.21875ZM519.68896 54.515625L518.6421 54.59375Q518.50146 53.96875 518.25146 53.6875Q517.81396 53.234375 517.18896 53.234375Q516.68896 53.234375 516.29834 53.515625Q515.81396 53.890625 515.5171 54.59375Q515.23584 55.28125 515.2202 56.5625Q515.5952 55.984375 516.1421 55.703125Q516.7046 55.421875 517.31396 55.421875Q518.36084 55.421875 519.0952 56.203125Q519.8452 56.984375 519.8452 58.203125Q519.8452 59.015625 519.48584 59.71875Q519.1421 60.40625 518.5327 60.78125Q517.92334 61.140625 517.1577 61.140625Q515.8296 61.140625 515.00146 60.171875Q514.17334 59.203125 514.17334 56.984375Q514.17334 54.484375 515.0952 53.359375Q515.8921 52.375 517.25146 52.375Q518.2671 52.375 518.9077 52.953125Q519.56396 53.515625 519.68896 54.515625ZM515.3921 58.21875Q515.3921 58.765625 515.61084 59.265625Q515.8452 59.75 516.25146 60.015625Q516.67334 60.28125 517.1421 60.28125Q517.79834 60.28125 518.2827 59.75Q518.7671 59.203125 518.7671 58.28125Q518.7671 57.390625 518.2827 56.875Q517.81396 56.359375 517.0952 56.359375Q516.37646 56.359375 515.87646 56.875Q515.3921 57.390625 515.3921 58.21875ZM521.42334 54.46875Q521.42334 53.546875 521.87646 52.90625Q522.3452 52.265625 523.2202 52.265625Q524.0327 52.265625 524.56396 52.84375Q525.0952 53.421875 525.0952 54.53125Q525.0952 55.625 524.54834 56.21875Q524.0171 56.796875 523.23584 56.796875Q522.4546 56.796875 521.93896 56.21875Q521.42334 55.640625 521.42334 54.46875ZM523.25146 52.984375Q522.86084 52.984375 522.5952 53.328125Q522.3452 53.671875 522.3452 54.578125Q522.3452 55.40625 522.5952 55.75Q522.86084 56.078125 523.25146 56.078125Q523.6577 56.078125 523.9077 55.734375Q524.17334 55.390625 524.17334 54.5Q524.17334 53.65625 523.9077 53.328125Q523.6421 52.984375 523.25146 52.984375ZM523.25146 61.3125L527.9546 52.265625L528.81396 52.265625L524.12646 61.3125L523.25146 61.3125ZM526.9702 58.984375Q526.9702 58.0625 527.42334 57.421875Q527.8921 56.78125 528.7827 56.78125Q529.5952 56.78125 530.12646 57.359375Q530.6577 57.921875 530.6577 59.046875Q530.6577 60.140625 530.11084 60.734375Q529.5796 61.3125 528.7827 61.3125Q528.0171 61.3125 527.48584 60.734375Q526.9702 60.15625 526.9702 58.984375ZM528.81396 57.5Q528.4077 57.5 528.1421 57.84375Q527.8921 58.1875 527.8921 59.09375Q527.8921 59.90625 528.1577 60.25Q528.42334 60.59375 528.81396 60.59375Q529.2046 60.59375 529.4702 60.25Q529.73584 59.90625 529.73584 59.0Q529.73584 58.171875 529.4702 57.84375Q529.2046 57.5 528.81396 57.5Z" fill-rule="nonzero"/><path stroke="#ffffff" stroke-width="3.0" stroke-linejoin="round" stroke-linecap="round" d="M469.84268 72.75L470.95206 72.65625Q471.07706 73.46875 471.51456 73.875Q471.96768 74.28125 472.6083 74.28125Q473.3583 74.28125 473.88956 73.703125Q474.4208 73.125 474.4208 72.1875Q474.4208 71.28125 473.90518 70.765625Q473.40518 70.234375 472.57706 70.234375Q472.07706 70.234375 471.65518 70.46875Q471.24893 70.703125 471.01456 71.0625L470.03018 70.9375L470.8583 66.53125L475.13956 66.53125L475.13956 67.53125L471.70206 67.53125L471.24893 69.84375Q472.01456 69.296875 472.8583 69.296875Q473.9833 69.296875 474.74893 70.078125Q475.53018 70.859375 475.53018 72.09375Q475.53018 73.25 474.8583 74.109375Q474.03018 75.140625 472.6083 75.140625Q471.43643 75.140625 470.68643 74.484375Q469.95206 73.828125 469.84268 72.75ZM476.99893 73.015625L478.01456 72.921875Q478.13956 73.640625 478.49893 73.96875Q478.87393 74.28125 479.43643 74.28125Q479.9208 74.28125 480.28018 74.0625Q480.65518 73.828125 480.88956 73.46875Q481.12393 73.09375 481.28018 72.46875Q481.43643 71.828125 481.43643 71.171875Q481.43643 71.09375 481.43643 70.953125Q481.12393 71.453125 480.57706 71.78125Q480.03018 72.09375 479.38956 72.09375Q478.31143 72.09375 477.57706 71.328125Q476.84268 70.546875 476.84268 69.28125Q476.84268 67.96875 477.6083 67.171875Q478.38956 66.375 479.5458 66.375Q480.37393 66.375 481.06143 66.828125Q481.76456 67.28125 482.12393 68.125Q482.4833 68.953125 482.4833 70.53125Q482.4833 72.171875 482.12393 73.15625Q481.78018 74.125 481.06143 74.640625Q480.3583 75.140625 479.4208 75.140625Q478.40518 75.140625 477.76456 74.59375Q477.12393 74.03125 476.99893 73.015625ZM481.31143 69.21875Q481.31143 68.3125 480.82706 67.78125Q480.3583 67.25 479.6708 67.25Q478.96768 67.25 478.43643 67.828125Q477.9208 68.390625 477.9208 69.3125Q477.9208 70.125 478.4208 70.640625Q478.9208 71.15625 479.63956 71.15625Q480.37393 71.15625 480.84268 70.640625Q481.31143 70.125 481.31143 69.21875ZM484.0458 68.46875Q484.0458 67.546875 484.49893 66.90625Q484.96768 66.265625 485.84268 66.265625Q486.65518 66.265625 487.18643 66.84375Q487.71768 67.421875 487.71768 68.53125Q487.71768 69.625 487.1708 70.21875Q486.63956 70.796875 485.8583 70.796875Q485.07706 70.796875 484.56143 70.21875Q484.0458 69.640625 484.0458 68.46875ZM485.87393 66.984375Q485.4833 66.984375 485.21768 67.328125Q484.96768 67.671875 484.96768 68.578125Q484.96768 69.40625 485.21768 69.75Q485.4833 70.078125 485.87393 70.078125Q486.28018 70.078125 486.53018 69.734375Q486.7958 69.390625 486.7958 68.5Q486.7958 67.65625 486.53018 67.328125Q486.26456 66.984375 485.87393 66.984375ZM485.87393 75.3125L490.57706 66.265625L491.43643 66.265625L486.74893 75.3125L485.87393 75.3125ZM489.59268 72.984375Q489.59268 72.0625 490.0458 71.421875Q490.51456 70.78125 491.40518 70.78125Q492.21768 70.78125 492.74893 71.359375Q493.28018 71.921875 493.28018 73.046875Q493.28018 74.140625 492.7333 74.734375Q492.20206 75.3125 491.40518 75.3125Q490.63956 75.3125 490.1083 74.734375Q489.59268 74.15625 489.59268 72.984375ZM491.43643 71.5Q491.03018 71.5 490.76456 71.84375Q490.51456 72.1875 490.51456 73.09375Q490.51456 73.90625 490.78018 74.25Q491.0458 74.59375 491.43643 74.59375Q491.82706 74.59375 492.09268 74.25Q492.3583 73.90625 492.3583 73.0Q492.3583 72.171875 492.09268 71.84375Q491.82706 71.5 491.43643 71.5Z" fill-rule="nonzero"/><path fill="#666666" d="M469.84268 72.75L470.95206 72.65625Q471.07706 73.46875 471.51456 73.875Q471.96768 74.28125 472.6083 74.28125Q473.3583 74.28125 473.88956 73.703125Q474.4208 73.125 474.4208 72.1875Q474.4208 71.28125 473.90518 70.765625Q473.40518 70.234375 472.57706 70.234375Q472.07706 70.234375 471.65518 70.46875Q471.24893 70.703125 471.01456 71.0625L470.03018 70.9375L470.8583 66.53125L475.13956 66.53125L475.13956 67.53125L471.70206 67.53125L471.24893 69.84375Q472.01456 69.296875 472.8583 69.296875Q473.9833 69.296875 474.74893 70.078125Q475.53018 70.859375 475.53018 72.09375Q475.53018 73.25 474.8583 74.109375Q474.03018 75.140625 472.6083 75.140625Q471.43643 75.140625 470.68643 74.484375Q469.95206 73.828125 469.84268 72.75ZM476.99893 73.015625L478.01456 72.921875Q478.13956 73.640625 478.49893 73.96875Q478.87393 74.28125 479.43643 74.28125Q479.9208 74.28125 480.28018 74.0625Q480.65518 73.828125 480.88956 73.46875Q481.12393 73.09375 481.28018 72.46875Q481.43643 71.828125 481.43643 71.171875Q481.43643 71.09375 481.43643 70.953125Q481.12393 71.453125 480.57706 71.78125Q480.03018 72.09375 479.38956 72.09375Q478.31143 72.09375 477.57706 71.328125Q476.84268 70.546875 476.84268 69.28125Q476.84268 67.96875 477.6083 67.171875Q478.38956 66.375 479.5458 66.375Q480.37393 66.375 481.06143 66.828125Q481.76456 67.28125 482.12393 68.125Q482.4833 68.953125 482.4833 70.53125Q482.4833 72.171875 482.12393 73.15625Q481.78018 74.125 481.06143 74.640625Q480.3583 75.140625 479.4208 75.140625Q478.40518 75.140625 477.76456 74.59375Q477.12393 74.03125 476.99893 73.015625ZM481.31143 69.21875Q481.31143 68.3125 480.82706 67.78125Q480.3583 67.25 479.6708 67.25Q478.96768 67.25 478.43643 67.828125Q477.9208 68.390625 477.9208 69.3125Q477.9208 70.125 478.4208 70.640625Q478.9208 71.15625 479.63956 71.15625Q480.37393 71.15625 480.84268 70.640625Q481.31143 70.125 481.31143 69.21875ZM484.0458 68.46875Q484.0458 67.546875 484.49893 66.90625Q484.96768 66.265625 485.84268 66.265625Q486.65518 66.265625 487.18643 66.84375Q487.71768 67.421875 487.71768 68.53125Q487.71768 69.625 487.1708 70.21875Q486.63956 70.796875 485.8583 70.796875Q485.07706 70.796875 484.56143 70.21875Q484.0458 69.640625 484.0458 68.46875ZM485.87393 66.984375Q485.4833 66.984375 485.21768 67.328125Q484.96768 67.671875 484.96768 68.578125Q484.96768 69.40625 485.21768 69.75Q485.4833 70.078125 485.87393 70.078125Q486.28018 70.078125 486.53018 69.734375Q486.7958 69.390625 486.7958 68.5Q486.7958 67.65625 486.53018 67.328125Q486.26456 66.984375 485.87393 66.984375ZM485.87393 75.3125L490.57706 66.265625L491.43643 66.265625L486.74893 75.3125L485.87393 75.3125ZM489.59268 72.984375Q489.59268 72.0625 490.0458 71.421875Q490.51456 70.78125 491.40518 70.78125Q492.21768 70.78125 492.74893 71.359375Q493.28018 71.921875 493.28018 73.046875Q493.28018 74.140625 492.7333 74.734375Q492.20206 75.3125 491.40518 75.3125Q490.63956 75.3125 490.1083 74.734375Q489.59268 74.15625 489.59268 72.984375ZM491.43643 71.5Q491.03018 71.5 490.76456 71.84375Q490.51456 72.1875 490.51456 73.09375Q490.51456 73.90625 490.78018 74.25Q491.0458 74.59375 491.43643 74.59375Q491.82706 74.59375 492.09268 74.25Q492.3583 73.90625 492.3583 73.0Q492.3583 72.171875 492.09268 71.84375Q491.82706 71.5 491.43643 71.5Z" fill-rule="nonzero"/><path fill="#666666" d="M278.59235 149.65094Q278.59235 148.72906 279.04547 148.08844Q279.51422 147.44781 280.38922 147.44781Q281.20172 147.44781 281.73297 148.02594Q282.26422 148.60406 282.26422 149.71344Q282.26422 150.80719 281.71735 151.40094Q281.1861 151.97906 280.40485 151.97906Q279.6236 151.97906 279.10797 151.40094Q278.59235 150.82281 278.59235 149.65094ZM280.42047 148.16656Q280.02985 148.16656 279.76422 148.51031Q279.51422 148.85406 279.51422 149.76031Q279.51422 150.58844 279.76422 150.93219Q280.02985 151.26031 280.42047 151.26031Q280.82672 151.26031 281.07672 150.91656Q281.34235 150.57281 281.34235 149.68219Q281.34235 148.83844 281.07672 148.51031Q280.8111 148.16656 280.42047 148.16656ZM280.42047 156.49469L285.1236 147.44781L285.98297 147.44781L281.29547 156.49469L280.42047 156.49469ZM284.13922 154.16656Q284.13922 153.24469 284.59235 152.60406Q285.0611 151.96344 285.95172 151.96344Q286.76422 151.96344 287.29547 152.54156Q287.82672 153.10406 287.82672 154.22906Q287.82672 155.32281 287.27985 155.91656Q286.7486 156.49469 285.95172 156.49469Q285.1861 156.49469 284.65485 155.91656Q284.13922 155.33844 284.13922 154.16656ZM285.98297 152.68219Q285.57672 152.68219 285.3111 153.02594Q285.0611 153.36969 285.0611 154.27594Q285.0611 155.08844 285.32672 155.43219Q285.59235 155.77594 285.98297 155.77594Q286.3736 155.77594 286.63922 155.43219Q286.90485 155.08844 286.90485 154.18219Q286.90485 153.35406 286.63922 153.02594Q286.3736 152.68219 285.98297 152.68219ZM292.29547 153.07281Q292.29547 151.33844 293.2486 150.51031Q294.04547 149.82281 295.20172 149.82281Q296.48297 149.82281 297.29547 150.66656Q298.1236 151.49469 298.1236 152.97906Q298.1236 154.18219 297.76422 154.86969Q297.40485 155.55719 296.70172 155.94781Q296.01422 156.32281 295.20172 156.32281Q293.90485 156.32281 293.09235 155.49469Q292.29547 154.65094 292.29547 153.07281ZM293.3736 153.07281Q293.3736 154.26031 293.88922 154.85406Q294.42047 155.44781 295.20172 155.44781Q295.9986 155.44781 296.51422 154.85406Q297.02985 154.26031 297.02985 153.04156Q297.02985 151.88531 296.4986 151.29156Q295.98297 150.69781 295.20172 150.69781Q294.42047 150.69781 293.88922 151.29156Q293.3736 151.86969 293.3736 153.07281ZM299.9361 156.18219L299.9361 150.77594L298.9986 150.77594L298.9986 149.96344L299.9361 149.96344L299.9361 149.29156Q299.9361 148.66656 300.04547 148.36969Q300.20172 147.94781 300.57672 147.69781Q300.96735 147.44781 301.65485 147.44781Q302.10797 147.44781 302.63922 147.55719L302.48297 148.46344Q302.15485 148.41656 301.85797 148.41656Q301.3736 148.41656 301.17047 148.61969Q300.98297 148.82281 300.98297 149.38531L300.98297 149.96344L302.20172 149.96344L302.20172 150.77594L300.98297 150.77594L300.98297 156.18219L299.9361 156.18219ZM305.67047 156.18219L305.67047 149.96344L306.6236 149.96344L306.6236 150.90094Q306.98297 150.24469 307.27985 150.04156Q307.59235 149.82281 307.96735 149.82281Q308.4986 149.82281 309.04547 150.15094L308.6861 151.13531Q308.29547 150.90094 307.92047 150.90094Q307.5611 150.90094 307.27985 151.11969Q307.01422 151.32281 306.90485 151.69781Q306.71735 152.26031 306.71735 152.91656L306.71735 156.18219L305.67047 156.18219ZM313.9361 154.18219L315.02985 154.30719Q314.77985 155.26031 314.07672 155.79156Q313.3736 156.32281 312.29547 156.32281Q310.9361 156.32281 310.1236 155.47906Q309.32672 154.63531 309.32672 153.11969Q309.32672 151.55719 310.13922 150.69781Q310.95172 149.82281 312.23297 149.82281Q313.48297 149.82281 314.26422 150.66656Q315.0611 151.51031 315.0611 153.05719Q315.0611 153.15094 315.0611 153.33844L310.42047 153.33844Q310.48297 154.36969 310.9986 154.91656Q311.51422 155.44781 312.29547 155.44781Q312.8736 155.44781 313.27985 155.15094Q313.70172 154.83844 313.9361 154.18219ZM310.48297 152.47906L313.95172 152.47906Q313.88922 151.68219 313.5611 151.29156Q313.04547 150.68219 312.2486 150.68219Q311.51422 150.68219 311.01422 151.16656Q310.52985 151.65094 310.48297 152.47906ZM316.26422 154.32281L317.29547 154.16656Q317.38922 154.79156 317.77985 155.11969Q318.1861 155.44781 318.92047 155.44781Q319.63922 155.44781 319.98297 155.16656Q320.34235 154.86969 320.34235 154.46344Q320.34235 154.10406 320.02985 153.90094Q319.8111 153.76031 318.95172 153.54156Q317.79547 153.24469 317.34235 153.04156Q316.90485 152.82281 316.67047 152.44781Q316.4361 152.07281 316.4361 151.60406Q316.4361 151.19781 316.6236 150.83844Q316.8111 150.47906 317.13922 150.24469Q317.38922 150.07281 317.8111 149.94781Q318.23297 149.82281 318.73297 149.82281Q319.45172 149.82281 319.9986 150.04156Q320.5611 150.24469 320.82672 150.60406Q321.09235 150.96344 321.1861 151.55719L320.15485 151.69781Q320.09235 151.22906 319.7486 150.96344Q319.42047 150.68219 318.79547 150.68219Q318.07672 150.68219 317.76422 150.93219Q317.45172 151.16656 317.45172 151.49469Q317.45172 151.69781 317.57672 151.85406Q317.71735 152.02594 317.98297 152.13531Q318.13922 152.19781 318.92047 152.40094Q320.04547 152.71344 320.48297 152.90094Q320.92047 153.08844 321.17047 153.44781Q321.42047 153.80719 321.42047 154.35406Q321.42047 154.88531 321.10797 155.35406Q320.8111 155.80719 320.23297 156.07281Q319.65485 156.32281 318.92047 156.32281Q317.70172 156.32281 317.0611 155.82281Q316.4361 155.30719 316.26422 154.32281ZM322.6861 158.57281L322.6861 149.96344L323.63922 149.96344L323.63922 150.76031Q323.98297 150.29156 324.40485 150.05719Q324.84235 149.82281 325.45172 149.82281Q326.2486 149.82281 326.85797 150.22906Q327.46735 150.63531 327.76422 151.38531Q328.07672 152.13531 328.07672 153.02594Q328.07672 153.97906 327.73297 154.74469Q327.40485 155.51031 326.7486 155.91656Q326.09235 156.32281 325.3736 156.32281Q324.84235 156.32281 324.42047 156.10406Q323.9986 155.86969 323.73297 155.54156L323.73297 158.57281L322.6861 158.57281ZM323.63922 153.10406Q323.63922 154.30719 324.1236 154.88531Q324.60797 155.44781 325.29547 155.44781Q325.9986 155.44781 326.4986 154.85406Q326.9986 154.26031 326.9986 153.01031Q326.9986 151.82281 326.51422 151.24469Q326.02985 150.65094 325.34235 150.65094Q324.67047 150.65094 324.15485 151.27594Q323.63922 151.90094 323.63922 153.10406ZM329.29547 153.07281Q329.29547 151.33844 330.2486 150.51031Q331.04547 149.82281 332.20172 149.82281Q333.48297 149.82281 334.29547 150.66656Q335.1236 151.49469 335.1236 152.97906Q335.1236 154.18219 334.76422 154.86969Q334.40485 155.55719 333.70172 155.94781Q333.01422 156.32281 332.20172 156.32281Q330.90485 156.32281 330.09235 155.49469Q329.29547 154.65094 329.29547 153.07281ZM330.3736 153.07281Q330.3736 154.26031 330.88922 154.85406Q331.42047 155.44781 332.20172 155.44781Q332.9986 155.44781 333.51422 154.85406Q334.02985 154.26031 334.02985 153.04156Q334.02985 151.88531 333.4986 151.29156Q332.98297 150.69781 332.20172 150.69781Q331.42047 150.69781 330.88922 151.29156Q330.3736 151.86969 330.3736 153.07281ZM336.6861 156.18219L336.6861 149.96344L337.6236 149.96344L337.6236 150.83844Q338.3111 149.82281 339.60797 149.82281Q340.17047 149.82281 340.63922 150.02594Q341.1236 150.22906 341.35797 150.55719Q341.59235 150.88531 341.6861 151.32281Q341.73297 151.61969 341.73297 152.35406L341.73297 156.18219L340.6861 156.18219L340.6861 152.40094Q340.6861 151.74469 340.5611 151.43219Q340.4361 151.11969 340.1236 150.93219Q339.8111 150.72906 339.38922 150.72906Q338.71735 150.72906 338.21735 151.16656Q337.73297 151.58844 337.73297 152.77594L337.73297 156.18219L336.6861 156.18219ZM347.71735 156.18219L347.71735 155.40094Q347.1236 156.32281 345.98297 156.32281Q345.23297 156.32281 344.60797 155.91656Q343.98297 155.49469 343.63922 154.76031Q343.29547 154.02594 343.29547 153.07281Q343.29547 152.15094 343.60797 151.38531Q343.92047 150.61969 344.54547 150.22906Q345.17047 149.82281 345.9361 149.82281Q346.4986 149.82281 346.9361 150.05719Q347.3736 150.29156 347.65485 150.66656L347.65485 147.58844L348.70172 147.58844L348.70172 156.18219L347.71735 156.18219ZM344.38922 153.07281Q344.38922 154.27594 344.88922 154.86969Q345.38922 155.44781 346.07672 155.44781Q346.76422 155.44781 347.2486 154.88531Q347.73297 154.32281 347.73297 153.16656Q347.73297 151.88531 347.23297 151.29156Q346.7486 150.69781 346.02985 150.69781Q345.32672 150.69781 344.85797 151.27594Q344.38922 151.83844 344.38922 153.07281ZM354.9361 154.18219L356.02985 154.30719Q355.77985 155.26031 355.07672 155.79156Q354.3736 156.32281 353.29547 156.32281Q351.9361 156.32281 351.1236 155.47906Q350.32672 154.63531 350.32672 153.11969Q350.32672 151.55719 351.13922 150.69781Q351.95172 149.82281 353.23297 149.82281Q354.48297 149.82281 355.26422 150.66656Q356.0611 151.51031 356.0611 153.05719Q356.0611 153.15094 356.0611 153.33844L351.42047 153.33844Q351.48297 154.36969 351.9986 154.91656Q352.51422 155.44781 353.29547 155.44781Q353.8736 155.44781 354.27985 155.15094Q354.70172 154.83844 354.9361 154.18219ZM351.48297 152.47906L354.95172 152.47906Q354.88922 151.68219 354.5611 151.29156Q354.04547 150.68219 353.2486 150.68219Q352.51422 150.68219 352.01422 151.16656Q351.52985 151.65094 351.48297 152.47906ZM357.6861 156.18219L357.6861 149.96344L358.6236 149.96344L358.6236 150.83844Q359.3111 149.82281 360.60797 149.82281Q361.17047 149.82281 361.63922 150.02594Q362.1236 150.22906 362.35797 150.55719Q362.59235 150.88531 362.6861 151.32281Q362.73297 151.61969 362.73297 152.35406L362.73297 156.18219L361.6861 156.18219L361.6861 152.40094Q361.6861 151.74469 361.5611 151.43219Q361.4361 151.11969 361.1236 150.93219Q360.8111 150.72906 360.38922 150.72906Q359.71735 150.72906 359.21735 151.16656Q358.73297 151.58844 358.73297 152.77594L358.73297 156.18219L357.6861 156.18219ZM366.98297 155.24469L367.13922 156.16656Q366.6861 156.26031 366.34235 156.26031Q365.76422 156.26031 365.45172 156.08844Q365.13922 155.90094 364.9986 155.60406Q364.8736 155.30719 364.8736 154.35406L364.8736 150.77594L364.10797 150.77594L364.10797 149.96344L364.8736 149.96344L364.8736 148.41656L365.92047 147.79156L365.92047 149.96344L366.98297 149.96344L366.98297 150.77594L365.92047 150.77594L365.92047 154.41656Q365.92047 154.86969 365.96735 154.99469Q366.02985 155.11969 366.15485 155.19781Q366.27985 155.27594 366.51422 155.27594Q366.70172 155.27594 366.98297 155.24469ZM367.26422 154.32281L368.29547 154.16656Q368.38922 154.79156 368.77985 155.11969Q369.1861 155.44781 369.92047 155.44781Q370.63922 155.44781 370.98297 155.16656Q371.34235 154.86969 371.34235 154.46344Q371.34235 154.10406 371.02985 153.90094Q370.8111 153.76031 369.95172 153.54156Q368.79547 153.24469 368.34235 153.04156Q367.90485 152.82281 367.67047 152.44781Q367.4361 152.07281 367.4361 151.60406Q367.4361 151.19781 367.6236 150.83844Q367.8111 150.47906 368.13922 150.24469Q368.38922 150.07281 368.8111 149.94781Q369.23297 149.82281 369.73297 149.82281Q370.45172 149.82281 370.9986 150.04156Q371.5611 150.24469 371.82672 150.60406Q372.09235 150.96344 372.1861 151.55719L371.15485 151.69781Q371.09235 151.22906 370.7486 150.96344Q370.42047 150.68219 369.79547 150.68219Q369.07672 150.68219 368.76422 150.93219Q368.45172 151.16656 368.45172 151.49469Q368.45172 151.69781 368.57672 151.85406Q368.71735 152.02594 368.98297 152.13531Q369.13922 152.19781 369.92047 152.40094Q371.04547 152.71344 371.48297 152.90094Q371.92047 153.08844 372.17047 153.44781Q372.42047 153.80719 372.42047 154.35406Q372.42047 154.88531 372.10797 155.35406Q371.8111 155.80719 371.23297 156.07281Q370.65485 156.32281 369.92047 156.32281Q368.70172 156.32281 368.0611 155.82281Q367.4361 155.30719 367.26422 154.32281ZM377.82672 156.18219L375.92047 149.96344L377.01422 149.96344L377.9986 153.55719L378.3736 154.88531Q378.40485 154.79156 378.70172 153.60406L379.6861 149.96344L380.76422 149.96344L381.70172 153.57281L382.01422 154.76031L382.3736 153.55719L383.4361 149.96344L384.46735 149.96344L382.51422 156.18219L381.42047 156.18219L380.4361 152.44781L380.1861 151.40094L378.9361 156.18219L377.82672 156.18219ZM385.6861 156.18219L385.6861 147.58844L386.73297 147.58844L386.73297 150.66656Q387.46735 149.82281 388.59235 149.82281Q389.29547 149.82281 389.79547 150.10406Q390.3111 150.36969 390.52985 150.85406Q390.7486 151.32281 390.7486 152.24469L390.7486 156.18219L389.70172 156.18219L389.70172 152.24469Q389.70172 151.44781 389.35797 151.08844Q389.01422 150.72906 388.38922 150.72906Q387.92047 150.72906 387.4986 150.97906Q387.09235 151.21344 386.90485 151.63531Q386.73297 152.04156 386.73297 152.77594L386.73297 156.18219L385.6861 156.18219ZM392.29547 153.07281Q392.29547 151.33844 393.2486 150.51031Q394.04547 149.82281 395.20172 149.82281Q396.48297 149.82281 397.29547 150.66656Q398.1236 151.49469 398.1236 152.97906Q398.1236 154.18219 397.76422 154.86969Q397.40485 155.55719 396.70172 155.94781Q396.01422 156.32281 395.20172 156.32281Q393.90485 156.32281 393.09235 155.49469Q392.29547 154.65094 392.29547 153.07281ZM393.3736 153.07281Q393.3736 154.26031 393.88922 154.85406Q394.42047 155.44781 395.20172 155.44781Q395.9986 155.44781 396.51422 154.85406Q397.02985 154.26031 397.02985 153.04156Q397.02985 151.88531 396.4986 151.29156Q395.98297 150.69781 395.20172 150.69781Q394.42047 150.69781 393.88922 151.29156Q393.3736 151.86969 393.3736 153.07281ZM406.7486 155.41656Q406.15485 155.91656 405.60797 156.11969Q405.07672 156.32281 404.45172 156.32281Q403.42047 156.32281 402.8736 155.82281Q402.32672 155.32281 402.32672 154.54156Q402.32672 154.08844 402.52985 153.71344Q402.73297 153.32281 403.07672 153.10406Q403.42047 152.86969 403.84235 152.76031Q404.13922 152.66656 404.77985 152.58844Q406.04547 152.44781 406.65485 152.22906Q406.65485 152.01031 406.65485 151.96344Q406.65485 151.30719 406.35797 151.04156Q405.95172 150.69781 405.15485 150.69781Q404.42047 150.69781 404.0611 150.96344Q403.70172 151.21344 403.52985 151.86969L402.4986 151.72906Q402.63922 151.07281 402.96735 150.66656Q403.29547 150.26031 403.90485 150.04156Q404.51422 149.82281 405.3111 149.82281Q406.10797 149.82281 406.60797 150.01031Q407.10797 150.19781 407.34235 150.47906Q407.57672 150.76031 407.67047 151.19781Q407.71735 151.46344 407.71735 152.16656L407.71735 153.57281Q407.71735 155.04156 407.77985 155.43219Q407.85797 155.82281 408.0611 156.18219L406.95172 156.18219Q406.79547 155.85406 406.7486 155.41656ZM406.65485 153.05719Q406.07672 153.29156 404.9361 153.46344Q404.27985 153.55719 404.01422 153.68219Q403.7486 153.79156 403.59235 154.01031Q403.45172 154.22906 403.45172 154.51031Q403.45172 154.93219 403.76422 155.21344Q404.09235 155.49469 404.70172 155.49469Q405.3111 155.49469 405.77985 155.22906Q406.26422 154.96344 406.48297 154.49469Q406.65485 154.13531 406.65485 153.44781L406.65485 153.05719ZM409.48297 156.69781L410.51422 156.85406Q410.57672 157.32281 410.8736 157.54156Q411.26422 157.83844 411.9361 157.83844Q412.67047 157.83844 413.0611 157.54156Q413.46735 157.24469 413.60797 156.72906Q413.70172 156.40094 413.6861 155.36969Q412.9986 156.18219 411.96735 156.18219Q410.6861 156.18219 409.98297 155.26031Q409.27985 154.32281 409.27985 153.04156Q409.27985 152.15094 409.59235 151.40094Q409.92047 150.63531 410.52985 150.22906Q411.13922 149.82281 411.96735 149.82281Q413.07672 149.82281 413.79547 150.71344L413.79547 149.96344L414.76422 149.96344L414.76422 155.33844Q414.76422 156.79156 414.46735 157.40094Q414.17047 158.01031 413.52985 158.35406Q412.88922 158.71344 411.95172 158.71344Q410.84235 158.71344 410.15485 158.21344Q409.46735 157.71344 409.48297 156.69781ZM410.35797 152.96344Q410.35797 154.18219 410.84235 154.74469Q411.32672 155.30719 412.0611 155.30719Q412.79547 155.30719 413.27985 154.74469Q413.77985 154.18219 413.77985 152.99469Q413.77985 151.85406 413.26422 151.27594Q412.76422 150.69781 412.04547 150.69781Q411.34235 150.69781 410.84235 151.27594Q410.35797 151.83844 410.35797 152.96344ZM416.67047 156.18219L416.67047 149.96344L417.6236 149.96344L417.6236 150.90094Q417.98297 150.24469 418.27985 150.04156Q418.59235 149.82281 418.96735 149.82281Q419.4986 149.82281 420.04547 150.15094L419.6861 151.13531Q419.29547 150.90094 418.92047 150.90094Q418.5611 150.90094 418.27985 151.11969Q418.01422 151.32281 417.90485 151.69781Q417.71735 152.26031 417.71735 152.91656L417.71735 156.18219L416.67047 156.18219ZM424.9361 154.18219L426.02985 154.30719Q425.77985 155.26031 425.07672 155.79156Q424.3736 156.32281 423.29547 156.32281Q421.9361 156.32281 421.1236 155.47906Q420.32672 154.63531 420.32672 153.11969Q420.32672 151.55719 421.13922 150.69781Q421.95172 149.82281 423.23297 149.82281Q424.48297 149.82281 425.26422 150.66656Q426.0611 151.51031 426.0611 153.05719Q426.0611 153.15094 426.0611 153.33844L421.42047 153.33844Q421.48297 154.36969 421.9986 154.91656Q422.51422 155.44781 423.29547 155.44781Q423.8736 155.44781 424.27985 155.15094Q424.70172 154.83844 424.9361 154.18219ZM421.48297 152.47906L424.95172 152.47906Q424.88922 151.68219 424.5611 151.29156Q424.04547 150.68219 423.2486 150.68219Q422.51422 150.68219 422.01422 151.16656Q421.52985 151.65094 421.48297 152.47906ZM431.9361 154.18219L433.02985 154.30719Q432.77985 155.26031 432.07672 155.79156Q431.3736 156.32281 430.29547 156.32281Q428.9361 156.32281 428.1236 155.47906Q427.32672 154.63531 427.32672 153.11969Q427.32672 151.55719 428.13922 150.69781Q428.95172 149.82281 430.23297 149.82281Q431.48297 149.82281 432.26422 150.66656Q433.0611 151.51031 433.0611 153.05719Q433.0611 153.15094 433.0611 153.33844L428.42047 153.33844Q428.48297 154.36969 428.9986 154.91656Q429.51422 155.44781 430.29547 155.44781Q430.8736 155.44781 431.27985 155.15094Q431.70172 154.83844 431.9361 154.18219ZM428.48297 152.47906L431.95172 152.47906Q431.88922 151.68219 431.5611 151.29156Q431.04547 150.68219 430.2486 150.68219Q429.51422 150.68219 429.01422 151.16656Q428.52985 151.65094 428.48297 152.47906Z" fill-rule="nonzero"/><path fill="#666666" d="M7.4279995 53.87165L7.4279995 45.2779L8.5529995 45.2779L8.5529995 53.87165L7.4279995 53.87165ZM13.3498745 53.87165L13.3498745 48.4654L12.4123745 48.4654L12.4123745 47.6529L13.3498745 47.6529L13.3498745 46.981026Q13.3498745 46.356026 13.4592495 46.05915Q13.6154995 45.637276 13.9904995 45.387276Q14.3811245 45.137276 15.0686245 45.137276Q15.5217495 45.137276 16.053 45.24665L15.8967495 46.1529Q15.5686245 46.106026 15.2717495 46.106026Q14.7873745 46.106026 14.5842495 46.30915Q14.3967495 46.512276 14.3967495 47.074776L14.3967495 47.6529L15.6154995 47.6529L15.6154995 48.4654L14.3967495 48.4654L14.3967495 53.87165L13.3498745 53.87165ZM20.349874 51.87165L21.443624 51.99665Q21.193624 52.949776 20.4905 53.481026Q19.787374 54.012276 18.70925 54.012276Q17.349874 54.012276 16.537374 53.168526Q15.7404995 52.324776 15.7404995 50.80915Q15.7404995 49.24665 16.553 48.387276Q17.3655 47.512276 18.64675 47.512276Q19.89675 47.512276 20.678 48.356026Q21.474874 49.199776 21.474874 50.74665Q21.474874 50.8404 21.474874 51.0279L16.83425 51.0279Q16.89675 52.05915 17.412374 52.606026Q17.928 53.137276 18.70925 53.137276Q19.287374 53.137276 19.693624 52.8404Q20.1155 52.5279 20.349874 51.87165ZM16.89675 50.168526L20.3655 50.168526Q20.303 49.37165 19.974874 48.981026Q19.45925 48.37165 18.662374 48.37165Q17.928 48.37165 17.428 48.856026Q16.943624 49.3404 16.89675 50.168526ZM27.349874 51.87165L28.443624 51.99665Q28.193624 52.949776 27.4905 53.481026Q26.787374 54.012276 25.70925 54.012276Q24.349874 54.012276 23.537374 53.168526Q22.7405 52.324776 22.7405 50.80915Q22.7405 49.24665 23.553 48.387276Q24.3655 47.512276 25.64675 47.512276Q26.89675 47.512276 27.678 48.356026Q28.474874 49.199776 28.474874 50.74665Q28.474874 50.8404 28.474874 51.0279L23.83425 51.0279Q23.89675 52.05915 24.412374 52.606026Q24.928 53.137276 25.70925 53.137276Q26.287374 53.137276 26.693624 52.8404Q27.1155 52.5279 27.349874 51.87165ZM23.89675 50.168526L27.3655 50.168526Q27.303 49.37165 26.974874 48.981026Q26.45925 48.37165 25.662374 48.37165Q24.928 48.37165 24.428 48.856026Q23.943624 49.3404 23.89675 50.168526ZM30.068624 53.87165L30.068624 45.2779L31.131124 45.2779L31.131124 53.87165L30.068624 53.87165ZM37.2405 53.87165L35.33425 47.6529L36.428 47.6529L37.412376 51.24665L37.787376 52.574776Q37.818626 52.481026 38.1155 51.293526L39.099876 47.6529L40.178 47.6529L41.1155 51.262276L41.428 52.449776L41.787376 51.24665L42.849876 47.6529L43.881126 47.6529L41.928 53.87165L40.83425 53.87165L39.849876 50.137276L39.599876 49.0904L38.349876 53.87165L37.2405 53.87165ZM49.349876 51.87165L50.443626 51.99665Q50.193626 52.949776 49.4905 53.481026Q48.787376 54.012276 47.70925 54.012276Q46.349876 54.012276 45.537376 53.168526Q44.7405 52.324776 44.7405 50.80915Q44.7405 49.24665 45.553 48.387276Q46.3655 47.512276 47.64675 47.512276Q48.89675 47.512276 49.678 48.356026Q50.474876 49.199776 50.474876 50.74665Q50.474876 50.8404 50.474876 51.0279L45.83425 51.0279Q45.89675 52.05915 46.412376 52.606026Q46.928 53.137276 47.70925 53.137276Q48.287376 53.137276 48.693626 52.8404Q49.1155 52.5279 49.349876 51.87165ZM45.89675 50.168526L49.3655 50.168526Q49.303 49.37165 48.974876 48.981026Q48.45925 48.37165 47.662376 48.37165Q46.928 48.37165 46.428 48.856026Q45.943626 49.3404 45.89675 50.168526ZM52.068626 53.87165L52.068626 45.2779L53.131126 45.2779L53.131126 53.87165L52.068626 53.87165ZM59.162376 51.5904L60.193626 51.731026Q60.02175 52.793526 59.318626 53.4029Q58.6155 54.012276 57.599876 54.012276Q56.318626 54.012276 55.537376 53.18415Q54.77175 52.3404 54.77175 50.7779Q54.77175 49.7779 55.099876 49.0279Q55.443626 48.262276 56.1155 47.887276Q56.803 47.512276 57.6155 47.512276Q58.6155 47.512276 59.256126 48.0279Q59.912376 48.5279 60.099876 49.481026L59.068626 49.637276Q58.928 49.012276 58.553 48.699776Q58.178 48.37165 57.64675 48.37165Q56.849876 48.37165 56.349876 48.949776Q55.849876 49.512276 55.849876 50.74665Q55.849876 52.012276 56.33425 52.574776Q56.818626 53.137276 57.58425 53.137276Q58.20925 53.137276 58.6155 52.762276Q59.037376 52.387276 59.162376 51.5904ZM60.70925 50.762276Q60.70925 49.0279 61.662376 48.199776Q62.45925 47.512276 63.6155 47.512276Q64.89675 47.512276 65.70925 48.356026Q66.53738 49.18415 66.53738 50.668526Q66.53738 51.87165 66.178 52.55915Q65.81863 53.24665 65.1155 53.637276Q64.428 54.012276 63.6155 54.012276Q62.318626 54.012276 61.506126 53.18415Q60.70925 52.3404 60.70925 50.762276ZM61.787376 50.762276Q61.787376 51.949776 62.303 52.543526Q62.83425 53.137276 63.6155 53.137276Q64.41238 53.137276 64.928 52.543526Q65.44363 51.949776 65.44363 50.731026Q65.44363 49.574776 64.91238 48.981026Q64.39675 48.387276 63.6155 48.387276Q62.83425 48.387276 62.303 48.981026Q61.787376 49.55915 61.787376 50.762276ZM68.09988 53.87165L68.09988 47.6529L69.03738 47.6529L69.03738 48.5279Q69.33425 48.05915 69.81863 47.793526Q70.303 47.512276 70.928 47.512276Q71.6155 47.512276 72.053 47.793526Q72.50613 48.074776 72.678 48.5904Q73.428 47.512276 74.59988 47.512276Q75.53738 47.512276 76.02175 48.0279Q76.52175 48.5279 76.52175 49.606026L76.52175 53.87165L75.47488 53.87165L75.47488 49.949776Q75.47488 49.324776 75.3655 49.043526Q75.27175 48.762276 75.00613 48.5904Q74.7405 48.418526 74.3655 48.418526Q73.70925 48.418526 73.27175 48.856026Q72.84988 49.293526 72.84988 50.262276L72.84988 53.87165L71.78738 53.87165L71.78738 49.824776Q71.78738 49.12165 71.52175 48.7779Q71.27175 48.418526 70.69363 48.418526Q70.2405 48.418526 69.8655 48.6529Q69.4905 48.887276 69.31863 49.3404Q69.14675 49.793526 69.14675 50.637276L69.14675 53.87165L68.09988 53.87165ZM82.34988 51.87165L83.44363 51.99665Q83.19363 52.949776 82.4905 53.481026Q81.78738 54.012276 80.70925 54.012276Q79.34988 54.012276 78.53738 53.168526Q77.7405 52.324776 77.7405 50.80915Q77.7405 49.24665 78.553 48.387276Q79.3655 47.512276 80.64675 47.512276Q81.89675 47.512276 82.678 48.356026Q83.47488 49.199776 83.47488 50.74665Q83.47488 50.8404 83.47488 51.0279L78.83425 51.0279Q78.89675 52.05915 79.41238 52.606026Q79.928 53.137276 80.70925 53.137276Q81.28738 53.137276 81.69363 52.8404Q82.1155 52.5279 82.34988 51.87165ZM78.89675 50.168526L82.3655 50.168526Q82.303 49.37165 81.97488 48.981026Q81.45925 48.37165 80.66238 48.37165Q79.928 48.37165 79.428 48.856026Q78.94363 49.3404 78.89675 50.168526ZM88.09988 46.49665L88.09988 45.2779L89.16238 45.2779L89.16238 46.49665L88.09988 46.49665ZM88.09988 53.87165L88.09988 47.6529L89.16238 47.6529L89.16238 53.87165L88.09988 53.87165ZM91.09988 53.87165L91.09988 47.6529L92.03738 47.6529L92.03738 48.5279Q92.72488 47.512276 94.02175 47.512276Q94.58425 47.512276 95.053 47.7154Q95.53738 47.918526 95.77175 48.24665Q96.00613 48.574776 96.09988 49.012276Q96.14675 49.30915 96.14675 50.043526L96.14675 53.87165L95.09988 53.87165L95.09988 50.0904Q95.09988 49.43415 94.97488 49.12165Q94.84988 48.80915 94.53738 48.62165Q94.22488 48.418526 93.803 48.418526Q93.13113 48.418526 92.63113 48.856026Q92.14675 49.2779 92.14675 50.4654L92.14675 53.87165L91.09988 53.87165ZM103.39675 52.93415L103.553 53.856026Q103.09988 53.949776 102.75613 53.949776Q102.178 53.949776 101.8655 53.7779Q101.553 53.5904 101.41238 53.293526Q101.28738 52.99665 101.28738 52.043526L101.28738 48.4654L100.52175 48.4654L100.52175 47.6529L101.28738 47.6529L101.28738 46.106026L102.33425 45.481026L102.33425 47.6529L103.39675 47.6529L103.39675 48.4654L102.33425 48.4654L102.33425 52.106026Q102.33425 52.55915 102.38113 52.68415Q102.44363 52.80915 102.56863 52.887276Q102.69363 52.9654 102.928 52.9654Q103.1155 52.9654 103.39675 52.93415ZM104.09988 53.87165L104.09988 45.2779L105.14675 45.2779L105.14675 48.356026Q105.88113 47.512276 107.00613 47.512276Q107.70925 47.512276 108.20925 47.793526Q108.72488 48.05915 108.94363 48.543526Q109.16238 49.012276 109.16238 49.93415L109.16238 53.87165L108.1155 53.87165L108.1155 49.93415Q108.1155 49.137276 107.77175 48.7779Q107.428 48.418526 106.803 48.418526Q106.33425 48.418526 105.91238 48.668526Q105.50613 48.9029 105.31863 49.324776Q105.14675 49.731026 105.14675 50.4654L105.14675 53.87165L104.09988 53.87165ZM115.34988 51.87165L116.44363 51.99665Q116.19363 52.949776 115.4905 53.481026Q114.78738 54.012276 113.70925 54.012276Q112.34988 54.012276 111.53738 53.168526Q110.7405 52.324776 110.7405 50.80915Q110.7405 49.24665 111.553 48.387276Q112.3655 47.512276 113.64675 47.512276Q114.89675 47.512276 115.678 48.356026Q116.47488 49.199776 116.47488 50.74665Q116.47488 50.8404 116.47488 51.0279L111.83425 51.0279Q111.89675 52.05915 112.41238 52.606026Q112.928 53.137276 113.70925 53.137276Q114.28738 53.137276 114.69363 52.8404Q115.1155 52.5279 115.34988 51.87165ZM111.89675 50.168526L115.3655 50.168526Q115.303 49.37165 114.97488 48.981026Q114.45925 48.37165 113.66238 48.37165Q112.928 48.37165 112.428 48.856026Q111.94363 49.3404 111.89675 50.168526ZM125.25613 50.49665L125.25613 49.49665L128.88113 49.481026L128.88113 52.668526Q128.05301 53.3404 127.16238 53.68415Q126.27175 54.012276 125.33425 54.012276Q124.06863 54.012276 123.02175 53.481026Q121.9905 52.93415 121.45925 51.918526Q120.94363 50.887276 120.94363 49.62165Q120.94363 48.356026 121.45925 47.2779Q121.9905 46.18415 122.97488 45.668526Q123.95925 45.137276 125.2405 45.137276Q126.178 45.137276 126.928 45.43415Q127.678 45.731026 128.09988 46.2779Q128.53738 46.80915 128.75613 47.68415L127.7405 47.9654Q127.53738 47.30915 127.2405 46.93415Q126.95925 46.55915 126.428 46.3404Q125.89675 46.106026 125.25613 46.106026Q124.47488 46.106026 123.89675 46.3404Q123.33425 46.574776 122.97488 46.9654Q122.63113 47.356026 122.44363 47.824776Q122.1155 48.62165 122.1155 49.543526Q122.1155 50.699776 122.50613 51.481026Q122.91238 52.24665 123.66238 52.62165Q124.41238 52.99665 125.27175 52.99665Q126.00613 52.99665 126.70925 52.7154Q127.41238 52.418526 127.77175 52.106026L127.77175 50.49665L125.25613 50.49665ZM129.70924 50.762276Q129.70924 49.0279 130.66237 48.199776Q131.45924 47.512276 132.6155 47.512276Q133.89674 47.512276 134.70924 48.356026Q135.53737 49.18415 135.53737 50.668526Q135.53737 51.87165 135.178 52.55915Q134.81862 53.24665 134.1155 53.637276Q133.428 54.012276 132.6155 54.012276Q131.31862 54.012276 130.50612 53.18415Q129.70924 52.3404 129.70924 50.762276ZM130.78737 50.762276Q130.78737 51.949776 131.303 52.543526Q131.83424 53.137276 132.6155 53.137276Q133.41237 53.137276 133.928 52.543526Q134.44362 51.949776 134.44362 50.731026Q134.44362 49.574776 133.91237 48.981026Q133.39674 48.387276 132.6155 48.387276Q131.83424 48.387276 131.303 48.981026Q130.78737 49.55915 130.78737 50.762276Z" fill-rule="nonzero"/><path fill="#666666" d="M82.16238 65.5904L83.19363 65.731026Q83.02175 66.793526 82.31863 67.4029Q81.6155 68.012276 80.59988 68.012276Q79.31863 68.012276 78.53738 67.18415Q77.77175 66.3404 77.77175 64.7779Q77.77175 63.7779 78.09988 63.0279Q78.44363 62.262276 79.1155 61.887276Q79.803 61.512276 80.6155 61.512276Q81.6155 61.512276 82.25613 62.0279Q82.91238 62.5279 83.09988 63.481026L82.06863 63.637276Q81.928 63.012276 81.553 62.699776Q81.178 62.37165 80.64675 62.37165Q79.84988 62.37165 79.34988 62.949776Q78.84988 63.512276 78.84988 64.74665Q78.84988 66.012276 79.33425 66.574776Q79.81863 67.137276 80.58425 67.137276Q81.20925 67.137276 81.6155 66.762276Q82.03738 66.387276 82.16238 65.5904ZM83.70925 64.762276Q83.70925 63.0279 84.66238 62.199776Q85.45925 61.512276 86.6155 61.512276Q87.89675 61.512276 88.70925 62.356026Q89.53738 63.18415 89.53738 64.668526Q89.53738 65.87165 89.178 66.55915Q88.81863 67.24665 88.1155 67.637276Q87.428 68.012276 86.6155 68.012276Q85.31863 68.012276 84.50613 67.18415Q83.70925 66.3404 83.70925 64.762276ZM84.78738 64.762276Q84.78738 65.949776 85.303 66.543526Q85.83425 67.137276 86.6155 67.137276Q87.41238 67.137276 87.928 66.543526Q88.44363 65.949776 88.44363 64.731026Q88.44363 63.574776 87.91238 62.981026Q87.39675 62.387276 86.6155 62.387276Q85.83425 62.387276 85.303 62.981026Q84.78738 63.55915 84.78738 64.762276ZM91.09988 67.87165L91.09988 61.6529L92.03738 61.6529L92.03738 62.5279Q92.33425 62.05915 92.81863 61.793526Q93.303 61.512276 93.928 61.512276Q94.6155 61.512276 95.053 61.793526Q95.50613 62.074776 95.678 62.5904Q96.428 61.512276 97.59988 61.512276Q98.53738 61.512276 99.02175 62.0279Q99.52175 62.5279 99.52175 63.606026L99.52175 67.87165L98.47488 67.87165L98.47488 63.949776Q98.47488 63.324776 98.3655 63.043526Q98.27175 62.762276 98.00613 62.5904Q97.7405 62.418526 97.3655 62.418526Q96.70925 62.418526 96.27175 62.856026Q95.84988 63.293526 95.84988 64.262276L95.84988 67.87165L94.78738 67.87165L94.78738 63.824776Q94.78738 63.12165 94.52175 62.7779Q94.27175 62.418526 93.69363 62.418526Q93.2405 62.418526 92.8655 62.6529Q92.4905 62.887276 92.31863 63.3404Q92.14675 63.793526 92.14675 64.637276L92.14675 67.87165L91.09988 67.87165ZM101.09988 67.87165L101.09988 61.6529L102.03738 61.6529L102.03738 62.5279Q102.33425 62.05915 102.81863 61.793526Q103.303 61.512276 103.928 61.512276Q104.6155 61.512276 105.053 61.793526Q105.50613 62.074776 105.678 62.5904Q106.428 61.512276 107.59988 61.512276Q108.53738 61.512276 109.02175 62.0279Q109.52175 62.5279 109.52175 63.606026L109.52175 67.87165L108.47488 67.87165L108.47488 63.949776Q108.47488 63.324776 108.3655 63.043526Q108.27175 62.762276 108.00613 62.5904Q107.7405 62.418526 107.3655 62.418526Q106.70925 62.418526 106.27175 62.856026Q105.84988 63.293526 105.84988 64.262276L105.84988 67.87165L104.78738 67.87165L104.78738 63.824776Q104.78738 63.12165 104.52175 62.7779Q104.27175 62.418526 103.69363 62.418526Q103.2405 62.418526 102.8655 62.6529Q102.4905 62.887276 102.31863 63.3404Q102.14675 63.793526 102.14675 64.637276L102.14675 67.87165L101.09988 67.87165ZM115.178 67.87165L115.178 66.949776Q114.44363 68.012276 113.19363 68.012276Q112.64675 68.012276 112.16238 67.80915Q111.69363 67.5904 111.45925 67.2779Q111.22488 66.949776 111.13113 66.481026Q111.06863 66.18415 111.06863 65.49665L111.06863 61.6529L112.13113 61.6529L112.13113 65.106026Q112.13113 65.918526 112.19363 66.2154Q112.28738 66.62165 112.59988 66.87165Q112.928 67.106026 113.41238 67.106026Q113.88113 67.106026 114.28738 66.87165Q114.70925 66.62165 114.88113 66.199776Q115.06863 65.7779 115.06863 64.981026L115.06863 61.6529L116.1155 61.6529L116.1155 67.87165L115.178 67.87165ZM118.09988 67.87165L118.09988 61.6529L119.03738 61.6529L119.03738 62.5279Q119.72488 61.512276 121.02175 61.512276Q121.58425 61.512276 122.053 61.7154Q122.53738 61.918526 122.77175 62.24665Q123.00613 62.574776 123.09988 63.012276Q123.14675 63.30915 123.14675 64.043526L123.14675 67.87165L122.09988 67.87165L122.09988 64.0904Q122.09988 63.43415 121.97488 63.12165Q121.84988 62.80915 121.53738 62.62165Q121.22488 62.418526 120.803 62.418526Q120.13113 62.418526 119.63113 62.856026Q119.14675 63.2779 119.14675 64.4654L119.14675 67.87165L118.09988 67.87165ZM125.09988 60.49665L125.09988 59.2779L126.16238 59.2779L126.16238 60.49665L125.09988 60.49665ZM125.09988 67.87165L125.09988 61.6529L126.16238 61.6529L126.16238 67.87165L125.09988 67.87165ZM130.39676 66.93415L130.55301 67.856026Q130.09988 67.949776 129.75613 67.949776Q129.17801 67.949776 128.86551 67.7779Q128.55301 67.5904 128.41238 67.293526Q128.28738 66.99665 128.28738 66.043526L128.28738 62.4654L127.52175 62.4654L127.52175 61.6529L128.28738 61.6529L128.28738 60.106026L129.33426 59.481026L129.33426 61.6529L130.39676 61.6529L130.39676 62.4654L129.33426 62.4654L129.33426 66.106026Q129.33426 66.55915 129.38113 66.68415Q129.44363 66.80915 129.56863 66.887276Q129.69363 66.9654 129.92801 66.9654Q130.11551 66.9654 130.39676 66.93415ZM131.05301 70.262276L130.92801 69.2779Q131.27176 69.37165 131.53738 69.37165Q131.88113 69.37165 132.08426 69.24665Q132.30301 69.137276 132.44363 68.93415Q132.53738 68.762276 132.77176 68.137276Q132.78738 68.05915 132.86551 67.887276L130.49051 61.6529L131.63113 61.6529L132.92801 65.24665Q133.17801 65.93415 133.38113 66.699776Q133.56863 65.9654 133.81863 65.2779L135.14676 61.6529L136.19363 61.6529L133.83426 67.981026Q133.44363 68.99665 133.24051 69.387276Q132.95926 69.918526 132.58426 70.1529Q132.22488 70.4029 131.72488 70.4029Q131.42801 70.4029 131.05301 70.262276Z" fill-rule="nonzero"/><path fill="#666666" d="M133.803 114.77991Q133.803 113.24866 134.1155 112.32678Q134.428 111.38928 135.03737 110.88928Q135.66237 110.38928 136.59987 110.38928Q137.28737 110.38928 137.803 110.67053Q138.33424 110.95178 138.678 111.48303Q139.02174 111.99866 139.20924 112.74866Q139.39674 113.49866 139.39674 114.77991Q139.39674 116.29553 139.08424 117.21741Q138.78737 118.13928 138.16237 118.65491Q137.553 119.15491 136.59987 119.15491Q135.3655 119.15491 134.64674 118.26428Q133.803 117.20178 133.803 114.77991ZM134.88112 114.77991Q134.88112 116.88928 135.38112 117.59241Q135.88112 118.29553 136.59987 118.29553Q137.33424 118.29553 137.81862 117.59241Q138.31862 116.88928 138.31862 114.77991Q138.31862 112.65491 137.81862 111.96741Q137.33424 111.26428 136.58424 111.26428Q135.8655 111.26428 135.428 111.87366Q134.88112 112.65491 134.88112 114.77991ZM141.00612 112.48303Q141.00612 111.56116 141.45924 110.92053Q141.928 110.27991 142.803 110.27991Q143.6155 110.27991 144.14674 110.85803Q144.678 111.43616 144.678 112.54553Q144.678 113.63928 144.13112 114.23303Q143.59987 114.81116 142.81862 114.81116Q142.03737 114.81116 141.52174 114.23303Q141.00612 113.65491 141.00612 112.48303ZM142.83424 110.99866Q142.44362 110.99866 142.178 111.34241Q141.928 111.68616 141.928 112.59241Q141.928 113.42053 142.178 113.76428Q142.44362 114.09241 142.83424 114.09241Q143.2405 114.09241 143.4905 113.74866Q143.75612 113.40491 143.75612 112.51428Q143.75612 111.67053 143.4905 111.34241Q143.22487 110.99866 142.83424 110.99866ZM142.83424 119.32678L147.53737 110.27991L148.39674 110.27991L143.70924 119.32678L142.83424 119.32678ZM146.553 116.99866Q146.553 116.07678 147.00612 115.43616Q147.47487 114.79553 148.3655 114.79553Q149.178 114.79553 149.70924 115.37366Q150.2405 115.93616 150.2405 117.06116Q150.2405 118.15491 149.69362 118.74866Q149.16237 119.32678 148.3655 119.32678Q147.59987 119.32678 147.06862 118.74866Q146.553 118.17053 146.553 116.99866ZM148.39674 115.51428Q147.9905 115.51428 147.72487 115.85803Q147.47487 116.20178 147.47487 117.10803Q147.47487 117.92053 147.7405 118.26428Q148.00612 118.60803 148.39674 118.60803Q148.78737 118.60803 149.053 118.26428Q149.31862 117.92053 149.31862 117.01428Q149.31862 116.18616 149.053 115.85803Q148.78737 115.51428 148.39674 115.51428Z" fill-rule="nonzero"/><path fill="#666666" d="M242.64299 117.99866L242.64299 119.01428L236.95549 119.01428Q236.95549 118.63928 237.08049 118.27991Q237.29924 117.70178 237.76799 117.13928Q238.25237 116.57678 239.15862 115.84241Q240.56487 114.68616 241.04924 114.01428Q241.54924 113.34241 241.54924 112.74866Q241.54924 112.12366 241.09612 111.70178Q240.64299 111.26428 239.92424 111.26428Q239.15862 111.26428 238.70549 111.71741Q238.25237 112.17053 238.23674 112.98303L237.15862 112.87366Q237.26799 111.65491 237.98674 111.02991Q238.72112 110.38928 239.95549 110.38928Q241.18987 110.38928 241.90862 111.07678Q242.62737 111.76428 242.62737 112.77991Q242.62737 113.29553 242.40862 113.79553Q242.20549 114.27991 241.70549 114.84241Q241.22112 115.38928 240.09612 116.34241Q239.14299 117.13928 238.86174 117.43616Q238.59612 117.71741 238.42424 117.99866L242.64299 117.99866ZM244.09612 114.77991Q244.09612 113.24866 244.40862 112.32678Q244.72112 111.38928 245.33049 110.88928Q245.95549 110.38928 246.89299 110.38928Q247.58049 110.38928 248.09612 110.67053Q248.62737 110.95178 248.97112 111.48303Q249.31487 111.99866 249.50237 112.74866Q249.68987 113.49866 249.68987 114.77991Q249.68987 116.29553 249.37737 117.21741Q249.08049 118.13928 248.45549 118.65491Q247.84612 119.15491 246.89299 119.15491Q245.65862 119.15491 244.93987 118.26428Q244.09612 117.20178 244.09612 114.77991ZM245.17424 114.77991Q245.17424 116.88928 245.67424 117.59241Q246.17424 118.29553 246.89299 118.29553Q247.62737 118.29553 248.11174 117.59241Q248.61174 116.88928 248.61174 114.77991Q248.61174 112.65491 248.11174 111.96741Q247.62737 111.26428 246.87737 111.26428Q246.15862 111.26428 245.72112 111.87366Q245.17424 112.65491 245.17424 114.77991ZM251.29924 112.48303Q251.29924 111.56116 251.75237 110.92053Q252.22112 110.27991 253.09612 110.27991Q253.90862 110.27991 254.43987 110.85803Q254.97112 111.43616 254.97112 112.54553Q254.97112 113.63928 254.42424 114.23303Q253.89299 114.81116 253.11174 114.81116Q252.33049 114.81116 251.81487 114.23303Q251.29924 113.65491 251.29924 112.48303ZM253.12737 110.99866Q252.73674 110.99866 252.47112 111.34241Q252.22112 111.68616 252.22112 112.59241Q252.22112 113.42053 252.47112 113.76428Q252.73674 114.09241 253.12737 114.09241Q253.53362 114.09241 253.78362 113.74866Q254.04924 113.40491 254.04924 112.51428Q254.04924 111.67053 253.78362 111.34241Q253.51799 110.99866 253.12737 110.99866ZM253.12737 119.32678L257.8305 110.27991L258.68988 110.27991L254.00237 119.32678L253.12737 119.32678ZM256.84613 116.99866Q256.84613 116.07678 257.29926 115.43616Q257.768 114.79553 258.65863 114.79553Q259.47113 114.79553 260.00238 115.37366Q260.53363 115.93616 260.53363 117.06116Q260.53363 118.15491 259.98676 118.74866Q259.4555 119.32678 258.65863 119.32678Q257.893 119.32678 257.36176 118.74866Q256.84613 118.17053 256.84613 116.99866ZM258.68988 115.51428Q258.28363 115.51428 258.018 115.85803Q257.768 116.20178 257.768 117.10803Q257.768 117.92053 258.03363 118.26428Q258.29926 118.60803 258.68988 118.60803Q259.0805 118.60803 259.34613 118.26428Q259.61176 117.92053 259.61176 117.01428Q259.61176 116.18616 259.34613 115.85803Q259.0805 115.51428 258.68988 115.51428Z" fill-rule="nonzero"/><path fill="#666666" d="M347.26422 119.01428L347.26422 116.95178L343.54547 116.95178L343.54547 115.98303L347.46735 110.42053L348.32672 110.42053L348.32672 115.98303L349.48297 115.98303L349.48297 116.95178L348.32672 116.95178L348.32672 119.01428L347.26422 119.01428ZM347.26422 115.98303L347.26422 112.12366L344.57672 115.98303L347.26422 115.98303ZM350.88922 114.77991Q350.88922 113.24866 351.20172 112.32678Q351.51422 111.38928 352.1236 110.88928Q352.7486 110.38928 353.6861 110.38928Q354.3736 110.38928 354.88922 110.67053Q355.42047 110.95178 355.76422 111.48303Q356.10797 111.99866 356.29547 112.74866Q356.48297 113.49866 356.48297 114.77991Q356.48297 116.29553 356.17047 117.21741Q355.8736 118.13928 355.2486 118.65491Q354.63922 119.15491 353.6861 119.15491Q352.45172 119.15491 351.73297 118.26428Q350.88922 117.20178 350.88922 114.77991ZM351.96735 114.77991Q351.96735 116.88928 352.46735 117.59241Q352.96735 118.29553 353.6861 118.29553Q354.42047 118.29553 354.90485 117.59241Q355.40485 116.88928 355.40485 114.77991Q355.40485 112.65491 354.90485 111.96741Q354.42047 111.26428 353.67047 111.26428Q352.95172 111.26428 352.51422 111.87366Q351.96735 112.65491 351.96735 114.77991ZM358.09235 112.48303Q358.09235 111.56116 358.54547 110.92053Q359.01422 110.27991 359.88922 110.27991Q360.70172 110.27991 361.23297 110.85803Q361.76422 111.43616 361.76422 112.54553Q361.76422 113.63928 361.21735 114.23303Q360.6861 114.81116 359.90485 114.81116Q359.1236 114.81116 358.60797 114.23303Q358.09235 113.65491 358.09235 112.48303ZM359.92047 110.99866Q359.52985 110.99866 359.26422 111.34241Q359.01422 111.68616 359.01422 112.59241Q359.01422 113.42053 359.26422 113.76428Q359.52985 114.09241 359.92047 114.09241Q360.32672 114.09241 360.57672 113.74866Q360.84235 113.40491 360.84235 112.51428Q360.84235 111.67053 360.57672 111.34241Q360.3111 110.99866 359.92047 110.99866ZM359.92047 119.32678L364.6236 110.27991L365.48297 110.27991L360.79547 119.32678L359.92047 119.32678ZM363.63922 116.99866Q363.63922 116.07678 364.09235 115.43616Q364.5611 114.79553 365.45172 114.79553Q366.26422 114.79553 366.79547 115.37366Q367.32672 115.93616 367.32672 117.06116Q367.32672 118.15491 366.77985 118.74866Q366.2486 119.32678 365.45172 119.32678Q364.6861 119.32678 364.15485 118.74866Q363.63922 118.17053 363.63922 116.99866ZM365.48297 115.51428Q365.07672 115.51428 364.8111 115.85803Q364.5611 116.20178 364.5611 117.10803Q364.5611 117.92053 364.82672 118.26428Q365.09235 118.60803 365.48297 118.60803Q365.8736 118.60803 366.13922 118.26428Q366.40485 117.92053 366.40485 117.01428Q366.40485 116.18616 366.13922 115.85803Q365.8736 115.51428 365.48297 115.51428Z" fill-rule="nonzero"/><path fill="#666666" d="M456.15106 112.52991L455.1042 112.60803Q454.96356 111.98303 454.71356 111.70178Q454.27606 111.24866 453.65106 111.24866Q453.15106 111.24866 452.76044 111.52991Q452.27606 111.90491 451.9792 112.60803Q451.69794 113.29553 451.6823 114.57678Q452.0573 113.99866 452.6042 113.71741Q453.1667 113.43616 453.77606 113.43616Q454.82294 113.43616 455.5573 114.21741Q456.3073 114.99866 456.3073 116.21741Q456.3073 117.02991 455.94794 117.73303Q455.6042 118.42053 454.9948 118.79553Q454.38544 119.15491 453.6198 119.15491Q452.2917 119.15491 451.46356 118.18616Q450.63544 117.21741 450.63544 114.99866Q450.63544 112.49866 451.5573 111.37366Q452.3542 110.38928 453.71356 110.38928Q454.7292 110.38928 455.3698 110.96741Q456.02606 111.52991 456.15106 112.52991ZM451.8542 116.23303Q451.8542 116.77991 452.07294 117.27991Q452.3073 117.76428 452.71356 118.02991Q453.13544 118.29553 453.6042 118.29553Q454.26044 118.29553 454.7448 117.76428Q455.2292 117.21741 455.2292 116.29553Q455.2292 115.40491 454.7448 114.88928Q454.27606 114.37366 453.5573 114.37366Q452.83856 114.37366 452.33856 114.88928Q451.8542 115.40491 451.8542 116.23303ZM457.6823 114.77991Q457.6823 113.24866 457.9948 112.32678Q458.3073 111.38928 458.9167 110.88928Q459.5417 110.38928 460.4792 110.38928Q461.1667 110.38928 461.6823 110.67053Q462.21356 110.95178 462.5573 111.48303Q462.90106 111.99866 463.08856 112.74866Q463.27606 113.49866 463.27606 114.77991Q463.27606 116.29553 462.96356 117.21741Q462.6667 118.13928 462.0417 118.65491Q461.4323 119.15491 460.4792 119.15491Q459.2448 119.15491 458.52606 118.26428Q457.6823 117.20178 457.6823 114.77991ZM458.76044 114.77991Q458.76044 116.88928 459.26044 117.59241Q459.76044 118.29553 460.4792 118.29553Q461.21356 118.29553 461.69794 117.59241Q462.19794 116.88928 462.19794 114.77991Q462.19794 112.65491 461.69794 111.96741Q461.21356 111.26428 460.46356 111.26428Q459.7448 111.26428 459.3073 111.87366Q458.76044 112.65491 458.76044 114.77991ZM464.88544 112.48303Q464.88544 111.56116 465.33856 110.92053Q465.8073 110.27991 466.6823 110.27991Q467.4948 110.27991 468.02606 110.85803Q468.5573 111.43616 468.5573 112.54553Q468.5573 113.63928 468.01044 114.23303Q467.4792 114.81116 466.69794 114.81116Q465.9167 114.81116 465.40106 114.23303Q464.88544 113.65491 464.88544 112.48303ZM466.71356 110.99866Q466.32294 110.99866 466.0573 111.34241Q465.8073 111.68616 465.8073 112.59241Q465.8073 113.42053 466.0573 113.76428Q466.32294 114.09241 466.71356 114.09241Q467.1198 114.09241 467.3698 113.74866Q467.63544 113.40491 467.63544 112.51428Q467.63544 111.67053 467.3698 111.34241Q467.1042 110.99866 466.71356 110.99866ZM466.71356 119.32678L471.4167 110.27991L472.27606 110.27991L467.58856 119.32678L466.71356 119.32678ZM470.4323 116.99866Q470.4323 116.07678 470.88544 115.43616Q471.3542 114.79553 472.2448 114.79553Q473.0573 114.79553 473.58856 115.37366Q474.1198 115.93616 474.1198 117.06116Q474.1198 118.15491 473.57294 118.74866Q473.0417 119.32678 472.2448 119.32678Q471.4792 119.32678 470.94794 118.74866Q470.4323 118.17053 470.4323 116.99866ZM472.27606 115.51428Q471.8698 115.51428 471.6042 115.85803Q471.3542 116.20178 471.3542 117.10803Q471.3542 117.92053 471.6198 118.26428Q471.88544 118.60803 472.27606 118.60803Q472.6667 118.60803 472.9323 118.26428Q473.19794 117.92053 473.19794 117.01428Q473.19794 116.18616 472.9323 115.85803Q472.6667 115.51428 472.27606 115.51428Z" fill-rule="nonzero"/><path fill="#666666" d="M559.1004 114.35803Q558.44415 114.10803 558.116 113.67053Q557.8035 113.21741 557.8035 112.60803Q557.8035 111.67053 558.4754 111.02991Q559.1629 110.38928 560.2723 110.38928Q561.3973 110.38928 562.0848 111.04553Q562.7723 111.70178 562.7723 112.63928Q562.7723 113.23303 562.4598 113.67053Q562.1473 114.10803 561.50665 114.35803Q562.3035 114.60803 562.7098 115.18616Q563.116 115.76428 563.116 116.56116Q563.116 117.65491 562.3348 118.40491Q561.56915 119.15491 560.2879 119.15491Q559.0223 119.15491 558.241 118.40491Q557.4598 117.65491 557.4598 116.52991Q557.4598 115.68616 557.88165 115.12366Q558.31915 114.56116 559.1004 114.35803ZM558.88165 112.56116Q558.88165 113.17053 559.2723 113.56116Q559.6785 113.95178 560.3035 113.95178Q560.9129 113.95178 561.3035 113.57678Q561.69415 113.18616 561.69415 112.62366Q561.69415 112.04553 561.2879 111.65491Q560.88165 111.24866 560.2879 111.24866Q559.6785 111.24866 559.2723 111.63928Q558.88165 112.02991 558.88165 112.56116ZM558.5535 116.52991Q558.5535 116.98303 558.75665 117.40491Q558.9754 117.82678 559.3973 118.06116Q559.81915 118.29553 560.3035 118.29553Q561.0535 118.29553 561.5379 117.81116Q562.0379 117.32678 562.0379 116.57678Q562.0379 115.81116 561.5379 115.31116Q561.0379 114.81116 560.2723 114.81116Q559.5223 114.81116 559.0379 115.31116Q558.5535 115.79553 558.5535 116.52991ZM564.4754 114.77991Q564.4754 113.24866 564.7879 112.32678Q565.1004 111.38928 565.7098 110.88928Q566.3348 110.38928 567.2723 110.38928Q567.9598 110.38928 568.4754 110.67053Q569.00665 110.95178 569.3504 111.48303Q569.69415 111.99866 569.88165 112.74866Q570.06915 113.49866 570.06915 114.77991Q570.06915 116.29553 569.75665 117.21741Q569.4598 118.13928 568.8348 118.65491Q568.2254 119.15491 567.2723 119.15491Q566.0379 119.15491 565.31915 118.26428Q564.4754 117.20178 564.4754 114.77991ZM565.5535 114.77991Q565.5535 116.88928 566.0535 117.59241Q566.5535 118.29553 567.2723 118.29553Q568.00665 118.29553 568.491 117.59241Q568.991 116.88928 568.991 114.77991Q568.991 112.65491 568.491 111.96741Q568.00665 111.26428 567.25665 111.26428Q566.5379 111.26428 566.1004 111.87366Q565.5535 112.65491 565.5535 114.77991ZM571.6785 112.48303Q571.6785 111.56116 572.13165 110.92053Q572.6004 110.27991 573.4754 110.27991Q574.2879 110.27991 574.81915 110.85803Q575.3504 111.43616 575.3504 112.54553Q575.3504 113.63928 574.8035 114.23303Q574.2723 114.81116 573.491 114.81116Q572.7098 114.81116 572.19415 114.23303Q571.6785 113.65491 571.6785 112.48303ZM573.50665 110.99866Q573.116 110.99866 572.8504 111.34241Q572.6004 111.68616 572.6004 112.59241Q572.6004 113.42053 572.8504 113.76428Q573.116 114.09241 573.50665 114.09241Q573.9129 114.09241 574.1629 113.74866Q574.4285 113.40491 574.4285 112.51428Q574.4285 111.67053 574.1629 111.34241Q573.8973 110.99866 573.50665 110.99866ZM573.50665 119.32678L578.2098 110.27991L579.06915 110.27991L574.38165 119.32678L573.50665 119.32678ZM577.2254 116.99866Q577.2254 116.07678 577.6785 115.43616Q578.1473 114.79553 579.0379 114.79553Q579.8504 114.79553 580.38165 115.37366Q580.9129 115.93616 580.9129 117.06116Q580.9129 118.15491 580.366 118.74866Q579.8348 119.32678 579.0379 119.32678Q578.2723 119.32678 577.741 118.74866Q577.2254 118.17053 577.2254 116.99866ZM579.06915 115.51428Q578.6629 115.51428 578.3973 115.85803Q578.1473 116.20178 578.1473 117.10803Q578.1473 117.92053 578.4129 118.26428Q578.6785 118.60803 579.06915 118.60803Q579.4598 118.60803 579.7254 118.26428Q579.991 117.92053 579.991 117.01428Q579.991 116.18616 579.7254 115.85803Q579.4598 115.51428 579.06915 115.51428Z" fill-rule="nonzero"/><path fill="#d7eeee" d="M183.5 169.83162C183.5 169.27934 183.94771 168.83162 184.5 168.83162L194.5 168.83162C195.05229 168.83162 195.5 169.27934 195.5 169.83162L195.5 179.83162C195.5 180.38391 195.05229 180.83162 194.5 180.83162L184.5 180.83162C183.94771 180.83162 183.5 180.38391 183.5 179.83162Z" fill-rule="nonzero"/><path fill="#666666" d="M208.45312 175.45662L208.45312 174.45662L212.07812 174.441L212.07812 177.6285Q211.25 178.30037 210.35938 178.64412Q209.46875 178.97224 208.53125 178.97224Q207.26562 178.97224 206.21875 178.441Q205.1875 177.89412 204.65625 176.8785Q204.14062 175.84724 204.14062 174.58162Q204.14062 173.316 204.65625 172.23787Q205.1875 171.14412 206.17188 170.6285Q207.15625 170.09724 208.4375 170.09724Q209.375 170.09724 210.125 170.39412Q210.875 170.691 211.29688 171.23787Q211.73438 171.76912 211.95312 172.64412L210.9375 172.92537Q210.73438 172.26912 210.4375 171.89412Q210.15625 171.51912 209.625 171.30037Q209.09375 171.066 208.45312 171.066Q207.67188 171.066 207.09375 171.30037Q206.53125 171.53474 206.17188 171.92537Q205.82812 172.316 205.64062 172.78474Q205.3125 173.58162 205.3125 174.5035Q205.3125 175.65974 205.70312 176.441Q206.10938 177.20662 206.85938 177.58162Q207.60938 177.95662 208.46875 177.95662Q209.20312 177.95662 209.90625 177.67537Q210.60938 177.3785 210.96875 177.066L210.96875 175.45662L208.45312 175.45662ZM212.90625 175.72224Q212.90625 173.98787 213.85938 173.15974Q214.65625 172.47224 215.8125 172.47224Q217.09375 172.47224 217.90625 173.316Q218.73438 174.14412 218.73438 175.6285Q218.73438 176.83162 218.375 177.51912Q218.01562 178.20662 217.3125 178.59724Q216.625 178.97224 215.8125 178.97224Q214.51562 178.97224 213.70312 178.14412Q212.90625 177.30037 212.90625 175.72224ZM213.98438 175.72224Q213.98438 176.90974 214.5 177.5035Q215.03125 178.09724 215.8125 178.09724Q216.60938 178.09724 217.125 177.5035Q217.64062 176.90974 217.64062 175.691Q217.64062 174.53474 217.10938 173.941Q216.59375 173.34724 215.8125 173.34724Q215.03125 173.34724 214.5 173.941Q213.98438 174.51912 213.98438 175.72224ZM228.54688 177.816L228.54688 178.83162L222.85938 178.83162Q222.85938 178.45662 222.98438 178.09724Q223.20312 177.51912 223.67188 176.95662Q224.15625 176.39412 225.0625 175.65974Q226.46875 174.5035 226.95312 173.83162Q227.45312 173.15974 227.45312 172.566Q227.45312 171.941 227.0 171.51912Q226.54688 171.08162 225.82812 171.08162Q225.0625 171.08162 224.60938 171.53474Q224.15625 171.98787 224.14062 172.80037L223.0625 172.691Q223.17188 171.47224 223.89062 170.84724Q224.625 170.20662 225.85938 170.20662Q227.09375 170.20662 227.8125 170.89412Q228.53125 171.58162 228.53125 172.59724Q228.53125 173.11287 228.3125 173.61287Q228.10938 174.09724 227.60938 174.65974Q227.125 175.20662 226.0 176.15974Q225.04688 176.95662 224.76562 177.2535Q224.5 177.53474 224.32812 177.816L228.54688 177.816ZM230.0 174.59724Q230.0 173.066 230.3125 172.14412Q230.625 171.20662 231.23438 170.70662Q231.85938 170.20662 232.79688 170.20662Q233.48438 170.20662 234.0 170.48787Q234.53125 170.76912 234.875 171.30037Q235.21875 171.816 235.40625 172.566Q235.59375 173.316 235.59375 174.59724Q235.59375 176.11287 235.28125 177.03474Q234.98438 177.95662 234.35938 178.47224Q233.75 178.97224 232.79688 178.97224Q231.5625 178.97224 230.84375 178.08162Q230.0 177.01912 230.0 174.59724ZM231.07812 174.59724Q231.07812 176.70662 231.57812 177.40974Q232.07812 178.11287 232.79688 178.11287Q233.53125 178.11287 234.01562 177.40974Q234.51562 176.70662 234.51562 174.59724Q234.51562 172.47224 234.01562 171.78474Q233.53125 171.08162 232.78125 171.08162Q232.0625 171.08162 231.625 171.691Q231.07812 172.47224 231.07812 174.59724ZM240.96875 178.83162L239.92188 178.83162L239.92188 172.11287Q239.53125 172.47224 238.90625 172.84724Q238.29688 173.20662 237.8125 173.3785L237.8125 172.36287Q238.6875 171.941 239.34375 171.36287Q240.01562 170.76912 240.29688 170.20662L240.96875 170.20662L240.96875 178.83162ZM249.46875 172.34724L248.42188 172.42537Q248.28125 171.80037 248.03125 171.51912Q247.59375 171.066 246.96875 171.066Q246.46875 171.066 246.07812 171.34724Q245.59375 171.72224 245.29688 172.42537Q245.01562 173.11287 245.0 174.39412Q245.375 173.816 245.92188 173.53474Q246.48438 173.2535 247.09375 173.2535Q248.14062 173.2535 248.875 174.03474Q249.625 174.816 249.625 176.03474Q249.625 176.84724 249.26562 177.55037Q248.92188 178.23787 248.3125 178.61287Q247.70312 178.97224 246.9375 178.97224Q245.60938 178.97224 244.78125 178.0035Q243.95312 177.03474 243.95312 174.816Q243.95312 172.316 244.875 171.191Q245.67188 170.20662 247.03125 170.20662Q248.04688 170.20662 248.6875 170.78474Q249.34375 171.34724 249.46875 172.34724ZM245.17188 176.05037Q245.17188 176.59724 245.39062 177.09724Q245.625 177.58162 246.03125 177.84724Q246.45312 178.11287 246.92188 178.11287Q247.57812 178.11287 248.0625 177.58162Q248.54688 177.03474 248.54688 176.11287Q248.54688 175.22224 248.0625 174.70662Q247.59375 174.191 246.875 174.191Q246.15625 174.191 245.65625 174.70662Q245.17188 175.22224 245.17188 176.05037Z" fill-rule="nonzero"/><path fill="#77cac5" d="M266.5 169.83162C266.5 169.27934 266.94772 168.83162 267.5 168.83162L277.5 168.83162C278.05228 168.83162 278.5 169.27934 278.5 169.83162L278.5 179.83162C278.5 180.38391 278.05228 180.83162 277.5 180.83162L267.5 180.83162C266.94772 180.83162 266.5 180.38391 266.5 179.83162Z" fill-rule="nonzero"/><path fill="#666666" d="M291.45312 175.45662L291.45312 174.45662L295.07812 174.441L295.07812 177.6285Q294.25 178.30037 293.35938 178.64412Q292.46875 178.97224 291.53125 178.97224Q290.26562 178.97224 289.21875 178.441Q288.1875 177.89412 287.65625 176.8785Q287.14062 175.84724 287.14062 174.58162Q287.14062 173.316 287.65625 172.23787Q288.1875 171.14412 289.17188 170.6285Q290.15625 170.09724 291.4375 170.09724Q292.375 170.09724 293.125 170.39412Q293.875 170.691 294.29688 171.23787Q294.73438 171.76912 294.95312 172.64412L293.9375 172.92537Q293.73438 172.26912 293.4375 171.89412Q293.15625 171.51912 292.625 171.30037Q292.09375 171.066 291.45312 171.066Q290.67188 171.066 290.09375 171.30037Q289.53125 171.53474 289.17188 171.92537Q288.82812 172.316 288.64062 172.78474Q288.3125 173.58162 288.3125 174.5035Q288.3125 175.65974 288.70312 176.441Q289.10938 177.20662 289.85938 177.58162Q290.60938 177.95662 291.46875 177.95662Q292.20312 177.95662 292.90625 177.67537Q293.60938 177.3785 293.96875 177.066L293.96875 175.45662L291.45312 175.45662ZM295.90625 175.72224Q295.90625 173.98787 296.85938 173.15974Q297.65625 172.47224 298.8125 172.47224Q300.09375 172.47224 300.90625 173.316Q301.73438 174.14412 301.73438 175.6285Q301.73438 176.83162 301.375 177.51912Q301.01562 178.20662 300.3125 178.59724Q299.625 178.97224 298.8125 178.97224Q297.51562 178.97224 296.70312 178.14412Q295.90625 177.30037 295.90625 175.72224ZM296.98438 175.72224Q296.98438 176.90974 297.5 177.5035Q298.03125 178.09724 298.8125 178.09724Q299.60938 178.09724 300.125 177.5035Q300.64062 176.90974 300.64062 175.691Q300.64062 174.53474 300.10938 173.941Q299.59375 173.34724 298.8125 173.34724Q298.03125 173.34724 297.5 173.941Q296.98438 174.51912 296.98438 175.72224ZM311.54688 177.816L311.54688 178.83162L305.85938 178.83162Q305.85938 178.45662 305.98438 178.09724Q306.20312 177.51912 306.67188 176.95662Q307.15625 176.39412 308.0625 175.65974Q309.46875 174.5035 309.95312 173.83162Q310.45312 173.15974 310.45312 172.566Q310.45312 171.941 310.0 171.51912Q309.54688 171.08162 308.82812 171.08162Q308.0625 171.08162 307.60938 171.53474Q307.15625 171.98787 307.14062 172.80037L306.0625 172.691Q306.17188 171.47224 306.89062 170.84724Q307.625 170.20662 308.85938 170.20662Q310.09375 170.20662 310.8125 170.89412Q311.53125 171.58162 311.53125 172.59724Q311.53125 173.11287 311.3125 173.61287Q311.10938 174.09724 310.60938 174.65974Q310.125 175.20662 309.0 176.15974Q308.04688 176.95662 307.76562 177.2535Q307.5 177.53474 307.32812 177.816L311.54688 177.816ZM313.0 174.59724Q313.0 173.066 313.3125 172.14412Q313.625 171.20662 314.23438 170.70662Q314.85938 170.20662 315.79688 170.20662Q316.48438 170.20662 317.0 170.48787Q317.53125 170.76912 317.875 171.30037Q318.21875 171.816 318.40625 172.566Q318.59375 173.316 318.59375 174.59724Q318.59375 176.11287 318.28125 177.03474Q317.98438 177.95662 317.35938 178.47224Q316.75 178.97224 315.79688 178.97224Q314.5625 178.97224 313.84375 178.08162Q313.0 177.01912 313.0 174.59724ZM314.07812 174.59724Q314.07812 176.70662 314.57812 177.40974Q315.07812 178.11287 315.79688 178.11287Q316.53125 178.11287 317.01562 177.40974Q317.51562 176.70662 317.51562 174.59724Q317.51562 172.47224 317.01562 171.78474Q316.53125 171.08162 315.78125 171.08162Q315.0625 171.08162 314.625 171.691Q314.07812 172.47224 314.07812 174.59724ZM323.96875 178.83162L322.92188 178.83162L322.92188 172.11287Q322.53125 172.47224 321.90625 172.84724Q321.29688 173.20662 320.8125 173.3785L320.8125 172.36287Q321.6875 171.941 322.34375 171.36287Q323.01562 170.76912 323.29688 170.20662L323.96875 170.20662L323.96875 178.83162ZM327.0625 171.36287L327.0625 170.34724L332.625 170.34724L332.625 171.17537Q331.8125 172.05037 331.0 173.5035Q330.20312 174.941 329.76562 176.47224Q329.4375 177.55037 329.35938 178.83162L328.26562 178.83162Q328.28125 177.816 328.65625 176.3785Q329.04688 174.941 329.75 173.61287Q330.46875 172.28474 331.28125 171.36287L327.0625 171.36287Z" fill-rule="nonzero"/><path fill="#1ba29c" d="M349.5 169.83162C349.5 169.27934 349.94772 168.83162 350.5 168.83162L360.5 168.83162C361.05228 168.83162 361.5 169.27934 361.5 169.83162L361.5 179.83162C361.5 180.38391 361.05228 180.83162 360.5 180.83162L350.5 180.83162C349.94772 180.83162 349.5 180.38391 349.5 179.83162Z" fill-rule="nonzero"/><path fill="#666666" d="M374.45312 175.45662L374.45312 174.45662L378.07812 174.441L378.07812 177.6285Q377.25 178.30037 376.35938 178.64412Q375.46875 178.97224 374.53125 178.97224Q373.26562 178.97224 372.21875 178.441Q371.1875 177.89412 370.65625 176.8785Q370.14062 175.84724 370.14062 174.58162Q370.14062 173.316 370.65625 172.23787Q371.1875 171.14412 372.17188 170.6285Q373.15625 170.09724 374.4375 170.09724Q375.375 170.09724 376.125 170.39412Q376.875 170.691 377.29688 171.23787Q377.73438 171.76912 377.95312 172.64412L376.9375 172.92537Q376.73438 172.26912 376.4375 171.89412Q376.15625 171.51912 375.625 171.30037Q375.09375 171.066 374.45312 171.066Q373.67188 171.066 373.09375 171.30037Q372.53125 171.53474 372.17188 171.92537Q371.82812 172.316 371.64062 172.78474Q371.3125 173.58162 371.3125 174.5035Q371.3125 175.65974 371.70312 176.441Q372.10938 177.20662 372.85938 177.58162Q373.60938 177.95662 374.46875 177.95662Q375.20312 177.95662 375.90625 177.67537Q376.60938 177.3785 376.96875 177.066L376.96875 175.45662L374.45312 175.45662ZM378.90625 175.72224Q378.90625 173.98787 379.85938 173.15974Q380.65625 172.47224 381.8125 172.47224Q383.09375 172.47224 383.90625 173.316Q384.73438 174.14412 384.73438 175.6285Q384.73438 176.83162 384.375 177.51912Q384.01562 178.20662 383.3125 178.59724Q382.625 178.97224 381.8125 178.97224Q380.51562 178.97224 379.70312 178.14412Q378.90625 177.30037 378.90625 175.72224ZM379.98438 175.72224Q379.98438 176.90974 380.5 177.5035Q381.03125 178.09724 381.8125 178.09724Q382.60938 178.09724 383.125 177.5035Q383.64062 176.90974 383.64062 175.691Q383.64062 174.53474 383.10938 173.941Q382.59375 173.34724 381.8125 173.34724Q381.03125 173.34724 380.5 173.941Q379.98438 174.51912 379.98438 175.72224ZM394.54688 177.816L394.54688 178.83162L388.85938 178.83162Q388.85938 178.45662 388.98438 178.09724Q389.20312 177.51912 389.67188 176.95662Q390.15625 176.39412 391.0625 175.65974Q392.46875 174.5035 392.95312 173.83162Q393.45312 173.15974 393.45312 172.566Q393.45312 171.941 393.0 171.51912Q392.54688 171.08162 391.82812 171.08162Q391.0625 171.08162 390.60938 171.53474Q390.15625 171.98787 390.14062 172.80037L389.0625 172.691Q389.17188 171.47224 389.89062 170.84724Q390.625 170.20662 391.85938 170.20662Q393.09375 170.20662 393.8125 170.89412Q394.53125 171.58162 394.53125 172.59724Q394.53125 173.11287 394.3125 173.61287Q394.10938 174.09724 393.60938 174.65974Q393.125 175.20662 392.0 176.15974Q391.04688 176.95662 390.76562 177.2535Q390.5 177.53474 390.32812 177.816L394.54688 177.816ZM396.0 174.59724Q396.0 173.066 396.3125 172.14412Q396.625 171.20662 397.23438 170.70662Q397.85938 170.20662 398.79688 170.20662Q399.48438 170.20662 400.0 170.48787Q400.53125 170.76912 400.875 171.30037Q401.21875 171.816 401.40625 172.566Q401.59375 173.316 401.59375 174.59724Q401.59375 176.11287 401.28125 177.03474Q400.98438 177.95662 400.35938 178.47224Q399.75 178.97224 398.79688 178.97224Q397.5625 178.97224 396.84375 178.08162Q396.0 177.01912 396.0 174.59724ZM397.07812 174.59724Q397.07812 176.70662 397.57812 177.40974Q398.07812 178.11287 398.79688 178.11287Q399.53125 178.11287 400.01562 177.40974Q400.51562 176.70662 400.51562 174.59724Q400.51562 172.47224 400.01562 171.78474Q399.53125 171.08162 398.78125 171.08162Q398.0625 171.08162 397.625 171.691Q397.07812 172.47224 397.07812 174.59724ZM406.96875 178.83162L405.92188 178.83162L405.92188 172.11287Q405.53125 172.47224 404.90625 172.84724Q404.29688 173.20662 403.8125 173.3785L403.8125 172.36287Q404.6875 171.941 405.34375 171.36287Q406.01562 170.76912 406.29688 170.20662L406.96875 170.20662L406.96875 178.83162ZM411.625 174.17537Q410.96875 173.92537 410.64062 173.48787Q410.32812 173.03474 410.32812 172.42537Q410.32812 171.48787 411.0 170.84724Q411.6875 170.20662 412.79688 170.20662Q413.92188 170.20662 414.60938 170.86287Q415.29688 171.51912 415.29688 172.45662Q415.29688 173.05037 414.98438 173.48787Q414.67188 173.92537 414.03125 174.17537Q414.82812 174.42537 415.23438 175.0035Q415.64062 175.58162 415.64062 176.3785Q415.64062 177.47224 414.85938 178.22224Q414.09375 178.97224 412.8125 178.97224Q411.54688 178.97224 410.76562 178.22224Q409.98438 177.47224 409.98438 176.34724Q409.98438 175.5035 410.40625 174.941Q410.84375 174.3785 411.625 174.17537ZM411.40625 172.3785Q411.40625 172.98787 411.79688 173.3785Q412.20312 173.76912 412.82812 173.76912Q413.4375 173.76912 413.82812 173.39412Q414.21875 173.0035 414.21875 172.441Q414.21875 171.86287 413.8125 171.47224Q413.40625 171.066 412.8125 171.066Q412.20312 171.066 411.79688 171.45662Q411.40625 171.84724 411.40625 172.3785ZM411.07812 176.34724Q411.07812 176.80037 411.28125 177.22224Q411.5 177.64412 411.92188 177.8785Q412.34375 178.11287 412.82812 178.11287Q413.57812 178.11287 414.0625 177.6285Q414.5625 177.14412 414.5625 176.39412Q414.5625 175.6285 414.0625 175.1285Q413.5625 174.6285 412.79688 174.6285Q412.04688 174.6285 411.5625 175.1285Q411.07812 175.61287 411.07812 176.34724Z" fill-rule="nonzero"/></svg>