<?xml version="1.0" standalone="no"?>
<!DOCTYPE svg PUBLIC "-//W3C//DTD SVG 1.1//EN"
  "http://www.w3.org/Graphics/SVG/1.1/DTD/svg11.dtd">
<svg width="70.00em" height="21.20em" version="1.1"
     xmlns="http://www.w3.org/2000/svg">
  <defs>
    <style type="text/css"><![CDATA[
      svg {
        font-family: "Helvetica Neue", Arial, sans-serif; /* Helvetica on Mac aka sans-serif has broken U+2007 */
      }
      tspan.size {
        font-size: 0.80em;
      }
      tspan.head {
        font-weight: bold;
      }
      tspan.paren {
        font-weight: normal !important;
      }
    ]]></style>
  </defs>
<text x="0.00em" y="1.20em" class="head"><tspan class="size">I work in the following areas:  <tspan class="paren">(multiple choice)</tspan></tspan></text>
<rect x="7.25em" y="2.10em" width="6.11em" height="0.60em" stroke="#00ACD7" fill="#00ACD7"/>
<text x="6.75em" y="2.70em" text-anchor="end"><tspan class="size">3,807 (61%)</tspan></text>
<text x="13.86em" y="2.70em"><tspan class="size">Web development</tspan></text>
<rect x="7.25em" y="3.30em" width="3.72em" height="0.60em" stroke="#00ACD7" fill="#00ACD7"/>
<text x="6.75em" y="3.90em" text-anchor="end"><tspan class="size">2,319 (37%)</tspan></text>
<text x="11.47em" y="3.90em"><tspan class="size">Systems programming</tspan></text>
<rect x="7.25em" y="4.50em" width="3.61em" height="0.60em" stroke="#00ACD7" fill="#00ACD7"/>
<text x="6.75em" y="5.10em" text-anchor="end"><tspan class="size">2,250 (36%)</tspan></text>
<text x="11.36em" y="5.10em"><tspan class="size">DevOps</tspan></text>
<rect x="7.25em" y="5.70em" width="3.16em" height="0.60em" stroke="#00ACD7" fill="#00ACD7"/>
<text x="6.75em" y="6.30em" text-anchor="end"><tspan class="size">1,969 (32%)</tspan></text>
<text x="10.91em" y="6.30em"><tspan class="size">Network programming</tspan></text>
<rect x="7.25em" y="6.90em" width="2.81em" height="0.60em" stroke="#00ACD7" fill="#00ACD7"/>
<text x="6.75em" y="7.50em" text-anchor="end"><tspan class="size">1,751 (28%)</tspan></text>
<text x="10.56em" y="7.50em"><tspan class="size">Databases</tspan></text>
<rect x="7.25em" y="8.10em" width="1.36em" height="0.60em" stroke="#00ACD7" fill="#00ACD7"/>
<text x="6.75em" y="8.70em" text-anchor="end"><tspan class="size">848 (14%)</tspan></text>
<text x="9.11em" y="8.70em"><tspan class="size">Security</tspan></text>
<rect x="7.25em" y="9.30em" width="1.25em" height="0.60em" stroke="#00ACD7" fill="#00ACD7"/>
<text x="6.75em" y="9.90em" text-anchor="end"><tspan class="size">777 (12%)</tspan></text>
<text x="9.00em" y="9.90em"><tspan class="size">Finance/Commerce</tspan></text>
<rect x="7.25em" y="10.50em" width="1.16em" height="0.60em" stroke="#00ACD7" fill="#00ACD7"/>
<text x="6.75em" y="11.10em" text-anchor="end"><tspan class="size">724 (12%)</tspan></text>
<text x="8.91em" y="11.10em"><tspan class="size">Data Science</tspan></text>
<rect x="7.25em" y="11.70em" width="1.12em" height="0.60em" stroke="#00ACD7" fill="#00ACD7"/>
<text x="6.75em" y="12.30em" text-anchor="end"><tspan class="size">696 (11%)</tspan></text>
<text x="8.87em" y="12.30em"><tspan class="size">Mobile</tspan></text>
<rect x="7.25em" y="12.90em" width="1.11em" height="0.60em" stroke="#00ACD7" fill="#00ACD7"/>
<text x="6.75em" y="13.50em" text-anchor="end"><tspan class="size">694 (11%)</tspan></text>
<text x="8.86em" y="13.50em"><tspan class="size">Desktop/GUI applications</tspan></text>
<rect x="7.25em" y="14.10em" width="1.04em" height="0.60em" stroke="#00ACD7" fill="#00ACD7"/>
<text x="6.75em" y="14.70em" text-anchor="end"><tspan class="size">647 (10%)</tspan></text>
<text x="8.79em" y="14.70em"><tspan class="size">Embedded devices/Internet of Things</tspan></text>
<rect x="7.25em" y="15.30em" width="0.93em" height="0.60em" stroke="#00ACD7" fill="#00ACD7"/>
<text x="6.75em" y="15.90em" text-anchor="end"><tspan class="size">581  (9%)</tspan></text>
<text x="8.68em" y="15.90em"><tspan class="size">Academic/Scientific/Numeric</tspan></text>
<rect x="7.25em" y="16.50em" width="0.93em" height="0.60em" stroke="#00ACD7" fill="#00ACD7"/>
<text x="6.75em" y="17.10em" text-anchor="end"><tspan class="size">581  (9%)</tspan></text>
<text x="8.68em" y="17.10em"><tspan class="size">Machine Learning/Artificial Intelligence</tspan></text>
<rect x="7.25em" y="17.70em" width="0.54em" height="0.60em" stroke="#00ACD7" fill="#00ACD7"/>
<text x="6.75em" y="18.30em" text-anchor="end"><tspan class="size">334  (5%)</tspan></text>
<text x="8.29em" y="18.30em"><tspan class="size">Gaming</tspan></text>
<rect x="7.25em" y="18.90em" width="0.61em" height="0.60em" stroke="#777777" fill="#777777"/>
<text x="6.75em" y="19.50em" text-anchor="end"><tspan class="size">381  (6%)</tspan></text>
<text x="8.36em" y="19.50em"><tspan class="size">Other</tspan></text>
<rect x="7.25em" y="20.10em" width="0.18em" height="0.60em" stroke="black" fill="white"/>
<text x="6.75em" y="20.70em" text-anchor="end"><tspan class="size">111  (2%)</tspan></text>
<text x="7.93em" y="20.70em"><tspan class="size">No response</tspan></text>
</svg>
