<?xml version="1.0" encoding="UTF-8" standalone="no"?><!DOCTYPE svg PUBLIC "-//W3C//DTD SVG 1.1//EN" "http://www.w3.org/Graphics/SVG/1.1/DTD/svg11.dtd"><svg width="100%" height="100%" viewBox="0 0 700 266" version="1.1" xmlns="http://www.w3.org/2000/svg" xmlns:xlink="http://www.w3.org/1999/xlink" xml:space="preserve" xmlns:serif="http://www.serif.com/" style="fill-rule:evenodd;clip-rule:evenodd;stroke-linecap:round;stroke-linejoin:round;stroke-miterlimit:1.5;"><g><path d="M296.054,117.621c0,-3.812 -3.095,-6.906 -6.906,-6.906l-281.741,0c-3.812,0 -6.907,3.094 -6.907,6.906l0,13.814c0,3.812 3.095,6.906 6.907,6.906l281.741,0c3.811,0 6.906,-3.094 6.906,-6.906l0,-13.814Z" style="fill:none;stroke:#e62626;stroke-width:1px;"/><path d="M681.054,158.282c0,-4.074 -3.307,-7.381 -7.381,-7.381l-286.125,0c-4.074,0 -7.381,3.307 -7.381,7.381l0,14.762c0,4.074 3.307,7.381 7.381,7.381l286.125,0c4.074,0 7.381,-3.307 7.381,-7.381l0,-14.762Z" style="fill:none;stroke:#e62626;stroke-width:1px;"/><path d="M316.041,132.267l2.681,-4.438l36.027,21.77l2.49,-4.121l2.509,10.17l-10.17,2.509l2.49,-4.121l-36.027,-21.769Z" style="fill:none;stroke:#e62626;stroke-width:1px;"/></g><g><text x="15.245px" y="14.375px" style="font-family:'Arial-BoldMT', 'Arial', sans-serif;font-weight:700;font-size:20px;">2016</text><text x="399.245px" y="14.375px" style="font-family:'Arial-BoldMT', 'Arial', sans-serif;font-weight:700;font-size:20px;">2017</text></g><g><text x="-0.484px" y="30.577px" style="font-family:'HelveticaNeue', 'Helvetica Neue';font-size:12px;">I work in the following ar<tspan x="129.944px 136.388px " y="30.577px 30.577px ">ea</tspan>s: (multiple choice)</text><rect x="86.516" y="41.377" width="75.84" height="7.2" style="fill:#00c4b3;stroke:#00c4b3;stroke-width:1px;stroke-linecap:butt;stroke-linejoin:miter;stroke-miterlimit:4;"/><text x="15.596px" y="48.577px" style="font-family:'HelveticaNeue', 'Helvetica Neue';font-size:12px;">2,272 (63%)</text><text x="168.356px" y="48.577px" style="font-family:'HelveticaNeue', 'Helvetica Neue';font-size:12px;">W<tspan x="178.784px 185.228px " y="48.577px 48.577px ">eb</tspan> development</text><rect x="86.516" y="55.777" width="45.36" height="7.2" style="fill:#00c4b3;stroke:#00c4b3;stroke-width:1px;stroke-linecap:butt;stroke-linejoin:miter;stroke-miterlimit:4;"/><text x="15.596px" y="62.977px" style="font-family:'HelveticaNeue', 'Helvetica Neue';font-size:12px;">1,359 (38%)</text><text x="137.876px" y="62.977px" style="font-family:'HelveticaNeue', 'Helvetica Neue';font-size:12px;">Systems pr<tspan x="198.344px 205.232px " y="62.977px 62.977px ">og</tspan>ramming</text><rect x="86.516" y="70.177" width="41.76" height="7.2" style="fill:#00c4b3;stroke:#00c4b3;stroke-width:1px;stroke-linecap:butt;stroke-linejoin:miter;stroke-miterlimit:4;"/><text x="15.596px" y="77.377px" style="font-family:'HelveticaNeue', 'Helvetica Neue';font-size:12px;">1,251 (35%)</text><text x="134.276px" y="77.377px" style="font-family:'HelveticaNeue', 'Helvetica Neue';font-size:12px;">DevOps</text><rect x="86.516" y="84.577" width="39" height="7.2" style="fill:#00c4b3;stroke:#00c4b3;stroke-width:1px;stroke-linecap:butt;stroke-linejoin:miter;stroke-miterlimit:4;"/><text x="15.596px" y="91.777px" style="font-family:'HelveticaNeue', 'Helvetica Neue';font-size:12px;">1,169 (33%)</text><text x="131.516px" y="91.777px" style="font-family:'HelveticaNeue', 'Helvetica Neue';font-size:12px;">Network pr<tspan x="190.844px 197.732px " y="91.777px 91.777px ">og</tspan>ramming</text><rect x="86.516" y="98.977" width="33.6" height="7.2" style="fill:#00c4b3;stroke:#00c4b3;stroke-width:1px;stroke-linecap:butt;stroke-linejoin:miter;stroke-miterlimit:4;"/><text x="15.596px" y="106.177px" style="font-family:'HelveticaNeue', 'Helvetica Neue';font-size:12px;">1,006 (28%)</text><text x="126.116px" y="106.177px" style="font-family:'HelveticaNeue', 'Helvetica Neue';font-size:12px;">Databases</text><rect x="86.516" y="113.377" width="17.76" height="7.2" style="fill:#00c4b3;stroke:#00c4b3;stroke-width:1px;stroke-linecap:butt;stroke-linejoin:miter;stroke-miterlimit:4;"/><text x="25.604px" y="120.577px" style="font-family:'HelveticaNeue', 'Helvetica Neue';font-size:12px;">533 (15%)</text><text x="110.276px" y="120.577px" style="font-family:'HelveticaNeue', 'Helvetica Neue';font-size:12px;">Mobile</text><rect x="86.516" y="127.777" width="16.32" height="7.2" style="fill:#00c4b3;stroke:#00c4b3;stroke-width:1px;stroke-linecap:butt;stroke-linejoin:miter;stroke-miterlimit:4;"/><text x="25.604px" y="134.977px" style="font-family:'HelveticaNeue', 'Helvetica Neue';font-size:12px;">490 (14%)</text><text x="108.836px" y="134.977px" style="font-family:'HelveticaNeue', 'Helvetica Neue';font-size:12px;">Desktop/GUI applications</text><rect x="86.516" y="142.177" width="15.24" height="7.2" style="fill:#00c4b3;stroke:#00c4b3;stroke-width:1px;stroke-linecap:butt;stroke-linejoin:miter;stroke-miterlimit:4;"/><text x="25.604px" y="149.377px" style="font-family:'HelveticaNeue', 'Helvetica Neue';font-size:12px;">457 (13%)</text><text x="107.756px" y="149.377px" style="font-family:'HelveticaNeue', 'Helvetica Neue';font-size:12px;">Security</text><rect x="86.516" y="156.577" width="14.52" height="7.2" style="fill:#00c4b3;stroke:#00c4b3;stroke-width:1px;stroke-linecap:butt;stroke-linejoin:miter;stroke-miterlimit:4;"/><text x="25.604px" y="163.777px" style="font-family:'HelveticaNeue', 'Helvetica Neue';font-size:12px;">435 (12%)</text><text x="107.036px" y="163.777px" style="font-family:'HelveticaNeue', 'Helvetica Neue';font-size:12px;">Data Science</text><rect x="86.516" y="170.977" width="13.92" height="7.2" style="fill:#00c4b3;stroke:#00c4b3;stroke-width:1px;stroke-linecap:butt;stroke-linejoin:miter;stroke-miterlimit:4;"/><text x="25.604px" y="178.177px" style="font-family:'HelveticaNeue', 'Helvetica Neue';font-size:12px;">417 (12%)</text><text x="106.436px" y="178.177px" style="font-family:'HelveticaNeue', 'Helvetica Neue';font-size:12px;">Finance/Commer<tspan x="198.908px 205.352px " y="178.177px 178.177px ">ce</tspan></text><rect x="86.516" y="185.377" width="13.2" height="7.2" style="fill:#00c4b3;stroke:#00c4b3;stroke-width:1px;stroke-linecap:butt;stroke-linejoin:miter;stroke-miterlimit:4;"/><text x="25.604px" y="192.577px" style="font-family:'HelveticaNeue', 'Helvetica Neue';font-size:12px;">394 (11%)</text><text x="105.716px" y="192.577px" style="font-family:'HelveticaNeue', 'Helvetica Neue';font-size:12px;">Embedded devices/Inter<tspan x="237.296px 243.968px " y="192.577px 192.577px ">ne</tspan>t of Things</text><rect x="86.516" y="199.777" width="12.6" height="7.2" style="fill:#00c4b3;stroke:#00c4b3;stroke-width:1px;stroke-linecap:butt;stroke-linejoin:miter;stroke-miterlimit:4;"/><text x="25.604px" y="206.977px" style="font-family:'HelveticaNeue', 'Helvetica Neue';font-size:12px;">379 (11%)</text><text x="105.116px" y="206.977px" style="font-family:'HelveticaNeue', 'Helvetica Neue';font-size:12px;">Academic/Scientiﬁc/Numeric</text><rect x="86.516" y="214.177" width="7.56" height="7.2" style="fill:#00c4b3;stroke:#00c4b3;stroke-width:1px;stroke-linecap:butt;stroke-linejoin:miter;stroke-miterlimit:4;"/><text x="25.604px" y="221.377px" style="font-family:'HelveticaNeue', 'Helvetica Neue';font-size:12px;">228  (6%)</text><text x="100.076px" y="221.377px" style="font-family:'HelveticaNeue', 'Helvetica Neue';font-size:12px;">Gaming</text><rect x="86.516" y="228.577" width="7.92" height="7.2" style="fill:#777;stroke:#777;stroke-width:1px;stroke-linecap:butt;stroke-linejoin:miter;stroke-miterlimit:4;"/><text x="25.604px" y="235.777px" style="font-family:'HelveticaNeue', 'Helvetica Neue';font-size:12px;">238  (7%)</text><text x="100.436px" y="235.777px" style="font-family:'HelveticaNeue', 'Helvetica Neue';font-size:12px;">Other</text><rect x="86.516" y="242.977" width="2.52" height="7.2" style="fill:#fff;stroke:#000;stroke-width:1px;stroke-linecap:butt;stroke-linejoin:miter;stroke-miterlimit:4;"/><text x="32.276px" y="250.177px" style="font-family:'HelveticaNeue', 'Helvetica Neue';font-size:12px;">74  (2%)</text><text x="95.036px" y="250.177px" style="font-family:'HelveticaNeue', 'Helvetica Neue';font-size:12px;">No r<tspan x="117.704px 124.148px " y="250.177px 250.177px ">es</tspan>ponse</text></g><g><text x="389.261px" y="29.197px" style="font-family:'HelveticaNeue', 'Helvetica Neue';font-size:12px;">I work in the following ar<tspan x="519.689px 526.133px " y="29.197px 29.197px ">ea</tspan>s: (multiple choice)</text><rect x="476.261" y="39.997" width="73.32" height="7.2" style="fill:#00acd7;stroke:#00acd7;stroke-width:1px;stroke-linecap:butt;stroke-linejoin:miter;stroke-miterlimit:4;"/><text x="405.341px" y="47.197px" style="font-family:'HelveticaNeue', 'Helvetica Neue';font-size:12px;">3,807 (61%)</text><text x="555.581px" y="47.197px" style="font-family:'HelveticaNeue', 'Helvetica Neue';font-size:12px;">W<tspan x="566.009px 572.453px " y="47.197px 47.197px ">eb</tspan> development</text><rect x="476.261" y="54.397" width="44.64" height="7.2" style="fill:#00acd7;stroke:#00acd7;stroke-width:1px;stroke-linecap:butt;stroke-linejoin:miter;stroke-miterlimit:4;"/><text x="405.341px" y="61.597px" style="font-family:'HelveticaNeue', 'Helvetica Neue';font-size:12px;">2,319 (37%)</text><text x="526.901px" y="61.597px" style="font-family:'HelveticaNeue', 'Helvetica Neue';font-size:12px;">Systems pr<tspan x="587.369px 594.257px " y="61.597px 61.597px ">og</tspan>ramming</text><rect x="476.261" y="68.797" width="43.32" height="7.2" style="fill:#00acd7;stroke:#00acd7;stroke-width:1px;stroke-linecap:butt;stroke-linejoin:miter;stroke-miterlimit:4;"/><text x="405.341px" y="75.997px" style="font-family:'HelveticaNeue', 'Helvetica Neue';font-size:12px;">2,250 (36%)</text><text x="525.581px" y="75.997px" style="font-family:'HelveticaNeue', 'Helvetica Neue';font-size:12px;">DevOps</text><rect x="476.261" y="83.197" width="37.92" height="7.2" style="fill:#00acd7;stroke:#00acd7;stroke-width:1px;stroke-linecap:butt;stroke-linejoin:miter;stroke-miterlimit:4;"/><text x="405.341px" y="90.397px" style="font-family:'HelveticaNeue', 'Helvetica Neue';font-size:12px;">1,969 (32%)</text><text x="520.181px" y="90.397px" style="font-family:'HelveticaNeue', 'Helvetica Neue';font-size:12px;">Network pr<tspan x="579.509px 586.397px " y="90.397px 90.397px ">og</tspan>ramming</text><rect x="476.261" y="97.597" width="33.72" height="7.2" style="fill:#00acd7;stroke:#00acd7;stroke-width:1px;stroke-linecap:butt;stroke-linejoin:miter;stroke-miterlimit:4;"/><text x="405.341px" y="104.797px" style="font-family:'HelveticaNeue', 'Helvetica Neue';font-size:12px;">1,751 (28%)</text><text x="515.981px" y="104.797px" style="font-family:'HelveticaNeue', 'Helvetica Neue';font-size:12px;">Databases</text><rect x="476.261" y="111.997" width="16.32" height="7.2" style="fill:#00acd7;stroke:#00acd7;stroke-width:1px;stroke-linecap:butt;stroke-linejoin:miter;stroke-miterlimit:4;"/><text x="415.349px" y="119.197px" style="font-family:'HelveticaNeue', 'Helvetica Neue';font-size:12px;">848 (14%)</text><text x="498.581px" y="119.197px" style="font-family:'HelveticaNeue', 'Helvetica Neue';font-size:12px;">Security</text><rect x="476.261" y="126.397" width="15" height="7.2" style="fill:#00acd7;stroke:#00acd7;stroke-width:1px;stroke-linecap:butt;stroke-linejoin:miter;stroke-miterlimit:4;"/><text x="415.349px" y="133.597px" style="font-family:'HelveticaNeue', 'Helvetica Neue';font-size:12px;">777 (12%)</text><text x="497.261px" y="133.597px" style="font-family:'HelveticaNeue', 'Helvetica Neue';font-size:12px;">Finance/Commer<tspan x="589.733px 596.177px " y="133.597px 133.597px ">ce</tspan></text><rect x="476.261" y="140.797" width="13.92" height="7.2" style="fill:#00acd7;stroke:#00acd7;stroke-width:1px;stroke-linecap:butt;stroke-linejoin:miter;stroke-miterlimit:4;"/><text x="415.349px" y="147.997px" style="font-family:'HelveticaNeue', 'Helvetica Neue';font-size:12px;">724 (12%)</text><text x="496.181px" y="147.997px" style="font-family:'HelveticaNeue', 'Helvetica Neue';font-size:12px;">Data Science</text><rect x="476.261" y="155.197" width="13.44" height="7.2" style="fill:#00acd7;stroke:#00acd7;stroke-width:1px;stroke-linecap:butt;stroke-linejoin:miter;stroke-miterlimit:4;"/><text x="415.349px" y="162.397px" style="font-family:'HelveticaNeue', 'Helvetica Neue';font-size:12px;">696 (11%)</text><text x="495.701px" y="162.397px" style="font-family:'HelveticaNeue', 'Helvetica Neue';font-size:12px;">Mobile</text><rect x="476.261" y="169.597" width="13.32" height="7.2" style="fill:#00acd7;stroke:#00acd7;stroke-width:1px;stroke-linecap:butt;stroke-linejoin:miter;stroke-miterlimit:4;"/><text x="415.349px" y="176.797px" style="font-family:'HelveticaNeue', 'Helvetica Neue';font-size:12px;">694 (11%)</text><text x="495.581px" y="176.797px" style="font-family:'HelveticaNeue', 'Helvetica Neue';font-size:12px;">Desktop/GUI applications</text><rect x="476.261" y="183.997" width="12.48" height="7.2" style="fill:#00acd7;stroke:#00acd7;stroke-width:1px;stroke-linecap:butt;stroke-linejoin:miter;stroke-miterlimit:4;"/><text x="415.349px" y="191.197px" style="font-family:'HelveticaNeue', 'Helvetica Neue';font-size:12px;">647 (10%)</text><text x="494.741px" y="191.197px" style="font-family:'HelveticaNeue', 'Helvetica Neue';font-size:12px;">Embedded devices/Inter<tspan x="626.321px 632.993px " y="191.197px 191.197px ">ne</tspan>t of Things</text><rect x="476.261" y="198.397" width="11.16" height="7.2" style="fill:#00acd7;stroke:#00acd7;stroke-width:1px;stroke-linecap:butt;stroke-linejoin:miter;stroke-miterlimit:4;"/><text x="415.349px" y="205.597px" style="font-family:'HelveticaNeue', 'Helvetica Neue';font-size:12px;">581  (9%)</text><text x="493.421px" y="205.597px" style="font-family:'HelveticaNeue', 'Helvetica Neue';font-size:12px;">Academic/Scientiﬁc/Numeric</text><rect x="476.261" y="212.797" width="11.16" height="7.2" style="fill:#00acd7;stroke:#00acd7;stroke-width:1px;stroke-linecap:butt;stroke-linejoin:miter;stroke-miterlimit:4;"/><text x="415.349px" y="219.997px" style="font-family:'HelveticaNeue', 'Helvetica Neue';font-size:12px;">581  (9%)</text><text x="493.421px" y="219.997px" style="font-family:'HelveticaNeue', 'Helvetica Neue';font-size:12px;">Machine Lear<tspan x="566.321px 572.993px " y="219.997px 219.997px ">ni</tspan>ng/Artiﬁcial Intelligence</text><rect x="476.261" y="227.197" width="6.48" height="7.2" style="fill:#00acd7;stroke:#00acd7;stroke-width:1px;stroke-linecap:butt;stroke-linejoin:miter;stroke-miterlimit:4;"/><text x="415.349px" y="234.397px" style="font-family:'HelveticaNeue', 'Helvetica Neue';font-size:12px;">334  (5%)</text><text x="488.741px" y="234.397px" style="font-family:'HelveticaNeue', 'Helvetica Neue';font-size:12px;">Gaming</text><rect x="476.261" y="241.597" width="7.32" height="7.2" style="fill:#777;stroke:#777;stroke-width:1px;stroke-linecap:butt;stroke-linejoin:miter;stroke-miterlimit:4;"/><text x="415.349px" y="248.797px" style="font-family:'HelveticaNeue', 'Helvetica Neue';font-size:12px;">381  (6%)</text><text x="489.581px" y="248.797px" style="font-family:'HelveticaNeue', 'Helvetica Neue';font-size:12px;">Other</text><rect x="476.261" y="255.997" width="2.16" height="7.2" style="fill:#fff;stroke:#000;stroke-width:1px;stroke-linecap:butt;stroke-linejoin:miter;stroke-miterlimit:4;"/><text x="415.349px" y="263.197px" style="font-family:'HelveticaNeue', 'Helvetica Neue';font-size:12px;">111  (2%)</text><text x="484.421px" y="263.197px" style="font-family:'HelveticaNeue', 'Helvetica Neue';font-size:12px;">No r<tspan x="507.089px 513.533px " y="263.197px 263.197px ">es</tspan>ponse</text></g></svg>