<?xml version="1.0" standalone="no"?>
<!DOCTYPE svg PUBLIC "-//W3C//DTD SVG 1.1//EN"
  "http://www.w3.org/Graphics/SVG/1.1/DTD/svg11.dtd">
<svg width="70.00em" height="22.40em" version="1.1"
     xmlns="http://www.w3.org/2000/svg">
  <defs>
    <style type="text/css"><![CDATA[
      svg {
        font-family: "Helvetica Neue", Arial, sans-serif; /* Helvetica on Mac aka sans-serif has broken U+2007 */
      }
      tspan.size {
        font-size: 0.80em;
      }
      tspan.head {
        font-weight: bold;
      }
      tspan.paren {
        font-weight: normal !important;
      }
    ]]></style>
  </defs>
<text x="0.00em" y="1.20em" class="head"><tspan class="size">My team deploys Non-Go programs to:  <tspan class="paren">(multiple choice)</tspan></tspan></text>
<rect x="7.25em" y="2.10em" width="4.60em" height="0.60em" stroke="#00ACD7" fill="#00ACD7"/>
<text x="6.75em" y="2.70em" text-anchor="end"><tspan class="size">2,865 (46%)</tspan></text>
<text x="12.35em" y="2.70em"><tspan class="size">Self/Company Owned Servers</tspan></text>
<rect x="7.25em" y="3.30em" width="3.33em" height="0.60em" stroke="#00ACD7" fill="#00ACD7"/>
<text x="6.75em" y="3.90em" text-anchor="end"><tspan class="size">2,076 (33%)</tspan></text>
<text x="11.08em" y="3.90em"><tspan class="size">AWS EC2</tspan></text>
<rect x="7.25em" y="4.50em" width="1.29em" height="0.60em" stroke="#00ACD7" fill="#00ACD7"/>
<text x="6.75em" y="5.10em" text-anchor="end"><tspan class="size">806 (13%)</tspan></text>
<text x="9.04em" y="5.10em"><tspan class="size">AWS Container</tspan></text>
<rect x="7.25em" y="5.70em" width="1.03em" height="0.60em" stroke="#00ACD7" fill="#00ACD7"/>
<text x="6.75em" y="6.30em" text-anchor="end"><tspan class="size">644 (10%)</tspan></text>
<text x="8.78em" y="6.30em"><tspan class="size">AWS Lambda</tspan></text>
<rect x="7.25em" y="6.90em" width="0.85em" height="0.60em" stroke="#00ACD7" fill="#00ACD7"/>
<text x="6.75em" y="7.50em" text-anchor="end"><tspan class="size">528  (8%)</tspan></text>
<text x="8.60em" y="7.50em"><tspan class="size">Google Compute Engine</tspan></text>
<rect x="7.25em" y="8.10em" width="0.85em" height="0.60em" stroke="#00ACD7" fill="#00ACD7"/>
<text x="6.75em" y="8.70em" text-anchor="end"><tspan class="size">527  (8%)</tspan></text>
<text x="8.60em" y="8.70em"><tspan class="size">Digital Ocean</tspan></text>
<rect x="7.25em" y="9.30em" width="0.71em" height="0.60em" stroke="#00ACD7" fill="#00ACD7"/>
<text x="6.75em" y="9.90em" text-anchor="end"><tspan class="size">442  (7%)</tspan></text>
<text x="8.46em" y="9.90em"><tspan class="size">None</tspan></text>
<rect x="7.25em" y="10.50em" width="0.65em" height="0.60em" stroke="#00ACD7" fill="#00ACD7"/>
<text x="6.75em" y="11.10em" text-anchor="end"><tspan class="size">402  (6%)</tspan></text>
<text x="8.40em" y="11.10em"><tspan class="size">Microsoft Azure</tspan></text>
<rect x="7.25em" y="11.70em" width="0.55em" height="0.60em" stroke="#00ACD7" fill="#00ACD7"/>
<text x="6.75em" y="12.30em" text-anchor="end"><tspan class="size">340  (5%)</tspan></text>
<text x="8.30em" y="12.30em"><tspan class="size">Heroku</tspan></text>
<rect x="7.25em" y="12.90em" width="0.53em" height="0.60em" stroke="#00ACD7" fill="#00ACD7"/>
<text x="6.75em" y="13.50em" text-anchor="end"><tspan class="size">327  (5%)</tspan></text>
<text x="8.28em" y="13.50em"><tspan class="size">Google Container Engine (GKE)</tspan></text>
<rect x="7.25em" y="14.10em" width="0.30em" height="0.60em" stroke="#00ACD7" fill="#00ACD7"/>
<text x="6.75em" y="14.70em" text-anchor="end"><tspan class="size">188  (3%)</tspan></text>
<text x="8.05em" y="14.70em"><tspan class="size">Google App Engine</tspan></text>
<rect x="7.25em" y="15.30em" width="0.26em" height="0.60em" stroke="#00ACD7" fill="#00ACD7"/>
<text x="6.75em" y="15.90em" text-anchor="end"><tspan class="size">159  (3%)</tspan></text>
<text x="8.01em" y="15.90em"><tspan class="size">Linode</tspan></text>
<rect x="7.25em" y="16.50em" width="0.15em" height="0.60em" stroke="#00ACD7" fill="#00ACD7"/>
<text x="6.75em" y="17.10em" text-anchor="end"><tspan class="size">95  (2%)</tspan></text>
<text x="7.90em" y="17.10em"><tspan class="size">Google Cloud Functions</tspan></text>
<rect x="7.25em" y="17.70em" width="0.14em" height="0.60em" stroke="#00ACD7" fill="#00ACD7"/>
<text x="6.75em" y="18.30em" text-anchor="end"><tspan class="size">85  (1%)</tspan></text>
<text x="7.89em" y="18.30em"><tspan class="size">Azure Container Service</tspan></text>
<rect x="7.25em" y="18.90em" width="0.08em" height="0.60em" stroke="#00ACD7" fill="#00ACD7"/>
<text x="6.75em" y="19.50em" text-anchor="end"><tspan class="size">50  (1%)</tspan></text>
<text x="7.83em" y="19.50em"><tspan class="size">Azure Functions</tspan></text>
<rect x="7.25em" y="20.10em" width="0.84em" height="0.60em" stroke="#777777" fill="#777777"/>
<text x="6.75em" y="20.70em" text-anchor="end"><tspan class="size">524  (8%)</tspan></text>
<text x="8.59em" y="20.70em"><tspan class="size">Other</tspan></text>
<rect x="7.25em" y="21.30em" width="1.33em" height="0.60em" stroke="black" fill="white"/>
<text x="6.75em" y="21.90em" text-anchor="end"><tspan class="size">825 (13%)</tspan></text>
<text x="9.08em" y="21.90em"><tspan class="size">No response</tspan></text>
</svg>
