<?xml version="1.0" standalone="no"?>
<!DOCTYPE svg PUBLIC "-//W3C//DTD SVG 1.1//EN"
  "http://www.w3.org/Graphics/SVG/1.1/DTD/svg11.dtd">
<svg width="70.00em" height="22.40em" version="1.1"
     xmlns="http://www.w3.org/2000/svg">
  <defs>
    <style type="text/css"><![CDATA[
      svg {
        font-family: "Helvetica Neue", Arial, sans-serif; /* Helvetica on Mac aka sans-serif has broken U+2007 */
      }
      tspan.size {
        font-size: 0.80em;
      }
      tspan.head {
        font-weight: bold;
      }
      tspan.paren {
        font-weight: normal !important;
      }
    ]]></style>
  </defs>
<text x="0.00em" y="1.20em" class="head"><tspan class="size">My team deploys Go programs to:  <tspan class="paren">(multiple choice)</tspan></tspan></text>
<rect x="7.25em" y="2.10em" width="4.28em" height="0.60em" stroke="#00ACD7" fill="#00ACD7"/>
<text x="6.75em" y="2.70em" text-anchor="end"><tspan class="size">2,664 (43%)</tspan></text>
<text x="12.03em" y="2.70em"><tspan class="size">Self/Company Owned Servers</tspan></text>
<rect x="7.25em" y="3.30em" width="2.71em" height="0.60em" stroke="#00ACD7" fill="#00ACD7"/>
<text x="6.75em" y="3.90em" text-anchor="end"><tspan class="size">1,689 (27%)</tspan></text>
<text x="10.46em" y="3.90em"><tspan class="size">AWS EC2</tspan></text>
<rect x="7.25em" y="4.50em" width="1.28em" height="0.60em" stroke="#00ACD7" fill="#00ACD7"/>
<text x="6.75em" y="5.10em" text-anchor="end"><tspan class="size">799 (13%)</tspan></text>
<text x="9.03em" y="5.10em"><tspan class="size">None</tspan></text>
<rect x="7.25em" y="5.70em" width="1.18em" height="0.60em" stroke="#00ACD7" fill="#00ACD7"/>
<text x="6.75em" y="6.30em" text-anchor="end"><tspan class="size">732 (12%)</tspan></text>
<text x="8.93em" y="6.30em"><tspan class="size">AWS Container</tspan></text>
<rect x="7.25em" y="6.90em" width="1.01em" height="0.60em" stroke="#00ACD7" fill="#00ACD7"/>
<text x="6.75em" y="7.50em" text-anchor="end"><tspan class="size">631 (10%)</tspan></text>
<text x="8.76em" y="7.50em"><tspan class="size">Digital Ocean</tspan></text>
<rect x="7.25em" y="8.10em" width="0.96em" height="0.60em" stroke="#00ACD7" fill="#00ACD7"/>
<text x="6.75em" y="8.70em" text-anchor="end"><tspan class="size">596 (10%)</tspan></text>
<text x="8.71em" y="8.70em"><tspan class="size">Google Compute Engine</tspan></text>
<rect x="7.25em" y="9.30em" width="0.78em" height="0.60em" stroke="#00ACD7" fill="#00ACD7"/>
<text x="6.75em" y="9.90em" text-anchor="end"><tspan class="size">485  (8%)</tspan></text>
<text x="8.53em" y="9.90em"><tspan class="size">Google Container Engine (GKE)</tspan></text>
<rect x="7.25em" y="10.50em" width="0.53em" height="0.60em" stroke="#00ACD7" fill="#00ACD7"/>
<text x="6.75em" y="11.10em" text-anchor="end"><tspan class="size">328  (5%)</tspan></text>
<text x="8.28em" y="11.10em"><tspan class="size">Google App Engine</tspan></text>
<rect x="7.25em" y="11.70em" width="0.42em" height="0.60em" stroke="#00ACD7" fill="#00ACD7"/>
<text x="6.75em" y="12.30em" text-anchor="end"><tspan class="size">262  (4%)</tspan></text>
<text x="8.17em" y="12.30em"><tspan class="size">AWS Lambda</tspan></text>
<rect x="7.25em" y="12.90em" width="0.41em" height="0.60em" stroke="#00ACD7" fill="#00ACD7"/>
<text x="6.75em" y="13.50em" text-anchor="end"><tspan class="size">255  (4%)</tspan></text>
<text x="8.16em" y="13.50em"><tspan class="size">Heroku</tspan></text>
<rect x="7.25em" y="14.10em" width="0.41em" height="0.60em" stroke="#00ACD7" fill="#00ACD7"/>
<text x="6.75em" y="14.70em" text-anchor="end"><tspan class="size">255  (4%)</tspan></text>
<text x="8.16em" y="14.70em"><tspan class="size">Microsoft Azure</tspan></text>
<rect x="7.25em" y="15.30em" width="0.29em" height="0.60em" stroke="#00ACD7" fill="#00ACD7"/>
<text x="6.75em" y="15.90em" text-anchor="end"><tspan class="size">183  (3%)</tspan></text>
<text x="8.04em" y="15.90em"><tspan class="size">Linode</tspan></text>
<rect x="7.25em" y="16.50em" width="0.10em" height="0.60em" stroke="#00ACD7" fill="#00ACD7"/>
<text x="6.75em" y="17.10em" text-anchor="end"><tspan class="size">61  (1%)</tspan></text>
<text x="7.85em" y="17.10em"><tspan class="size">Azure Container Service</tspan></text>
<rect x="7.25em" y="17.70em" width="0.08em" height="0.60em" stroke="#00ACD7" fill="#00ACD7"/>
<text x="6.75em" y="18.30em" text-anchor="end"><tspan class="size">51  (1%)</tspan></text>
<text x="7.83em" y="18.30em"><tspan class="size">Google Cloud Functions</tspan></text>
<rect x="7.25em" y="18.90em" width="0.02em" height="0.60em" stroke="#00ACD7" fill="#00ACD7"/>
<text x="6.75em" y="19.50em" text-anchor="end"><tspan class="size">13  (0%)</tspan></text>
<text x="7.77em" y="19.50em"><tspan class="size">Azure Functions</tspan></text>
<rect x="7.25em" y="20.10em" width="0.97em" height="0.60em" stroke="#777777" fill="#777777"/>
<text x="6.75em" y="20.70em" text-anchor="end"><tspan class="size">601 (10%)</tspan></text>
<text x="8.72em" y="20.70em"><tspan class="size">Other</tspan></text>
<rect x="7.25em" y="21.30em" width="1.05em" height="0.60em" stroke="black" fill="white"/>
<text x="6.75em" y="21.90em" text-anchor="end"><tspan class="size">652 (10%)</tspan></text>
<text x="8.80em" y="21.90em"><tspan class="size">No response</tspan></text>
</svg>
