<?xml version="1.0" encoding="UTF-8" standalone="no"?><!DOCTYPE svg PUBLIC "-//W3C//DTD SVG 1.1//EN" "http://www.w3.org/Graphics/SVG/1.1/DTD/svg11.dtd"><svg width="100%" height="100%" viewBox="0 0 745 285" version="1.1" xmlns="http://www.w3.org/2000/svg" xmlns:xlink="http://www.w3.org/1999/xlink" xml:space="preserve" xmlns:serif="http://www.serif.com/" style="fill-rule:evenodd;clip-rule:evenodd;"><g><text x="0.002px" y="14.375px" style="font-family:'Arial-BoldMT', 'Arial', sans-serif;font-weight:700;font-size:20px;">2016</text><text x="410.002px" y="14.375px" style="font-family:'Arial-BoldMT', 'Arial', sans-serif;font-weight:700;font-size:20px;">2017</text></g><g><text x="0.916px" y="33.391px" style="font-family:'HelveticaNeue', 'Helvetica Neue';font-size:12px;">My team deploys Go pr<tspan x="126.736px 133.624px " y="33.391px 33.391px ">og</tspan>rams to: (multiple choice)</text><rect x="87.916" y="44.191" width="49.68" height="7.2" style="fill:#00c4b3;stroke:#00c4b3;stroke-width:1px;"/><text x="16.996px" y="51.391px" style="font-family:'HelveticaNeue', 'Helvetica Neue';font-size:12px;">1,489 (41%)</text><text x="143.596px" y="51.391px" style="font-family:'HelveticaNeue', 'Helvetica Neue';font-size:12px;">Self/Company Owned Servers</text><rect x="87.916" y="58.591" width="30.96" height="7.2" style="fill:#00c4b3;stroke:#00c4b3;stroke-width:1px;"/><text x="27.004px" y="65.791px" style="font-family:'HelveticaNeue', 'Helvetica Neue';font-size:12px;">928 (26%)</text><text x="124.876px" y="65.791px" style="font-family:'HelveticaNeue', 'Helvetica Neue';font-size:12px;">A<tspan x="132.364px 143.476px " y="65.791px 65.791px ">WS</tspan> EC2</text><rect x="87.916" y="72.991" width="16.8" height="7.2" style="fill:#00c4b3;stroke:#00c4b3;stroke-width:1px;"/><text x="27.004px" y="80.191px" style="font-family:'HelveticaNeue', 'Helvetica Neue';font-size:12px;">503 (14%)</text><text x="110.716px" y="80.191px" style="font-family:'HelveticaNeue', 'Helvetica Neue';font-size:12px;">None</text><rect x="87.916" y="87.391" width="13.8" height="7.2" style="fill:#00c4b3;stroke:#00c4b3;stroke-width:1px;"/><text x="27.004px" y="94.591px" style="font-family:'HelveticaNeue', 'Helvetica Neue';font-size:12px;">412 (11%)</text><text x="107.716px" y="94.591px" style="font-family:'HelveticaNeue', 'Helvetica Neue';font-size:12px;">Digital Ocean</text><rect x="87.916" y="101.791" width="9.72" height="7.2" style="fill:#00c4b3;stroke:#00c4b3;stroke-width:1px;"/><text x="27.004px" y="108.991px" style="font-family:'HelveticaNeue', 'Helvetica Neue';font-size:12px;">292  (8%)</text><text x="103.636px" y="108.991px" style="font-family:'HelveticaNeue', 'Helvetica Neue';font-size:12px;">A<tspan x="111.124px 122.236px " y="108.991px 108.991px ">WS</tspan> Container</text><rect x="87.916" y="116.191" width="7.32" height="7.2" style="fill:#00c4b3;stroke:#00c4b3;stroke-width:1px;"/><text x="27.004px" y="123.391px" style="font-family:'HelveticaNeue', 'Helvetica Neue';font-size:12px;">221  (6%)</text><text x="101.236px" y="123.391px" style="font-family:'HelveticaNeue', 'Helvetica Neue';font-size:12px;">Google Compute Engine</text><rect x="87.916" y="130.591" width="6.24" height="7.2" style="fill:#00c4b3;stroke:#00c4b3;stroke-width:1px;"/><text x="27.004px" y="137.791px" style="font-family:'HelveticaNeue', 'Helvetica Neue';font-size:12px;">188  (5%)</text><text x="100.156px" y="137.791px" style="font-family:'HelveticaNeue', 'Helvetica Neue';font-size:12px;">Google App Engine</text><rect x="87.916" y="144.991" width="5.4" height="7.2" style="fill:#00c4b3;stroke:#00c4b3;stroke-width:1px;"/><text x="27.004px" y="152.191px" style="font-family:'HelveticaNeue', 'Helvetica Neue';font-size:12px;">161  (4%)</text><text x="99.316px" y="152.191px" style="font-family:'HelveticaNeue', 'Helvetica Neue';font-size:12px;">Google Container Engine (GKE)</text><rect x="87.916" y="159.391" width="4.08" height="7.2" style="fill:#00c4b3;stroke:#00c4b3;stroke-width:1px;"/><text x="27.004px" y="166.591px" style="font-family:'HelveticaNeue', 'Helvetica Neue';font-size:12px;">121  (3%)</text><text x="97.996px" y="166.591px" style="font-family:'HelveticaNeue', 'Helvetica Neue';font-size:12px;">Her<tspan x="116.884px 123.772px " y="166.591px 166.591px ">ok</tspan>u</text><rect x="87.916" y="173.791" width="3.84" height="7.2" style="fill:#00c4b3;stroke:#00c4b3;stroke-width:1px;"/><text x="27.004px" y="180.991px" style="font-family:'HelveticaNeue', 'Helvetica Neue';font-size:12px;">114  (3%)</text><text x="97.756px" y="180.991px" style="font-family:'HelveticaNeue', 'Helvetica Neue';font-size:12px;">Micr<tspan x="121.096px 127.984px " y="180.991px 180.991px ">os</tspan>oft Azur<tspan x="175.528px " y="180.991px ">e</tspan></text><rect x="87.916" y="188.191" width="3.48" height="7.2" style="fill:#00c4b3;stroke:#00c4b3;stroke-width:1px;"/><text x="27.004px" y="195.391px" style="font-family:'HelveticaNeue', 'Helvetica Neue';font-size:12px;">104  (3%)</text><text x="97.396px" y="195.391px" style="font-family:'HelveticaNeue', 'Helvetica Neue';font-size:12px;">Linode</text><rect x="87.916" y="202.591" width="3.12" height="7.2" style="fill:#00c4b3;stroke:#00c4b3;stroke-width:1px;"/><text x="33.676px" y="209.791px" style="font-family:'HelveticaNeue', 'Helvetica Neue';font-size:12px;">94  (3%)</text><text x="97.036px" y="209.791px" style="font-family:'HelveticaNeue', 'Helvetica Neue';font-size:12px;">A<tspan x="104.524px 115.636px " y="209.791px 209.791px ">WS</tspan> Lambda</text><rect x="87.916" y="216.991" width="10.08" height="7.2" style="fill:#777;stroke:#777;stroke-width:1px;"/><text x="27.004px" y="224.191px" style="font-family:'HelveticaNeue', 'Helvetica Neue';font-size:12px;">301  (8%)</text><text x="103.996px" y="224.191px" style="font-family:'HelveticaNeue', 'Helvetica Neue';font-size:12px;">Other</text><rect x="87.916" y="231.391" width="21.36" height="7.2" style="fill:#fff;stroke:#000;stroke-width:1px;"/><text x="27.004px" y="238.591px" style="font-family:'HelveticaNeue', 'Helvetica Neue';font-size:12px;">639 (18%)</text><text x="115.276px" y="238.591px" style="font-family:'HelveticaNeue', 'Helvetica Neue';font-size:12px;">No r<tspan x="137.944px 144.388px " y="238.591px 238.591px ">es</tspan>ponse</text></g><text x="409.418px" y="33.711px" style="font-family:'HelveticaNeue', 'Helvetica Neue';font-size:12px;">My team deploys Go pr<tspan x="535.238px 542.126px " y="33.711px 33.711px ">og</tspan>rams to: (multiple choice)</text><rect x="496.418" y="44.511" width="51.36" height="7.2" style="fill:#00acd7;stroke:#00acd7;stroke-width:1px;"/><text x="425.498px" y="51.711px" style="font-family:'HelveticaNeue', 'Helvetica Neue';font-size:12px;">2,664 (43%)</text><text x="553.778px" y="51.711px" style="font-family:'HelveticaNeue', 'Helvetica Neue';font-size:12px;">Self/Company Owned Servers</text><rect x="496.418" y="58.911" width="32.52" height="7.2" style="fill:#00acd7;stroke:#00acd7;stroke-width:1px;"/><text x="425.498px" y="66.111px" style="font-family:'HelveticaNeue', 'Helvetica Neue';font-size:12px;">1,689 (27%)</text><text x="534.938px" y="66.111px" style="font-family:'HelveticaNeue', 'Helvetica Neue';font-size:12px;">A<tspan x="542.426px 553.538px " y="66.111px 66.111px ">WS</tspan> EC2</text><rect x="496.418" y="73.311" width="15.36" height="7.2" style="fill:#00acd7;stroke:#00acd7;stroke-width:1px;"/><text x="435.506px" y="80.511px" style="font-family:'HelveticaNeue', 'Helvetica Neue';font-size:12px;">799 (13%)</text><text x="517.778px" y="80.511px" style="font-family:'HelveticaNeue', 'Helvetica Neue';font-size:12px;">None</text><rect x="496.418" y="87.711" width="14.16" height="7.2" style="fill:#00acd7;stroke:#00acd7;stroke-width:1px;"/><text x="435.506px" y="94.911px" style="font-family:'HelveticaNeue', 'Helvetica Neue';font-size:12px;">732 (12%)</text><text x="516.578px" y="94.911px" style="font-family:'HelveticaNeue', 'Helvetica Neue';font-size:12px;">A<tspan x="524.066px 535.178px " y="94.911px 94.911px ">WS</tspan> Container</text><rect x="496.418" y="102.111" width="12.12" height="7.2" style="fill:#00acd7;stroke:#00acd7;stroke-width:1px;"/><text x="435.506px" y="109.311px" style="font-family:'HelveticaNeue', 'Helvetica Neue';font-size:12px;">631 (10%)</text><text x="514.538px" y="109.311px" style="font-family:'HelveticaNeue', 'Helvetica Neue';font-size:12px;">Digital Ocean</text><rect x="496.418" y="116.511" width="11.52" height="7.2" style="fill:#00acd7;stroke:#00acd7;stroke-width:1px;"/><text x="435.506px" y="123.711px" style="font-family:'HelveticaNeue', 'Helvetica Neue';font-size:12px;">596 (10%)</text><text x="513.938px" y="123.711px" style="font-family:'HelveticaNeue', 'Helvetica Neue';font-size:12px;">Google Compute Engine</text><rect x="496.418" y="130.911" width="9.36" height="7.2" style="fill:#00acd7;stroke:#00acd7;stroke-width:1px;"/><text x="435.506px" y="138.111px" style="font-family:'HelveticaNeue', 'Helvetica Neue';font-size:12px;">485  (8%)</text><text x="511.778px" y="138.111px" style="font-family:'HelveticaNeue', 'Helvetica Neue';font-size:12px;">Google Container Engine (GKE)</text><rect x="496.418" y="145.311" width="6.36" height="7.2" style="fill:#00acd7;stroke:#00acd7;stroke-width:1px;"/><text x="435.506px" y="152.511px" style="font-family:'HelveticaNeue', 'Helvetica Neue';font-size:12px;">328  (5%)</text><text x="508.778px" y="152.511px" style="font-family:'HelveticaNeue', 'Helvetica Neue';font-size:12px;">Google App Engine</text><rect x="496.418" y="159.711" width="5.04" height="7.2" style="fill:#00acd7;stroke:#00acd7;stroke-width:1px;"/><text x="435.506px" y="166.911px" style="font-family:'HelveticaNeue', 'Helvetica Neue';font-size:12px;">262  (4%)</text><text x="507.458px" y="166.911px" style="font-family:'HelveticaNeue', 'Helvetica Neue';font-size:12px;">A<tspan x="514.946px 526.058px " y="166.911px 166.911px ">WS</tspan> Lambda</text><rect x="496.418" y="174.111" width="4.92" height="7.2" style="fill:#00acd7;stroke:#00acd7;stroke-width:1px;"/><text x="435.506px" y="181.311px" style="font-family:'HelveticaNeue', 'Helvetica Neue';font-size:12px;">255  (4%)</text><text x="507.338px" y="181.311px" style="font-family:'HelveticaNeue', 'Helvetica Neue';font-size:12px;">Her<tspan x="526.226px 533.114px " y="181.311px 181.311px ">ok</tspan>u</text><rect x="496.418" y="188.511" width="4.92" height="7.2" style="fill:#00acd7;stroke:#00acd7;stroke-width:1px;"/><text x="435.506px" y="195.711px" style="font-family:'HelveticaNeue', 'Helvetica Neue';font-size:12px;">255  (4%)</text><text x="507.338px" y="195.711px" style="font-family:'HelveticaNeue', 'Helvetica Neue';font-size:12px;">Micr<tspan x="530.678px 537.566px " y="195.711px 195.711px ">os</tspan>oft Azur<tspan x="585.11px " y="195.711px ">e</tspan></text><rect x="496.418" y="202.911" width="3.48" height="7.2" style="fill:#00acd7;stroke:#00acd7;stroke-width:1px;"/><text x="435.506px" y="210.111px" style="font-family:'HelveticaNeue', 'Helvetica Neue';font-size:12px;">183  (3%)</text><text x="505.898px" y="210.111px" style="font-family:'HelveticaNeue', 'Helvetica Neue';font-size:12px;">Linode</text><rect x="496.418" y="217.311" width="1.2" height="7.2" style="fill:#00acd7;stroke:#00acd7;stroke-width:1px;"/><text x="442.178px" y="224.511px" style="font-family:'HelveticaNeue', 'Helvetica Neue';font-size:12px;">61  (1%)</text><text x="503.618px" y="224.511px" style="font-family:'HelveticaNeue', 'Helvetica Neue';font-size:12px;">Azur<tspan x="527.606px 534.05px " y="224.511px 224.511px ">e </tspan>Container Service</text><rect x="496.418" y="231.711" width="0.96" height="7.2" style="fill:#00acd7;stroke:#00acd7;stroke-width:1px;"/><text x="442.178px" y="238.911px" style="font-family:'HelveticaNeue', 'Helvetica Neue';font-size:12px;">51  (1%)</text><text x="503.378px" y="238.911px" style="font-family:'HelveticaNeue', 'Helvetica Neue';font-size:12px;">Google Cloud Functions</text><rect x="496.418" y="246.111" width="0.24" height="7.2" style="fill:#00acd7;stroke:#00acd7;stroke-width:1px;"/><text x="442.178px" y="253.311px" style="font-family:'HelveticaNeue', 'Helvetica Neue';font-size:12px;">13  (0%)</text><text x="502.658px" y="253.311px" style="font-family:'HelveticaNeue', 'Helvetica Neue';font-size:12px;">Azur<tspan x="526.646px 533.09px " y="253.311px 253.311px ">e </tspan>Functions</text><rect x="496.418" y="260.511" width="11.64" height="7.2" style="fill:#777;stroke:#777;stroke-width:1px;"/><text x="435.506px" y="267.711px" style="font-family:'HelveticaNeue', 'Helvetica Neue';font-size:12px;">601 (10%)</text><text x="514.058px" y="267.711px" style="font-family:'HelveticaNeue', 'Helvetica Neue';font-size:12px;">Other</text><rect x="496.418" y="274.911" width="12.6" height="7.2" style="fill:#fff;stroke:#000;stroke-width:1px;"/><text x="435.506px" y="282.111px" style="font-family:'HelveticaNeue', 'Helvetica Neue';font-size:12px;">652 (10%)</text><text x="515.018px" y="282.111px" style="font-family:'HelveticaNeue', 'Helvetica Neue';font-size:12px;">No r<tspan x="537.686px 544.13px " y="282.111px 282.111px ">es</tspan>ponse</text><path d="M340.5,101.004c0,-2.044 -1.66,-3.704 -3.704,-3.704l-332.593,0c-2.044,0 -3.703,1.66 -3.703,3.704l0,7.407c0,2.043 1.659,3.703 3.703,3.703l332.593,0c2.044,0 3.704,-1.66 3.704,-3.703l0,-7.407Z" style="fill:#e62626;fill-opacity:0.152941;stroke:#e62626;stroke-width:1px;stroke-linecap:round;stroke-linejoin:round;stroke-miterlimit:1.5;"/><path d="M340.5,116.004c0,-2.044 -1.66,-3.704 -3.704,-3.704l-332.593,0c-2.044,0 -3.703,1.66 -3.703,3.704l0,7.407c0,2.043 1.659,3.703 3.703,3.703l332.593,0c2.044,0 3.704,-1.66 3.704,-3.703l0,-7.407Z" style="fill:#e62626;fill-opacity:0.152941;stroke:#e62626;stroke-width:1px;stroke-linecap:round;stroke-linejoin:round;stroke-miterlimit:1.5;"/><path d="M340.5,145.004c0,-2.044 -1.66,-3.704 -3.704,-3.704l-332.593,0c-2.044,0 -3.703,1.66 -3.703,3.704l0,7.407c0,2.043 1.659,3.703 3.703,3.703l332.593,0c2.044,0 3.704,-1.66 3.704,-3.703l0,-7.407Z" style="fill:#e62626;fill-opacity:0.152941;stroke:#e62626;stroke-width:1px;stroke-linecap:round;stroke-linejoin:round;stroke-miterlimit:1.5;"/><path d="M744.5,86.597c0,-2.044 -1.66,-3.703 -3.704,-3.703l-332.593,0c-2.044,0 -3.703,1.659 -3.703,3.703l0,7.407c0,2.044 1.659,3.703 3.703,3.703l332.593,0c2.044,0 3.704,-1.659 3.704,-3.703l0,-7.407Z" style="fill:#e62626;fill-opacity:0.152941;stroke:#e62626;stroke-width:1px;stroke-linecap:round;stroke-linejoin:round;stroke-miterlimit:1.5;"/><path d="M744.5,115.597c0,-2.044 -1.66,-3.703 -3.704,-3.703l-332.593,0c-2.044,0 -3.703,1.659 -3.703,3.703l0,7.407c0,2.044 1.659,3.703 3.703,3.703l332.593,0c2.044,0 3.704,-1.659 3.704,-3.703l0,-7.407Z" style="fill:#e62626;fill-opacity:0.152941;stroke:#e62626;stroke-width:1px;stroke-linecap:round;stroke-linejoin:round;stroke-miterlimit:1.5;"/><path d="M744.5,130.597c0,-2.044 -1.66,-3.703 -3.704,-3.703l-332.593,0c-2.044,0 -3.703,1.659 -3.703,3.703l0,7.407c0,2.044 1.659,3.703 3.703,3.703l332.593,0c2.044,0 3.704,-1.659 3.704,-3.703l0,-7.407Z" style="fill:#e62626;fill-opacity:0.152941;stroke:#e62626;stroke-width:1px;stroke-linecap:round;stroke-linejoin:round;stroke-miterlimit:1.5;"/><path d="M354.369,137.974l-3.445,-6.107l37.049,-20.9l-3.199,-5.671l13.647,3.803l-3.803,13.647l-3.199,-5.672l-37.05,20.9Z" style="fill:#e62626;fill-opacity:0.152941;stroke:#e62626;stroke-width:1px;stroke-linecap:round;stroke-linejoin:round;stroke-miterlimit:1.5;"/></svg>