<?xml version="1.0" encoding="UTF-8" standalone="no"?><!DOCTYPE svg PUBLIC "-//W3C//DTD SVG 1.1//EN" "http://www.w3.org/Graphics/SVG/1.1/DTD/svg11.dtd"><svg width="100%" height="100%" viewBox="0 0 745 213" version="1.1" xmlns="http://www.w3.org/2000/svg" xmlns:xlink="http://www.w3.org/1999/xlink" xml:space="preserve" xmlns:serif="http://www.serif.com/" style="fill-rule:evenodd;clip-rule:evenodd;stroke-linecap:round;stroke-linejoin:round;stroke-miterlimit:1.5;"><path d="M340.5,57.574c0,-2.044 -1.66,-3.704 -3.704,-3.704l-332.593,0c-2.044,0 -3.703,1.66 -3.703,3.704l0,7.406c0,2.044 1.659,3.704 3.703,3.704l332.593,0c2.044,0 3.704,-1.66 3.704,-3.704l0,-7.406Z" style="fill:#e62626;fill-opacity:0.152941;stroke:#e62626;stroke-width:1px;"/><path d="M340.5,86.601c0,-2.044 -1.66,-3.703 -3.704,-3.703l-332.593,0c-2.044,0 -3.703,1.659 -3.703,3.703l0,7.407c0,2.044 1.659,3.703 3.703,3.703l332.593,0c2.044,0 3.704,-1.659 3.704,-3.703l0,-7.407Z" style="fill:#e62626;fill-opacity:0.152941;stroke:#e62626;stroke-width:1px;"/><path d="M340.5,72.387c0,-2.044 -1.66,-3.703 -3.704,-3.703l-332.593,0c-2.044,0 -3.703,1.659 -3.703,3.703l0,7.407c0,2.044 1.659,3.703 3.703,3.703l332.593,0c2.044,0 3.704,-1.659 3.704,-3.703l0,-7.407Z" style="fill:#ac16a9;fill-opacity:0.105882;stroke:#ac16a9;stroke-width:1px;"/><path d="M340.5,101.415c0,-2.044 -1.66,-3.704 -3.704,-3.704l-332.593,0c-2.044,0 -3.703,1.66 -3.703,3.704l0,7.406c0,2.044 1.659,3.704 3.703,3.704l332.593,0c2.044,0 3.704,-1.66 3.704,-3.704l0,-7.406Z" style="fill:#ac16a9;fill-opacity:0.105882;stroke:#ac16a9;stroke-width:1px;"/><path d="M744.01,42.76c0,-2.044 -1.659,-3.703 -3.703,-3.703l-332.593,0c-2.044,0 -3.704,1.659 -3.704,3.703l0,7.407c0,2.044 1.66,3.703 3.704,3.703l332.593,0c2.044,0 3.703,-1.659 3.703,-3.703l0,-7.407Z" style="fill:#e62626;fill-opacity:0.152941;stroke:#e62626;stroke-width:1px;"/><path d="M744.01,71.787c0,-2.044 -1.659,-3.703 -3.703,-3.703l-332.593,0c-2.044,0 -3.704,1.659 -3.704,3.703l0,7.407c0,2.044 1.66,3.704 3.704,3.704l332.593,0c2.044,0 3.703,-1.66 3.703,-3.704l0,-7.407Z" style="fill:#e62626;fill-opacity:0.152941;stroke:#e62626;stroke-width:1px;"/><path d="M744.01,101.415c0,-2.044 -1.659,-3.704 -3.703,-3.704l-332.593,0c-2.044,0 -3.704,1.66 -3.704,3.704l0,7.406c0,2.044 1.66,3.704 3.704,3.704l332.593,0c2.044,0 3.703,-1.66 3.703,-3.704l0,-7.406Z" style="fill:#ac16a9;fill-opacity:0.105882;stroke:#ac16a9;stroke-width:1px;"/><path d="M744.01,86.601c0,-2.044 -1.659,-3.703 -3.703,-3.703l-332.593,0c-2.044,0 -3.704,1.659 -3.704,3.703l0,7.407c0,2.044 1.66,3.703 3.704,3.703l332.593,0c2.044,0 3.703,-1.659 3.703,-3.703l0,-7.407Z" style="fill:#ac16a9;fill-opacity:0.105882;stroke:#ac16a9;stroke-width:1px;"/><g><text x="3.626px" y="14.375px" style="font-family:'Arial-BoldMT', 'Arial', sans-serif;font-weight:700;font-size:20px;">2016</text><text x="413.626px" y="14.375px" style="font-family:'Arial-BoldMT', 'Arial', sans-serif;font-weight:700;font-size:20px;">2017</text></g><path d="M356.469,76.146l-2.589,-4.492l36.469,-21.019l-2.404,-4.172l10.116,2.719l-2.718,10.116l-2.405,-4.171l-36.469,21.019Z" style="fill:#e62626;fill-opacity:0.152941;stroke:#e62626;stroke-width:1px;"/><path d="M351.976,87.612l2.158,-4.714l38.272,17.524l2.004,-4.377l3.651,9.818l-9.818,3.651l2.004,-4.378l-38.271,-17.524Z" style="fill:#ac16a5;fill-opacity:0.113725;stroke:#ac16a5;stroke-width:1px;"/><g><text x="415.315px" y="33.283px" style="font-family:'HelveticaNeue', 'Helvetica Neue';font-size:12px;">My pr<tspan x="445.999px 452.443px " y="33.283px 33.283px ">ef</tspan>err<tspan x="470.215px 476.659px " y="33.283px 33.283px ">ed</tspan> code editor</text><rect x="502.315" y="44.083" width="32.16" height="7.2" style="fill:#00acd7;stroke:#00acd7;stroke-width:1px;stroke-linecap:butt;stroke-linejoin:miter;stroke-miterlimit:4;"/><rect x="534.475" y="44.083" width="15" height="7.2" style="fill:#75cbe0;stroke:#75cbe0;stroke-width:1px;stroke-linecap:butt;stroke-linejoin:miter;stroke-miterlimit:4;"/><g transform="matrix(1,0,0,1,496.315,51.2831)"><text x="-84.936px" y="0px" style="font-family:'HelveticaNeue', 'Helvetica Neue';font-size:12px;">2,449 (</text><text x="-48.468px" y="0px" style="font-family:'HelveticaNeue', 'Helvetica Neue';font-size:12px;fill:#00acd7;">27</text><text x="-35.124px" y="0px" style="font-family:'HelveticaNeue', 'Helvetica Neue';font-size:12px;">,</text><text x="-28.452px" y="0px" style="font-family:'HelveticaNeue', 'Helvetica Neue';font-size:12px;fill:#75cbe0;">13</text><text x="-15.108px" y="0px" style="font-family:'HelveticaNeue', 'Helvetica Neue';font-size:12px;">%)</text></g><text x="555.475px" y="51.283px" style="font-family:'HelveticaNeue', 'Helvetica Neue';font-size:12px;">VSCode</text><rect x="502.315" y="58.483" width="26.76" height="7.2" style="fill:#00acd7;stroke:#00acd7;stroke-width:1px;stroke-linecap:butt;stroke-linejoin:miter;stroke-miterlimit:4;"/><rect x="529.075" y="58.483" width="17.28" height="7.2" style="fill:#75cbe0;stroke:#75cbe0;stroke-width:1px;stroke-linecap:butt;stroke-linejoin:miter;stroke-miterlimit:4;"/><g transform="matrix(1,0,0,1,496.315,65.6831)"><text x="-84.936px" y="0px" style="font-family:'HelveticaNeue', 'Helvetica Neue';font-size:12px;">2,288 (</text><text x="-48.468px" y="0px" style="font-family:'HelveticaNeue', 'Helvetica Neue';font-size:12px;fill:#00acd7;">22</text><text x="-35.124px" y="0px" style="font-family:'HelveticaNeue', 'Helvetica Neue';font-size:12px;">,</text><text x="-28.452px" y="0px" style="font-family:'HelveticaNeue', 'Helvetica Neue';font-size:12px;fill:#75cbe0;">14</text><text x="-15.108px" y="0px" style="font-family:'HelveticaNeue', 'Helvetica Neue';font-size:12px;">%)</text></g><text x="552.355px" y="65.683px" style="font-family:'HelveticaNeue', 'Helvetica Neue';font-size:12px;">V<tspan x="559.471px 562.135px " y="65.683px 65.683px ">im</tspan></text><rect x="502.315" y="72.883" width="23.04" height="7.2" style="fill:#00acd7;stroke:#00acd7;stroke-width:1px;stroke-linecap:butt;stroke-linejoin:miter;stroke-miterlimit:4;"/><rect x="525.355" y="72.883" width="8.4" height="7.2" style="fill:#75cbe0;stroke:#75cbe0;stroke-width:1px;stroke-linecap:butt;stroke-linejoin:miter;stroke-miterlimit:4;"/><g transform="matrix(1,0,0,1,496.315,80.0831)"><text x="-78.264px" y="0px" style="font-family:'HelveticaNeue', 'Helvetica Neue';font-size:12px;">1,628 (</text><text x="-41.796px" y="0px" style="font-family:'HelveticaNeue', 'Helvetica Neue';font-size:12px;fill:#00acd7;">19</text><text x="-28.452px" y="0px" style="font-family:'HelveticaNeue', 'Helvetica Neue';font-size:12px;">,</text><text x="-21.78px" y="0px" style="font-family:'HelveticaNeue', 'Helvetica Neue';font-size:12px;fill:#75cbe0;">7</text><text x="-15.108px" y="0px" style="font-family:'HelveticaNeue', 'Helvetica Neue';font-size:12px;">%)</text></g><text x="539.635px" y="80.083px" style="font-family:'HelveticaNeue', 'Helvetica Neue';font-size:12px;">IntelliJ/GoLand</text><rect x="502.315" y="87.283" width="8.04" height="7.2" style="fill:#00acd7;stroke:#00acd7;stroke-width:1px;stroke-linecap:butt;stroke-linejoin:miter;stroke-miterlimit:4;"/><rect x="510.355" y="87.283" width="9.48" height="7.2" style="fill:#75cbe0;stroke:#75cbe0;stroke-width:1px;stroke-linecap:butt;stroke-linejoin:miter;stroke-miterlimit:4;"/><g transform="matrix(1,0,0,1,496.315,94.4831)"><text x="-61.584px" y="0px" style="font-family:'HelveticaNeue', 'Helvetica Neue';font-size:12px;">912 (</text><text x="-35.124px" y="0px" style="font-family:'HelveticaNeue', 'Helvetica Neue';font-size:12px;fill:#00acd7;">7</text><text x="-28.452px" y="0px" style="font-family:'HelveticaNeue', 'Helvetica Neue';font-size:12px;">,</text><text x="-21.78px" y="0px" style="font-family:'HelveticaNeue', 'Helvetica Neue';font-size:12px;fill:#75cbe0;">8</text><text x="-15.108px" y="0px" style="font-family:'HelveticaNeue', 'Helvetica Neue';font-size:12px;">%)</text></g><text x="525.835px" y="94.483px" style="font-family:'HelveticaNeue', 'Helvetica Neue';font-size:12px;">Sublime T<tspan x="578.299px 584.743px " y="94.483px 94.483px ">ex</tspan>t</text><rect x="502.315" y="101.683" width="7.32" height="7.2" style="fill:#00acd7;stroke:#00acd7;stroke-width:1px;stroke-linecap:butt;stroke-linejoin:miter;stroke-miterlimit:4;"/><rect x="509.635" y="101.683" width="7.92" height="7.2" style="fill:#75cbe0;stroke:#75cbe0;stroke-width:1px;stroke-linecap:butt;stroke-linejoin:miter;stroke-miterlimit:4;"/><g transform="matrix(1,0,0,1,496.315,108.883)"><text x="-61.584px" y="0px" style="font-family:'HelveticaNeue', 'Helvetica Neue';font-size:12px;">791 (</text><text x="-35.124px" y="0px" style="font-family:'HelveticaNeue', 'Helvetica Neue';font-size:12px;fill:#00acd7;">6</text><text x="-28.452px" y="0px" style="font-family:'HelveticaNeue', 'Helvetica Neue';font-size:12px;">,</text><text x="-21.78px" y="0px" style="font-family:'HelveticaNeue', 'Helvetica Neue';font-size:12px;fill:#75cbe0;">7</text><text x="-15.108px" y="0px" style="font-family:'HelveticaNeue', 'Helvetica Neue';font-size:12px;">%)</text></g><text x="523.555px" y="108.883px" style="font-family:'HelveticaNeue', 'Helvetica Neue';font-size:12px;">Atom</text><rect x="502.315" y="116.083" width="7.08" height="7.2" style="fill:#00acd7;stroke:#00acd7;stroke-width:1px;stroke-linecap:butt;stroke-linejoin:miter;stroke-miterlimit:4;"/><rect x="509.395" y="116.083" width="2.28" height="7.2" style="fill:#75cbe0;stroke:#75cbe0;stroke-width:1px;stroke-linecap:butt;stroke-linejoin:miter;stroke-miterlimit:4;"/><g transform="matrix(1,0,0,1,496.315,123.283)"><text x="-61.584px" y="0px" style="font-family:'HelveticaNeue', 'Helvetica Neue';font-size:12px;">490 (</text><text x="-35.124px" y="0px" style="font-family:'HelveticaNeue', 'Helvetica Neue';font-size:12px;fill:#00acd7;">6</text><text x="-28.452px" y="0px" style="font-family:'HelveticaNeue', 'Helvetica Neue';font-size:12px;">,</text><text x="-21.78px" y="0px" style="font-family:'HelveticaNeue', 'Helvetica Neue';font-size:12px;fill:#75cbe0;">2</text><text x="-15.108px" y="0px" style="font-family:'HelveticaNeue', 'Helvetica Neue';font-size:12px;">%)</text></g><text x="517.795px" y="123.283px" style="font-family:'HelveticaNeue', 'Helvetica Neue';font-size:12px;">Emacs</text><rect x="502.315" y="130.483" width="2.4" height="7.2" style="fill:#00acd7;stroke:#00acd7;stroke-width:1px;stroke-linecap:butt;stroke-linejoin:miter;stroke-miterlimit:4;"/><rect x="504.715" y="130.483" width="2.88" height="7.2" style="fill:#75cbe0;stroke:#75cbe0;stroke-width:1px;stroke-linecap:butt;stroke-linejoin:miter;stroke-miterlimit:4;"/><g transform="matrix(1,0,0,1,496.315,137.683)"><text x="-61.584px" y="0px" style="font-family:'HelveticaNeue', 'Helvetica Neue';font-size:12px;">274 (</text><text x="-35.124px" y="0px" style="font-family:'HelveticaNeue', 'Helvetica Neue';font-size:12px;fill:#00acd7;">2</text><text x="-28.452px" y="0px" style="font-family:'HelveticaNeue', 'Helvetica Neue';font-size:12px;">,</text><text x="-21.78px" y="0px" style="font-family:'HelveticaNeue', 'Helvetica Neue';font-size:12px;fill:#75cbe0;">2</text><text x="-15.108px" y="0px" style="font-family:'HelveticaNeue', 'Helvetica Neue';font-size:12px;">%)</text></g><text x="513.595px" y="137.683px" style="font-family:'HelveticaNeue', 'Helvetica Neue';font-size:12px;">V<tspan x="520.711px 523.375px " y="137.683px 137.683px ">is</tspan>ual Studio</text><rect x="502.315" y="144.883" width="1.44" height="7.2" style="fill:#00acd7;stroke:#00acd7;stroke-width:1px;stroke-linecap:butt;stroke-linejoin:miter;stroke-miterlimit:4;"/><rect x="503.755" y="144.883" width="1.56" height="7.2" style="fill:#75cbe0;stroke:#75cbe0;stroke-width:1px;stroke-linecap:butt;stroke-linejoin:miter;stroke-miterlimit:4;"/><g transform="matrix(1,0,0,1,496.315,152.083)"><text x="-61.584px" y="0px" style="font-family:'HelveticaNeue', 'Helvetica Neue';font-size:12px;">154 (</text><text x="-35.124px" y="0px" style="font-family:'HelveticaNeue', 'Helvetica Neue';font-size:12px;fill:#00acd7;">1</text><text x="-28.452px" y="0px" style="font-family:'HelveticaNeue', 'Helvetica Neue';font-size:12px;">,</text><text x="-21.78px" y="0px" style="font-family:'HelveticaNeue', 'Helvetica Neue';font-size:12px;fill:#75cbe0;">1</text><text x="-15.108px" y="0px" style="font-family:'HelveticaNeue', 'Helvetica Neue';font-size:12px;">%)</text></g><text x="511.315px" y="152.083px" style="font-family:'HelveticaNeue', 'Helvetica Neue';font-size:12px;">LiteIDE</text><rect x="502.315" y="159.283" width="0.6" height="7.2" style="fill:#00acd7;stroke:#00acd7;stroke-width:1px;stroke-linecap:butt;stroke-linejoin:miter;stroke-miterlimit:4;"/><rect x="502.915" y="159.283" width="1.08" height="7.2" style="fill:#75cbe0;stroke:#75cbe0;stroke-width:1px;stroke-linecap:butt;stroke-linejoin:miter;stroke-miterlimit:4;"/><g transform="matrix(1,0,0,1,496.315,166.483)"><text x="-74.928px" y="0px" style="font-family:'HelveticaNeue', 'Helvetica Neue';font-size:12px;">88 (</text><text x="-55.14px" y="0px" style="font-family:'HelveticaNeue', 'Helvetica Neue';font-size:12px;fill:#00acd7;">0.5</text><text x="-38.46px" y="0px" style="font-family:'HelveticaNeue', 'Helvetica Neue';font-size:12px;">,</text><text x="-31.788px" y="0px" style="font-family:'HelveticaNeue', 'Helvetica Neue';font-size:12px;fill:#75cbe0;">0.9</text><text x="-15.108px" y="0px" style="font-family:'HelveticaNeue', 'Helvetica Neue';font-size:12px;">%)</text></g><text x="509.995px" y="166.483px" style="font-family:'HelveticaNeue', 'Helvetica Neue';font-size:12px;">Eclipse</text><rect x="502.315" y="173.683" width="0.72" height="7.2" style="fill:#00acd7;stroke:#00acd7;stroke-width:1px;stroke-linecap:butt;stroke-linejoin:miter;stroke-miterlimit:4;"/><rect x="503.035" y="173.683" width="0.48" height="7.2" style="fill:#75cbe0;stroke:#75cbe0;stroke-width:1px;stroke-linecap:butt;stroke-linejoin:miter;stroke-miterlimit:4;"/><g transform="matrix(1,0,0,1,496.315,180.883)"><text x="-74.928px" y="0px" style="font-family:'HelveticaNeue', 'Helvetica Neue';font-size:12px;">67 (</text><text x="-55.14px" y="0px" style="font-family:'HelveticaNeue', 'Helvetica Neue';font-size:12px;fill:#00acd7;">0.6</text><text x="-38.46px" y="0px" style="font-family:'HelveticaNeue', 'Helvetica Neue';font-size:12px;">,</text><text x="-31.788px" y="0px" style="font-family:'HelveticaNeue', 'Helvetica Neue';font-size:12px;fill:#75cbe0;">0.4</text><text x="-15.108px" y="0px" style="font-family:'HelveticaNeue', 'Helvetica Neue';font-size:12px;">%)</text></g><text x="509.635px" y="180.883px" style="font-family:'HelveticaNeue', 'Helvetica Neue';font-size:12px;">Acme</text><rect x="502.315" y="188.083" width="3" height="7.2" style="fill:#777;stroke:#777;stroke-width:1px;stroke-linecap:butt;stroke-linejoin:miter;stroke-miterlimit:4;"/><rect x="505.315" y="188.083" width="1.92" height="7.2" style="fill:#b0b0b0;stroke:#b0b0b0;stroke-width:1px;stroke-linecap:butt;stroke-linejoin:miter;stroke-miterlimit:4;"/><g transform="matrix(1,0,0,1,496.315,195.283)"><text x="-61.584px" y="0px" style="font-family:'HelveticaNeue', 'Helvetica Neue';font-size:12px;">256 (</text><text x="-35.124px" y="0px" style="font-family:'HelveticaNeue', 'Helvetica Neue';font-size:12px;fill:#777;">3</text><text x="-28.452px" y="0px" style="font-family:'HelveticaNeue', 'Helvetica Neue';font-size:12px;">,</text><text x="-21.78px" y="0px" style="font-family:'HelveticaNeue', 'Helvetica Neue';font-size:12px;fill:#b0b0b0;">2</text><text x="-15.108px" y="0px" style="font-family:'HelveticaNeue', 'Helvetica Neue';font-size:12px;">%)</text></g><text x="513.235px" y="195.283px" style="font-family:'HelveticaNeue', 'Helvetica Neue';font-size:12px;">Other</text><rect x="502.315" y="202.483" width="7.32" height="7.2" style="fill:#fff;stroke:#000;stroke-width:1px;stroke-linecap:butt;stroke-linejoin:miter;stroke-miterlimit:4;"/><text x="438.067px" y="209.683px" style="font-family:'HelveticaNeue', 'Helvetica Neue';font-size:12px;">382 (6.1%)</text><text x="515.635px" y="209.683px" style="font-family:'HelveticaNeue', 'Helvetica Neue';font-size:12px;">No r<tspan x="538.303px 544.747px " y="209.683px 209.683px ">es</tspan>ponse</text></g><g><text x="4.392px" y="33.283px" style="font-family:'HelveticaNeue', 'Helvetica Neue';font-size:12px;">My pr<tspan x="35.076px 41.52px " y="33.283px 33.283px ">ef</tspan>err<tspan x="59.292px 65.736px " y="33.283px 33.283px ">ed</tspan> code editor</text><rect x="91.392" y="44.083" width="29.4" height="7.2" style="fill:#00c4b3;stroke:#00c4b3;stroke-width:1px;stroke-linecap:butt;stroke-linejoin:miter;stroke-miterlimit:4;"/><rect x="120.792" y="44.083" width="15.96" height="7.2" style="fill:#75d7ce;stroke:#75d7ce;stroke-width:1px;stroke-linecap:butt;stroke-linejoin:miter;stroke-miterlimit:4;"/><g transform="matrix(1,0,0,1,85.392,51.2831)"><text x="-84.936px" y="0px" style="font-family:'HelveticaNeue', 'Helvetica Neue';font-size:12px;">1,359 (</text><text x="-48.468px" y="0px" style="font-family:'HelveticaNeue', 'Helvetica Neue';font-size:12px;fill:#00c4b3;">25</text><text x="-35.124px" y="0px" style="font-family:'HelveticaNeue', 'Helvetica Neue';font-size:12px;">,</text><text x="-28.452px" y="0px" style="font-family:'HelveticaNeue', 'Helvetica Neue';font-size:12px;fill:#75d7ce;">13</text><text x="-15.108px" y="0px" style="font-family:'HelveticaNeue', 'Helvetica Neue';font-size:12px;">%)</text></g><text x="142.752px" y="51.283px" style="font-family:'HelveticaNeue', 'Helvetica Neue';font-size:12px;">V<tspan x="149.868px 152.532px " y="51.283px 51.283px ">im</tspan></text><rect x="91.392" y="58.483" width="16.56" height="7.2" style="fill:#00c4b3;stroke:#00c4b3;stroke-width:1px;stroke-linecap:butt;stroke-linejoin:miter;stroke-miterlimit:4;"/><rect x="107.952" y="58.483" width="10.56" height="7.2" style="fill:#75d7ce;stroke:#75d7ce;stroke-width:1px;stroke-linecap:butt;stroke-linejoin:miter;stroke-miterlimit:4;"/><g transform="matrix(1,0,0,1,85.392,65.6831)"><text x="-68.256px" y="0px" style="font-family:'HelveticaNeue', 'Helvetica Neue';font-size:12px;">814 (</text><text x="-41.796px" y="0px" style="font-family:'HelveticaNeue', 'Helvetica Neue';font-size:12px;fill:#00c4b3;">14</text><text x="-28.452px" y="0px" style="font-family:'HelveticaNeue', 'Helvetica Neue';font-size:12px;">,</text><text x="-21.78px" y="0px" style="font-family:'HelveticaNeue', 'Helvetica Neue';font-size:12px;fill:#75d7ce;">9</text><text x="-15.108px" y="0px" style="font-family:'HelveticaNeue', 'Helvetica Neue';font-size:12px;">%)</text></g><text x="124.512px" y="65.683px" style="font-family:'HelveticaNeue', 'Helvetica Neue';font-size:12px;">VSCode</text><rect x="91.392" y="72.883" width="12.24" height="7.2" style="fill:#00c4b3;stroke:#00c4b3;stroke-width:1px;stroke-linecap:butt;stroke-linejoin:miter;stroke-miterlimit:4;"/><rect x="103.632" y="72.883" width="10.32" height="7.2" style="fill:#75d7ce;stroke:#75d7ce;stroke-width:1px;stroke-linecap:butt;stroke-linejoin:miter;stroke-miterlimit:4;"/><g transform="matrix(1,0,0,1,85.392,80.0831)"><text x="-68.256px" y="0px" style="font-family:'HelveticaNeue', 'Helvetica Neue';font-size:12px;">676 (</text><text x="-41.796px" y="0px" style="font-family:'HelveticaNeue', 'Helvetica Neue';font-size:12px;fill:#00c4b3;">10</text><text x="-28.452px" y="0px" style="font-family:'HelveticaNeue', 'Helvetica Neue';font-size:12px;">,</text><text x="-21.78px" y="0px" style="font-family:'HelveticaNeue', 'Helvetica Neue';font-size:12px;fill:#75d7ce;">9</text><text x="-15.108px" y="0px" style="font-family:'HelveticaNeue', 'Helvetica Neue';font-size:12px;">%)</text></g><text x="119.952px" y="80.083px" style="font-family:'HelveticaNeue', 'Helvetica Neue';font-size:12px;">Atom</text><rect x="91.392" y="87.283" width="15.96" height="7.2" style="fill:#00c4b3;stroke:#00c4b3;stroke-width:1px;stroke-linecap:butt;stroke-linejoin:miter;stroke-miterlimit:4;"/><rect x="107.352" y="87.283" width="6.96" height="7.2" style="fill:#75d7ce;stroke:#75d7ce;stroke-width:1px;stroke-linecap:butt;stroke-linejoin:miter;stroke-miterlimit:4;"/><g transform="matrix(1,0,0,1,85.392,94.4831)"><text x="-68.256px" y="0px" style="font-family:'HelveticaNeue', 'Helvetica Neue';font-size:12px;">687 (</text><text x="-41.796px" y="0px" style="font-family:'HelveticaNeue', 'Helvetica Neue';font-size:12px;fill:#00c4b3;">13</text><text x="-28.452px" y="0px" style="font-family:'HelveticaNeue', 'Helvetica Neue';font-size:12px;">,</text><text x="-21.78px" y="0px" style="font-family:'HelveticaNeue', 'Helvetica Neue';font-size:12px;fill:#75d7ce;">6</text><text x="-15.108px" y="0px" style="font-family:'HelveticaNeue', 'Helvetica Neue';font-size:12px;">%)</text></g><text x="120.312px" y="94.483px" style="font-family:'HelveticaNeue', 'Helvetica Neue';font-size:12px;">IntelliJ</text><rect x="91.392" y="101.683" width="11.88" height="7.2" style="fill:#00c4b3;stroke:#00c4b3;stroke-width:1px;stroke-linecap:butt;stroke-linejoin:miter;stroke-miterlimit:4;"/><rect x="103.272" y="101.683" width="9.96" height="7.2" style="fill:#75d7ce;stroke:#75d7ce;stroke-width:1px;stroke-linecap:butt;stroke-linejoin:miter;stroke-miterlimit:4;"/><g transform="matrix(1,0,0,1,85.392,108.883)"><text x="-68.256px" y="0px" style="font-family:'HelveticaNeue', 'Helvetica Neue';font-size:12px;">655 (</text><text x="-41.796px" y="0px" style="font-family:'HelveticaNeue', 'Helvetica Neue';font-size:12px;fill:#00c4b3;">10</text><text x="-28.452px" y="0px" style="font-family:'HelveticaNeue', 'Helvetica Neue';font-size:12px;">,</text><text x="-21.78px" y="0px" style="font-family:'HelveticaNeue', 'Helvetica Neue';font-size:12px;fill:#75d7ce;">8</text><text x="-15.108px" y="0px" style="font-family:'HelveticaNeue', 'Helvetica Neue';font-size:12px;">%)</text></g><text x="119.232px" y="108.883px" style="font-family:'HelveticaNeue', 'Helvetica Neue';font-size:12px;">Sublime T<tspan x="171.696px 178.14px " y="108.883px 108.883px ">ex</tspan>t</text><rect x="91.392" y="116.083" width="7.8" height="7.2" style="fill:#00c4b3;stroke:#00c4b3;stroke-width:1px;stroke-linecap:butt;stroke-linejoin:miter;stroke-miterlimit:4;"/><rect x="99.192" y="116.083" width="2.4" height="7.2" style="fill:#75d7ce;stroke:#75d7ce;stroke-width:1px;stroke-linecap:butt;stroke-linejoin:miter;stroke-miterlimit:4;"/><g transform="matrix(1,0,0,1,85.392,123.283)"><text x="-61.584px" y="0px" style="font-family:'HelveticaNeue', 'Helvetica Neue';font-size:12px;">305 (</text><text x="-35.124px" y="0px" style="font-family:'HelveticaNeue', 'Helvetica Neue';font-size:12px;fill:#00c4b3;">6</text><text x="-28.452px" y="0px" style="font-family:'HelveticaNeue', 'Helvetica Neue';font-size:12px;">,</text><text x="-21.78px" y="0px" style="font-family:'HelveticaNeue', 'Helvetica Neue';font-size:12px;fill:#75d7ce;">2</text><text x="-15.108px" y="0px" style="font-family:'HelveticaNeue', 'Helvetica Neue';font-size:12px;">%)</text></g><text x="107.592px" y="123.283px" style="font-family:'HelveticaNeue', 'Helvetica Neue';font-size:12px;">Emacs</text><rect x="91.392" y="130.483" width="2.28" height="7.2" style="fill:#00c4b3;stroke:#00c4b3;stroke-width:1px;stroke-linecap:butt;stroke-linejoin:miter;stroke-miterlimit:4;"/><rect x="93.672" y="130.483" width="2.28" height="7.2" style="fill:#75d7ce;stroke:#75d7ce;stroke-width:1px;stroke-linecap:butt;stroke-linejoin:miter;stroke-miterlimit:4;"/><g transform="matrix(1,0,0,1,85.392,137.683)"><text x="-61.584px" y="0px" style="font-family:'HelveticaNeue', 'Helvetica Neue';font-size:12px;">137 (</text><text x="-35.124px" y="0px" style="font-family:'HelveticaNeue', 'Helvetica Neue';font-size:12px;fill:#00c4b3;">2</text><text x="-28.452px" y="0px" style="font-family:'HelveticaNeue', 'Helvetica Neue';font-size:12px;">,</text><text x="-21.78px" y="0px" style="font-family:'HelveticaNeue', 'Helvetica Neue';font-size:12px;fill:#75d7ce;">2</text><text x="-15.108px" y="0px" style="font-family:'HelveticaNeue', 'Helvetica Neue';font-size:12px;">%)</text></g><text x="101.952px" y="137.683px" style="font-family:'HelveticaNeue', 'Helvetica Neue';font-size:12px;">V<tspan x="109.068px 111.732px " y="137.683px 137.683px ">is</tspan>ual Studio</text><rect x="91.392" y="144.883" width="3" height="7.2" style="fill:#00c4b3;stroke:#00c4b3;stroke-width:1px;stroke-linecap:butt;stroke-linejoin:miter;stroke-miterlimit:4;"/><rect x="94.392" y="144.883" width="2.04" height="7.2" style="fill:#75d7ce;stroke:#75d7ce;stroke-width:1px;stroke-linecap:butt;stroke-linejoin:miter;stroke-miterlimit:4;"/><g transform="matrix(1,0,0,1,85.392,152.083)"><text x="-61.584px" y="0px" style="font-family:'HelveticaNeue', 'Helvetica Neue';font-size:12px;">153 (</text><text x="-35.124px" y="0px" style="font-family:'HelveticaNeue', 'Helvetica Neue';font-size:12px;fill:#00c4b3;">3</text><text x="-28.452px" y="0px" style="font-family:'HelveticaNeue', 'Helvetica Neue';font-size:12px;">,</text><text x="-21.78px" y="0px" style="font-family:'HelveticaNeue', 'Helvetica Neue';font-size:12px;fill:#75d7ce;">2</text><text x="-15.108px" y="0px" style="font-family:'HelveticaNeue', 'Helvetica Neue';font-size:12px;">%)</text></g><text x="102.552px" y="152.083px" style="font-family:'HelveticaNeue', 'Helvetica Neue';font-size:12px;">LiteIDE</text><rect x="91.392" y="159.283" width="1.44" height="7.2" style="fill:#00c4b3;stroke:#00c4b3;stroke-width:1px;stroke-linecap:butt;stroke-linejoin:miter;stroke-miterlimit:4;"/><rect x="92.832" y="159.283" width="1.92" height="7.2" style="fill:#75d7ce;stroke:#75d7ce;stroke-width:1px;stroke-linecap:butt;stroke-linejoin:miter;stroke-miterlimit:4;"/><g transform="matrix(1,0,0,1,85.392,166.483)"><text x="-54.912px" y="0px" style="font-family:'HelveticaNeue', 'Helvetica Neue';font-size:12px;">99 (</text><text x="-35.124px" y="0px" style="font-family:'HelveticaNeue', 'Helvetica Neue';font-size:12px;fill:#00c4b3;">1</text><text x="-28.452px" y="0px" style="font-family:'HelveticaNeue', 'Helvetica Neue';font-size:12px;">,</text><text x="-21.78px" y="0px" style="font-family:'HelveticaNeue', 'Helvetica Neue';font-size:12px;fill:#75d7ce;">2</text><text x="-15.108px" y="0px" style="font-family:'HelveticaNeue', 'Helvetica Neue';font-size:12px;">%)</text></g><text x="100.752px" y="166.483px" style="font-family:'HelveticaNeue', 'Helvetica Neue';font-size:12px;">Eclipse</text><rect x="91.392" y="173.683" width="0.6" height="7.2" style="fill:#00c4b3;stroke:#00c4b3;stroke-width:1px;stroke-linecap:butt;stroke-linejoin:miter;stroke-miterlimit:4;"/><rect x="91.992" y="173.683" width="0.6" height="7.2" style="fill:#75d7ce;stroke:#75d7ce;stroke-width:1px;stroke-linecap:butt;stroke-linejoin:miter;stroke-miterlimit:4;"/><g transform="matrix(1,0,0,1,85.392,180.883)"><text x="-74.928px" y="0px" style="font-family:'HelveticaNeue', 'Helvetica Neue';font-size:12px;">37 (</text><text x="-55.14px" y="0px" style="font-family:'HelveticaNeue', 'Helvetica Neue';font-size:12px;fill:#00c4b3;">0.5</text><text x="-38.46px" y="0px" style="font-family:'HelveticaNeue', 'Helvetica Neue';font-size:12px;">,</text><text x="-31.788px" y="0px" style="font-family:'HelveticaNeue', 'Helvetica Neue';font-size:12px;fill:#75d7ce;">0.5</text><text x="-15.108px" y="0px" style="font-family:'HelveticaNeue', 'Helvetica Neue';font-size:12px;">%)</text></g><text x="98.592px" y="180.883px" style="font-family:'HelveticaNeue', 'Helvetica Neue';font-size:12px;">Acme</text><rect x="91.392" y="188.083" width="4.56" height="7.2" style="fill:#777;stroke:#777;stroke-width:1px;stroke-linecap:butt;stroke-linejoin:miter;stroke-miterlimit:4;"/><rect x="95.952" y="188.083" width="3.36" height="7.2" style="fill:#b0b0b0;stroke:#b0b0b0;stroke-width:1px;stroke-linecap:butt;stroke-linejoin:miter;stroke-miterlimit:4;"/><g transform="matrix(1,0,0,1,85.392,195.283)"><text x="-61.584px" y="0px" style="font-family:'HelveticaNeue', 'Helvetica Neue';font-size:12px;">238 (</text><text x="-35.124px" y="0px" style="font-family:'HelveticaNeue', 'Helvetica Neue';font-size:12px;fill:#777;">4</text><text x="-28.452px" y="0px" style="font-family:'HelveticaNeue', 'Helvetica Neue';font-size:12px;">,</text><text x="-21.78px" y="0px" style="font-family:'HelveticaNeue', 'Helvetica Neue';font-size:12px;fill:#b0b0b0;">3</text><text x="-15.108px" y="0px" style="font-family:'HelveticaNeue', 'Helvetica Neue';font-size:12px;">%)</text></g><text x="105.312px" y="195.283px" style="font-family:'HelveticaNeue', 'Helvetica Neue';font-size:12px;">Other</text><rect x="91.392" y="202.483" width="14.16" height="7.2" style="fill:#fff;stroke:#000;stroke-width:1px;stroke-linecap:butt;stroke-linejoin:miter;stroke-miterlimit:4;"/><text x="30.48px" y="209.683px" style="font-family:'HelveticaNeue', 'Helvetica Neue';font-size:12px;">425 (12%)</text><text x="111.552px" y="209.683px" style="font-family:'HelveticaNeue', 'Helvetica Neue';font-size:12px;">No r<tspan x="134.22px 140.664px " y="209.683px 209.683px ">es</tspan>ponse</text></g></svg>