<?xml version="1.0" standalone="no"?>
<!DOCTYPE svg PUBLIC "-//W3C//DTD SVG 1.1//EN"
  "http://www.w3.org/Graphics/SVG/1.1/DTD/svg11.dtd">
<svg width="70.00em" height="17.60em" version="1.1"
     xmlns="http://www.w3.org/2000/svg">
  <defs>
    <style type="text/css"><![CDATA[
      svg {
        font-family: "Helvetica Neue", Arial, sans-serif; /* Helvetica on Mac aka sans-serif has broken U+2007 */
      }
      tspan.size {
        font-size: 0.80em;
      }
      tspan.head {
        font-weight: bold;
      }
      tspan.paren {
        font-weight: normal !important;
      }
    ]]></style>
  </defs>
<text x="0.00em" y="1.20em" class="head"><tspan class="size">Which Go libraries do you need that aren’t available today? </tspan></text>
<rect x="7.25em" y="2.10em" width="0.49em" height="0.60em" stroke="#00ACD7" fill="#00ACD7"/>
<text x="6.75em" y="2.70em" text-anchor="end"><tspan class="size">306 (4.9%)</tspan></text>
<text x="8.24em" y="2.70em"><tspan class="size">gui</tspan></text>
<rect x="7.25em" y="3.30em" width="0.35em" height="0.60em" stroke="#00ACD7" fill="#00ACD7"/>
<text x="6.75em" y="3.90em" text-anchor="end"><tspan class="size">221 (3.5%)</tspan></text>
<text x="8.10em" y="3.90em"><tspan class="size">library</tspan></text>
<rect x="7.25em" y="4.50em" width="0.30em" height="0.60em" stroke="#00ACD7" fill="#00ACD7"/>
<text x="6.75em" y="5.10em" text-anchor="end"><tspan class="size">185 (3.0%)</tspan></text>
<text x="8.05em" y="5.10em"><tspan class="size">libraries</tspan></text>
<rect x="7.25em" y="5.70em" width="0.14em" height="0.60em" stroke="#00ACD7" fill="#00ACD7"/>
<text x="6.75em" y="6.30em" text-anchor="end"><tspan class="size">90 (1.4%)</tspan></text>
<text x="7.89em" y="6.30em"><tspan class="size">native</tspan></text>
<rect x="7.25em" y="6.90em" width="0.13em" height="0.60em" stroke="#00ACD7" fill="#00ACD7"/>
<text x="6.75em" y="7.50em" text-anchor="end"><tspan class="size">83 (1.3%)</tspan></text>
<text x="7.88em" y="7.50em"><tspan class="size">good</tspan></text>
<rect x="7.25em" y="8.10em" width="0.10em" height="0.60em" stroke="#00ACD7" fill="#00ACD7"/>
<text x="6.75em" y="8.70em" text-anchor="end"><tspan class="size">60 (1.0%)</tspan></text>
<text x="7.85em" y="8.70em"><tspan class="size">ui</tspan></text>
<rect x="7.25em" y="9.30em" width="0.09em" height="0.60em" stroke="#00ACD7" fill="#00ACD7"/>
<text x="6.75em" y="9.90em" text-anchor="end"><tspan class="size">59 (0.9%)</tspan></text>
<text x="7.84em" y="9.90em"><tspan class="size">machine learning</tspan></text>
<rect x="7.25em" y="10.50em" width="0.09em" height="0.60em" stroke="#00ACD7" fill="#00ACD7"/>
<text x="6.75em" y="11.10em" text-anchor="end"><tspan class="size">54 (0.9%)</tspan></text>
<text x="7.84em" y="11.10em"><tspan class="size">framework</tspan></text>
<rect x="7.25em" y="11.70em" width="0.08em" height="0.60em" stroke="#00ACD7" fill="#00ACD7"/>
<text x="6.75em" y="12.30em" text-anchor="end"><tspan class="size">48 (0.8%)</tspan></text>
<text x="7.83em" y="12.30em"><tspan class="size">gui library</tspan></text>
<rect x="7.25em" y="12.90em" width="0.08em" height="0.60em" stroke="#00ACD7" fill="#00ACD7"/>
<text x="6.75em" y="13.50em" text-anchor="end"><tspan class="size">48 (0.8%)</tspan></text>
<text x="7.83em" y="13.50em"><tspan class="size">orm</tspan></text>
<rect x="7.25em" y="14.10em" width="0.08em" height="0.60em" stroke="#00ACD7" fill="#00ACD7"/>
<text x="6.75em" y="14.70em" text-anchor="end"><tspan class="size">48 (0.8%)</tspan></text>
<text x="7.83em" y="14.70em"><tspan class="size">processing</tspan></text>
<rect x="7.25em" y="15.30em" width="0.08em" height="0.60em" stroke="#00ACD7" fill="#00ACD7"/>
<text x="6.75em" y="15.90em" text-anchor="end"><tspan class="size">47 (0.8%)</tspan></text>
<text x="7.83em" y="15.90em"><tspan class="size">desktop</tspan></text>
<rect x="7.25em" y="16.50em" width="0.07em" height="0.60em" stroke="#00ACD7" fill="#00ACD7"/>
<text x="6.75em" y="17.10em" text-anchor="end"><tspan class="size">44 (0.7%)</tspan></text>
<text x="7.82em" y="17.10em"><tspan class="size">web</tspan></text>
<rect x="22.25em" y="2.10em" width="0.07em" height="0.60em" stroke="#00ACD7" fill="#00ACD7"/>
<text x="21.75em" y="2.70em" text-anchor="end"><tspan class="size">41 (0.7%)</tspan></text>
<text x="22.82em" y="2.70em"><tspan class="size">cross-platform</tspan></text>
<rect x="22.25em" y="3.30em" width="0.06em" height="0.60em" stroke="#00ACD7" fill="#00ACD7"/>
<text x="21.75em" y="3.90em" text-anchor="end"><tspan class="size">39 (0.6%)</tspan></text>
<text x="22.81em" y="3.90em"><tspan class="size">client</tspan></text>
<rect x="22.25em" y="4.50em" width="0.06em" height="0.60em" stroke="#00ACD7" fill="#00ACD7"/>
<text x="21.75em" y="5.10em" text-anchor="end"><tspan class="size">39 (0.6%)</tspan></text>
<text x="22.81em" y="5.10em"><tspan class="size">platform</tspan></text>
<rect x="22.25em" y="5.70em" width="0.06em" height="0.60em" stroke="#00ACD7" fill="#00ACD7"/>
<text x="21.75em" y="6.30em" text-anchor="end"><tspan class="size">37 (0.6%)</tspan></text>
<text x="22.81em" y="6.30em"><tspan class="size">standard</tspan></text>
<rect x="22.25em" y="6.90em" width="0.06em" height="0.60em" stroke="#00ACD7" fill="#00ACD7"/>
<text x="21.75em" y="7.50em" text-anchor="end"><tspan class="size">35 (0.6%)</tspan></text>
<text x="22.81em" y="7.50em"><tspan class="size">audio</tspan></text>
<rect x="22.25em" y="8.10em" width="0.05em" height="0.60em" stroke="#00ACD7" fill="#00ACD7"/>
<text x="21.75em" y="8.70em" text-anchor="end"><tspan class="size">34 (0.5%)</tspan></text>
<text x="22.80em" y="8.70em"><tspan class="size">image</tspan></text>
<rect x="22.25em" y="9.30em" width="0.05em" height="0.60em" stroke="#00ACD7" fill="#00ACD7"/>
<text x="21.75em" y="9.90em" text-anchor="end"><tspan class="size">34 (0.5%)</tspan></text>
<text x="22.80em" y="9.90em"><tspan class="size">mobile</tspan></text>
<rect x="22.25em" y="10.50em" width="0.05em" height="0.60em" stroke="#00ACD7" fill="#00ACD7"/>
<text x="21.75em" y="11.10em" text-anchor="end"><tspan class="size">33 (0.5%)</tspan></text>
<text x="22.80em" y="11.10em"><tspan class="size">sql</tspan></text>
<rect x="22.25em" y="11.70em" width="0.05em" height="0.60em" stroke="#00ACD7" fill="#00ACD7"/>
<text x="21.75em" y="12.30em" text-anchor="end"><tspan class="size">32 (0.5%)</tspan></text>
<text x="22.80em" y="12.30em"><tspan class="size">soap</tspan></text>
<rect x="22.25em" y="12.90em" width="0.05em" height="0.60em" stroke="#00ACD7" fill="#00ACD7"/>
<text x="21.75em" y="13.50em" text-anchor="end"><tspan class="size">31 (0.5%)</tspan></text>
<text x="22.80em" y="13.50em"><tspan class="size">pdf</tspan></text>
<rect x="22.25em" y="14.10em" width="0.05em" height="0.60em" stroke="#00ACD7" fill="#00ACD7"/>
<text x="21.75em" y="14.70em" text-anchor="end"><tspan class="size">30 (0.5%)</tspan></text>
<text x="22.80em" y="14.70em"><tspan class="size">api</tspan></text>
<rect x="22.25em" y="15.30em" width="0.05em" height="0.60em" stroke="#00ACD7" fill="#00ACD7"/>
<text x="21.75em" y="15.90em" text-anchor="end"><tspan class="size">30 (0.5%)</tspan></text>
<text x="22.80em" y="15.90em"><tspan class="size">package</tspan></text>
<rect x="22.25em" y="16.50em" width="7.35em" height="0.60em" stroke="black" fill="white"/>
<text x="21.75em" y="17.10em" text-anchor="end"><tspan class="size">4,578 (73.5%)</tspan></text>
<text x="30.10em" y="17.10em"><tspan class="size">No response</tspan></text>
</svg>
