<?xml version="1.0" encoding="UTF-8" standalone="no"?><!DOCTYPE svg PUBLIC "-//W3C//DTD SVG 1.1//EN" "http://www.w3.org/Graphics/SVG/1.1/DTD/svg11.dtd"><svg width="100%" height="100%" viewBox="0 0 790 166" version="1.1" xmlns="http://www.w3.org/2000/svg" xmlns:xlink="http://www.w3.org/1999/xlink" xml:space="preserve" xmlns:serif="http://www.serif.com/" style="fill-rule:evenodd;clip-rule:evenodd;stroke-linecap:round;stroke-linejoin:round;stroke-miterlimit:1.5;"><path d="M348.015,71.022c0,-2.044 -1.659,-3.704 -3.703,-3.704l-332.593,0c-2.044,0 -3.703,1.66 -3.703,3.704l0,7.406c0,2.044 1.659,3.704 3.703,3.704l332.593,0c2.044,0 3.703,-1.66 3.703,-3.704l0,-7.406Z" style="fill:none;stroke:#e62626;stroke-width:1px;"/><path d="M749.11,99.168c0,-2.044 -1.66,-3.703 -3.704,-3.703l-332.593,0c-2.044,0 -3.703,1.659 -3.703,3.703l0,7.407c0,2.044 1.659,3.704 3.703,3.704l332.593,0c2.044,0 3.704,-1.66 3.704,-3.704l0,-7.407Z" style="fill:none;stroke:#e62626;stroke-width:1px;"/><path d="M358.646,77.406l2.682,-4.438l36.026,21.769l2.49,-4.12l2.509,10.17l-10.17,2.508l2.49,-4.12l-36.027,-21.769Z" style="fill:none;stroke:#e62626;stroke-width:1px;"/><path d="M348.015,99.022c0,-2.044 -1.659,-3.704 -3.703,-3.704l-332.593,0c-2.044,0 -3.703,1.66 -3.703,3.704l0,7.406c0,2.044 1.659,3.704 3.703,3.704l332.593,0c2.044,0 3.703,-1.66 3.703,-3.704l0,-7.406Z" style="fill:none;stroke:#ac16a9;stroke-width:1px;"/><path d="M749.015,71.022c0,-2.044 -1.659,-3.704 -3.703,-3.704l-332.593,0c-2.044,0 -3.703,1.66 -3.703,3.704l0,7.406c0,2.044 1.659,3.704 3.703,3.704l332.593,0c2.044,0 3.703,-1.66 3.703,-3.704l0,-7.406Z" style="fill:none;stroke:#ac16a9;stroke-width:1px;"/><g><text x="0.894px" y="14.375px" style="font-family:'Arial-BoldMT', 'Arial', sans-serif;font-weight:700;font-size:20px;">2016</text><text x="410.894px" y="14.375px" style="font-family:'Arial-BoldMT', 'Arial', sans-serif;font-weight:700;font-size:20px;">2017</text></g><g><text x="409.331px" y="30.535px" style="font-family:'HelveticaNeue', 'Helvetica Neue';font-size:10px;">If it wer<tspan x="441.911px 447.281px " y="30.535px 30.535px ">e </tspan>not for the following r<tspan x="544.871px 550.241px " y="30.535px 30.535px ">ea</tspan>sons I would use Go mor<tspan x="667.111px 672.481px " y="30.535px 30.535px ">e:</tspan></text><rect x="496.331" y="41.335" width="37.56" height="7.2" style="fill:#00acd7;stroke:#00acd7;stroke-width:1px;stroke-linecap:butt;stroke-linejoin:miter;stroke-miterlimit:4;"/><rect x="533.891" y="41.335" width="16.92" height="7.2" style="fill:#4ec0dd;stroke:#4ec0dd;stroke-width:1px;stroke-linecap:butt;stroke-linejoin:miter;stroke-miterlimit:4;"/><rect x="550.811" y="41.335" width="4.92" height="7.2" style="fill:#9cd4e3;stroke:#9cd4e3;stroke-width:1px;stroke-linecap:butt;stroke-linejoin:miter;stroke-miterlimit:4;"/><g transform="matrix(1,0,0,1,490.331,48.5349)"><text x="-81.9px" y="0px" style="font-family:'HelveticaNeue', 'Helvetica Neue';font-size:10px;">3,077 (</text><text x="-51.51px" y="0px" style="font-family:'HelveticaNeue', 'Helvetica Neue';font-size:10px;fill:#00acd7;">31</text><text x="-40.39px" y="0px" style="font-family:'HelveticaNeue', 'Helvetica Neue';font-size:10px;">,</text><text x="-34.83px" y="0px" style="font-family:'HelveticaNeue', 'Helvetica Neue';font-size:10px;fill:#4ec0dd;">14</text><text x="-23.71px" y="0px" style="font-family:'HelveticaNeue', 'Helvetica Neue';font-size:10px;">,</text><text x="-18.15px" y="0px" style="font-family:'HelveticaNeue', 'Helvetica Neue';font-size:10px;fill:#9cd4e3;">4</text><text x="-12.59px" y="0px" style="font-family:'HelveticaNeue', 'Helvetica Neue';font-size:10px;">%)</text></g><text x="561.611px" y="48.535px" style="font-family:'HelveticaNeue', 'Helvetica Neue';font-size:10px;">I work on an existing pr<tspan x="665.691px 671.431px " y="48.535px 48.535px ">oj</tspan>ect written in another lang</text><rect x="496.331" y="55.735" width="16.44" height="7.2" style="fill:#00acd7;stroke:#00acd7;stroke-width:1px;stroke-linecap:butt;stroke-linejoin:miter;stroke-miterlimit:4;"/><rect x="512.771" y="55.735" width="18.6" height="7.2" style="fill:#4ec0dd;stroke:#4ec0dd;stroke-width:1px;stroke-linecap:butt;stroke-linejoin:miter;stroke-miterlimit:4;"/><rect x="531.491" y="55.735" width="6.36" height="7.2" style="fill:#9cd4e3;stroke:#9cd4e3;stroke-width:1px;stroke-linecap:butt;stroke-linejoin:miter;stroke-miterlimit:4;"/><g transform="matrix(1,0,0,1,490.331,62.9349)"><text x="-81.9px" y="0px" style="font-family:'HelveticaNeue', 'Helvetica Neue';font-size:10px;">2,152 (</text><text x="-51.51px" y="0px" style="font-family:'HelveticaNeue', 'Helvetica Neue';font-size:10px;fill:#00acd7;">14</text><text x="-40.39px" y="0px" style="font-family:'HelveticaNeue', 'Helvetica Neue';font-size:10px;">,</text><text x="-34.83px" y="0px" style="font-family:'HelveticaNeue', 'Helvetica Neue';font-size:10px;fill:#4ec0dd;">16</text><text x="-23.71px" y="0px" style="font-family:'HelveticaNeue', 'Helvetica Neue';font-size:10px;">,</text><text x="-18.15px" y="0px" style="font-family:'HelveticaNeue', 'Helvetica Neue';font-size:10px;fill:#9cd4e3;">5</text><text x="-12.59px" y="0px" style="font-family:'HelveticaNeue', 'Helvetica Neue';font-size:10px;">%)</text></g><text x="543.851px" y="62.935px" style="font-family:'HelveticaNeue', 'Helvetica Neue';font-size:10px;">My pr<tspan x="569.421px 575.161px " y="62.935px 62.935px ">oj</tspan>ect / team / TL pr<tspan x="654.631px 660.001px " y="62.935px 62.935px ">ef</tspan>ers another language</text><rect x="496.331" y="70.135" width="12.48" height="7.2" style="fill:#00acd7;stroke:#00acd7;stroke-width:1px;stroke-linecap:butt;stroke-linejoin:miter;stroke-miterlimit:4;"/><rect x="508.811" y="70.135" width="6.36" height="7.2" style="fill:#4ec0dd;stroke:#4ec0dd;stroke-width:1px;stroke-linecap:butt;stroke-linejoin:miter;stroke-miterlimit:4;"/><rect x="515.171" y="70.135" width="4.68" height="7.2" style="fill:#9cd4e3;stroke:#9cd4e3;stroke-width:1px;stroke-linecap:butt;stroke-linejoin:miter;stroke-miterlimit:4;"/><g transform="matrix(1,0,0,1,490.331,77.3349)"><text x="-76.34px" y="0px" style="font-family:'HelveticaNeue', 'Helvetica Neue';font-size:10px;">1,218 (</text><text x="-45.95px" y="0px" style="font-family:'HelveticaNeue', 'Helvetica Neue';font-size:10px;fill:#00acd7;">10</text><text x="-34.83px" y="0px" style="font-family:'HelveticaNeue', 'Helvetica Neue';font-size:10px;">,</text><text x="-29.27px" y="0px" style="font-family:'HelveticaNeue', 'Helvetica Neue';font-size:10px;fill:#4ec0dd;">5</text><text x="-23.71px" y="0px" style="font-family:'HelveticaNeue', 'Helvetica Neue';font-size:10px;">,</text><text x="-18.15px" y="0px" style="font-family:'HelveticaNeue', 'Helvetica Neue';font-size:10px;fill:#9cd4e3;">4</text><text x="-12.59px" y="0px" style="font-family:'HelveticaNeue', 'Helvetica Neue';font-size:10px;">%)</text></g><text x="525.851px" y="77.335px" style="font-family:'HelveticaNeue', 'Helvetica Neue';font-size:10px;">Go lacks critical featur<tspan x="625.481px 630.851px " y="77.335px 77.335px ">es</tspan></text><rect x="496.331" y="84.535" width="7.68" height="7.2" style="fill:#00acd7;stroke:#00acd7;stroke-width:1px;stroke-linecap:butt;stroke-linejoin:miter;stroke-miterlimit:4;"/><rect x="504.011" y="84.535" width="8.16" height="7.2" style="fill:#4ec0dd;stroke:#4ec0dd;stroke-width:1px;stroke-linecap:butt;stroke-linejoin:miter;stroke-miterlimit:4;"/><rect x="512.171" y="84.535" width="5.4" height="7.2" style="fill:#9cd4e3;stroke:#9cd4e3;stroke-width:1px;stroke-linecap:butt;stroke-linejoin:miter;stroke-miterlimit:4;"/><g transform="matrix(1,0,0,1,490.331,91.7349)"><text x="-70.78px" y="0px" style="font-family:'HelveticaNeue', 'Helvetica Neue';font-size:10px;">1,100 (</text><text x="-40.39px" y="0px" style="font-family:'HelveticaNeue', 'Helvetica Neue';font-size:10px;fill:#00acd7;">6</text><text x="-34.83px" y="0px" style="font-family:'HelveticaNeue', 'Helvetica Neue';font-size:10px;">,</text><text x="-29.27px" y="0px" style="font-family:'HelveticaNeue', 'Helvetica Neue';font-size:10px;fill:#4ec0dd;">7</text><text x="-23.71px" y="0px" style="font-family:'HelveticaNeue', 'Helvetica Neue';font-size:10px;">,</text><text x="-18.15px" y="0px" style="font-family:'HelveticaNeue', 'Helvetica Neue';font-size:10px;fill:#9cd4e3;">4</text><text x="-12.59px" y="0px" style="font-family:'HelveticaNeue', 'Helvetica Neue';font-size:10px;">%)</text></g><text x="523.571px" y="91.735px" style="font-family:'HelveticaNeue', 'Helvetica Neue';font-size:10px;">Go lacks critical libraries</text><rect x="496.331" y="98.935" width="7.56" height="7.2" style="fill:#00acd7;stroke:#00acd7;stroke-width:1px;stroke-linecap:butt;stroke-linejoin:miter;stroke-miterlimit:4;"/><rect x="503.891" y="98.935" width="7.68" height="7.2" style="fill:#4ec0dd;stroke:#4ec0dd;stroke-width:1px;stroke-linecap:butt;stroke-linejoin:miter;stroke-miterlimit:4;"/><rect x="511.691" y="98.935" width="5.04" height="7.2" style="fill:#9cd4e3;stroke:#9cd4e3;stroke-width:1px;stroke-linecap:butt;stroke-linejoin:miter;stroke-miterlimit:4;"/><g transform="matrix(1,0,0,1,490.331,106.135)"><text x="-70.78px" y="0px" style="font-family:'HelveticaNeue', 'Helvetica Neue';font-size:10px;">1,056 (</text><text x="-40.39px" y="0px" style="font-family:'HelveticaNeue', 'Helvetica Neue';font-size:10px;fill:#00acd7;">6</text><text x="-34.83px" y="0px" style="font-family:'HelveticaNeue', 'Helvetica Neue';font-size:10px;">,</text><text x="-29.27px" y="0px" style="font-family:'HelveticaNeue', 'Helvetica Neue';font-size:10px;fill:#4ec0dd;">6</text><text x="-23.71px" y="0px" style="font-family:'HelveticaNeue', 'Helvetica Neue';font-size:10px;">,</text><text x="-18.15px" y="0px" style="font-family:'HelveticaNeue', 'Helvetica Neue';font-size:10px;fill:#9cd4e3;">4</text><text x="-12.59px" y="0px" style="font-family:'HelveticaNeue', 'Helvetica Neue';font-size:10px;">%)</text></g><text x="522.731px" y="106.135px" style="font-family:'HelveticaNeue', 'Helvetica Neue';font-size:10px;">Go isn&apos;t appr<tspan x="580.711px 586.451px " y="106.135px 106.135px ">op</tspan>riate for what I&apos;m working on</text><rect x="496.331" y="113.335" width="4.32" height="7.2" style="fill:#00acd7;stroke:#00acd7;stroke-width:1px;stroke-linecap:butt;stroke-linejoin:miter;stroke-miterlimit:4;"/><rect x="500.651" y="113.335" width="4.44" height="7.2" style="fill:#4ec0dd;stroke:#4ec0dd;stroke-width:1px;stroke-linecap:butt;stroke-linejoin:miter;stroke-miterlimit:4;"/><rect x="505.211" y="113.335" width="3.6" height="7.2" style="fill:#9cd4e3;stroke:#9cd4e3;stroke-width:1px;stroke-linecap:butt;stroke-linejoin:miter;stroke-miterlimit:4;"/><g transform="matrix(1,0,0,1,490.331,120.535)"><text x="-62.44px" y="0px" style="font-family:'HelveticaNeue', 'Helvetica Neue';font-size:10px;">643 (</text><text x="-40.39px" y="0px" style="font-family:'HelveticaNeue', 'Helvetica Neue';font-size:10px;fill:#00acd7;">4</text><text x="-34.83px" y="0px" style="font-family:'HelveticaNeue', 'Helvetica Neue';font-size:10px;">,</text><text x="-29.27px" y="0px" style="font-family:'HelveticaNeue', 'Helvetica Neue';font-size:10px;fill:#4ec0dd;">4</text><text x="-23.71px" y="0px" style="font-family:'HelveticaNeue', 'Helvetica Neue';font-size:10px;">,</text><text x="-18.15px" y="0px" style="font-family:'HelveticaNeue', 'Helvetica Neue';font-size:10px;fill:#9cd4e3;">3</text><text x="-12.59px" y="0px" style="font-family:'HelveticaNeue', 'Helvetica Neue';font-size:10px;">%)</text></g><text x="514.691px" y="120.535px" style="font-family:'HelveticaNeue', 'Helvetica Neue';font-size:10px;">Not enough education or support r<tspan x="669.361px 674.731px " y="120.535px 120.535px ">es</tspan>our<tspan x="694.181px 699.551px " y="120.535px 120.535px ">ce</tspan>s for Go</text><rect x="496.331" y="127.735" width="2.28" height="7.2" style="fill:#00acd7;stroke:#00acd7;stroke-width:1px;stroke-linecap:butt;stroke-linejoin:miter;stroke-miterlimit:4;"/><rect x="498.611" y="127.735" width="2.16" height="7.2" style="fill:#4ec0dd;stroke:#4ec0dd;stroke-width:1px;stroke-linecap:butt;stroke-linejoin:miter;stroke-miterlimit:4;"/><rect x="500.771" y="127.735" width="1.56" height="7.2" style="fill:#9cd4e3;stroke:#9cd4e3;stroke-width:1px;stroke-linecap:butt;stroke-linejoin:miter;stroke-miterlimit:4;"/><g transform="matrix(1,0,0,1,490.331,134.935)"><text x="-62.44px" y="0px" style="font-family:'HelveticaNeue', 'Helvetica Neue';font-size:10px;">311 (</text><text x="-40.39px" y="0px" style="font-family:'HelveticaNeue', 'Helvetica Neue';font-size:10px;fill:#00acd7;">2</text><text x="-34.83px" y="0px" style="font-family:'HelveticaNeue', 'Helvetica Neue';font-size:10px;">,</text><text x="-29.27px" y="0px" style="font-family:'HelveticaNeue', 'Helvetica Neue';font-size:10px;fill:#4ec0dd;">2</text><text x="-23.71px" y="0px" style="font-family:'HelveticaNeue', 'Helvetica Neue';font-size:10px;">,</text><text x="-18.15px" y="0px" style="font-family:'HelveticaNeue', 'Helvetica Neue';font-size:10px;fill:#9cd4e3;">1</text><text x="-12.59px" y="0px" style="font-family:'HelveticaNeue', 'Helvetica Neue';font-size:10px;">%)</text></g><text x="508.331px" y="134.935px" style="font-family:'HelveticaNeue', 'Helvetica Neue';font-size:10px;">Go lacks critical performance</text><rect x="496.331" y="142.135" width="6.36" height="7.2" style="fill:#777;stroke:#777;stroke-width:1px;stroke-linecap:butt;stroke-linejoin:miter;stroke-miterlimit:4;"/><rect x="502.691" y="142.135" width="5.16" height="7.2" style="fill:#9d9d9d;stroke:#9d9d9d;stroke-width:1px;stroke-linecap:butt;stroke-linejoin:miter;stroke-miterlimit:4;"/><rect x="507.851" y="142.135" width="3.72" height="7.2" style="fill:#c3c3c3;stroke:#c3c3c3;stroke-width:1px;stroke-linecap:butt;stroke-linejoin:miter;stroke-miterlimit:4;"/><g transform="matrix(1,0,0,1,490.331,149.335)"><text x="-62.44px" y="0px" style="font-family:'HelveticaNeue', 'Helvetica Neue';font-size:10px;">790 (</text><text x="-40.39px" y="0px" style="font-family:'HelveticaNeue', 'Helvetica Neue';font-size:10px;fill:#777;">5</text><text x="-34.83px" y="0px" style="font-family:'HelveticaNeue', 'Helvetica Neue';font-size:10px;">,</text><text x="-29.27px" y="0px" style="font-family:'HelveticaNeue', 'Helvetica Neue';font-size:10px;fill:#9d9d9d;">4</text><text x="-23.71px" y="0px" style="font-family:'HelveticaNeue', 'Helvetica Neue';font-size:10px;">,</text><text x="-18.15px" y="0px" style="font-family:'HelveticaNeue', 'Helvetica Neue';font-size:10px;fill:#c3c3c3;">3</text><text x="-12.59px" y="0px" style="font-family:'HelveticaNeue', 'Helvetica Neue';font-size:10px;">%)</text></g><text x="517.571px" y="149.335px" style="font-family:'HelveticaNeue', 'Helvetica Neue';font-size:10px;">Other</text><rect x="496.331" y="156.535" width="25.2" height="7.2" style="fill:#fff;stroke:#000;stroke-width:1px;stroke-linecap:butt;stroke-linejoin:miter;stroke-miterlimit:4;"/><text x="436.231px" y="163.735px" style="font-family:'HelveticaNeue', 'Helvetica Neue';font-size:10px;">1,309 (21%)</text><text x="527.531px" y="163.735px" style="font-family:'HelveticaNeue', 'Helvetica Neue';font-size:10px;">No r<tspan x="546.421px 551.791px " y="163.735px 163.735px ">es</tspan>ponse</text></g><g><text x="0.03px" y="30.535px" style="font-family:'HelveticaNeue', 'Helvetica Neue';font-size:10px;">If it wer<tspan x="32.61px 37.98px " y="30.535px 30.535px ">e </tspan>not for the following r<tspan x="135.57px 140.94px " y="30.535px 30.535px ">ea</tspan>sons I would use Go mor<tspan x="257.81px 263.18px " y="30.535px 30.535px ">e:</tspan></text><rect x="87.03" y="41.335" width="28.44" height="7.2" style="fill:#00c4b3;stroke:#00c4b3;stroke-width:1px;stroke-linecap:butt;stroke-linejoin:miter;stroke-miterlimit:4;"/><rect x="115.47" y="41.335" width="16.68" height="7.2" style="fill:#4ed0c5;stroke:#4ed0c5;stroke-width:1px;stroke-linecap:butt;stroke-linejoin:miter;stroke-miterlimit:4;"/><rect x="132.15" y="41.335" width="4.44" height="7.2" style="fill:#9cdcd7;stroke:#9cdcd7;stroke-width:1px;stroke-linecap:butt;stroke-linejoin:miter;stroke-miterlimit:4;"/><g transform="matrix(1,0,0,1,81.03,48.5349)"><text x="-81.9px" y="0px" style="font-family:'HelveticaNeue', 'Helvetica Neue';font-size:10px;">1,485 (</text><text x="-51.51px" y="0px" style="font-family:'HelveticaNeue', 'Helvetica Neue';font-size:10px;fill:#00c4b3;">24</text><text x="-40.39px" y="0px" style="font-family:'HelveticaNeue', 'Helvetica Neue';font-size:10px;">,</text><text x="-34.83px" y="0px" style="font-family:'HelveticaNeue', 'Helvetica Neue';font-size:10px;fill:#4ed0c5;">14</text><text x="-23.71px" y="0px" style="font-family:'HelveticaNeue', 'Helvetica Neue';font-size:10px;">,</text><text x="-18.15px" y="0px" style="font-family:'HelveticaNeue', 'Helvetica Neue';font-size:10px;fill:#9cdcd7;">4</text><text x="-12.59px" y="0px" style="font-family:'HelveticaNeue', 'Helvetica Neue';font-size:10px;">%)</text></g><text x="142.59px" y="48.535px" style="font-family:'HelveticaNeue', 'Helvetica Neue';font-size:10px;">I work on an existing pr<tspan x="246.67px 252.41px " y="48.535px 48.535px ">oj</tspan>ect written in another lang</text><rect x="87.03" y="55.735" width="18.96" height="7.2" style="fill:#00c4b3;stroke:#00c4b3;stroke-width:1px;stroke-linecap:butt;stroke-linejoin:miter;stroke-miterlimit:4;"/><rect x="105.99" y="55.735" width="14.88" height="7.2" style="fill:#4ed0c5;stroke:#4ed0c5;stroke-width:1px;stroke-linecap:butt;stroke-linejoin:miter;stroke-miterlimit:4;"/><rect x="120.87" y="55.735" width="4.92" height="7.2" style="fill:#9cdcd7;stroke:#9cdcd7;stroke-width:1px;stroke-linecap:butt;stroke-linejoin:miter;stroke-miterlimit:4;"/><g transform="matrix(1,0,0,1,81.03,62.9349)"><text x="-81.9px" y="0px" style="font-family:'HelveticaNeue', 'Helvetica Neue';font-size:10px;">1,160 (</text><text x="-51.51px" y="0px" style="font-family:'HelveticaNeue', 'Helvetica Neue';font-size:10px;fill:#00c4b3;">16</text><text x="-40.39px" y="0px" style="font-family:'HelveticaNeue', 'Helvetica Neue';font-size:10px;">,</text><text x="-34.83px" y="0px" style="font-family:'HelveticaNeue', 'Helvetica Neue';font-size:10px;fill:#4ed0c5;">12</text><text x="-23.71px" y="0px" style="font-family:'HelveticaNeue', 'Helvetica Neue';font-size:10px;">,</text><text x="-18.15px" y="0px" style="font-family:'HelveticaNeue', 'Helvetica Neue';font-size:10px;fill:#9cdcd7;">4</text><text x="-12.59px" y="0px" style="font-family:'HelveticaNeue', 'Helvetica Neue';font-size:10px;">%)</text></g><text x="131.79px" y="62.935px" style="font-family:'HelveticaNeue', 'Helvetica Neue';font-size:10px;">My pr<tspan x="157.36px 163.1px " y="62.935px 62.935px ">oj</tspan>ect / team / TL pr<tspan x="242.57px 247.94px " y="62.935px 62.935px ">ef</tspan>ers another language</text><rect x="87.03" y="70.135" width="12.84" height="7.2" style="fill:#00c4b3;stroke:#00c4b3;stroke-width:1px;stroke-linecap:butt;stroke-linejoin:miter;stroke-miterlimit:4;"/><rect x="99.87" y="70.135" width="9.36" height="7.2" style="fill:#4ed0c5;stroke:#4ed0c5;stroke-width:1px;stroke-linecap:butt;stroke-linejoin:miter;stroke-miterlimit:4;"/><rect x="109.23" y="70.135" width="5.88" height="7.2" style="fill:#9cdcd7;stroke:#9cdcd7;stroke-width:1px;stroke-linecap:butt;stroke-linejoin:miter;stroke-miterlimit:4;"/><g transform="matrix(1,0,0,1,81.03,77.3349)"><text x="-68px" y="0px" style="font-family:'HelveticaNeue', 'Helvetica Neue';font-size:10px;">841 (</text><text x="-45.95px" y="0px" style="font-family:'HelveticaNeue', 'Helvetica Neue';font-size:10px;fill:#00c4b3;">11</text><text x="-34.83px" y="0px" style="font-family:'HelveticaNeue', 'Helvetica Neue';font-size:10px;">,</text><text x="-29.27px" y="0px" style="font-family:'HelveticaNeue', 'Helvetica Neue';font-size:10px;fill:#4ed0c5;">8</text><text x="-23.71px" y="0px" style="font-family:'HelveticaNeue', 'Helvetica Neue';font-size:10px;">,</text><text x="-18.15px" y="0px" style="font-family:'HelveticaNeue', 'Helvetica Neue';font-size:10px;fill:#9cdcd7;">5</text><text x="-12.59px" y="0px" style="font-family:'HelveticaNeue', 'Helvetica Neue';font-size:10px;">%)</text></g><text x="121.11px" y="77.335px" style="font-family:'HelveticaNeue', 'Helvetica Neue';font-size:10px;">Go isn’<tspan x="152.6px 155.75px " y="77.335px 77.335px ">t </tspan>an appr<tspan x="192.62px 198.36px " y="77.335px 77.335px ">op</tspan>riate ﬁt for what I’m working on</text><rect x="87.03" y="84.535" width="7.56" height="7.2" style="fill:#00c4b3;stroke:#00c4b3;stroke-width:1px;stroke-linecap:butt;stroke-linejoin:miter;stroke-miterlimit:4;"/><rect x="94.59" y="84.535" width="7.32" height="7.2" style="fill:#4ed0c5;stroke:#4ed0c5;stroke-width:1px;stroke-linecap:butt;stroke-linejoin:miter;stroke-miterlimit:4;"/><rect x="101.91" y="84.535" width="5.04" height="7.2" style="fill:#9cdcd7;stroke:#9cdcd7;stroke-width:1px;stroke-linecap:butt;stroke-linejoin:miter;stroke-miterlimit:4;"/><g transform="matrix(1,0,0,1,81.03,91.7349)"><text x="-62.44px" y="0px" style="font-family:'HelveticaNeue', 'Helvetica Neue';font-size:10px;">596 (</text><text x="-40.39px" y="0px" style="font-family:'HelveticaNeue', 'Helvetica Neue';font-size:10px;fill:#00c4b3;">6</text><text x="-34.83px" y="0px" style="font-family:'HelveticaNeue', 'Helvetica Neue';font-size:10px;">,</text><text x="-29.27px" y="0px" style="font-family:'HelveticaNeue', 'Helvetica Neue';font-size:10px;fill:#4ed0c5;">6</text><text x="-23.71px" y="0px" style="font-family:'HelveticaNeue', 'Helvetica Neue';font-size:10px;">,</text><text x="-18.15px" y="0px" style="font-family:'HelveticaNeue', 'Helvetica Neue';font-size:10px;fill:#9cdcd7;">4</text><text x="-12.59px" y="0px" style="font-family:'HelveticaNeue', 'Helvetica Neue';font-size:10px;">%)</text></g><text x="112.95px" y="91.735px" style="font-family:'HelveticaNeue', 'Helvetica Neue';font-size:10px;">Go lacks critical libraries</text><rect x="87.03" y="98.935" width="6.96" height="7.2" style="fill:#00c4b3;stroke:#00c4b3;stroke-width:1px;stroke-linecap:butt;stroke-linejoin:miter;stroke-miterlimit:4;"/><rect x="93.99" y="98.935" width="3.96" height="7.2" style="fill:#4ed0c5;stroke:#4ed0c5;stroke-width:1px;stroke-linecap:butt;stroke-linejoin:miter;stroke-miterlimit:4;"/><rect x="97.95" y="98.935" width="2.76" height="7.2" style="fill:#9cdcd7;stroke:#9cdcd7;stroke-width:1px;stroke-linecap:butt;stroke-linejoin:miter;stroke-miterlimit:4;"/><g transform="matrix(1,0,0,1,81.03,106.135)"><text x="-62.44px" y="0px" style="font-family:'HelveticaNeue', 'Helvetica Neue';font-size:10px;">412 (</text><text x="-40.39px" y="0px" style="font-family:'HelveticaNeue', 'Helvetica Neue';font-size:10px;fill:#00c4b3;">6</text><text x="-34.83px" y="0px" style="font-family:'HelveticaNeue', 'Helvetica Neue';font-size:10px;">,</text><text x="-29.27px" y="0px" style="font-family:'HelveticaNeue', 'Helvetica Neue';font-size:10px;fill:#4ed0c5;">3</text><text x="-23.71px" y="0px" style="font-family:'HelveticaNeue', 'Helvetica Neue';font-size:10px;">,</text><text x="-18.15px" y="0px" style="font-family:'HelveticaNeue', 'Helvetica Neue';font-size:10px;fill:#9cdcd7;">2</text><text x="-12.59px" y="0px" style="font-family:'HelveticaNeue', 'Helvetica Neue';font-size:10px;">%)</text></g><text x="106.83px" y="106.135px" style="font-family:'HelveticaNeue', 'Helvetica Neue';font-size:10px;">Go lacks critical featur<tspan x="206.46px 211.83px " y="106.135px 106.135px ">es</tspan></text><rect x="87.03" y="113.335" width="3.72" height="7.2" style="fill:#00c4b3;stroke:#00c4b3;stroke-width:1px;stroke-linecap:butt;stroke-linejoin:miter;stroke-miterlimit:4;"/><rect x="90.75" y="113.335" width="3.96" height="7.2" style="fill:#4ed0c5;stroke:#4ed0c5;stroke-width:1px;stroke-linecap:butt;stroke-linejoin:miter;stroke-miterlimit:4;"/><rect x="94.71" y="113.335" width="3" height="7.2" style="fill:#9cdcd7;stroke:#9cdcd7;stroke-width:1px;stroke-linecap:butt;stroke-linejoin:miter;stroke-miterlimit:4;"/><g transform="matrix(1,0,0,1,81.03,120.535)"><text x="-62.44px" y="0px" style="font-family:'HelveticaNeue', 'Helvetica Neue';font-size:10px;">319 (</text><text x="-40.39px" y="0px" style="font-family:'HelveticaNeue', 'Helvetica Neue';font-size:10px;fill:#00c4b3;">3</text><text x="-34.83px" y="0px" style="font-family:'HelveticaNeue', 'Helvetica Neue';font-size:10px;">,</text><text x="-29.27px" y="0px" style="font-family:'HelveticaNeue', 'Helvetica Neue';font-size:10px;fill:#4ed0c5;">3</text><text x="-23.71px" y="0px" style="font-family:'HelveticaNeue', 'Helvetica Neue';font-size:10px;">,</text><text x="-18.15px" y="0px" style="font-family:'HelveticaNeue', 'Helvetica Neue';font-size:10px;fill:#9cdcd7;">3</text><text x="-12.59px" y="0px" style="font-family:'HelveticaNeue', 'Helvetica Neue';font-size:10px;">%)</text></g><text x="103.71px" y="120.535px" style="font-family:'HelveticaNeue', 'Helvetica Neue';font-size:10px;">Not enough education or support r<tspan x="258.38px 263.75px " y="120.535px 120.535px ">es</tspan>our<tspan x="283.2px 288.57px " y="120.535px 120.535px ">ce</tspan>s for Go</text><rect x="87.03" y="127.735" width="1.68" height="7.2" style="fill:#00c4b3;stroke:#00c4b3;stroke-width:1px;stroke-linecap:butt;stroke-linejoin:miter;stroke-miterlimit:4;"/><rect x="88.71" y="127.735" width="1.44" height="7.2" style="fill:#4ed0c5;stroke:#4ed0c5;stroke-width:1px;stroke-linecap:butt;stroke-linejoin:miter;stroke-miterlimit:4;"/><rect x="90.15" y="127.735" width="0.96" height="7.2" style="fill:#9cdcd7;stroke:#9cdcd7;stroke-width:1px;stroke-linecap:butt;stroke-linejoin:miter;stroke-miterlimit:4;"/><g transform="matrix(1,0,0,1,81.03,134.935)"><text x="-70.78px" y="0px" style="font-family:'HelveticaNeue', 'Helvetica Neue';font-size:10px;">121 (</text><text x="-48.73px" y="0px" style="font-family:'HelveticaNeue', 'Helvetica Neue';font-size:10px;fill:#00c4b3;">1</text><text x="-43.17px" y="0px" style="font-family:'HelveticaNeue', 'Helvetica Neue';font-size:10px;">,</text><text x="-37.61px" y="0px" style="font-family:'HelveticaNeue', 'Helvetica Neue';font-size:10px;fill:#4ed0c5;">1</text><text x="-32.05px" y="0px" style="font-family:'HelveticaNeue', 'Helvetica Neue';font-size:10px;">,</text><text x="-26.49px" y="0px" style="font-family:'HelveticaNeue', 'Helvetica Neue';font-size:10px;fill:#9cdcd7;">0.8</text><text x="-12.59px" y="0px" style="font-family:'HelveticaNeue', 'Helvetica Neue';font-size:10px;">%)</text></g><text x="97.11px" y="134.935px" style="font-family:'HelveticaNeue', 'Helvetica Neue';font-size:10px;">Go lacks critical performance</text><rect x="87.03" y="142.135" width="5.16" height="7.2" style="fill:#777;stroke:#777;stroke-width:1px;stroke-linecap:butt;stroke-linejoin:miter;stroke-miterlimit:4;"/><rect x="92.19" y="142.135" width="3.96" height="7.2" style="fill:#9d9d9d;stroke:#9d9d9d;stroke-width:1px;stroke-linecap:butt;stroke-linejoin:miter;stroke-miterlimit:4;"/><rect x="96.15" y="142.135" width="3.36" height="7.2" style="fill:#c3c3c3;stroke:#c3c3c3;stroke-width:1px;stroke-linecap:butt;stroke-linejoin:miter;stroke-miterlimit:4;"/><g transform="matrix(1,0,0,1,81.03,149.335)"><text x="-62.44px" y="0px" style="font-family:'HelveticaNeue', 'Helvetica Neue';font-size:10px;">374 (</text><text x="-40.39px" y="0px" style="font-family:'HelveticaNeue', 'Helvetica Neue';font-size:10px;fill:#777;">4</text><text x="-34.83px" y="0px" style="font-family:'HelveticaNeue', 'Helvetica Neue';font-size:10px;">,</text><text x="-29.27px" y="0px" style="font-family:'HelveticaNeue', 'Helvetica Neue';font-size:10px;fill:#9d9d9d;">3</text><text x="-23.71px" y="0px" style="font-family:'HelveticaNeue', 'Helvetica Neue';font-size:10px;">,</text><text x="-18.15px" y="0px" style="font-family:'HelveticaNeue', 'Helvetica Neue';font-size:10px;fill:#c3c3c3;">3</text><text x="-12.59px" y="0px" style="font-family:'HelveticaNeue', 'Helvetica Neue';font-size:10px;">%)</text></g><text x="105.51px" y="149.335px" style="font-family:'HelveticaNeue', 'Helvetica Neue';font-size:10px;">Other</text><rect x="87.03" y="156.535" width="34.8" height="7.2" style="fill:#fff;stroke:#000;stroke-width:1px;stroke-linecap:butt;stroke-linejoin:miter;stroke-miterlimit:4;"/><text x="26.93px" y="163.735px" style="font-family:'HelveticaNeue', 'Helvetica Neue';font-size:10px;">1,042 (29%)</text><text x="127.83px" y="163.735px" style="font-family:'HelveticaNeue', 'Helvetica Neue';font-size:10px;">No r<tspan x="146.72px 152.09px " y="163.735px 163.735px ">es</tspan>ponse</text></g><path d="M360.368,102.725l-2.533,-4.524l36.727,-20.566l-2.353,-4.201l10.082,2.844l-2.844,10.081l-2.352,-4.201l-36.727,20.567Z" style="fill:none;stroke:#ac16a9;stroke-width:1px;"/></svg>